<?xml version="1.0" encoding="UTF-8" standalone="no"?>
<!-- Created with Inkscape (http://www.inkscape.org/) -->

<svg
   xmlns:dc="http://purl.org/dc/elements/1.1/"
   xmlns:cc="http://creativecommons.org/ns#"
   xmlns:rdf="http://www.w3.org/1999/02/22-rdf-syntax-ns#"
   xmlns:svg="http://www.w3.org/2000/svg"
   xmlns="http://www.w3.org/2000/svg"
   xmlns:sodipodi="http://sodipodi.sourceforge.net/DTD/sodipodi-0.dtd"
   xmlns:inkscape="http://www.inkscape.org/namespaces/inkscape"
   id="svg3020"
   version="1.1"
   inkscape:version="0.48.4 r9939"
   width="1323.6367"
   height="402.35547"
   xml:space="preserve"
   sodipodi:docname="dmp.pdf"><metadata
     id="metadata3026"><rdf:RDF><cc:Work
         rdf:about=""><dc:format>image/svg+xml</dc:format><dc:type
           rdf:resource="http://purl.org/dc/dcmitype/StillImage" /><dc:title></dc:title></cc:Work></rdf:RDF></metadata><defs
     id="defs3024"><clipPath
       clipPathUnits="userSpaceOnUse"
       id="clipPath3038"><path
         d="m 47.309375,26.684375 1004.400025,0 0,287.999995 -1004.400025,0 0,-287.999995 z"
         id="path3040" /></clipPath><clipPath
       clipPathUnits="userSpaceOnUse"
       id="clipPath3048"><path
         d="m 47.309375,26.684375 1004.400025,0 0,287.999995 -1004.400025,0 0,-287.999995 z"
         id="path3050" /></clipPath><clipPath
       clipPathUnits="userSpaceOnUse"
       id="clipPath3058"><path
         d="m 47.309375,26.684375 1004.400025,0 0,287.999995 -1004.400025,0 0,-287.999995 z"
         id="path3060" /></clipPath><clipPath
       clipPathUnits="userSpaceOnUse"
       id="clipPath3068"><path
         d="m 47.309375,26.684375 1004.400025,0 0,287.999995 -1004.400025,0 0,-287.999995 z"
         id="path3070" /></clipPath><clipPath
       clipPathUnits="userSpaceOnUse"
       id="clipPath3132"><path
         d="m -1021,-416 2702,0 0,1583 -2702,0 0,-1583 z"
         id="path3134" /></clipPath><clipPath
       clipPathUnits="userSpaceOnUse"
       id="clipPath3154"><path
         d="m -1021,-416 2702,0 0,1583 -2702,0 0,-1583 z"
         id="path3156" /></clipPath></defs><sodipodi:namedview
     pagecolor="#ffffff"
     bordercolor="#666666"
     borderopacity="1"
     objecttolerance="10"
     gridtolerance="10"
     guidetolerance="10"
     inkscape:pageopacity="0"
     inkscape:pageshadow="2"
     inkscape:window-width="1920"
     inkscape:window-height="1003"
     id="namedview3022"
     showgrid="false"
     inkscape:zoom="1.3258925"
     inkscape:cx="674.30476"
     inkscape:cy="171.00938"
     inkscape:window-x="0"
     inkscape:window-y="24"
     inkscape:window-maximized="1"
     inkscape:current-layer="g3028" /><g
     id="g3028"
     inkscape:groupmode="layer"
     inkscape:label="dmp"
     transform="matrix(1.25,0,0,-1.25,0,402.35547)"><path
       d="m 0,0 1058.9094,0 0,321.88437 L 0,321.88437 0,0 z"
       style="fill:#ffffff;fill-opacity:1;fill-rule:nonzero;stroke:none"
       id="path3030" /><path
       d="m 47.309375,26.684375 1004.400025,0 0,287.999995 -1004.400025,0 0,-287.999995 z"
       style="fill:#ffffff;fill-opacity:1;fill-rule:nonzero;stroke:none"
       id="path3032" /><g
       id="g3034"><g
         id="g3036"
         clip-path="url(#clipPath3038)"><path
           d="m 47.309375,145.52968 20.497959,-17.93329 20.497959,-12.55455 20.497957,-8.5563 20.49796,-5.592 20.49796,-3.401794 20.49796,-1.790817 20.49796,-0.613009 20.49796,0.241142 20.49796,0.853721 20.49796,1.28624 20.49796,1.584792 20.49796,1.783905 20.49795,1.90947 20.49796,1.98224 20.49796,2.04475 20.49796,2.52059 20.49796,7.24296 20.49796,22.54729 20.49796,26.45829 20.49796,20.85617 20.49796,15.06585 20.49796,10.51464 20.49796,7.09395 20.49796,4.55259 20.49795,2.67561 20.49796,1.29699 20.49796,0.2913 20.49796,-0.43576 20.49796,-0.95489 20.49796,-1.31913 20.49796,-1.56819 20.49796,-1.73183 20.49796,-1.83233 20.49796,-1.88638 20.49796,-1.90642 20.49796,-1.90179 20.49795,-1.87943 20.49796,-1.84455 20.49796,-1.80098 20.49796,-1.75161 20.49796,-1.69854 20.49796,-1.64334 20.49796,-1.58717 20.49796,-1.53086 20.49796,-1.475 20.49796,-1.42003 20.498,-1.36626 20.4979,-1.31388 20.498,-1.26302"
           style="fill:none;stroke:#0000ff;stroke-opacity:1;stroke-width:3;stroke-linecap:square;stroke-linejoin:round;stroke-miterlimit:10;stroke-dasharray:none"
           id="path3042" /></g></g><g
       id="g3044"><g
         id="g3046"
         clip-path="url(#clipPath3048)"><path
           d="m 47.309375,130.11464 20.497959,-29.25238 20.497959,-20.811344 20.497957,-14.525694 20.49796,-9.854766 20.49796,-6.393152 20.49796,-3.836857 20.49796,-1.957957 20.49796,-0.585568 20.49796,0.408406 20.49796,1.119984 20.49796,1.621121 20.49796,1.965728 20.49795,2.194229 20.49796,2.337924 20.49796,2.441038 20.49796,2.838063 20.49796,6.484601 20.49796,18.2597 20.49796,21.259894 20.49796,16.93444 20.49796,12.45958 20.49796,8.93498 20.49796,6.27816 20.49796,4.29668 20.49795,2.82575 20.49796,1.73811 20.49796,0.93751 20.49796,0.35169 20.49796,-0.0736 20.49796,-0.37914 20.49796,-0.59532 20.49796,-0.745 20.49796,-0.84533 20.49796,-0.90911 20.49796,-0.94595 20.49796,-0.963 20.49795,-0.96566 20.49796,-0.95792 20.49796,-0.94276 20.49796,-0.92241 20.49796,-0.89855 20.49796,-0.87238 20.49796,-0.84481 20.49796,-0.81651 20.49796,-0.78797 20.49796,-0.75955 20.498,-0.73149 20.4979,-0.70396 20.498,-0.67711"
           style="fill:none;stroke:#008000;stroke-opacity:1;stroke-width:3;stroke-linecap:square;stroke-linejoin:round;stroke-miterlimit:10;stroke-dasharray:none"
           id="path3052" /></g></g><g
       id="g3054"><g
         id="g3056"
         clip-path="url(#clipPath3058)"><path
           d="m 47.309375,86.572541 20.497959,-46.797257 20.497959,0 20.497957,0 20.49796,0 20.49796,0 20.49796,0 20.49796,0 20.49796,0 20.49796,0 20.49796,0 20.49796,0 20.49796,0 20.49795,0 20.49796,0 20.49796,0 20.49796,0 20.49796,0 20.49796,0 20.49796,0 20.49796,12.306222 20.49796,21.960878 20.49796,16.048497 20.49796,11.581499 20.49796,8.2398 20.49795,5.74924 20.49796,3.89797 20.49796,2.52594 20.49796,1.51275 20.49796,0.76812 20.49796,0.22429 20.49796,-0.16952 20.49796,-0.45135 20.49796,-0.64977 20.49796,-0.78613 20.49796,-0.87645 20.49796,-0.93271 20.49795,-0.9639 20.49796,-0.97671 20.49796,-0.97616 20.49796,-0.96602 20.49796,-0.94905 20.49796,-0.92734 20.49796,-0.90243 20.49796,-0.87548 20.49796,-0.84732 20.49796,-0.81857 20.498,-0.78969 20.4979,-0.76098 20.498,-0.73272"
           style="fill:none;stroke:#ff0000;stroke-opacity:1;stroke-width:3;stroke-linecap:square;stroke-linejoin:round;stroke-miterlimit:10;stroke-dasharray:none"
           id="path3062" /></g></g><g
       id="g3064"><g
         id="g3066"
         clip-path="url(#clipPath3068)"><path
           d="m 47.309375,227.0711 20.497959,38.8144 20.497959,25.7742 20.497957,9.93377 20.49796,0 20.49796,0 20.49796,0 20.49796,0 20.49796,0 20.49796,0 20.49796,-1.16595 20.49796,-7.48274 20.49796,-7.83035 20.49795,-8.00231 20.49796,-8.0462 20.49796,-7.99903 20.49796,-7.91085 20.49796,-8.01967 20.49796,-8.70146 20.49796,-8.71247 20.49796,-8.16787 20.49796,-7.60572 20.49796,-7.1117 20.49796,-6.68267 20.49796,-6.30652 20.49795,-5.97253 20.49796,-5.6723 20.49796,-5.39942 20.49796,-5.14894 20.49796,-4.9171 20.49796,-4.70101 20.49796,-4.49842 20.49796,-4.30756 20.49796,-4.12707 20.49796,-3.95585 20.49796,-3.793 20.49796,-3.63784 20.49795,-3.48973 20.49796,-3.34819 20.49796,-3.21281 20.49796,-3.08321 20.49796,-2.95906 20.49796,-2.84008 20.49796,-2.72602 20.49796,-2.61663 20.49796,-2.5117 20.49796,-2.41105 20.498,-2.31445 20.4979,-2.22177 20.498,-2.132814"
           style="fill:none;stroke:#00bfbf;stroke-opacity:1;stroke-width:3;stroke-linecap:square;stroke-linejoin:round;stroke-miterlimit:10;stroke-dasharray:none"
           id="path3072" /></g></g><g
       id="g3074"><path
         d="m 47.309375,26.684375 0,4"
         style="fill:#000000;fill-opacity:1;fill-rule:nonzero;stroke:#000000;stroke-opacity:1;stroke-width:0.5;stroke-linecap:butt;stroke-linejoin:round;stroke-miterlimit:10;stroke-dasharray:none"
         id="path3076" /><path
         d="m 47.309375,314.68437 0,-4"
         style="fill:#000000;fill-opacity:1;fill-rule:nonzero;stroke:#000000;stroke-opacity:1;stroke-width:0.5;stroke-linecap:butt;stroke-linejoin:round;stroke-miterlimit:10;stroke-dasharray:none"
         id="path3078" /><text
         transform="matrix(1,0,0,-1,43.278125,10.528125)"
         id="text3080"><tspan
           style="fill:#000000;fill-opacity:1;fill-rule:nonzero;stroke:none;font-family:DejaVu Sans;font-variant:normal;font-weight:normal;font-size:16;writing-mode:lr;-inkscape-font-specification:DejaVuSans"
           x="0"
           y="0"
           id="tspan3082">0</tspan></text>
<path
         d="m 252.28897,26.684375 0,4"
         style="fill:#000000;fill-opacity:1;fill-rule:nonzero;stroke:#000000;stroke-opacity:1;stroke-width:0.5;stroke-linecap:butt;stroke-linejoin:round;stroke-miterlimit:10;stroke-dasharray:none"
         id="path3084" /><path
         d="m 252.28897,314.68437 0,-4"
         style="fill:#000000;fill-opacity:1;fill-rule:nonzero;stroke:#000000;stroke-opacity:1;stroke-width:0.5;stroke-linecap:butt;stroke-linejoin:round;stroke-miterlimit:10;stroke-dasharray:none"
         id="path3086" /><text
         transform="matrix(1,0,0,-1,243.51553,10.528125)"
         id="text3088"><tspan
           style="fill:#000000;fill-opacity:1;fill-rule:nonzero;stroke:none;font-family:DejaVu Sans;font-variant:normal;font-weight:normal;font-size:16;writing-mode:lr;-inkscape-font-specification:DejaVuSans"
           x="0 10.176"
           y="0"
           sodipodi:role="line"
           id="tspan3090">10</tspan></text>
<path
         d="m 457.26856,26.684375 0,4"
         style="fill:#000000;fill-opacity:1;fill-rule:nonzero;stroke:#000000;stroke-opacity:1;stroke-width:0.5;stroke-linecap:butt;stroke-linejoin:round;stroke-miterlimit:10;stroke-dasharray:none"
         id="path3092" /><path
         d="m 457.26856,314.68437 0,-4"
         style="fill:#000000;fill-opacity:1;fill-rule:nonzero;stroke:#000000;stroke-opacity:1;stroke-width:0.5;stroke-linecap:butt;stroke-linejoin:round;stroke-miterlimit:10;stroke-dasharray:none"
         id="path3094" /><text
         transform="matrix(1,0,0,-1,448.19825,10.528125)"
         id="text3096"><tspan
           style="fill:#000000;fill-opacity:1;fill-rule:nonzero;stroke:none;font-family:DejaVu Sans;font-variant:normal;font-weight:normal;font-size:16;writing-mode:lr;-inkscape-font-specification:DejaVuSans"
           x="0 10.176"
           y="0"
           sodipodi:role="line"
           id="tspan3098">20</tspan></text>
<path
         d="m 662.24815,26.684375 0,4"
         style="fill:#000000;fill-opacity:1;fill-rule:nonzero;stroke:#000000;stroke-opacity:1;stroke-width:0.5;stroke-linecap:butt;stroke-linejoin:round;stroke-miterlimit:10;stroke-dasharray:none"
         id="path3100" /><path
         d="m 662.24815,314.68437 0,-4"
         style="fill:#000000;fill-opacity:1;fill-rule:nonzero;stroke:#000000;stroke-opacity:1;stroke-width:0.5;stroke-linecap:butt;stroke-linejoin:round;stroke-miterlimit:10;stroke-dasharray:none"
         id="path3102" /><text
         transform="matrix(1,0,0,-1,653.20128,10.528125)"
         id="text3104"><tspan
           style="fill:#000000;fill-opacity:1;fill-rule:nonzero;stroke:none;font-family:DejaVu Sans;font-variant:normal;font-weight:normal;font-size:16;writing-mode:lr;-inkscape-font-specification:DejaVuSans"
           x="0 10.176"
           y="0"
           sodipodi:role="line"
           id="tspan3106">30</tspan></text>
<path
         d="m 867.22774,26.684375 0,4"
         style="fill:#000000;fill-opacity:1;fill-rule:nonzero;stroke:#000000;stroke-opacity:1;stroke-width:0.5;stroke-linecap:butt;stroke-linejoin:round;stroke-miterlimit:10;stroke-dasharray:none"
         id="path3108" /><path
         d="m 867.22774,314.68437 0,-4"
         style="fill:#000000;fill-opacity:1;fill-rule:nonzero;stroke:#000000;stroke-opacity:1;stroke-width:0.5;stroke-linecap:butt;stroke-linejoin:round;stroke-miterlimit:10;stroke-dasharray:none"
         id="path3110" /><text
         transform="matrix(1,0,0,-1,857.96212,10.528125)"
         id="text3112"><tspan
           style="fill:#000000;fill-opacity:1;fill-rule:nonzero;stroke:none;font-family:DejaVu Sans;font-variant:normal;font-weight:normal;font-size:16;writing-mode:lr;-inkscape-font-specification:DejaVuSans"
           x="0 10.176"
           y="0"
           sodipodi:role="line"
           id="tspan3114">40</tspan></text>
<path
         d="m 47.309375,39.775284 4,0"
         style="fill:#000000;fill-opacity:1;fill-rule:nonzero;stroke:#000000;stroke-opacity:1;stroke-width:0.5;stroke-linecap:butt;stroke-linejoin:round;stroke-miterlimit:10;stroke-dasharray:none"
         id="path3116" /><path
         d="m 1051.7094,39.775284 -4,0"
         style="fill:#000000;fill-opacity:1;fill-rule:nonzero;stroke:#000000;stroke-opacity:1;stroke-width:0.5;stroke-linecap:butt;stroke-linejoin:round;stroke-miterlimit:10;stroke-dasharray:none"
         id="path3118" /><g
         id="g3120"
         transform="translate(7.2,35.361222)"><text
           transform="matrix(1,0,0,-1,13.40625,0)"
           id="text3122"><tspan
             style="fill:#000000;fill-opacity:1;fill-rule:nonzero;stroke:none;font-family:DejaVu Sans;font-variant:normal;font-weight:normal;font-size:16;writing-mode:lr;-inkscape-font-specification:DejaVuSans"
             x="0 10.176 15.264"
             y="0"
             sodipodi:role="line"
             id="tspan3124">1.0</tspan></text>
<g
           id="g3126"
           transform="scale(0.016,0.016)"><g
             id="g3128"><g
               id="g3130"
               clip-path="url(#clipPath3132)"><path
                 d="m 106,355 626,0 0,-83 -626,0 0,83"
                 style="fill:#000000;fill-opacity:1;fill-rule:nonzero;stroke:none"
                 id="path3136" /></g></g></g></g><path
         d="m 47.309375,105.22983 4,0"
         style="fill:#000000;fill-opacity:1;fill-rule:nonzero;stroke:#000000;stroke-opacity:1;stroke-width:0.5;stroke-linecap:butt;stroke-linejoin:round;stroke-miterlimit:10;stroke-dasharray:none"
         id="path3138" /><path
         d="m 1051.7094,105.22983 -4,0"
         style="fill:#000000;fill-opacity:1;fill-rule:nonzero;stroke:#000000;stroke-opacity:1;stroke-width:0.5;stroke-linecap:butt;stroke-linejoin:round;stroke-miterlimit:10;stroke-dasharray:none"
         id="path3140" /><g
         id="g3142"
         transform="translate(7.54375,100.81577)"><text
           transform="matrix(1,0,0,-1,13.40625,0)"
           id="text3144"><tspan
             style="fill:#000000;fill-opacity:1;fill-rule:nonzero;stroke:none;font-family:DejaVu Sans;font-variant:normal;font-weight:normal;font-size:16;writing-mode:lr;-inkscape-font-specification:DejaVuSans"
             x="0 10.176 15.264"
             y="0"
             sodipodi:role="line"
             id="tspan3146">0.5</tspan></text>
<g
           id="g3148"
           transform="scale(0.016,0.016)"><g
             id="g3150"><g
               id="g3152"
               clip-path="url(#clipPath3154)"><path
                 d="m 106,355 626,0 0,-83 -626,0 0,83"
                 style="fill:#000000;fill-opacity:1;fill-rule:nonzero;stroke:none"
                 id="path3158" /></g></g></g></g><path
         d="m 47.309375,170.68437 4,0"
         style="fill:#000000;fill-opacity:1;fill-rule:nonzero;stroke:#000000;stroke-opacity:1;stroke-width:0.5;stroke-linecap:butt;stroke-linejoin:round;stroke-miterlimit:10;stroke-dasharray:none"
         id="path3160" /><path
         d="m 1051.7094,170.68437 -4,0"
         style="fill:#000000;fill-opacity:1;fill-rule:nonzero;stroke:#000000;stroke-opacity:1;stroke-width:0.5;stroke-linecap:butt;stroke-linejoin:round;stroke-miterlimit:10;stroke-dasharray:none"
         id="path3162" /><text
         transform="matrix(1,0,0,-1,19.965625,166.27031)"
         id="text3164"><tspan
           style="fill:#000000;fill-opacity:1;fill-rule:nonzero;stroke:none;font-family:DejaVu Sans;font-variant:normal;font-weight:normal;font-size:16;writing-mode:lr;-inkscape-font-specification:DejaVuSans"
           x="0 10.176 15.264"
           y="0"
           sodipodi:role="line"
           id="tspan3166">0.0</tspan></text>
<path
         d="m 47.309375,236.13892 4,0"
         style="fill:#000000;fill-opacity:1;fill-rule:nonzero;stroke:#000000;stroke-opacity:1;stroke-width:0.5;stroke-linecap:butt;stroke-linejoin:round;stroke-miterlimit:10;stroke-dasharray:none"
         id="path3168" /><path
         d="m 1051.7094,236.13892 -4,0"
         style="fill:#000000;fill-opacity:1;fill-rule:nonzero;stroke:#000000;stroke-opacity:1;stroke-width:0.5;stroke-linecap:butt;stroke-linejoin:round;stroke-miterlimit:10;stroke-dasharray:none"
         id="path3170" /><text
         transform="matrix(1,0,0,-1,20.309375,231.72486)"
         id="text3172"><tspan
           style="fill:#000000;fill-opacity:1;fill-rule:nonzero;stroke:none;font-family:DejaVu Sans;font-variant:normal;font-weight:normal;font-size:16;writing-mode:lr;-inkscape-font-specification:DejaVuSans"
           x="0 10.176 15.264"
           y="0"
           sodipodi:role="line"
           id="tspan3174">0.5</tspan></text>
<path
         d="m 47.309375,301.59347 4,0"
         style="fill:#000000;fill-opacity:1;fill-rule:nonzero;stroke:#000000;stroke-opacity:1;stroke-width:0.5;stroke-linecap:butt;stroke-linejoin:round;stroke-miterlimit:10;stroke-dasharray:none"
         id="path3176" /><path
         d="m 1051.7094,301.59347 -4,0"
         style="fill:#000000;fill-opacity:1;fill-rule:nonzero;stroke:#000000;stroke-opacity:1;stroke-width:0.5;stroke-linecap:butt;stroke-linejoin:round;stroke-miterlimit:10;stroke-dasharray:none"
         id="path3178" /><text
         transform="matrix(1,0,0,-1,20.66875,297.1794)"
         id="text3180"><tspan
           style="fill:#000000;fill-opacity:1;fill-rule:nonzero;stroke:none;font-family:DejaVu Sans;font-variant:normal;font-weight:normal;font-size:16;writing-mode:lr;-inkscape-font-specification:DejaVuSans"
           x="0 10.176 15.264"
           y="0"
           sodipodi:role="line"
           id="tspan3182">1.0</tspan></text>
<path
         d="m 47.309375,314.68437 1004.400025,0"
         style="fill:none;stroke:#000000;stroke-opacity:1;stroke-width:1;stroke-linecap:butt;stroke-linejoin:round;stroke-miterlimit:10;stroke-dasharray:none"
         id="path3184" /><path
         d="m 1051.7094,26.684375 0,287.999995"
         style="fill:none;stroke:#000000;stroke-opacity:1;stroke-width:1;stroke-linecap:butt;stroke-linejoin:round;stroke-miterlimit:10;stroke-dasharray:none"
         id="path3186" /><path
         d="m 47.309375,26.684375 1004.400025,0"
         style="fill:none;stroke:#000000;stroke-opacity:1;stroke-width:1;stroke-linecap:butt;stroke-linejoin:round;stroke-miterlimit:10;stroke-dasharray:none"
         id="path3188" /><path
         d="m 47.309375,26.684375 0,287.999995"
         style="fill:none;stroke:#000000;stroke-opacity:1;stroke-width:1;stroke-linecap:butt;stroke-linejoin:round;stroke-miterlimit:10;stroke-dasharray:none"
         id="path3190" /><path
         d="m 911.2375,194.59687 131.4719,0 0,111.0875 -131.4719,0 0,-111.0875 z"
         style="fill:#ffffff;fill-opacity:1;fill-rule:nonzero;stroke:#000000;stroke-opacity:1;stroke-width:1;stroke-linecap:butt;stroke-linejoin:round;stroke-miterlimit:10;stroke-dasharray:none"
         id="path3192" /><path
         d="m 923.8375,291.1125 25.2,0"
         style="fill:none;stroke:#0000ff;stroke-opacity:1;stroke-width:3;stroke-linecap:square;stroke-linejoin:round;stroke-miterlimit:10;stroke-dasharray:none"
         id="path3194" /><text
         transform="matrix(1,0,0,-1,968.8375,284.8125)"
         id="text3196"><tspan
           style="fill:#000000;fill-opacity:1;fill-rule:nonzero;stroke:none;font-family:DejaVu Sans;font-variant:normal;font-weight:normal;font-size:18;writing-mode:lr;-inkscape-font-specification:DejaVuSans"
           x="0 5.31 16.326 21.33 32.742 39.798 45.522"
           y="0"
           sodipodi:role="line"
           id="tspan3198">Joint 1</tspan></text>
<path
         d="m 923.8375,264.69062 25.2,0"
         style="fill:none;stroke:#008000;stroke-opacity:1;stroke-width:3;stroke-linecap:square;stroke-linejoin:round;stroke-miterlimit:10;stroke-dasharray:none"
         id="path3200" /><text
         transform="matrix(1,0,0,-1,968.8375,258.39062)"
         id="text3202"><tspan
           style="fill:#000000;fill-opacity:1;fill-rule:nonzero;stroke:none;font-family:DejaVu Sans;font-variant:normal;font-weight:normal;font-size:18;writing-mode:lr;-inkscape-font-specification:DejaVuSans"
           x="0 5.31 16.326 21.33 32.742 39.798 45.522"
           y="0"
           sodipodi:role="line"
           id="tspan3204">Joint 2</tspan></text>
<path
         d="m 923.8375,238.26875 25.2,0"
         style="fill:none;stroke:#ff0000;stroke-opacity:1;stroke-width:3;stroke-linecap:square;stroke-linejoin:round;stroke-miterlimit:10;stroke-dasharray:none"
         id="path3206" /><text
         transform="matrix(1,0,0,-1,968.8375,231.96875)"
         id="text3208"><tspan
           style="fill:#000000;fill-opacity:1;fill-rule:nonzero;stroke:none;font-family:DejaVu Sans;font-variant:normal;font-weight:normal;font-size:18;writing-mode:lr;-inkscape-font-specification:DejaVuSans"
           x="0 5.31 16.326 21.33 32.742 39.798 45.522"
           y="0"
           sodipodi:role="line"
           id="tspan3210">Joint 3</tspan></text>
<path
         d="m 923.8375,211.84687 25.2,0"
         style="fill:none;stroke:#00bfbf;stroke-opacity:1;stroke-width:3;stroke-linecap:square;stroke-linejoin:round;stroke-miterlimit:10;stroke-dasharray:none"
         id="path3212" /><text
         transform="matrix(1,0,0,-1,968.8375,205.54687)"
         id="text3214"><tspan
           style="fill:#000000;fill-opacity:1;fill-rule:nonzero;stroke:none;font-family:DejaVu Sans;font-variant:normal;font-weight:normal;font-size:18;writing-mode:lr;-inkscape-font-specification:DejaVuSans"
           x="0 13.95 21.348 26.352 37.782 49.212 60.282"
           y="0"
           sodipodi:role="line"
           id="tspan3216">Gripper</tspan></text>
</g><text
       xml:space="preserve"
       style="font-size:17.60000038px;font-style:normal;font-variant:normal;font-weight:normal;font-stretch:normal;text-align:start;line-height:125%;letter-spacing:0px;word-spacing:0px;writing-mode:lr-tb;text-anchor:start;fill:#000000;fill-opacity:1;stroke:none;font-family:Sans;-inkscape-font-specification:Sans"
       x="943.66626"
       y="-7.2403989"
       id="text3218"
       sodipodi:linespacing="125%"
       transform="scale(1,-1)"><tspan
         sodipodi:role="line"
         id="tspan3220"
         x="943.66626"
         y="-7.2403989"
         style="font-size:22.39999962px;font-style:normal;font-variant:normal;font-weight:normal;font-stretch:normal;text-align:start;line-height:125%;writing-mode:lr-tb;text-anchor:start;font-family:Sans;-inkscape-font-specification:Sans">Timesteps</tspan></text>
</g></svg>