<?xml version="1.0" encoding="UTF-8" standalone="no"?>
<!-- Created with Inkscape (http://www.inkscape.org/) -->

<svg
   xmlns:dc="http://purl.org/dc/elements/1.1/"
   xmlns:cc="http://creativecommons.org/ns#"
   xmlns:rdf="http://www.w3.org/1999/02/22-rdf-syntax-ns#"
   xmlns:svg="http://www.w3.org/2000/svg"
   xmlns="http://www.w3.org/2000/svg"
   xmlns:sodipodi="http://sodipodi.sourceforge.net/DTD/sodipodi-0.dtd"
   xmlns:inkscape="http://www.inkscape.org/namespaces/inkscape"
   id="svg2"
   version="1.1"
   inkscape:version="0.48.4 r9939"
   width="855"
   height="567.28125"
   xml:space="preserve"
   sodipodi:docname="mvt-32.pdf"><metadata
     id="metadata8"><rdf:RDF><cc:Work
         rdf:about=""><dc:format>image/svg+xml</dc:format><dc:type
           rdf:resource="http://purl.org/dc/dcmitype/StillImage" /><dc:title></dc:title></cc:Work></rdf:RDF></metadata><defs
     id="defs6"><clipPath
       clipPathUnits="userSpaceOnUse"
       id="clipPath20"><path
         d="m 7.2,7.2 669.6,0 0,439.425 -669.6,0 L 7.2,7.2 z"
         id="path22" /></clipPath><clipPath
       clipPathUnits="userSpaceOnUse"
       id="clipPath30"><path
         d="m 7.2,7.2 669.6,0 0,439.425 -669.6,0 L 7.2,7.2 z"
         id="path32" /></clipPath><clipPath
       clipPathUnits="userSpaceOnUse"
       id="clipPath40"><path
         d="m 7.2,7.2 669.6,0 0,439.425 -669.6,0 L 7.2,7.2 z"
         id="path42" /></clipPath><clipPath
       clipPathUnits="userSpaceOnUse"
       id="clipPath50"><path
         d="m 7.2,7.2 669.6,0 0,439.425 -669.6,0 L 7.2,7.2 z"
         id="path52" /></clipPath><clipPath
       clipPathUnits="userSpaceOnUse"
       id="clipPath60"><path
         d="m 7.2,7.2 669.6,0 0,439.425 -669.6,0 L 7.2,7.2 z"
         id="path62" /></clipPath><clipPath
       clipPathUnits="userSpaceOnUse"
       id="clipPath70"><path
         d="m 7.2,7.2 669.6,0 0,439.425 -669.6,0 L 7.2,7.2 z"
         id="path72" /></clipPath><clipPath
       clipPathUnits="userSpaceOnUse"
       id="clipPath80"><path
         d="m 7.2,7.2 669.6,0 0,439.425 -669.6,0 L 7.2,7.2 z"
         id="path82" /></clipPath><clipPath
       clipPathUnits="userSpaceOnUse"
       id="clipPath90"><path
         d="m 7.2,7.2 669.6,0 0,439.425 -669.6,0 L 7.2,7.2 z"
         id="path92" /></clipPath><clipPath
       clipPathUnits="userSpaceOnUse"
       id="clipPath100"><path
         d="m 7.2,7.2 669.6,0 0,439.425 -669.6,0 L 7.2,7.2 z"
         id="path102" /></clipPath><clipPath
       clipPathUnits="userSpaceOnUse"
       id="clipPath110"><path
         d="m 7.2,7.2 669.6,0 0,439.425 -669.6,0 L 7.2,7.2 z"
         id="path112" /></clipPath><clipPath
       clipPathUnits="userSpaceOnUse"
       id="clipPath120"><path
         d="m 7.2,7.2 669.6,0 0,439.425 -669.6,0 L 7.2,7.2 z"
         id="path122" /></clipPath><clipPath
       clipPathUnits="userSpaceOnUse"
       id="clipPath130"><path
         d="m 7.2,7.2 669.6,0 0,439.425 -669.6,0 L 7.2,7.2 z"
         id="path132" /></clipPath><clipPath
       clipPathUnits="userSpaceOnUse"
       id="clipPath140"><path
         d="m 7.2,7.2 669.6,0 0,439.425 -669.6,0 L 7.2,7.2 z"
         id="path142" /></clipPath><clipPath
       clipPathUnits="userSpaceOnUse"
       id="clipPath150"><path
         d="m -6.25,-6.25 12.5,0 0,12.5 -12.5,0 0,-12.5 z"
         id="path152" /></clipPath><clipPath
       clipPathUnits="userSpaceOnUse"
       id="clipPath160"><path
         d="m 7.2,7.2 669.6,0 0,439.425 -669.6,0 L 7.2,7.2 z"
         id="path162" /></clipPath><clipPath
       clipPathUnits="userSpaceOnUse"
       id="clipPath170"><path
         d="m -6.25,-6.25 12.5,0 0,12.5 -12.5,0 0,-12.5 z"
         id="path172" /></clipPath><clipPath
       clipPathUnits="userSpaceOnUse"
       id="clipPath180"><path
         d="m 7.2,7.2 669.6,0 0,439.425 -669.6,0 L 7.2,7.2 z"
         id="path182" /></clipPath><clipPath
       clipPathUnits="userSpaceOnUse"
       id="clipPath190"><path
         d="m -6.25,-6.25 12.5,0 0,12.5 -12.5,0 0,-12.5 z"
         id="path192" /></clipPath><clipPath
       clipPathUnits="userSpaceOnUse"
       id="clipPath200"><path
         d="m 7.2,7.2 669.6,0 0,439.425 -669.6,0 L 7.2,7.2 z"
         id="path202" /></clipPath><clipPath
       clipPathUnits="userSpaceOnUse"
       id="clipPath210"><path
         d="m -2.25,-2.25 4.5,0 0,4.5 -4.5,0 0,-4.5 z"
         id="path212" /></clipPath><clipPath
       clipPathUnits="userSpaceOnUse"
       id="clipPath220"><path
         d="m 7.2,7.2 669.6,0 0,439.425 -669.6,0 L 7.2,7.2 z"
         id="path222" /></clipPath><clipPath
       clipPathUnits="userSpaceOnUse"
       id="clipPath230"><path
         d="m -6.25,-6.25 12.5,0 0,12.5 -12.5,0 0,-12.5 z"
         id="path232" /></clipPath><clipPath
       clipPathUnits="userSpaceOnUse"
       id="clipPath240"><path
         d="m 7.2,7.2 669.6,0 0,439.425 -669.6,0 L 7.2,7.2 z"
         id="path242" /></clipPath><clipPath
       clipPathUnits="userSpaceOnUse"
       id="clipPath250"><path
         d="m 7.2,7.2 669.6,0 0,439.425 -669.6,0 L 7.2,7.2 z"
         id="path252" /></clipPath><clipPath
       clipPathUnits="userSpaceOnUse"
       id="clipPath260"><path
         d="m -6.25,-6.25 12.5,0 0,12.5 -12.5,0 0,-12.5 z"
         id="path262" /></clipPath><clipPath
       clipPathUnits="userSpaceOnUse"
       id="clipPath270"><path
         d="m 7.2,7.2 669.6,0 0,439.425 -669.6,0 L 7.2,7.2 z"
         id="path272" /></clipPath><clipPath
       clipPathUnits="userSpaceOnUse"
       id="clipPath280"><path
         d="m -6.25,-6.25 12.5,0 0,12.5 -12.5,0 0,-12.5 z"
         id="path282" /></clipPath><clipPath
       clipPathUnits="userSpaceOnUse"
       id="clipPath290"><path
         d="m 7.2,7.2 669.6,0 0,439.425 -669.6,0 L 7.2,7.2 z"
         id="path292" /></clipPath><clipPath
       clipPathUnits="userSpaceOnUse"
       id="clipPath300"><path
         d="m 7.2,7.2 669.6,0 0,439.425 -669.6,0 L 7.2,7.2 z"
         id="path302" /></clipPath><clipPath
       clipPathUnits="userSpaceOnUse"
       id="clipPath310"><path
         d="m -6.25,-6.25 12.5,0 0,12.5 -12.5,0 0,-12.5 z"
         id="path312" /></clipPath><clipPath
       clipPathUnits="userSpaceOnUse"
       id="clipPath320"><path
         d="m 7.2,7.2 669.6,0 0,439.425 -669.6,0 L 7.2,7.2 z"
         id="path322" /></clipPath><clipPath
       clipPathUnits="userSpaceOnUse"
       id="clipPath330"><path
         d="m -6.25,-6.25 12.5,0 0,12.5 -12.5,0 0,-12.5 z"
         id="path332" /></clipPath></defs><sodipodi:namedview
     pagecolor="#ffffff"
     bordercolor="#666666"
     borderopacity="1"
     objecttolerance="10"
     gridtolerance="10"
     guidetolerance="10"
     inkscape:pageopacity="0"
     inkscape:pageshadow="2"
     inkscape:window-width="640"
     inkscape:window-height="480"
     id="namedview4"
     showgrid="false"
     inkscape:zoom="1.1512195"
     inkscape:cx="546.55747"
     inkscape:cy="135.20172"
     inkscape:window-x="2611"
     inkscape:window-y="108"
     inkscape:window-maximized="0"
     inkscape:current-layer="g10" /><g
     id="g10"
     inkscape:groupmode="layer"
     inkscape:label="mvt-32"
     transform="matrix(1.25,0,0,-1.25,0,567.28125)"><path
       d="m 0,0 684,0 0,453.825 -684,0 L 0,0 z"
       style="fill:#ffffff;fill-opacity:1;fill-rule:nonzero;stroke:none"
       id="path12" /><path
       d="m 7.2,7.2 669.6,0 0,439.425 -669.6,0 L 7.2,7.2 z"
       style="fill:#ffffff;fill-opacity:1;fill-rule:nonzero;stroke:none"
       id="path14" /><g
       id="g16"><g
         id="g18"
         clip-path="url(#clipPath20)"><path
           d="m 342,352.4625 c 2.77469,0 5.4361,1.1024 7.3981,3.0644 1.962,1.962 3.0644,4.62341 3.0644,7.3981 0,2.77469 -1.1024,5.4361 -3.0644,7.3981 -1.962,1.962 -4.62341,3.0644 -7.3981,3.0644 -2.77469,0 -5.4361,-1.1024 -7.3981,-3.0644 -1.962,-1.962 -3.0644,-4.62341 -3.0644,-7.3981 0,-2.77469 1.1024,-5.4361 3.0644,-7.3981 1.962,-1.962 4.62341,-3.0644 7.3981,-3.0644 z"
           style="fill:#bfbf00;fill-opacity:1;fill-rule:nonzero;stroke:#000000;stroke-opacity:1;stroke-width:1;stroke-linecap:butt;stroke-linejoin:round;stroke-miterlimit:10;stroke-dasharray:none"
           id="path24" /></g></g><g
       id="g26"><g
         id="g28"
         clip-path="url(#clipPath30)"><path
           d="m 28.125,90.9 41.85,0 0,41.85 -41.85,0 0,-41.85 z"
           style="fill:none;stroke:#000000;stroke-opacity:0.5;stroke-width:4;stroke-linecap:butt;stroke-linejoin:round;stroke-miterlimit:10;stroke-dasharray:none"
           id="path34" /></g></g><g
       id="g36"><g
         id="g38"
         clip-path="url(#clipPath40)"><path
           d="m 90.9,321.075 41.85,0 0,41.85 -41.85,0 0,-41.85 z"
           style="fill:none;stroke:#000000;stroke-opacity:0.5;stroke-width:4;stroke-linecap:butt;stroke-linejoin:round;stroke-miterlimit:10;stroke-dasharray:none"
           id="path44" /></g></g><g
       id="g46"><g
         id="g48"
         clip-path="url(#clipPath50)"><path
           d="m 321.075,383.85 41.85,0 0,41.85 -41.85,0 0,-41.85 z"
           style="fill:none;stroke:#000000;stroke-opacity:0.5;stroke-width:4;stroke-linecap:butt;stroke-linejoin:round;stroke-miterlimit:10;stroke-dasharray:none"
           id="path54" /></g></g><g
       id="g56"><g
         id="g58"
         clip-path="url(#clipPath60)"><path
           d="m 551.25,321.075 41.85,0 0,41.85 -41.85,0 0,-41.85 z"
           style="fill:none;stroke:#000000;stroke-opacity:0.5;stroke-width:4;stroke-linecap:butt;stroke-linejoin:round;stroke-miterlimit:10;stroke-dasharray:none"
           id="path64" /></g></g><g
       id="g66"><g
         id="g68"
         clip-path="url(#clipPath70)"><path
           d="m 614.025,90.9 41.85,0 0,41.85 -41.85,0 0,-41.85 z"
           style="fill:none;stroke:#000000;stroke-opacity:0.5;stroke-width:4;stroke-linecap:butt;stroke-linejoin:round;stroke-miterlimit:10;stroke-dasharray:none"
           id="path74" /></g></g><g
       id="g76"><g
         id="g78"
         clip-path="url(#clipPath80)"><path
           d="m 132.75,90.9 41.85,0 0,41.85 -41.85,0 0,-41.85 z"
           style="fill:none;stroke:#000000;stroke-opacity:0.5;stroke-width:4;stroke-linecap:butt;stroke-linejoin:round;stroke-miterlimit:10;stroke-dasharray:none"
           id="path84" /></g></g><g
       id="g86"><g
         id="g88"
         clip-path="url(#clipPath90)"><path
           d="m 195.525,216.45 41.85,0 0,41.85 -41.85,0 0,-41.85 z"
           style="fill:none;stroke:#000000;stroke-opacity:0.5;stroke-width:4;stroke-linecap:butt;stroke-linejoin:round;stroke-miterlimit:10;stroke-dasharray:none"
           id="path94" /></g></g><g
       id="g96"><g
         id="g98"
         clip-path="url(#clipPath100)"><path
           d="m 321.075,279.225 41.85,0 0,41.85 -41.85,0 0,-41.85 z"
           style="fill:none;stroke:#000000;stroke-opacity:0.5;stroke-width:4;stroke-linecap:butt;stroke-linejoin:round;stroke-miterlimit:10;stroke-dasharray:none"
           id="path104" /></g></g><g
       id="g106"><g
         id="g108"
         clip-path="url(#clipPath110)"><path
           d="m 446.625,216.45 41.85,0 0,41.85 -41.85,0 0,-41.85 z"
           style="fill:none;stroke:#000000;stroke-opacity:0.5;stroke-width:4;stroke-linecap:butt;stroke-linejoin:round;stroke-miterlimit:10;stroke-dasharray:none"
           id="path114" /></g></g><g
       id="g116"><g
         id="g118"
         clip-path="url(#clipPath120)"><path
           d="m 509.4,90.9 41.85,0 0,41.85 -41.85,0 0,-41.85 z"
           style="fill:none;stroke:#000000;stroke-opacity:0.5;stroke-width:4;stroke-linecap:butt;stroke-linejoin:round;stroke-miterlimit:10;stroke-dasharray:none"
           id="path124" /></g></g><g
       id="g126"><g
         id="g128"
         clip-path="url(#clipPath130)"><path
           d="m 342,111.825 -98.55959,35.10552 -48.98604,39.25645 9.37206,40.7871"
           style="fill:none;stroke:#808080;stroke-opacity:1;stroke-width:4;stroke-linecap:square;stroke-linejoin:round;stroke-miterlimit:10;stroke-dasharray:none"
           id="path134" /></g></g><g
       id="g136"><g
         id="g138"
         clip-path="url(#clipPath140)"><g
           id="g144"
           transform="translate(342,111.825)"><g
             id="g146"><g
               id="g148"
               clip-path="url(#clipPath150)"><path
                 d="m 0,-6 c 1.5912186,0 3.1174792,0.6321979 4.2426407,1.7573593 C 5.3678021,-3.1174792 6,-1.5912186 6,0 6,1.5912186 5.3678021,3.1174792 4.2426407,4.2426407 3.1174792,5.3678021 1.5912186,6 0,6 -1.5912186,6 -3.1174792,5.3678021 -4.2426407,4.2426407 -5.3678021,3.1174792 -6,1.5912186 -6,0 -6,-1.5912186 -5.3678021,-3.1174792 -4.2426407,-4.2426407 -3.1174792,-5.3678021 -1.5912186,-6 0,-6 z"
                 style="fill:#000000;fill-opacity:1;fill-rule:nonzero;stroke:#000000;stroke-opacity:1;stroke-width:0.5;stroke-linecap:butt;stroke-linejoin:round;stroke-miterlimit:10;stroke-dasharray:none"
                 id="path154" /></g></g></g></g></g><g
       id="g156"><g
         id="g158"
         clip-path="url(#clipPath160)"><g
           id="g164"
           transform="translate(243.44041,146.93052)"><g
             id="g166"><g
               id="g168"
               clip-path="url(#clipPath170)"><path
                 d="m 0,-6 c 1.5912186,0 3.1174792,0.6321979 4.2426407,1.7573593 C 5.3678021,-3.1174792 6,-1.5912186 6,0 6,1.5912186 5.3678021,3.1174792 4.2426407,4.2426407 3.1174792,5.3678021 1.5912186,6 0,6 -1.5912186,6 -3.1174792,5.3678021 -4.2426407,4.2426407 -5.3678021,3.1174792 -6,1.5912186 -6,0 -6,-1.5912186 -5.3678021,-3.1174792 -4.2426407,-4.2426407 -3.1174792,-5.3678021 -1.5912186,-6 0,-6 z"
                 style="fill:#000000;fill-opacity:1;fill-rule:nonzero;stroke:#000000;stroke-opacity:1;stroke-width:0.5;stroke-linecap:butt;stroke-linejoin:round;stroke-miterlimit:10;stroke-dasharray:none"
                 id="path174" /></g></g></g></g></g><g
       id="g176"><g
         id="g178"
         clip-path="url(#clipPath180)"><g
           id="g184"
           transform="translate(194.45437,186.18697)"><g
             id="g186"><g
               id="g188"
               clip-path="url(#clipPath190)"><path
                 d="m 0,-6 c 1.5912186,0 3.1174792,0.6321979 4.2426407,1.7573593 C 5.3678021,-3.1174792 6,-1.5912186 6,0 6,1.5912186 5.3678021,3.1174792 4.2426407,4.2426407 3.1174792,5.3678021 1.5912186,6 0,6 -1.5912186,6 -3.1174792,5.3678021 -4.2426407,4.2426407 -5.3678021,3.1174792 -6,1.5912186 -6,0 -6,-1.5912186 -5.3678021,-3.1174792 -4.2426407,-4.2426407 -3.1174792,-5.3678021 -1.5912186,-6 0,-6 z"
                 style="fill:#000000;fill-opacity:1;fill-rule:nonzero;stroke:#000000;stroke-opacity:1;stroke-width:0.5;stroke-linecap:butt;stroke-linejoin:round;stroke-miterlimit:10;stroke-dasharray:none"
                 id="path194" /></g></g></g></g></g><g
       id="g196"><g
         id="g198"
         clip-path="url(#clipPath200)"><g
           id="g204"
           transform="translate(203.82643,226.97407)"><g
             id="g206"><g
               id="g208"
               clip-path="url(#clipPath210)"><path
                 d="m 0,-2 c 0.5304062,0 1.0391597,0.2107326 1.4142136,0.5857864 C 1.7892674,-1.0391597 2,-0.5304062 2,0 2,0.5304062 1.7892674,1.0391597 1.4142136,1.4142136 1.0391597,1.7892674 0.5304062,2 0,2 -0.5304062,2 -1.0391597,1.7892674 -1.4142136,1.4142136 -1.7892674,1.0391597 -2,0.5304062 -2,0 -2,-0.5304062 -1.7892674,-1.0391597 -1.4142136,-1.4142136 -1.0391597,-1.7892674 -0.5304062,-2 0,-2 z"
                 style="fill:#ff0000;fill-opacity:1;fill-rule:nonzero;stroke:#000000;stroke-opacity:1;stroke-width:0.5;stroke-linecap:butt;stroke-linejoin:round;stroke-miterlimit:10;stroke-dasharray:none"
                 id="path214" /></g></g></g></g></g><g
       id="g216"><g
         id="g218"
         clip-path="url(#clipPath220)"><g
           id="g224"
           transform="translate(203.82643,226.97407)"><g
             id="g226"><g
               id="g228"
               clip-path="url(#clipPath230)"><path
                 d="m 0,-6 c 1.5912186,0 3.1174792,0.6321979 4.2426407,1.7573593 C 5.3678021,-3.1174792 6,-1.5912186 6,0 6,1.5912186 5.3678021,3.1174792 4.2426407,4.2426407 3.1174792,5.3678021 1.5912186,6 0,6 -1.5912186,6 -3.1174792,5.3678021 -4.2426407,4.2426407 -5.3678021,3.1174792 -6,1.5912186 -6,0 -6,-1.5912186 -5.3678021,-3.1174792 -4.2426407,-4.2426407 -3.1174792,-5.3678021 -1.5912186,-6 0,-6 z"
                 style="fill:#008000;fill-opacity:1;fill-rule:nonzero;stroke:#000000;stroke-opacity:1;stroke-width:0.5;stroke-linecap:butt;stroke-linejoin:round;stroke-miterlimit:10;stroke-dasharray:none"
                 id="path234" /></g></g></g></g></g><g
       id="g236"><g
         id="g238"
         clip-path="url(#clipPath240)"><path
           d="M 203.82643,226.97407 231.9426,349.33535"
           style="fill:none;stroke:#0000ff;stroke-opacity:1;stroke-width:6;stroke-linecap:square;stroke-linejoin:round;stroke-miterlimit:10;stroke-dasharray:none"
           id="path244" /></g></g><g
       id="g246"><g
         id="g248"
         clip-path="url(#clipPath250)"><g
           id="g254"
           transform="translate(203.82643,226.97407)"><g
             id="g256"><g
               id="g258"
               clip-path="url(#clipPath260)"><path
                 d="m 0,-6 c 1.5912186,0 3.1174792,0.6321979 4.2426407,1.7573593 C 5.3678021,-3.1174792 6,-1.5912186 6,0 6,1.5912186 5.3678021,3.1174792 4.2426407,4.2426407 3.1174792,5.3678021 1.5912186,6 0,6 -1.5912186,6 -3.1174792,5.3678021 -4.2426407,4.2426407 -5.3678021,3.1174792 -6,1.5912186 -6,0 -6,-1.5912186 -5.3678021,-3.1174792 -4.2426407,-4.2426407 -3.1174792,-5.3678021 -1.5912186,-6 0,-6 z"
                 style="fill:#ff0000;fill-opacity:1;fill-rule:nonzero;stroke:#000000;stroke-opacity:1;stroke-width:0.5;stroke-linecap:butt;stroke-linejoin:round;stroke-miterlimit:10;stroke-dasharray:none"
                 id="path264" /></g></g></g></g></g><g
       id="g266"><g
         id="g268"
         clip-path="url(#clipPath270)"><g
           id="g274"
           transform="translate(231.9426,349.33535)"><g
             id="g276"><g
               id="g278"
               clip-path="url(#clipPath280)"><path
                 d="m 0,-6 c 1.5912186,0 3.1174792,0.6321979 4.2426407,1.7573593 C 5.3678021,-3.1174792 6,-1.5912186 6,0 6,1.5912186 5.3678021,3.1174792 4.2426407,4.2426407 3.1174792,5.3678021 1.5912186,6 0,6 -1.5912186,6 -3.1174792,5.3678021 -4.2426407,4.2426407 -5.3678021,3.1174792 -6,1.5912186 -6,0 -6,-1.5912186 -5.3678021,-3.1174792 -4.2426407,-4.2426407 -3.1174792,-5.3678021 -1.5912186,-6 0,-6 z"
                 style="fill:#008000;fill-opacity:1;fill-rule:nonzero;stroke:#000000;stroke-opacity:1;stroke-width:0.5;stroke-linecap:butt;stroke-linejoin:round;stroke-miterlimit:10;stroke-dasharray:none"
                 id="path284" /></g></g></g></g></g><g
       id="g286"><g
         id="g288"
         clip-path="url(#clipPath290)"><path
           d="m 498.9375,164.1375 44.38863,44.38863"
           style="fill:none;stroke:#0000ff;stroke-opacity:1;stroke-width:6;stroke-linecap:square;stroke-linejoin:round;stroke-miterlimit:10;stroke-dasharray:none"
           id="path294" /></g></g><g
       id="g296"><g
         id="g298"
         clip-path="url(#clipPath300)"><g
           id="g304"
           transform="translate(498.9375,164.1375)"><g
             id="g306"><g
               id="g308"
               clip-path="url(#clipPath310)"><path
                 d="m 0,-6 c 1.5912186,0 3.1174792,0.6321979 4.2426407,1.7573593 C 5.3678021,-3.1174792 6,-1.5912186 6,0 6,1.5912186 5.3678021,3.1174792 4.2426407,4.2426407 3.1174792,5.3678021 1.5912186,6 0,6 -1.5912186,6 -3.1174792,5.3678021 -4.2426407,4.2426407 -5.3678021,3.1174792 -6,1.5912186 -6,0 -6,-1.5912186 -5.3678021,-3.1174792 -4.2426407,-4.2426407 -3.1174792,-5.3678021 -1.5912186,-6 0,-6 z"
                 style="fill:#ff0000;fill-opacity:1;fill-rule:nonzero;stroke:#000000;stroke-opacity:1;stroke-width:0.5;stroke-linecap:butt;stroke-linejoin:round;stroke-miterlimit:10;stroke-dasharray:none"
                 id="path314" /></g></g></g></g></g><g
       id="g316"><g
         id="g318"
         clip-path="url(#clipPath320)"><g
           id="g324"
           transform="translate(543.32613,208.52613)"><g
             id="g326"><g
               id="g328"
               clip-path="url(#clipPath330)"><path
                 d="m 0,-6 c 1.5912186,0 3.1174792,0.6321979 4.2426407,1.7573593 C 5.3678021,-3.1174792 6,-1.5912186 6,0 6,1.5912186 5.3678021,3.1174792 4.2426407,4.2426407 3.1174792,5.3678021 1.5912186,6 0,6 -1.5912186,6 -3.1174792,5.3678021 -4.2426407,4.2426407 -5.3678021,3.1174792 -6,1.5912186 -6,0 -6,-1.5912186 -5.3678021,-3.1174792 -4.2426407,-4.2426407 -3.1174792,-5.3678021 -1.5912186,-6 0,-6 z"
                 style="fill:#008000;fill-opacity:1;fill-rule:nonzero;stroke:#000000;stroke-opacity:1;stroke-width:0.5;stroke-linecap:butt;stroke-linejoin:round;stroke-miterlimit:10;stroke-dasharray:none"
                 id="path334" /></g></g></g></g></g><g
       id="g336"><path
         d="m 28.125,7.2 0,4"
         style="fill:#000000;fill-opacity:1;fill-rule:nonzero;stroke:#000000;stroke-opacity:1;stroke-width:0.5;stroke-linecap:butt;stroke-linejoin:round;stroke-miterlimit:10;stroke-dasharray:none"
         id="path338" /><path
         d="m 28.125,446.625 0,-4"
         style="fill:#000000;fill-opacity:1;fill-rule:nonzero;stroke:#000000;stroke-opacity:1;stroke-width:0.5;stroke-linecap:butt;stroke-linejoin:round;stroke-miterlimit:10;stroke-dasharray:none"
         id="path340" /><path
         d="m 132.75,7.2 0,4"
         style="fill:#000000;fill-opacity:1;fill-rule:nonzero;stroke:#000000;stroke-opacity:1;stroke-width:0.5;stroke-linecap:butt;stroke-linejoin:round;stroke-miterlimit:10;stroke-dasharray:none"
         id="path342" /><path
         d="m 132.75,446.625 0,-4"
         style="fill:#000000;fill-opacity:1;fill-rule:nonzero;stroke:#000000;stroke-opacity:1;stroke-width:0.5;stroke-linecap:butt;stroke-linejoin:round;stroke-miterlimit:10;stroke-dasharray:none"
         id="path344" /><path
         d="m 237.375,7.2 0,4"
         style="fill:#000000;fill-opacity:1;fill-rule:nonzero;stroke:#000000;stroke-opacity:1;stroke-width:0.5;stroke-linecap:butt;stroke-linejoin:round;stroke-miterlimit:10;stroke-dasharray:none"
         id="path346" /><path
         d="m 237.375,446.625 0,-4"
         style="fill:#000000;fill-opacity:1;fill-rule:nonzero;stroke:#000000;stroke-opacity:1;stroke-width:0.5;stroke-linecap:butt;stroke-linejoin:round;stroke-miterlimit:10;stroke-dasharray:none"
         id="path348" /><path
         d="m 342,7.2 0,4"
         style="fill:#000000;fill-opacity:1;fill-rule:nonzero;stroke:#000000;stroke-opacity:1;stroke-width:0.5;stroke-linecap:butt;stroke-linejoin:round;stroke-miterlimit:10;stroke-dasharray:none"
         id="path350" /><path
         d="m 342,446.625 0,-4"
         style="fill:#000000;fill-opacity:1;fill-rule:nonzero;stroke:#000000;stroke-opacity:1;stroke-width:0.5;stroke-linecap:butt;stroke-linejoin:round;stroke-miterlimit:10;stroke-dasharray:none"
         id="path352" /><path
         d="m 446.625,7.2 0,4"
         style="fill:#000000;fill-opacity:1;fill-rule:nonzero;stroke:#000000;stroke-opacity:1;stroke-width:0.5;stroke-linecap:butt;stroke-linejoin:round;stroke-miterlimit:10;stroke-dasharray:none"
         id="path354" /><path
         d="m 446.625,446.625 0,-4"
         style="fill:#000000;fill-opacity:1;fill-rule:nonzero;stroke:#000000;stroke-opacity:1;stroke-width:0.5;stroke-linecap:butt;stroke-linejoin:round;stroke-miterlimit:10;stroke-dasharray:none"
         id="path356" /><path
         d="m 551.25,7.2 0,4"
         style="fill:#000000;fill-opacity:1;fill-rule:nonzero;stroke:#000000;stroke-opacity:1;stroke-width:0.5;stroke-linecap:butt;stroke-linejoin:round;stroke-miterlimit:10;stroke-dasharray:none"
         id="path358" /><path
         d="m 551.25,446.625 0,-4"
         style="fill:#000000;fill-opacity:1;fill-rule:nonzero;stroke:#000000;stroke-opacity:1;stroke-width:0.5;stroke-linecap:butt;stroke-linejoin:round;stroke-miterlimit:10;stroke-dasharray:none"
         id="path360" /><path
         d="m 655.875,7.2 0,4"
         style="fill:#000000;fill-opacity:1;fill-rule:nonzero;stroke:#000000;stroke-opacity:1;stroke-width:0.5;stroke-linecap:butt;stroke-linejoin:round;stroke-miterlimit:10;stroke-dasharray:none"
         id="path362" /><path
         d="m 655.875,446.625 0,-4"
         style="fill:#000000;fill-opacity:1;fill-rule:nonzero;stroke:#000000;stroke-opacity:1;stroke-width:0.5;stroke-linecap:butt;stroke-linejoin:round;stroke-miterlimit:10;stroke-dasharray:none"
         id="path364" /><path
         d="m 7.2,446.625 669.6,0"
         style="fill:none;stroke:#000000;stroke-opacity:1;stroke-width:1;stroke-linecap:butt;stroke-linejoin:round;stroke-miterlimit:10;stroke-dasharray:none"
         id="path366" /><path
         d="m 676.8,7.2 0,439.425"
         style="fill:none;stroke:#000000;stroke-opacity:1;stroke-width:1;stroke-linecap:butt;stroke-linejoin:round;stroke-miterlimit:10;stroke-dasharray:none"
         id="path368" /><path
         d="m 7.2,7.2 669.6,0"
         style="fill:none;stroke:#000000;stroke-opacity:1;stroke-width:1;stroke-linecap:butt;stroke-linejoin:round;stroke-miterlimit:10;stroke-dasharray:none"
         id="path370" /><path
         d="m 7.2,7.2 0,439.425"
         style="fill:none;stroke:#000000;stroke-opacity:1;stroke-width:1;stroke-linecap:butt;stroke-linejoin:round;stroke-miterlimit:10;stroke-dasharray:none"
         id="path372" /></g><text
       xml:space="preserve"
       style="font-size:44.79999924px;font-style:normal;font-variant:normal;font-weight:normal;font-stretch:normal;text-align:start;line-height:125%;letter-spacing:0px;word-spacing:0px;writing-mode:lr-tb;text-anchor:start;fill:#000000;fill-opacity:1;stroke:none;font-family:Sans;-inkscape-font-specification:Sans"
       x="552.11017"
       y="-21.889835"
       id="text3349"
       sodipodi:linespacing="125%"
       transform="scale(1,-1)"><tspan
         sodipodi:role="line"
         id="tspan3351"
         x="552.11017"
         y="-21.889835">t=33</tspan></text>
</g></svg>