<?xml version="1.0" encoding="UTF-8" standalone="no"?>
<!-- Created with Inkscape (http://www.inkscape.org/) -->

<svg
   xmlns:dc="http://purl.org/dc/elements/1.1/"
   xmlns:cc="http://creativecommons.org/ns#"
   xmlns:rdf="http://www.w3.org/1999/02/22-rdf-syntax-ns#"
   xmlns:svg="http://www.w3.org/2000/svg"
   xmlns="http://www.w3.org/2000/svg"
   xmlns:sodipodi="http://sodipodi.sourceforge.net/DTD/sodipodi-0.dtd"
   xmlns:inkscape="http://www.inkscape.org/namespaces/inkscape"
   id="svg3020"
   version="1.1"
   inkscape:version="0.48.4 r9939"
   width="224.73359"
   height="363.08984"
   xml:space="preserve"
   sodipodi:docname="xp1-explo-obj.pdf"><metadata
     id="metadata3026"><rdf:RDF><cc:Work
         rdf:about=""><dc:format>image/svg+xml</dc:format><dc:type
           rdf:resource="http://purl.org/dc/dcmitype/StillImage" /><dc:title></dc:title></cc:Work></rdf:RDF></metadata><defs
     id="defs3024"><clipPath
       clipPathUnits="userSpaceOnUse"
       id="clipPath3038"><path
         d="m 35.246875,12.035938 137.340005,0 0,266.400002 -137.340005,0 0,-266.400002 z"
         id="path3040" /></clipPath><clipPath
       clipPathUnits="userSpaceOnUse"
       id="clipPath3056"><path
         d="m 35.246875,12.035938 137.340005,0 0,266.400002 -137.340005,0 0,-266.400002 z"
         id="path3058" /></clipPath><clipPath
       clipPathUnits="userSpaceOnUse"
       id="clipPath3074"><path
         d="m 35.246875,12.035938 137.340005,0 0,266.400002 -137.340005,0 0,-266.400002 z"
         id="path3076" /></clipPath><clipPath
       clipPathUnits="userSpaceOnUse"
       id="clipPath3092"><path
         d="m 35.246875,12.035938 137.340005,0 0,266.400002 -137.340005,0 0,-266.400002 z"
         id="path3094" /></clipPath><clipPath
       clipPathUnits="userSpaceOnUse"
       id="clipPath3110"><path
         d="m 35.246875,12.035938 137.340005,0 0,266.400002 -137.340005,0 0,-266.400002 z"
         id="path3112" /></clipPath><clipPath
       clipPathUnits="userSpaceOnUse"
       id="clipPath3128"><path
         d="m 35.246875,12.035938 137.340005,0 0,266.400002 -137.340005,0 0,-266.400002 z"
         id="path3130" /></clipPath><clipPath
       clipPathUnits="userSpaceOnUse"
       id="clipPath3146"><path
         d="m 35.246875,12.035938 137.340005,0 0,266.400002 -137.340005,0 0,-266.400002 z"
         id="path3148" /></clipPath><clipPath
       clipPathUnits="userSpaceOnUse"
       id="clipPath3164"><path
         d="m 35.246875,12.035938 137.340005,0 0,266.400002 -137.340005,0 0,-266.400002 z"
         id="path3166" /></clipPath><clipPath
       clipPathUnits="userSpaceOnUse"
       id="clipPath3172"><path
         d="m 35.246875,12.035938 137.340005,0 0,266.400002 -137.340005,0 0,-266.400002 z"
         id="path3174" /></clipPath><clipPath
       clipPathUnits="userSpaceOnUse"
       id="clipPath3182"><path
         d="m 35.246875,12.035938 137.340005,0 0,266.400002 -137.340005,0 0,-266.400002 z"
         id="path3184" /></clipPath><clipPath
       clipPathUnits="userSpaceOnUse"
       id="clipPath3192"><path
         d="m 35.246875,12.035938 137.340005,0 0,266.400002 -137.340005,0 0,-266.400002 z"
         id="path3194" /></clipPath><clipPath
       clipPathUnits="userSpaceOnUse"
       id="clipPath3202"><path
         d="m 35.246875,12.035938 137.340005,0 0,266.400002 -137.340005,0 0,-266.400002 z"
         id="path3204" /></clipPath><clipPath
       clipPathUnits="userSpaceOnUse"
       id="clipPath3212"><path
         d="m 35.246875,12.035938 137.340005,0 0,266.400002 -137.340005,0 0,-266.400002 z"
         id="path3214" /></clipPath><clipPath
       clipPathUnits="userSpaceOnUse"
       id="clipPath3220"><path
         d="m 35.246875,12.035938 137.340005,0 0,266.400002 -137.340005,0 0,-266.400002 z"
         id="path3222" /></clipPath><clipPath
       clipPathUnits="userSpaceOnUse"
       id="clipPath3230"><path
         d="m 35.246875,12.035938 137.340005,0 0,266.400002 -137.340005,0 0,-266.400002 z"
         id="path3232" /></clipPath><clipPath
       clipPathUnits="userSpaceOnUse"
       id="clipPath3240"><path
         d="m 35.246875,12.035938 137.340005,0 0,266.400002 -137.340005,0 0,-266.400002 z"
         id="path3242" /></clipPath><clipPath
       clipPathUnits="userSpaceOnUse"
       id="clipPath3250"><path
         d="m 35.246875,12.035938 137.340005,0 0,266.400002 -137.340005,0 0,-266.400002 z"
         id="path3252" /></clipPath><clipPath
       clipPathUnits="userSpaceOnUse"
       id="clipPath3260"><path
         d="m 35.246875,12.035938 137.340005,0 0,266.400002 -137.340005,0 0,-266.400002 z"
         id="path3262" /></clipPath><clipPath
       clipPathUnits="userSpaceOnUse"
       id="clipPath3268"><path
         d="m 35.246875,12.035938 137.340005,0 0,266.400002 -137.340005,0 0,-266.400002 z"
         id="path3270" /></clipPath><clipPath
       clipPathUnits="userSpaceOnUse"
       id="clipPath3278"><path
         d="m 35.246875,12.035938 137.340005,0 0,266.400002 -137.340005,0 0,-266.400002 z"
         id="path3280" /></clipPath><clipPath
       clipPathUnits="userSpaceOnUse"
       id="clipPath3288"><path
         d="m 35.246875,12.035938 137.340005,0 0,266.400002 -137.340005,0 0,-266.400002 z"
         id="path3290" /></clipPath><clipPath
       clipPathUnits="userSpaceOnUse"
       id="clipPath3298"><path
         d="m 35.246875,12.035938 137.340005,0 0,266.400002 -137.340005,0 0,-266.400002 z"
         id="path3300" /></clipPath><clipPath
       clipPathUnits="userSpaceOnUse"
       id="clipPath3308"><path
         d="m 35.246875,12.035938 137.340005,0 0,266.400002 -137.340005,0 0,-266.400002 z"
         id="path3310" /></clipPath><clipPath
       clipPathUnits="userSpaceOnUse"
       id="clipPath3316"><path
         d="m 35.246875,12.035938 137.340005,0 0,266.400002 -137.340005,0 0,-266.400002 z"
         id="path3318" /></clipPath><clipPath
       clipPathUnits="userSpaceOnUse"
       id="clipPath3326"><path
         d="m 35.246875,12.035938 137.340005,0 0,266.400002 -137.340005,0 0,-266.400002 z"
         id="path3328" /></clipPath><clipPath
       clipPathUnits="userSpaceOnUse"
       id="clipPath3336"><path
         d="m 35.246875,12.035938 137.340005,0 0,266.400002 -137.340005,0 0,-266.400002 z"
         id="path3338" /></clipPath><clipPath
       clipPathUnits="userSpaceOnUse"
       id="clipPath3346"><path
         d="m 35.246875,12.035938 137.340005,0 0,266.400002 -137.340005,0 0,-266.400002 z"
         id="path3348" /></clipPath><clipPath
       clipPathUnits="userSpaceOnUse"
       id="clipPath3356"><path
         d="m 35.246875,12.035938 137.340005,0 0,266.400002 -137.340005,0 0,-266.400002 z"
         id="path3358" /></clipPath><clipPath
       clipPathUnits="userSpaceOnUse"
       id="clipPath3364"><path
         d="m 35.246875,12.035938 137.340005,0 0,266.400002 -137.340005,0 0,-266.400002 z"
         id="path3366" /></clipPath><clipPath
       clipPathUnits="userSpaceOnUse"
       id="clipPath3374"><path
         d="m 35.246875,12.035938 137.340005,0 0,266.400002 -137.340005,0 0,-266.400002 z"
         id="path3376" /></clipPath><clipPath
       clipPathUnits="userSpaceOnUse"
       id="clipPath3384"><path
         d="m 35.246875,12.035938 137.340005,0 0,266.400002 -137.340005,0 0,-266.400002 z"
         id="path3386" /></clipPath><clipPath
       clipPathUnits="userSpaceOnUse"
       id="clipPath3394"><path
         d="m 35.246875,12.035938 137.340005,0 0,266.400002 -137.340005,0 0,-266.400002 z"
         id="path3396" /></clipPath><clipPath
       clipPathUnits="userSpaceOnUse"
       id="clipPath3404"><path
         d="m 35.246875,12.035938 137.340005,0 0,266.400002 -137.340005,0 0,-266.400002 z"
         id="path3406" /></clipPath><clipPath
       clipPathUnits="userSpaceOnUse"
       id="clipPath3412"><path
         d="m 35.246875,12.035938 137.340005,0 0,266.400002 -137.340005,0 0,-266.400002 z"
         id="path3414" /></clipPath><clipPath
       clipPathUnits="userSpaceOnUse"
       id="clipPath3422"><path
         d="m 35.246875,12.035938 137.340005,0 0,266.400002 -137.340005,0 0,-266.400002 z"
         id="path3424" /></clipPath><clipPath
       clipPathUnits="userSpaceOnUse"
       id="clipPath3432"><path
         d="m 35.246875,12.035938 137.340005,0 0,266.400002 -137.340005,0 0,-266.400002 z"
         id="path3434" /></clipPath><clipPath
       clipPathUnits="userSpaceOnUse"
       id="clipPath3442"><path
         d="m 35.246875,12.035938 137.340005,0 0,266.400002 -137.340005,0 0,-266.400002 z"
         id="path3444" /></clipPath><clipPath
       clipPathUnits="userSpaceOnUse"
       id="clipPath3452"><path
         d="m 35.246875,12.035938 137.340005,0 0,266.400002 -137.340005,0 0,-266.400002 z"
         id="path3454" /></clipPath><clipPath
       clipPathUnits="userSpaceOnUse"
       id="clipPath3462"><path
         d="m 35.246875,12.035938 137.340005,0 0,266.400002 -137.340005,0 0,-266.400002 z"
         id="path3464" /></clipPath><clipPath
       clipPathUnits="userSpaceOnUse"
       id="clipPath3472"><path
         d="m 35.246875,12.035938 137.340005,0 0,266.400002 -137.340005,0 0,-266.400002 z"
         id="path3474" /></clipPath><clipPath
       clipPathUnits="userSpaceOnUse"
       id="clipPath3480"><path
         d="m 35.246875,12.035938 137.340005,0 0,266.400002 -137.340005,0 0,-266.400002 z"
         id="path3482" /></clipPath><clipPath
       clipPathUnits="userSpaceOnUse"
       id="clipPath3488"><path
         d="m 35.246875,12.035938 137.340005,0 0,266.400002 -137.340005,0 0,-266.400002 z"
         id="path3490" /></clipPath><clipPath
       clipPathUnits="userSpaceOnUse"
       id="clipPath3496"><path
         d="m 35.246875,12.035938 137.340005,0 0,266.400002 -137.340005,0 0,-266.400002 z"
         id="path3498" /></clipPath><clipPath
       clipPathUnits="userSpaceOnUse"
       id="clipPath3506"><path
         d="m 35.246875,12.035938 137.340005,0 0,266.400002 -137.340005,0 0,-266.400002 z"
         id="path3508" /></clipPath><clipPath
       clipPathUnits="userSpaceOnUse"
       id="clipPath3516"><path
         d="m 35.246875,12.035938 137.340005,0 0,266.400002 -137.340005,0 0,-266.400002 z"
         id="path3518" /></clipPath><clipPath
       clipPathUnits="userSpaceOnUse"
       id="clipPath3526"><path
         d="m 35.246875,12.035938 137.340005,0 0,266.400002 -137.340005,0 0,-266.400002 z"
         id="path3528" /></clipPath><clipPath
       clipPathUnits="userSpaceOnUse"
       id="clipPath3534"><path
         d="m 35.246875,12.035938 137.340005,0 0,266.400002 -137.340005,0 0,-266.400002 z"
         id="path3536" /></clipPath><clipPath
       clipPathUnits="userSpaceOnUse"
       id="clipPath3542"><path
         d="m 35.246875,12.035938 137.340005,0 0,266.400002 -137.340005,0 0,-266.400002 z"
         id="path3544" /></clipPath><clipPath
       clipPathUnits="userSpaceOnUse"
       id="clipPath3550"><path
         d="m 35.246875,12.035938 137.340005,0 0,266.400002 -137.340005,0 0,-266.400002 z"
         id="path3552" /></clipPath><clipPath
       clipPathUnits="userSpaceOnUse"
       id="clipPath3560"><path
         d="m 35.246875,12.035938 137.340005,0 0,266.400002 -137.340005,0 0,-266.400002 z"
         id="path3562" /></clipPath><clipPath
       clipPathUnits="userSpaceOnUse"
       id="clipPath3570"><path
         d="m 35.246875,12.035938 137.340005,0 0,266.400002 -137.340005,0 0,-266.400002 z"
         id="path3572" /></clipPath><clipPath
       clipPathUnits="userSpaceOnUse"
       id="clipPath3580"><path
         d="m 35.246875,12.035938 137.340005,0 0,266.400002 -137.340005,0 0,-266.400002 z"
         id="path3582" /></clipPath><clipPath
       clipPathUnits="userSpaceOnUse"
       id="clipPath3588"><path
         d="m 35.246875,12.035938 137.340005,0 0,266.400002 -137.340005,0 0,-266.400002 z"
         id="path3590" /></clipPath><clipPath
       clipPathUnits="userSpaceOnUse"
       id="clipPath3596"><path
         d="m 35.246875,12.035938 137.340005,0 0,266.400002 -137.340005,0 0,-266.400002 z"
         id="path3598" /></clipPath><clipPath
       clipPathUnits="userSpaceOnUse"
       id="clipPath3604"><path
         d="m 35.246875,12.035938 137.340005,0 0,266.400002 -137.340005,0 0,-266.400002 z"
         id="path3606" /></clipPath><clipPath
       clipPathUnits="userSpaceOnUse"
       id="clipPath3614"><path
         d="m 35.246875,12.035938 137.340005,0 0,266.400002 -137.340005,0 0,-266.400002 z"
         id="path3616" /></clipPath><clipPath
       clipPathUnits="userSpaceOnUse"
       id="clipPath3624"><path
         d="m 35.246875,12.035938 137.340005,0 0,266.400002 -137.340005,0 0,-266.400002 z"
         id="path3626" /></clipPath><clipPath
       clipPathUnits="userSpaceOnUse"
       id="clipPath3634"><path
         d="m 35.246875,12.035938 137.340005,0 0,266.400002 -137.340005,0 0,-266.400002 z"
         id="path3636" /></clipPath><clipPath
       clipPathUnits="userSpaceOnUse"
       id="clipPath3642"><path
         d="m 35.246875,12.035938 137.340005,0 0,266.400002 -137.340005,0 0,-266.400002 z"
         id="path3644" /></clipPath><clipPath
       clipPathUnits="userSpaceOnUse"
       id="clipPath3650"><path
         d="m 35.246875,12.035938 137.340005,0 0,266.400002 -137.340005,0 0,-266.400002 z"
         id="path3652" /></clipPath><clipPath
       clipPathUnits="userSpaceOnUse"
       id="clipPath3658"><path
         d="m 35.246875,12.035938 137.340005,0 0,266.400002 -137.340005,0 0,-266.400002 z"
         id="path3660" /></clipPath><clipPath
       clipPathUnits="userSpaceOnUse"
       id="clipPath3668"><path
         d="m 35.246875,12.035938 137.340005,0 0,266.400002 -137.340005,0 0,-266.400002 z"
         id="path3670" /></clipPath><clipPath
       clipPathUnits="userSpaceOnUse"
       id="clipPath3678"><path
         d="m 35.246875,12.035938 137.340005,0 0,266.400002 -137.340005,0 0,-266.400002 z"
         id="path3680" /></clipPath><clipPath
       clipPathUnits="userSpaceOnUse"
       id="clipPath3688"><path
         d="m 35.246875,12.035938 137.340005,0 0,266.400002 -137.340005,0 0,-266.400002 z"
         id="path3690" /></clipPath><clipPath
       clipPathUnits="userSpaceOnUse"
       id="clipPath3696"><path
         d="m 35.246875,12.035938 137.340005,0 0,266.400002 -137.340005,0 0,-266.400002 z"
         id="path3698" /></clipPath><clipPath
       clipPathUnits="userSpaceOnUse"
       id="clipPath3704"><path
         d="m 35.246875,12.035938 137.340005,0 0,266.400002 -137.340005,0 0,-266.400002 z"
         id="path3706" /></clipPath><clipPath
       clipPathUnits="userSpaceOnUse"
       id="clipPath3712"><path
         d="m 35.246875,12.035938 137.340005,0 0,266.400002 -137.340005,0 0,-266.400002 z"
         id="path3714" /></clipPath><clipPath
       clipPathUnits="userSpaceOnUse"
       id="clipPath3722"><path
         d="m 35.246875,12.035938 137.340005,0 0,266.400002 -137.340005,0 0,-266.400002 z"
         id="path3724" /></clipPath><clipPath
       clipPathUnits="userSpaceOnUse"
       id="clipPath3732"><path
         d="m 35.246875,12.035938 137.340005,0 0,266.400002 -137.340005,0 0,-266.400002 z"
         id="path3734" /></clipPath><clipPath
       clipPathUnits="userSpaceOnUse"
       id="clipPath3742"><path
         d="m 35.246875,12.035938 137.340005,0 0,266.400002 -137.340005,0 0,-266.400002 z"
         id="path3744" /></clipPath><clipPath
       clipPathUnits="userSpaceOnUse"
       id="clipPath3750"><path
         d="m 35.246875,12.035938 137.340005,0 0,266.400002 -137.340005,0 0,-266.400002 z"
         id="path3752" /></clipPath><clipPath
       clipPathUnits="userSpaceOnUse"
       id="clipPath3758"><path
         d="m 35.246875,12.035938 137.340005,0 0,266.400002 -137.340005,0 0,-266.400002 z"
         id="path3760" /></clipPath><clipPath
       clipPathUnits="userSpaceOnUse"
       id="clipPath3766"><path
         d="m 35.246875,12.035938 137.340005,0 0,266.400002 -137.340005,0 0,-266.400002 z"
         id="path3768" /></clipPath></defs><sodipodi:namedview
     pagecolor="#ffffff"
     bordercolor="#666666"
     borderopacity="1"
     objecttolerance="10"
     gridtolerance="10"
     guidetolerance="10"
     inkscape:pageopacity="0"
     inkscape:pageshadow="2"
     inkscape:window-width="1920"
     inkscape:window-height="1003"
     id="namedview3022"
     showgrid="false"
     inkscape:zoom="2.294198"
     inkscape:cx="112.3668"
     inkscape:cy="181.54492"
     inkscape:window-x="0"
     inkscape:window-y="24"
     inkscape:window-maximized="1"
     inkscape:current-layer="g3028" /><g
     id="g3028"
     inkscape:groupmode="layer"
     inkscape:label="xp1-explo-obj"
     transform="matrix(1.25,0,0,-1.25,0,363.08984)"><path
       d="M 0.69741146,0 180.48428,0 l 0,290.47187 -179.78686854,0 0,-290.47187 z"
       style="fill:#ffffff;fill-opacity:1;fill-rule:nonzero;stroke:none"
       id="path3030"
       inkscape:connector-curvature="0" /><path
       d="m 35.246875,12.035938 137.339995,0 0,266.400002 -137.339995,0 0,-266.400002 z"
       style="fill:#ffffff;fill-opacity:1;fill-rule:nonzero;stroke:none"
       id="path3032" /><g
       id="g3034"><g
         id="g3036"
         clip-path="url(#clipPath3038)"><path
           d="m 35.246875,12.035938 137.339995,0"
           style="fill:none;stroke:#e6e6e6;stroke-opacity:1;stroke-width:1;stroke-linecap:square;stroke-linejoin:round;stroke-miterlimit:10;stroke-dasharray:none"
           id="path3042" /></g></g><g
       id="g3044"><path
         d="m 35.246875,12.035938 0,0"
         style="fill:#000000;fill-opacity:1;fill-rule:nonzero;stroke:#000000;stroke-opacity:1;stroke-width:0.5;stroke-linecap:butt;stroke-linejoin:round;stroke-miterlimit:10;stroke-dasharray:none"
         id="path3046" /><text
         transform="matrix(1,0,0,-1,26.2,9.278125)"
         id="text3048"><tspan
           style="fill:#000000;fill-opacity:1;fill-rule:nonzero;stroke:none;font-family:DejaVu Sans;font-variant:normal;font-weight:normal;font-size:10;writing-mode:lr;-inkscape-font-specification:DejaVuSans"
           x="0"
           y="0"
           id="tspan3050">0</tspan></text>
</g><g
       id="g3052"><g
         id="g3054"
         clip-path="url(#clipPath3056)"><path
           d="m 35.246875,56.435938 137.339995,0"
           style="fill:none;stroke:#e6e6e6;stroke-opacity:1;stroke-width:1;stroke-linecap:square;stroke-linejoin:round;stroke-miterlimit:10;stroke-dasharray:none"
           id="path3060" /></g></g><g
       id="g3062"><path
         d="m 35.246875,56.435938 0,0"
         style="fill:#000000;fill-opacity:1;fill-rule:nonzero;stroke:#000000;stroke-opacity:1;stroke-width:0.5;stroke-linecap:butt;stroke-linejoin:round;stroke-miterlimit:10;stroke-dasharray:none"
         id="path3064" /><text
         transform="matrix(1,0,0,-1,13.590625,53.678125)"
         id="text3066"><tspan
           style="fill:#000000;fill-opacity:1;fill-rule:nonzero;stroke:none;font-family:DejaVu Sans;font-variant:normal;font-weight:normal;font-size:10;writing-mode:lr;-inkscape-font-specification:DejaVuSans"
           x="0 6.36 12.72"
           y="0"
           sodipodi:role="line"
           id="tspan3068">500</tspan></text>
</g><g
       id="g3070"><g
         id="g3072"
         clip-path="url(#clipPath3074)"><path
           d="m 35.246875,100.83594 137.339995,0"
           style="fill:none;stroke:#e6e6e6;stroke-opacity:1;stroke-width:1;stroke-linecap:square;stroke-linejoin:round;stroke-miterlimit:10;stroke-dasharray:none"
           id="path3078" /></g></g><g
       id="g3080"><path
         d="m 35.246875,100.83594 0,0"
         style="fill:#000000;fill-opacity:1;fill-rule:nonzero;stroke:#000000;stroke-opacity:1;stroke-width:0.5;stroke-linecap:butt;stroke-linejoin:round;stroke-miterlimit:10;stroke-dasharray:none"
         id="path3082" /><text
         transform="matrix(1,0,0,-1,7.559375,98.078125)"
         id="text3084"><tspan
           style="fill:#000000;fill-opacity:1;fill-rule:nonzero;stroke:none;font-family:DejaVu Sans;font-variant:normal;font-weight:normal;font-size:10;writing-mode:lr;-inkscape-font-specification:DejaVuSans"
           x="0 6.36 12.72 19.08"
           y="0"
           sodipodi:role="line"
           id="tspan3086">1000</tspan></text>
</g><g
       id="g3088"><g
         id="g3090"
         clip-path="url(#clipPath3092)"><path
           d="m 35.246875,145.23594 137.339995,0"
           style="fill:none;stroke:#e6e6e6;stroke-opacity:1;stroke-width:1;stroke-linecap:square;stroke-linejoin:round;stroke-miterlimit:10;stroke-dasharray:none"
           id="path3096" /></g></g><g
       id="g3098"><path
         d="m 35.246875,145.23594 0,0"
         style="fill:#000000;fill-opacity:1;fill-rule:nonzero;stroke:#000000;stroke-opacity:1;stroke-width:0.5;stroke-linecap:butt;stroke-linejoin:round;stroke-miterlimit:10;stroke-dasharray:none"
         id="path3100" /><text
         transform="matrix(1,0,0,-1,7.559375,142.47812)"
         id="text3102"><tspan
           style="fill:#000000;fill-opacity:1;fill-rule:nonzero;stroke:none;font-family:DejaVu Sans;font-variant:normal;font-weight:normal;font-size:10;writing-mode:lr;-inkscape-font-specification:DejaVuSans"
           x="0 6.36 12.72 19.08"
           y="0"
           sodipodi:role="line"
           id="tspan3104">1500</tspan></text>
</g><g
       id="g3106"><g
         id="g3108"
         clip-path="url(#clipPath3110)"><path
           d="m 35.246875,189.63594 137.339995,0"
           style="fill:none;stroke:#e6e6e6;stroke-opacity:1;stroke-width:1;stroke-linecap:square;stroke-linejoin:round;stroke-miterlimit:10;stroke-dasharray:none"
           id="path3114" /></g></g><g
       id="g3116"><path
         d="m 35.246875,189.63594 0,0"
         style="fill:#000000;fill-opacity:1;fill-rule:nonzero;stroke:#000000;stroke-opacity:1;stroke-width:0.5;stroke-linecap:butt;stroke-linejoin:round;stroke-miterlimit:10;stroke-dasharray:none"
         id="path3118" /><text
         transform="matrix(1,0,0,-1,7.2,186.87812)"
         id="text3120"><tspan
           style="fill:#000000;fill-opacity:1;fill-rule:nonzero;stroke:none;font-family:DejaVu Sans;font-variant:normal;font-weight:normal;font-size:10;writing-mode:lr;-inkscape-font-specification:DejaVuSans"
           x="0 6.36 12.72 19.08"
           y="0"
           sodipodi:role="line"
           id="tspan3122">2000</tspan></text>
</g><g
       id="g3124"><g
         id="g3126"
         clip-path="url(#clipPath3128)"><path
           d="m 35.246875,234.03594 137.339995,0"
           style="fill:none;stroke:#e6e6e6;stroke-opacity:1;stroke-width:1;stroke-linecap:square;stroke-linejoin:round;stroke-miterlimit:10;stroke-dasharray:none"
           id="path3132" /></g></g><g
       id="g3134"><path
         d="m 35.246875,234.03594 0,0"
         style="fill:#000000;fill-opacity:1;fill-rule:nonzero;stroke:#000000;stroke-opacity:1;stroke-width:0.5;stroke-linecap:butt;stroke-linejoin:round;stroke-miterlimit:10;stroke-dasharray:none"
         id="path3136" /><text
         transform="matrix(1,0,0,-1,7.2,231.27812)"
         id="text3138"><tspan
           style="fill:#000000;fill-opacity:1;fill-rule:nonzero;stroke:none;font-family:DejaVu Sans;font-variant:normal;font-weight:normal;font-size:10;writing-mode:lr;-inkscape-font-specification:DejaVuSans"
           x="0 6.36 12.72 19.08"
           y="0"
           sodipodi:role="line"
           id="tspan3140">2500</tspan></text>
</g><g
       id="g3142"><g
         id="g3144"
         clip-path="url(#clipPath3146)"><path
           d="m 35.246875,278.43594 137.339995,0"
           style="fill:none;stroke:#e6e6e6;stroke-opacity:1;stroke-width:1;stroke-linecap:square;stroke-linejoin:round;stroke-miterlimit:10;stroke-dasharray:none"
           id="path3150" /></g></g><g
       id="g3152"><path
         d="m 35.246875,278.43594 0,0"
         style="fill:#000000;fill-opacity:1;fill-rule:nonzero;stroke:#000000;stroke-opacity:1;stroke-width:0.5;stroke-linecap:butt;stroke-linejoin:round;stroke-miterlimit:10;stroke-dasharray:none"
         id="path3154" /><text
         transform="matrix(1,0,0,-1,7.23125,275.67812)"
         id="text3156"><tspan
           style="fill:#000000;fill-opacity:1;fill-rule:nonzero;stroke:none;font-family:DejaVu Sans;font-variant:normal;font-weight:normal;font-size:10;writing-mode:lr;-inkscape-font-specification:DejaVuSans"
           x="0 6.36 12.72 19.08"
           y="0"
           sodipodi:role="line"
           id="tspan3158">3000</tspan></text>
</g><g
       id="g3160"><g
         id="g3162"
         clip-path="url(#clipPath3164)" /></g><g
       id="g3168"><g
         id="g3170"
         clip-path="url(#clipPath3172)"><path
           d="m 39.824875,15.210538 13.734,0 -13.734,0 z"
           style="fill:#1b9e77;fill-opacity:1;fill-rule:nonzero;stroke:none"
           id="path3176" /></g></g><g
       id="g3178"><g
         id="g3180"
         clip-path="url(#clipPath3182)"><path
           d="m 39.824875,15.210538 13.734,0 0,0.7548 -13.734,-0.7548 z"
           style="fill:#1b9e77;fill-opacity:1;fill-rule:nonzero;stroke:none"
           id="path3186" /></g></g><g
       id="g3188"><g
         id="g3190"
         clip-path="url(#clipPath3192)"><path
           d="m 39.824875,15.210538 13.734,0 0,0.7548 -13.734,0 0,-0.7548 z"
           style="fill:#1b9e77;fill-opacity:1;fill-rule:nonzero;stroke:none"
           id="path3196" /></g></g><g
       id="g3198"><g
         id="g3200"
         clip-path="url(#clipPath3202)"><path
           d="m 39.824875,15.210538 13.734,0 0,0.7548 -13.734,0 0,-0.7548 z"
           style="fill:#1b9e77;fill-opacity:1;fill-rule:nonzero;stroke:none"
           id="path3206" /></g></g><g
       id="g3208"><g
         id="g3210"
         clip-path="url(#clipPath3212)" /></g><g
       id="g3216"><g
         id="g3218"
         clip-path="url(#clipPath3220)"><path
           d="m 62.714875,37.232938 13.734,0 -13.734,0 z"
           style="fill:#d95f02;fill-opacity:1;fill-rule:nonzero;stroke:none"
           id="path3224" /></g></g><g
       id="g3226"><g
         id="g3228"
         clip-path="url(#clipPath3230)"><path
           d="m 62.714875,37.232938 13.734,0 0,60.5616 -13.734,-60.5616 z"
           style="fill:#d95f02;fill-opacity:1;fill-rule:nonzero;stroke:none"
           id="path3234" /></g></g><g
       id="g3236"><g
         id="g3238"
         clip-path="url(#clipPath3240)"><path
           d="m 62.714875,37.232938 13.734,0 0,60.5616 -13.734,0 0,-60.5616 z"
           style="fill:#d95f02;fill-opacity:1;fill-rule:nonzero;stroke:none"
           id="path3244" /></g></g><g
       id="g3246"><g
         id="g3248"
         clip-path="url(#clipPath3250)"><path
           d="m 62.714875,37.232938 13.734,0 0,60.5616 -13.734,0 0,-60.5616 z"
           style="fill:#d95f02;fill-opacity:1;fill-rule:nonzero;stroke:none"
           id="path3254" /></g></g><g
       id="g3256"><g
         id="g3258"
         clip-path="url(#clipPath3260)" /></g><g
       id="g3264"><g
         id="g3266"
         clip-path="url(#clipPath3268)"><path
           d="m 85.604875,42.316737 13.734,0 -13.734,0 z"
           style="fill:#7570b3;fill-opacity:1;fill-rule:nonzero;stroke:none"
           id="path3272" /></g></g><g
       id="g3274"><g
         id="g3276"
         clip-path="url(#clipPath3278)"><path
           d="m 85.604875,42.316737 13.734,0 0,42.735 -13.734,-42.735 z"
           style="fill:#7570b3;fill-opacity:1;fill-rule:nonzero;stroke:none"
           id="path3282" /></g></g><g
       id="g3284"><g
         id="g3286"
         clip-path="url(#clipPath3288)"><path
           d="m 85.604875,42.316737 13.734,0 0,42.735 -13.734,0 0,-42.735 z"
           style="fill:#7570b3;fill-opacity:1;fill-rule:nonzero;stroke:none"
           id="path3292" /></g></g><g
       id="g3294"><g
         id="g3296"
         clip-path="url(#clipPath3298)"><path
           d="m 85.604875,42.316737 13.734,0 0,42.735 -13.734,0 0,-42.735 z"
           style="fill:#7570b3;fill-opacity:1;fill-rule:nonzero;stroke:none"
           id="path3302" /></g></g><g
       id="g3304"><g
         id="g3306"
         clip-path="url(#clipPath3308)" /></g><g
       id="g3312"><g
         id="g3314"
         clip-path="url(#clipPath3316)"><path
           d="m 108.49488,195.18594 13.73399,0 -13.73399,0 z"
           style="fill:#e7298a;fill-opacity:1;fill-rule:nonzero;stroke:none"
           id="path3320" /></g></g><g
       id="g3322"><g
         id="g3324"
         clip-path="url(#clipPath3326)"><path
           d="m 108.49488,195.18594 13.73399,0 0,59.8512 -13.73399,-59.8512 z"
           style="fill:#e7298a;fill-opacity:1;fill-rule:nonzero;stroke:none"
           id="path3330" /></g></g><g
       id="g3332"><g
         id="g3334"
         clip-path="url(#clipPath3336)"><path
           d="m 108.49488,195.18594 13.73399,0 0,59.8512 -13.73399,0 0,-59.8512 z"
           style="fill:#e7298a;fill-opacity:1;fill-rule:nonzero;stroke:none"
           id="path3340" /></g></g><g
       id="g3342"><g
         id="g3344"
         clip-path="url(#clipPath3346)"><path
           d="m 108.49488,195.18594 13.73399,0 0,59.8512 -13.73399,0 0,-59.8512 z"
           style="fill:#e7298a;fill-opacity:1;fill-rule:nonzero;stroke:none"
           id="path3350" /></g></g><g
       id="g3352"><g
         id="g3354"
         clip-path="url(#clipPath3356)" /></g><g
       id="g3360"><g
         id="g3362"
         clip-path="url(#clipPath3364)"><path
           d="m 131.38487,112.91274 13.734,0 -13.734,0 z"
           style="fill:#66a61e;fill-opacity:1;fill-rule:nonzero;stroke:none"
           id="path3368" /></g></g><g
       id="g3370"><g
         id="g3372"
         clip-path="url(#clipPath3374)"><path
           d="m 131.38487,112.91274 13.734,0 0,76.035 -13.734,-76.035 z"
           style="fill:#66a61e;fill-opacity:1;fill-rule:nonzero;stroke:none"
           id="path3378" /></g></g><g
       id="g3380"><g
         id="g3382"
         clip-path="url(#clipPath3384)"><path
           d="m 131.38487,112.91274 13.734,0 0,76.035 -13.734,0 0,-76.035 z"
           style="fill:#66a61e;fill-opacity:1;fill-rule:nonzero;stroke:none"
           id="path3388" /></g></g><g
       id="g3390"><g
         id="g3392"
         clip-path="url(#clipPath3394)"><path
           d="m 131.38487,112.91274 13.734,0 0,76.035 -13.734,0 0,-76.035 z"
           style="fill:#66a61e;fill-opacity:1;fill-rule:nonzero;stroke:none"
           id="path3398" /></g></g><g
       id="g3400"><g
         id="g3402"
         clip-path="url(#clipPath3404)" /></g><g
       id="g3408"><g
         id="g3410"
         clip-path="url(#clipPath3412)"><path
           d="m 154.27487,207.66234 13.734,0 -13.734,0 z"
           style="fill:#e6ab02;fill-opacity:1;fill-rule:nonzero;stroke:none"
           id="path3416" /></g></g><g
       id="g3418"><g
         id="g3420"
         clip-path="url(#clipPath3422)"><path
           d="m 154.27487,207.66234 13.734,0 0,52.6584 -13.734,-52.6584 z"
           style="fill:#e6ab02;fill-opacity:1;fill-rule:nonzero;stroke:none"
           id="path3426" /></g></g><g
       id="g3428"><g
         id="g3430"
         clip-path="url(#clipPath3432)"><path
           d="m 154.27487,207.66234 13.734,0 0,52.6584 -13.734,0 0,-52.6584 z"
           style="fill:#e6ab02;fill-opacity:1;fill-rule:nonzero;stroke:none"
           id="path3436" /></g></g><g
       id="g3438"><g
         id="g3440"
         clip-path="url(#clipPath3442)"><path
           d="m 154.27487,207.66234 13.734,0 0,52.6584 -13.734,0 0,-52.6584 z"
           style="fill:#e6ab02;fill-opacity:1;fill-rule:nonzero;stroke:none"
           id="path3446" /></g></g><g
       id="g3448"><g
         id="g3450"
         clip-path="url(#clipPath3452)"><path
           d="m 46.691875,15.210538 0,0"
           style="fill:none;stroke:#1b9e77;stroke-opacity:1;stroke-width:2;stroke-linecap:butt;stroke-linejoin:round;stroke-miterlimit:10;stroke-dasharray:6,6;stroke-dashoffset:0"
           id="path3456" /></g></g><g
       id="g3458"><g
         id="g3460"
         clip-path="url(#clipPath3462)"><path
           d="m 46.691875,15.965338 0,0"
           style="fill:none;stroke:#1b9e77;stroke-opacity:1;stroke-width:2;stroke-linecap:butt;stroke-linejoin:round;stroke-miterlimit:10;stroke-dasharray:6,6;stroke-dashoffset:0"
           id="path3466" /></g></g><g
       id="g3468"><g
         id="g3470"
         clip-path="url(#clipPath3472)" /></g><g
       id="g3476"><g
         id="g3478"
         clip-path="url(#clipPath3480)" /></g><g
       id="g3484"><g
         id="g3486"
         clip-path="url(#clipPath3488)" /></g><g
       id="g3492"><g
         id="g3494"
         clip-path="url(#clipPath3496)"><path
           d="m 39.824875,15.809938 13.734,0"
           style="fill:none;stroke:#000000;stroke-opacity:1;stroke-width:3;stroke-linecap:square;stroke-linejoin:round;stroke-miterlimit:10;stroke-dasharray:none"
           id="path3500" /></g></g><g
       id="g3502"><g
         id="g3504"
         clip-path="url(#clipPath3506)"><path
           d="m 69.581875,37.232938 0,0"
           style="fill:none;stroke:#d95f02;stroke-opacity:1;stroke-width:2;stroke-linecap:butt;stroke-linejoin:round;stroke-miterlimit:10;stroke-dasharray:6,6;stroke-dashoffset:0"
           id="path3510" /></g></g><g
       id="g3512"><g
         id="g3514"
         clip-path="url(#clipPath3516)"><path
           d="m 69.581875,97.794538 0,0"
           style="fill:none;stroke:#d95f02;stroke-opacity:1;stroke-width:2;stroke-linecap:butt;stroke-linejoin:round;stroke-miterlimit:10;stroke-dasharray:6,6;stroke-dashoffset:0"
           id="path3520" /></g></g><g
       id="g3522"><g
         id="g3524"
         clip-path="url(#clipPath3526)" /></g><g
       id="g3530"><g
         id="g3532"
         clip-path="url(#clipPath3534)" /></g><g
       id="g3538"><g
         id="g3540"
         clip-path="url(#clipPath3542)" /></g><g
       id="g3546"><g
         id="g3548"
         clip-path="url(#clipPath3550)"><path
           d="m 62.714875,74.462337 13.734,0"
           style="fill:none;stroke:#000000;stroke-opacity:1;stroke-width:3;stroke-linecap:square;stroke-linejoin:round;stroke-miterlimit:10;stroke-dasharray:none"
           id="path3554" /></g></g><g
       id="g3556"><g
         id="g3558"
         clip-path="url(#clipPath3560)"><path
           d="m 92.471875,42.316737 0,0"
           style="fill:none;stroke:#7570b3;stroke-opacity:1;stroke-width:2;stroke-linecap:butt;stroke-linejoin:round;stroke-miterlimit:10;stroke-dasharray:6,6;stroke-dashoffset:0"
           id="path3564" /></g></g><g
       id="g3566"><g
         id="g3568"
         clip-path="url(#clipPath3570)"><path
           d="m 92.471875,85.051737 0,0"
           style="fill:none;stroke:#7570b3;stroke-opacity:1;stroke-width:2;stroke-linecap:butt;stroke-linejoin:round;stroke-miterlimit:10;stroke-dasharray:6,6;stroke-dashoffset:0"
           id="path3574" /></g></g><g
       id="g3576"><g
         id="g3578"
         clip-path="url(#clipPath3580)" /></g><g
       id="g3584"><g
         id="g3586"
         clip-path="url(#clipPath3588)" /></g><g
       id="g3592"><g
         id="g3594"
         clip-path="url(#clipPath3596)" /></g><g
       id="g3600"><g
         id="g3602"
         clip-path="url(#clipPath3604)"><path
           d="m 85.604875,57.679138 13.734,0"
           style="fill:none;stroke:#000000;stroke-opacity:1;stroke-width:3;stroke-linecap:square;stroke-linejoin:round;stroke-miterlimit:10;stroke-dasharray:none"
           id="path3608" /></g></g><g
       id="g3610"><g
         id="g3612"
         clip-path="url(#clipPath3614)"><path
           d="m 115.36187,195.18594 0,0"
           style="fill:none;stroke:#e7298a;stroke-opacity:1;stroke-width:2;stroke-linecap:butt;stroke-linejoin:round;stroke-miterlimit:10;stroke-dasharray:6,6;stroke-dashoffset:0"
           id="path3618" /></g></g><g
       id="g3620"><g
         id="g3622"
         clip-path="url(#clipPath3624)"><path
           d="m 115.36187,255.03714 0,0"
           style="fill:none;stroke:#e7298a;stroke-opacity:1;stroke-width:2;stroke-linecap:butt;stroke-linejoin:round;stroke-miterlimit:10;stroke-dasharray:6,6;stroke-dashoffset:0"
           id="path3628" /></g></g><g
       id="g3630"><g
         id="g3632"
         clip-path="url(#clipPath3634)" /></g><g
       id="g3638"><g
         id="g3640"
         clip-path="url(#clipPath3642)" /></g><g
       id="g3646"><g
         id="g3648"
         clip-path="url(#clipPath3650)" /></g><g
       id="g3654"><g
         id="g3656"
         clip-path="url(#clipPath3658)"><path
           d="m 108.49488,227.81994 13.73399,0"
           style="fill:none;stroke:#000000;stroke-opacity:1;stroke-width:3;stroke-linecap:square;stroke-linejoin:round;stroke-miterlimit:10;stroke-dasharray:none"
           id="path3662" /></g></g><g
       id="g3664"><g
         id="g3666"
         clip-path="url(#clipPath3668)"><path
           d="m 138.25187,112.91274 0,0"
           style="fill:none;stroke:#66a61e;stroke-opacity:1;stroke-width:2;stroke-linecap:butt;stroke-linejoin:round;stroke-miterlimit:10;stroke-dasharray:6,6;stroke-dashoffset:0"
           id="path3672" /></g></g><g
       id="g3674"><g
         id="g3676"
         clip-path="url(#clipPath3678)"><path
           d="m 138.25187,188.94774 0,0"
           style="fill:none;stroke:#66a61e;stroke-opacity:1;stroke-width:2;stroke-linecap:butt;stroke-linejoin:round;stroke-miterlimit:10;stroke-dasharray:6,6;stroke-dashoffset:0"
           id="path3682" /></g></g><g
       id="g3684"><g
         id="g3686"
         clip-path="url(#clipPath3688)" /></g><g
       id="g3692"><g
         id="g3694"
         clip-path="url(#clipPath3696)" /></g><g
       id="g3700"><g
         id="g3702"
         clip-path="url(#clipPath3704)" /></g><g
       id="g3708"><g
         id="g3710"
         clip-path="url(#clipPath3712)"><path
           d="m 131.38487,133.86954 13.734,0"
           style="fill:none;stroke:#000000;stroke-opacity:1;stroke-width:3;stroke-linecap:square;stroke-linejoin:round;stroke-miterlimit:10;stroke-dasharray:none"
           id="path3716" /></g></g><g
       id="g3718"><g
         id="g3720"
         clip-path="url(#clipPath3722)"><path
           d="m 161.14187,207.66234 0,0"
           style="fill:none;stroke:#e6ab02;stroke-opacity:1;stroke-width:2;stroke-linecap:butt;stroke-linejoin:round;stroke-miterlimit:10;stroke-dasharray:6,6;stroke-dashoffset:0"
           id="path3726" /></g></g><g
       id="g3728"><g
         id="g3730"
         clip-path="url(#clipPath3732)"><path
           d="m 161.14187,260.32074 0,0"
           style="fill:none;stroke:#e6ab02;stroke-opacity:1;stroke-width:2;stroke-linecap:butt;stroke-linejoin:round;stroke-miterlimit:10;stroke-dasharray:6,6;stroke-dashoffset:0"
           id="path3736" /></g></g><g
       id="g3738"><g
         id="g3740"
         clip-path="url(#clipPath3742)" /></g><g
       id="g3746"><g
         id="g3748"
         clip-path="url(#clipPath3750)" /></g><g
       id="g3754"><g
         id="g3756"
         clip-path="url(#clipPath3758)" /></g><g
       id="g3762"><g
         id="g3764"
         clip-path="url(#clipPath3766)"><path
           d="m 154.27487,234.21354 13.734,0"
           style="fill:none;stroke:#000000;stroke-opacity:1;stroke-width:3;stroke-linecap:square;stroke-linejoin:round;stroke-miterlimit:10;stroke-dasharray:none"
           id="path3770" /></g></g><g
       id="g3772"><path
         d="m 35.246875,12.035938 137.339995,0"
         style="fill:none;stroke:#000000;stroke-opacity:1;stroke-width:1;stroke-linecap:butt;stroke-linejoin:round;stroke-miterlimit:10;stroke-dasharray:none"
         id="path3774" /><path
         d="m 138.25187,257.03554 0,2.5796 -22.89,0 0,-2.5796"
         style="fill:none;stroke:#aaaaaa;stroke-opacity:1;stroke-width:1;stroke-linecap:round;stroke-linejoin:round;stroke-miterlimit:10;stroke-dasharray:none"
         id="path3776" /></g><text
       xml:space="preserve"
       style="font-size:9.60000038px;font-style:normal;font-variant:normal;font-weight:normal;font-stretch:normal;text-align:start;line-height:125%;letter-spacing:0px;word-spacing:0px;writing-mode:lr-tb;text-anchor:start;fill:#000000;fill-opacity:1;stroke:none;font-family:Sans;-inkscape-font-specification:Sans"
       x="124.83666"
       y="-258.39096"
       id="text3778"
       sodipodi:linespacing="125%"
       transform="scale(1,-1)"><tspan
         sodipodi:role="line"
         id="tspan3780"
         x="124.83666"
         y="-258.39096">*</tspan></text>
</g></svg>