<?xml version="1.0" encoding="UTF-8" standalone="no"?>
<!-- Created with Inkscape (http://www.inkscape.org/) -->

<svg
   xmlns:dc="http://purl.org/dc/elements/1.1/"
   xmlns:cc="http://creativecommons.org/ns#"
   xmlns:rdf="http://www.w3.org/1999/02/22-rdf-syntax-ns#"
   xmlns:svg="http://www.w3.org/2000/svg"
   xmlns="http://www.w3.org/2000/svg"
   xmlns:sodipodi="http://sodipodi.sourceforge.net/DTD/sodipodi-0.dtd"
   xmlns:inkscape="http://www.inkscape.org/namespaces/inkscape"
   id="svg2"
   version="1.1"
   inkscape:version="0.48.4 r9939"
   width="224.73359"
   height="363.08984"
   xml:space="preserve"
   sodipodi:docname="xp1-explo-stick_1.pdf"><metadata
     id="metadata8"><rdf:RDF><cc:Work
         rdf:about=""><dc:format>image/svg+xml</dc:format><dc:type
           rdf:resource="http://purl.org/dc/dcmitype/StillImage" /><dc:title></dc:title></cc:Work></rdf:RDF></metadata><defs
     id="defs6"><clipPath
       clipPathUnits="userSpaceOnUse"
       id="clipPath20"><path
         d="m 35.246875,12.035938 137.340005,0 0,266.400002 -137.340005,0 0,-266.400002 z"
         id="path22" /></clipPath><clipPath
       clipPathUnits="userSpaceOnUse"
       id="clipPath38"><path
         d="m 35.246875,12.035938 137.340005,0 0,266.400002 -137.340005,0 0,-266.400002 z"
         id="path40" /></clipPath><clipPath
       clipPathUnits="userSpaceOnUse"
       id="clipPath56"><path
         d="m 35.246875,12.035938 137.340005,0 0,266.400002 -137.340005,0 0,-266.400002 z"
         id="path58" /></clipPath><clipPath
       clipPathUnits="userSpaceOnUse"
       id="clipPath74"><path
         d="m 35.246875,12.035938 137.340005,0 0,266.400002 -137.340005,0 0,-266.400002 z"
         id="path76" /></clipPath><clipPath
       clipPathUnits="userSpaceOnUse"
       id="clipPath92"><path
         d="m 35.246875,12.035938 137.340005,0 0,266.400002 -137.340005,0 0,-266.400002 z"
         id="path94" /></clipPath><clipPath
       clipPathUnits="userSpaceOnUse"
       id="clipPath110"><path
         d="m 35.246875,12.035938 137.340005,0 0,266.400002 -137.340005,0 0,-266.400002 z"
         id="path112" /></clipPath><clipPath
       clipPathUnits="userSpaceOnUse"
       id="clipPath128"><path
         d="m 35.246875,12.035938 137.340005,0 0,266.400002 -137.340005,0 0,-266.400002 z"
         id="path130" /></clipPath><clipPath
       clipPathUnits="userSpaceOnUse"
       id="clipPath136"><path
         d="m 35.246875,12.035938 137.340005,0 0,266.400002 -137.340005,0 0,-266.400002 z"
         id="path138" /></clipPath><clipPath
       clipPathUnits="userSpaceOnUse"
       id="clipPath146"><path
         d="m 35.246875,12.035938 137.340005,0 0,266.400002 -137.340005,0 0,-266.400002 z"
         id="path148" /></clipPath><clipPath
       clipPathUnits="userSpaceOnUse"
       id="clipPath156"><path
         d="m 35.246875,12.035938 137.340005,0 0,266.400002 -137.340005,0 0,-266.400002 z"
         id="path158" /></clipPath><clipPath
       clipPathUnits="userSpaceOnUse"
       id="clipPath166"><path
         d="m 35.246875,12.035938 137.340005,0 0,266.400002 -137.340005,0 0,-266.400002 z"
         id="path168" /></clipPath><clipPath
       clipPathUnits="userSpaceOnUse"
       id="clipPath176"><path
         d="m 35.246875,12.035938 137.340005,0 0,266.400002 -137.340005,0 0,-266.400002 z"
         id="path178" /></clipPath><clipPath
       clipPathUnits="userSpaceOnUse"
       id="clipPath184"><path
         d="m 35.246875,12.035938 137.340005,0 0,266.400002 -137.340005,0 0,-266.400002 z"
         id="path186" /></clipPath><clipPath
       clipPathUnits="userSpaceOnUse"
       id="clipPath194"><path
         d="m 35.246875,12.035938 137.340005,0 0,266.400002 -137.340005,0 0,-266.400002 z"
         id="path196" /></clipPath><clipPath
       clipPathUnits="userSpaceOnUse"
       id="clipPath204"><path
         d="m 35.246875,12.035938 137.340005,0 0,266.400002 -137.340005,0 0,-266.400002 z"
         id="path206" /></clipPath><clipPath
       clipPathUnits="userSpaceOnUse"
       id="clipPath214"><path
         d="m 35.246875,12.035938 137.340005,0 0,266.400002 -137.340005,0 0,-266.400002 z"
         id="path216" /></clipPath><clipPath
       clipPathUnits="userSpaceOnUse"
       id="clipPath224"><path
         d="m 35.246875,12.035938 137.340005,0 0,266.400002 -137.340005,0 0,-266.400002 z"
         id="path226" /></clipPath><clipPath
       clipPathUnits="userSpaceOnUse"
       id="clipPath232"><path
         d="m 35.246875,12.035938 137.340005,0 0,266.400002 -137.340005,0 0,-266.400002 z"
         id="path234" /></clipPath><clipPath
       clipPathUnits="userSpaceOnUse"
       id="clipPath242"><path
         d="m 35.246875,12.035938 137.340005,0 0,266.400002 -137.340005,0 0,-266.400002 z"
         id="path244" /></clipPath><clipPath
       clipPathUnits="userSpaceOnUse"
       id="clipPath252"><path
         d="m 35.246875,12.035938 137.340005,0 0,266.400002 -137.340005,0 0,-266.400002 z"
         id="path254" /></clipPath><clipPath
       clipPathUnits="userSpaceOnUse"
       id="clipPath262"><path
         d="m 35.246875,12.035938 137.340005,0 0,266.400002 -137.340005,0 0,-266.400002 z"
         id="path264" /></clipPath><clipPath
       clipPathUnits="userSpaceOnUse"
       id="clipPath272"><path
         d="m 35.246875,12.035938 137.340005,0 0,266.400002 -137.340005,0 0,-266.400002 z"
         id="path274" /></clipPath><clipPath
       clipPathUnits="userSpaceOnUse"
       id="clipPath280"><path
         d="m 35.246875,12.035938 137.340005,0 0,266.400002 -137.340005,0 0,-266.400002 z"
         id="path282" /></clipPath><clipPath
       clipPathUnits="userSpaceOnUse"
       id="clipPath290"><path
         d="m 35.246875,12.035938 137.340005,0 0,266.400002 -137.340005,0 0,-266.400002 z"
         id="path292" /></clipPath><clipPath
       clipPathUnits="userSpaceOnUse"
       id="clipPath300"><path
         d="m 35.246875,12.035938 137.340005,0 0,266.400002 -137.340005,0 0,-266.400002 z"
         id="path302" /></clipPath><clipPath
       clipPathUnits="userSpaceOnUse"
       id="clipPath310"><path
         d="m 35.246875,12.035938 137.340005,0 0,266.400002 -137.340005,0 0,-266.400002 z"
         id="path312" /></clipPath><clipPath
       clipPathUnits="userSpaceOnUse"
       id="clipPath320"><path
         d="m 35.246875,12.035938 137.340005,0 0,266.400002 -137.340005,0 0,-266.400002 z"
         id="path322" /></clipPath><clipPath
       clipPathUnits="userSpaceOnUse"
       id="clipPath328"><path
         d="m 35.246875,12.035938 137.340005,0 0,266.400002 -137.340005,0 0,-266.400002 z"
         id="path330" /></clipPath><clipPath
       clipPathUnits="userSpaceOnUse"
       id="clipPath338"><path
         d="m 35.246875,12.035938 137.340005,0 0,266.400002 -137.340005,0 0,-266.400002 z"
         id="path340" /></clipPath><clipPath
       clipPathUnits="userSpaceOnUse"
       id="clipPath348"><path
         d="m 35.246875,12.035938 137.340005,0 0,266.400002 -137.340005,0 0,-266.400002 z"
         id="path350" /></clipPath><clipPath
       clipPathUnits="userSpaceOnUse"
       id="clipPath358"><path
         d="m 35.246875,12.035938 137.340005,0 0,266.400002 -137.340005,0 0,-266.400002 z"
         id="path360" /></clipPath><clipPath
       clipPathUnits="userSpaceOnUse"
       id="clipPath368"><path
         d="m 35.246875,12.035938 137.340005,0 0,266.400002 -137.340005,0 0,-266.400002 z"
         id="path370" /></clipPath><clipPath
       clipPathUnits="userSpaceOnUse"
       id="clipPath376"><path
         d="m 35.246875,12.035938 137.340005,0 0,266.400002 -137.340005,0 0,-266.400002 z"
         id="path378" /></clipPath><clipPath
       clipPathUnits="userSpaceOnUse"
       id="clipPath386"><path
         d="m 35.246875,12.035938 137.340005,0 0,266.400002 -137.340005,0 0,-266.400002 z"
         id="path388" /></clipPath><clipPath
       clipPathUnits="userSpaceOnUse"
       id="clipPath396"><path
         d="m 35.246875,12.035938 137.340005,0 0,266.400002 -137.340005,0 0,-266.400002 z"
         id="path398" /></clipPath><clipPath
       clipPathUnits="userSpaceOnUse"
       id="clipPath406"><path
         d="m 35.246875,12.035938 137.340005,0 0,266.400002 -137.340005,0 0,-266.400002 z"
         id="path408" /></clipPath><clipPath
       clipPathUnits="userSpaceOnUse"
       id="clipPath416"><path
         d="m 35.246875,12.035938 137.340005,0 0,266.400002 -137.340005,0 0,-266.400002 z"
         id="path418" /></clipPath><clipPath
       clipPathUnits="userSpaceOnUse"
       id="clipPath426"><path
         d="m 35.246875,12.035938 137.340005,0 0,266.400002 -137.340005,0 0,-266.400002 z"
         id="path428" /></clipPath><clipPath
       clipPathUnits="userSpaceOnUse"
       id="clipPath436"><path
         d="m 35.246875,12.035938 137.340005,0 0,266.400002 -137.340005,0 0,-266.400002 z"
         id="path438" /></clipPath><clipPath
       clipPathUnits="userSpaceOnUse"
       id="clipPath444"><path
         d="m 35.246875,12.035938 137.340005,0 0,266.400002 -137.340005,0 0,-266.400002 z"
         id="path446" /></clipPath><clipPath
       clipPathUnits="userSpaceOnUse"
       id="clipPath452"><path
         d="m 35.246875,12.035938 137.340005,0 0,266.400002 -137.340005,0 0,-266.400002 z"
         id="path454" /></clipPath><clipPath
       clipPathUnits="userSpaceOnUse"
       id="clipPath460"><path
         d="m 35.246875,12.035938 137.340005,0 0,266.400002 -137.340005,0 0,-266.400002 z"
         id="path462" /></clipPath><clipPath
       clipPathUnits="userSpaceOnUse"
       id="clipPath470"><path
         d="m 35.246875,12.035938 137.340005,0 0,266.400002 -137.340005,0 0,-266.400002 z"
         id="path472" /></clipPath><clipPath
       clipPathUnits="userSpaceOnUse"
       id="clipPath480"><path
         d="m 35.246875,12.035938 137.340005,0 0,266.400002 -137.340005,0 0,-266.400002 z"
         id="path482" /></clipPath><clipPath
       clipPathUnits="userSpaceOnUse"
       id="clipPath490"><path
         d="m 35.246875,12.035938 137.340005,0 0,266.400002 -137.340005,0 0,-266.400002 z"
         id="path492" /></clipPath><clipPath
       clipPathUnits="userSpaceOnUse"
       id="clipPath498"><path
         d="m 35.246875,12.035938 137.340005,0 0,266.400002 -137.340005,0 0,-266.400002 z"
         id="path500" /></clipPath><clipPath
       clipPathUnits="userSpaceOnUse"
       id="clipPath506"><path
         d="m 35.246875,12.035938 137.340005,0 0,266.400002 -137.340005,0 0,-266.400002 z"
         id="path508" /></clipPath><clipPath
       clipPathUnits="userSpaceOnUse"
       id="clipPath514"><path
         d="m 35.246875,12.035938 137.340005,0 0,266.400002 -137.340005,0 0,-266.400002 z"
         id="path516" /></clipPath><clipPath
       clipPathUnits="userSpaceOnUse"
       id="clipPath524"><path
         d="m 35.246875,12.035938 137.340005,0 0,266.400002 -137.340005,0 0,-266.400002 z"
         id="path526" /></clipPath><clipPath
       clipPathUnits="userSpaceOnUse"
       id="clipPath534"><path
         d="m 35.246875,12.035938 137.340005,0 0,266.400002 -137.340005,0 0,-266.400002 z"
         id="path536" /></clipPath><clipPath
       clipPathUnits="userSpaceOnUse"
       id="clipPath544"><path
         d="m 35.246875,12.035938 137.340005,0 0,266.400002 -137.340005,0 0,-266.400002 z"
         id="path546" /></clipPath><clipPath
       clipPathUnits="userSpaceOnUse"
       id="clipPath552"><path
         d="m 35.246875,12.035938 137.340005,0 0,266.400002 -137.340005,0 0,-266.400002 z"
         id="path554" /></clipPath><clipPath
       clipPathUnits="userSpaceOnUse"
       id="clipPath560"><path
         d="m 35.246875,12.035938 137.340005,0 0,266.400002 -137.340005,0 0,-266.400002 z"
         id="path562" /></clipPath><clipPath
       clipPathUnits="userSpaceOnUse"
       id="clipPath568"><path
         d="m 35.246875,12.035938 137.340005,0 0,266.400002 -137.340005,0 0,-266.400002 z"
         id="path570" /></clipPath><clipPath
       clipPathUnits="userSpaceOnUse"
       id="clipPath578"><path
         d="m 35.246875,12.035938 137.340005,0 0,266.400002 -137.340005,0 0,-266.400002 z"
         id="path580" /></clipPath><clipPath
       clipPathUnits="userSpaceOnUse"
       id="clipPath588"><path
         d="m 35.246875,12.035938 137.340005,0 0,266.400002 -137.340005,0 0,-266.400002 z"
         id="path590" /></clipPath><clipPath
       clipPathUnits="userSpaceOnUse"
       id="clipPath598"><path
         d="m 35.246875,12.035938 137.340005,0 0,266.400002 -137.340005,0 0,-266.400002 z"
         id="path600" /></clipPath><clipPath
       clipPathUnits="userSpaceOnUse"
       id="clipPath606"><path
         d="m 35.246875,12.035938 137.340005,0 0,266.400002 -137.340005,0 0,-266.400002 z"
         id="path608" /></clipPath><clipPath
       clipPathUnits="userSpaceOnUse"
       id="clipPath614"><path
         d="m 35.246875,12.035938 137.340005,0 0,266.400002 -137.340005,0 0,-266.400002 z"
         id="path616" /></clipPath><clipPath
       clipPathUnits="userSpaceOnUse"
       id="clipPath622"><path
         d="m 35.246875,12.035938 137.340005,0 0,266.400002 -137.340005,0 0,-266.400002 z"
         id="path624" /></clipPath><clipPath
       clipPathUnits="userSpaceOnUse"
       id="clipPath632"><path
         d="m 35.246875,12.035938 137.340005,0 0,266.400002 -137.340005,0 0,-266.400002 z"
         id="path634" /></clipPath><clipPath
       clipPathUnits="userSpaceOnUse"
       id="clipPath642"><path
         d="m 35.246875,12.035938 137.340005,0 0,266.400002 -137.340005,0 0,-266.400002 z"
         id="path644" /></clipPath><clipPath
       clipPathUnits="userSpaceOnUse"
       id="clipPath652"><path
         d="m 35.246875,12.035938 137.340005,0 0,266.400002 -137.340005,0 0,-266.400002 z"
         id="path654" /></clipPath><clipPath
       clipPathUnits="userSpaceOnUse"
       id="clipPath660"><path
         d="m 35.246875,12.035938 137.340005,0 0,266.400002 -137.340005,0 0,-266.400002 z"
         id="path662" /></clipPath><clipPath
       clipPathUnits="userSpaceOnUse"
       id="clipPath668"><path
         d="m 35.246875,12.035938 137.340005,0 0,266.400002 -137.340005,0 0,-266.400002 z"
         id="path670" /></clipPath><clipPath
       clipPathUnits="userSpaceOnUse"
       id="clipPath676"><path
         d="m 35.246875,12.035938 137.340005,0 0,266.400002 -137.340005,0 0,-266.400002 z"
         id="path678" /></clipPath><clipPath
       clipPathUnits="userSpaceOnUse"
       id="clipPath686"><path
         d="m 35.246875,12.035938 137.340005,0 0,266.400002 -137.340005,0 0,-266.400002 z"
         id="path688" /></clipPath><clipPath
       clipPathUnits="userSpaceOnUse"
       id="clipPath696"><path
         d="m 35.246875,12.035938 137.340005,0 0,266.400002 -137.340005,0 0,-266.400002 z"
         id="path698" /></clipPath><clipPath
       clipPathUnits="userSpaceOnUse"
       id="clipPath706"><path
         d="m 35.246875,12.035938 137.340005,0 0,266.400002 -137.340005,0 0,-266.400002 z"
         id="path708" /></clipPath><clipPath
       clipPathUnits="userSpaceOnUse"
       id="clipPath714"><path
         d="m 35.246875,12.035938 137.340005,0 0,266.400002 -137.340005,0 0,-266.400002 z"
         id="path716" /></clipPath><clipPath
       clipPathUnits="userSpaceOnUse"
       id="clipPath722"><path
         d="m 35.246875,12.035938 137.340005,0 0,266.400002 -137.340005,0 0,-266.400002 z"
         id="path724" /></clipPath><clipPath
       clipPathUnits="userSpaceOnUse"
       id="clipPath730"><path
         d="m 35.246875,12.035938 137.340005,0 0,266.400002 -137.340005,0 0,-266.400002 z"
         id="path732" /></clipPath></defs><sodipodi:namedview
     pagecolor="#ffffff"
     bordercolor="#666666"
     borderopacity="1"
     objecttolerance="10"
     gridtolerance="10"
     guidetolerance="10"
     inkscape:pageopacity="0"
     inkscape:pageshadow="2"
     inkscape:window-width="1920"
     inkscape:window-height="1003"
     id="namedview4"
     showgrid="false"
     inkscape:zoom="3.6768244"
     inkscape:cx="76.30411"
     inkscape:cy="269.52157"
     inkscape:window-x="0"
     inkscape:window-y="24"
     inkscape:window-maximized="1"
     inkscape:current-layer="g10" /><g
     id="g10"
     inkscape:groupmode="layer"
     inkscape:label="xp1-explo-stick_1"
     transform="matrix(1.25,0,0,-1.25,0,363.08984)"><path
       d="m 0,0 179.78687,0 0,290.47187 L 0,290.47187 0,0 z"
       style="fill:#ffffff;fill-opacity:1;fill-rule:nonzero;stroke:none"
       id="path12" /><path
       d="m 35.246875,12.035938 137.339995,0 0,266.400002 -137.339995,0 0,-266.400002 z"
       style="fill:#ffffff;fill-opacity:1;fill-rule:nonzero;stroke:none"
       id="path14" /><g
       id="g16"><g
         id="g18"
         clip-path="url(#clipPath20)"><path
           d="m 35.246875,12.035938 137.339995,0"
           style="fill:none;stroke:#e6e6e6;stroke-opacity:1;stroke-width:1;stroke-linecap:square;stroke-linejoin:round;stroke-miterlimit:10;stroke-dasharray:none"
           id="path24" /></g></g><g
       id="g26"><path
         d="m 35.246875,12.035938 0,0"
         style="fill:#000000;fill-opacity:1;fill-rule:nonzero;stroke:#000000;stroke-opacity:1;stroke-width:0.5;stroke-linecap:butt;stroke-linejoin:round;stroke-miterlimit:10;stroke-dasharray:none"
         id="path28" /><text
         transform="matrix(1,0,0,-1,26.2,9.278125)"
         id="text30"><tspan
           style="fill:#000000;fill-opacity:1;fill-rule:nonzero;stroke:none;font-family:DejaVu Sans;font-variant:normal;font-weight:normal;font-size:10;writing-mode:lr;-inkscape-font-specification:DejaVuSans"
           x="0"
           y="0"
           id="tspan32">0</tspan></text>
</g><g
       id="g34"><g
         id="g36"
         clip-path="url(#clipPath38)"><path
           d="m 35.246875,65.315937 137.339995,0"
           style="fill:none;stroke:#e6e6e6;stroke-opacity:1;stroke-width:1;stroke-linecap:square;stroke-linejoin:round;stroke-miterlimit:10;stroke-dasharray:none"
           id="path42" /></g></g><g
       id="g44"><path
         d="m 35.246875,65.315937 0,0"
         style="fill:#000000;fill-opacity:1;fill-rule:nonzero;stroke:#000000;stroke-opacity:1;stroke-width:0.5;stroke-linecap:butt;stroke-linejoin:round;stroke-miterlimit:10;stroke-dasharray:none"
         id="path46" /><text
         transform="matrix(1,0,0,-1,13.590625,62.558125)"
         id="text48"><tspan
           style="fill:#000000;fill-opacity:1;fill-rule:nonzero;stroke:none;font-family:DejaVu Sans;font-variant:normal;font-weight:normal;font-size:10;writing-mode:lr;-inkscape-font-specification:DejaVuSans"
           x="0 6.36 12.72"
           y="0"
           sodipodi:role="line"
           id="tspan50">500</tspan></text>
</g><g
       id="g52"><g
         id="g54"
         clip-path="url(#clipPath56)"><path
           d="m 35.246875,118.59594 137.339995,0"
           style="fill:none;stroke:#e6e6e6;stroke-opacity:1;stroke-width:1;stroke-linecap:square;stroke-linejoin:round;stroke-miterlimit:10;stroke-dasharray:none"
           id="path60" /></g></g><g
       id="g62"><path
         d="m 35.246875,118.59594 0,0"
         style="fill:#000000;fill-opacity:1;fill-rule:nonzero;stroke:#000000;stroke-opacity:1;stroke-width:0.5;stroke-linecap:butt;stroke-linejoin:round;stroke-miterlimit:10;stroke-dasharray:none"
         id="path64" /><text
         transform="matrix(1,0,0,-1,7.559375,115.83813)"
         id="text66"><tspan
           style="fill:#000000;fill-opacity:1;fill-rule:nonzero;stroke:none;font-family:DejaVu Sans;font-variant:normal;font-weight:normal;font-size:10;writing-mode:lr;-inkscape-font-specification:DejaVuSans"
           x="0 6.36 12.72 19.08"
           y="0"
           sodipodi:role="line"
           id="tspan68">1000</tspan></text>
</g><g
       id="g70"><g
         id="g72"
         clip-path="url(#clipPath74)"><path
           d="m 35.246875,171.87594 137.339995,0"
           style="fill:none;stroke:#e6e6e6;stroke-opacity:1;stroke-width:1;stroke-linecap:square;stroke-linejoin:round;stroke-miterlimit:10;stroke-dasharray:none"
           id="path78" /></g></g><g
       id="g80"><path
         d="m 35.246875,171.87594 0,0"
         style="fill:#000000;fill-opacity:1;fill-rule:nonzero;stroke:#000000;stroke-opacity:1;stroke-width:0.5;stroke-linecap:butt;stroke-linejoin:round;stroke-miterlimit:10;stroke-dasharray:none"
         id="path82" /><text
         transform="matrix(1,0,0,-1,7.559375,169.11812)"
         id="text84"><tspan
           style="fill:#000000;fill-opacity:1;fill-rule:nonzero;stroke:none;font-family:DejaVu Sans;font-variant:normal;font-weight:normal;font-size:10;writing-mode:lr;-inkscape-font-specification:DejaVuSans"
           x="0 6.36 12.72 19.08"
           y="0"
           sodipodi:role="line"
           id="tspan86">1500</tspan></text>
</g><g
       id="g88"><g
         id="g90"
         clip-path="url(#clipPath92)"><path
           d="m 35.246875,225.15594 137.339995,0"
           style="fill:none;stroke:#e6e6e6;stroke-opacity:1;stroke-width:1;stroke-linecap:square;stroke-linejoin:round;stroke-miterlimit:10;stroke-dasharray:none"
           id="path96" /></g></g><g
       id="g98"><path
         d="m 35.246875,225.15594 0,0"
         style="fill:#000000;fill-opacity:1;fill-rule:nonzero;stroke:#000000;stroke-opacity:1;stroke-width:0.5;stroke-linecap:butt;stroke-linejoin:round;stroke-miterlimit:10;stroke-dasharray:none"
         id="path100" /><text
         transform="matrix(1,0,0,-1,7.2,222.39813)"
         id="text102"><tspan
           style="fill:#000000;fill-opacity:1;fill-rule:nonzero;stroke:none;font-family:DejaVu Sans;font-variant:normal;font-weight:normal;font-size:10;writing-mode:lr;-inkscape-font-specification:DejaVuSans"
           x="0 6.36 12.72 19.08"
           y="0"
           sodipodi:role="line"
           id="tspan104">2000</tspan></text>
</g><g
       id="g106"><g
         id="g108"
         clip-path="url(#clipPath110)"><path
           d="m 35.246875,278.43594 137.339995,0"
           style="fill:none;stroke:#e6e6e6;stroke-opacity:1;stroke-width:1;stroke-linecap:square;stroke-linejoin:round;stroke-miterlimit:10;stroke-dasharray:none"
           id="path114" /></g></g><g
       id="g116"><path
         d="m 35.246875,278.43594 0,0"
         style="fill:#000000;fill-opacity:1;fill-rule:nonzero;stroke:#000000;stroke-opacity:1;stroke-width:0.5;stroke-linecap:butt;stroke-linejoin:round;stroke-miterlimit:10;stroke-dasharray:none"
         id="path118" /><text
         transform="matrix(1,0,0,-1,7.2,275.67812)"
         id="text120"><tspan
           style="fill:#000000;fill-opacity:1;fill-rule:nonzero;stroke:none;font-family:DejaVu Sans;font-variant:normal;font-weight:normal;font-size:10;writing-mode:lr;-inkscape-font-specification:DejaVuSans"
           x="0 6.36 12.72 19.08"
           y="0"
           sodipodi:role="line"
           id="tspan122">2500</tspan></text>
</g><g
       id="g124"><g
         id="g126"
         clip-path="url(#clipPath128)" /></g><g
       id="g132"><g
         id="g134"
         clip-path="url(#clipPath136)"><path
           d="m 39.824875,44.696578 13.734,0 -13.734,0 z"
           style="fill:#1b9e77;fill-opacity:1;fill-rule:nonzero;stroke:none"
           id="path140" /></g></g><g
       id="g142"><g
         id="g144"
         clip-path="url(#clipPath146)"><path
           d="m 39.824875,44.696578 13.734,0 0,2.450879 -13.734,-2.450879 z"
           style="fill:#1b9e77;fill-opacity:1;fill-rule:nonzero;stroke:none"
           id="path150" /></g></g><g
       id="g152"><g
         id="g154"
         clip-path="url(#clipPath156)"><path
           d="m 39.824875,44.696578 13.734,0 0,2.450879 -13.734,0 0,-2.450879 z"
           style="fill:#1b9e77;fill-opacity:1;fill-rule:nonzero;stroke:none"
           id="path160" /></g></g><g
       id="g162"><g
         id="g164"
         clip-path="url(#clipPath166)"><path
           d="m 39.824875,44.696578 13.734,0 0,2.450879 -13.734,0 0,-2.450879 z"
           style="fill:#1b9e77;fill-opacity:1;fill-rule:nonzero;stroke:none"
           id="path170" /></g></g><g
       id="g172"><g
         id="g174"
         clip-path="url(#clipPath176)" /></g><g
       id="g180"><g
         id="g182"
         clip-path="url(#clipPath184)"><path
           d="m 62.714875,172.27554 13.734,0 -13.734,0 z"
           style="fill:#d95f02;fill-opacity:1;fill-rule:nonzero;stroke:none"
           id="path188" /></g></g><g
       id="g190"><g
         id="g192"
         clip-path="url(#clipPath194)"><path
           d="m 62.714875,172.27554 13.734,0 0,37.34928 -13.734,-37.34928 z"
           style="fill:#d95f02;fill-opacity:1;fill-rule:nonzero;stroke:none"
           id="path198" /></g></g><g
       id="g200"><g
         id="g202"
         clip-path="url(#clipPath204)"><path
           d="m 62.714875,172.27554 13.734,0 0,37.34928 -13.734,0 0,-37.34928 z"
           style="fill:#d95f02;fill-opacity:1;fill-rule:nonzero;stroke:none"
           id="path208" /></g></g><g
       id="g210"><g
         id="g212"
         clip-path="url(#clipPath214)"><path
           d="m 62.714875,172.27554 13.734,0 0,37.34928 -13.734,0 0,-37.34928 z"
           style="fill:#d95f02;fill-opacity:1;fill-rule:nonzero;stroke:none"
           id="path218" /></g></g><g
       id="g220"><g
         id="g222"
         clip-path="url(#clipPath224)" /></g><g
       id="g228"><g
         id="g230"
         clip-path="url(#clipPath232)"><path
           d="m 85.604875,178.88226 13.734,0 -13.734,0 z"
           style="fill:#7570b3;fill-opacity:1;fill-rule:nonzero;stroke:none"
           id="path236" /></g></g><g
       id="g238"><g
         id="g240"
         clip-path="url(#clipPath242)"><path
           d="m 85.604875,178.88226 13.734,0 0,51.76152 -13.734,-51.76152 z"
           style="fill:#7570b3;fill-opacity:1;fill-rule:nonzero;stroke:none"
           id="path246" /></g></g><g
       id="g248"><g
         id="g250"
         clip-path="url(#clipPath252)"><path
           d="m 85.604875,178.88226 13.734,0 0,51.76152 -13.734,0 0,-51.76152 z"
           style="fill:#7570b3;fill-opacity:1;fill-rule:nonzero;stroke:none"
           id="path256" /></g></g><g
       id="g258"><g
         id="g260"
         clip-path="url(#clipPath262)"><path
           d="m 85.604875,178.88226 13.734,0 0,51.76152 -13.734,0 0,-51.76152 z"
           style="fill:#7570b3;fill-opacity:1;fill-rule:nonzero;stroke:none"
           id="path266" /></g></g><g
       id="g268"><g
         id="g270"
         clip-path="url(#clipPath272)" /></g><g
       id="g276"><g
         id="g278"
         clip-path="url(#clipPath280)"><path
           d="m 108.49488,181.14666 13.73399,0 -13.73399,0 z"
           style="fill:#e7298a;fill-opacity:1;fill-rule:nonzero;stroke:none"
           id="path284" /></g></g><g
       id="g286"><g
         id="g288"
         clip-path="url(#clipPath290)"><path
           d="m 108.49488,181.14666 13.73399,0 0,64.38888 -13.73399,-64.38888 z"
           style="fill:#e7298a;fill-opacity:1;fill-rule:nonzero;stroke:none"
           id="path294" /></g></g><g
       id="g296"><g
         id="g298"
         clip-path="url(#clipPath300)"><path
           d="m 108.49488,181.14666 13.73399,0 0,64.38888 -13.73399,0 0,-64.38888 z"
           style="fill:#e7298a;fill-opacity:1;fill-rule:nonzero;stroke:none"
           id="path304" /></g></g><g
       id="g306"><g
         id="g308"
         clip-path="url(#clipPath310)"><path
           d="m 108.49488,181.14666 13.73399,0 0,64.38888 -13.73399,0 0,-64.38888 z"
           style="fill:#e7298a;fill-opacity:1;fill-rule:nonzero;stroke:none"
           id="path314" /></g></g><g
       id="g316"><g
         id="g318"
         clip-path="url(#clipPath320)" /></g><g
       id="g324"><g
         id="g326"
         clip-path="url(#clipPath328)"><path
           d="m 131.38487,70.004577 13.734,0 -13.734,0 z"
           style="fill:#66a61e;fill-opacity:1;fill-rule:nonzero;stroke:none"
           id="path332" /></g></g><g
       id="g334"><g
         id="g336"
         clip-path="url(#clipPath338)"><path
           d="m 131.38487,70.004577 13.734,0 0,169.297203 -13.734,-169.297203 z"
           style="fill:#66a61e;fill-opacity:1;fill-rule:nonzero;stroke:none"
           id="path342" /></g></g><g
       id="g344"><g
         id="g346"
         clip-path="url(#clipPath348)"><path
           d="m 131.38487,70.004577 13.734,0 0,169.297203 -13.734,0 0,-169.297203 z"
           style="fill:#66a61e;fill-opacity:1;fill-rule:nonzero;stroke:none"
           id="path352" /></g></g><g
       id="g354"><g
         id="g356"
         clip-path="url(#clipPath358)"><path
           d="m 131.38487,70.004577 13.734,0 0,169.297203 -13.734,0 0,-169.297203 z"
           style="fill:#66a61e;fill-opacity:1;fill-rule:nonzero;stroke:none"
           id="path362" /></g></g><g
       id="g364"><g
         id="g366"
         clip-path="url(#clipPath368)" /></g><g
       id="g372"><g
         id="g374"
         clip-path="url(#clipPath376)"><path
           d="m 154.27487,162.55194 13.734,0 -13.734,0 z"
           style="fill:#e6ab02;fill-opacity:1;fill-rule:nonzero;stroke:none"
           id="path380" /></g></g><g
       id="g382"><g
         id="g384"
         clip-path="url(#clipPath386)"><path
           d="m 154.27487,162.55194 13.734,0 0,74.91168 -13.734,-74.91168 z"
           style="fill:#e6ab02;fill-opacity:1;fill-rule:nonzero;stroke:none"
           id="path390" /></g></g><g
       id="g392"><g
         id="g394"
         clip-path="url(#clipPath396)"><path
           d="m 154.27487,162.55194 13.734,0 0,74.91168 -13.734,0 0,-74.91168 z"
           style="fill:#e6ab02;fill-opacity:1;fill-rule:nonzero;stroke:none"
           id="path400" /></g></g><g
       id="g402"><g
         id="g404"
         clip-path="url(#clipPath406)"><path
           d="m 154.27487,162.55194 13.734,0 0,74.91168 -13.734,0 0,-74.91168 z"
           style="fill:#e6ab02;fill-opacity:1;fill-rule:nonzero;stroke:none"
           id="path410" /></g></g><g
       id="g412"><g
         id="g414"
         clip-path="url(#clipPath416)"><path
           d="m 46.691875,44.696578 0,0"
           style="fill:none;stroke:#1b9e77;stroke-opacity:1;stroke-width:2;stroke-linecap:butt;stroke-linejoin:round;stroke-miterlimit:10;stroke-dasharray:6,6;stroke-dashoffset:0"
           id="path420" /></g></g><g
       id="g422"><g
         id="g424"
         clip-path="url(#clipPath426)"><path
           d="m 46.691875,47.147457 0,0"
           style="fill:none;stroke:#1b9e77;stroke-opacity:1;stroke-width:2;stroke-linecap:butt;stroke-linejoin:round;stroke-miterlimit:10;stroke-dasharray:6,6;stroke-dashoffset:0"
           id="path430" /></g></g><g
       id="g432"><g
         id="g434"
         clip-path="url(#clipPath436)" /></g><g
       id="g440"><g
         id="g442"
         clip-path="url(#clipPath444)" /></g><g
       id="g448"><g
         id="g450"
         clip-path="url(#clipPath452)" /></g><g
       id="g456"><g
         id="g458"
         clip-path="url(#clipPath460)"><path
           d="m 39.824875,45.815457 13.734,0"
           style="fill:none;stroke:#000000;stroke-opacity:1;stroke-width:3;stroke-linecap:square;stroke-linejoin:round;stroke-miterlimit:10;stroke-dasharray:none"
           id="path464" /></g></g><g
       id="g466"><g
         id="g468"
         clip-path="url(#clipPath470)"><path
           d="m 69.581875,172.27554 0,0"
           style="fill:none;stroke:#d95f02;stroke-opacity:1;stroke-width:2;stroke-linecap:butt;stroke-linejoin:round;stroke-miterlimit:10;stroke-dasharray:6,6;stroke-dashoffset:0"
           id="path474" /></g></g><g
       id="g476"><g
         id="g478"
         clip-path="url(#clipPath480)"><path
           d="m 69.581875,209.62482 0,0"
           style="fill:none;stroke:#d95f02;stroke-opacity:1;stroke-width:2;stroke-linecap:butt;stroke-linejoin:round;stroke-miterlimit:10;stroke-dasharray:6,6;stroke-dashoffset:0"
           id="path484" /></g></g><g
       id="g486"><g
         id="g488"
         clip-path="url(#clipPath490)" /></g><g
       id="g494"><g
         id="g496"
         clip-path="url(#clipPath498)" /></g><g
       id="g502"><g
         id="g504"
         clip-path="url(#clipPath506)" /></g><g
       id="g510"><g
         id="g512"
         clip-path="url(#clipPath514)"><path
           d="m 62.714875,191.1633 13.734,0"
           style="fill:none;stroke:#000000;stroke-opacity:1;stroke-width:3;stroke-linecap:square;stroke-linejoin:round;stroke-miterlimit:10;stroke-dasharray:none"
           id="path518" /></g></g><g
       id="g520"><g
         id="g522"
         clip-path="url(#clipPath524)"><path
           d="m 92.471875,178.88226 0,0"
           style="fill:none;stroke:#7570b3;stroke-opacity:1;stroke-width:2;stroke-linecap:butt;stroke-linejoin:round;stroke-miterlimit:10;stroke-dasharray:6,6;stroke-dashoffset:0"
           id="path528" /></g></g><g
       id="g530"><g
         id="g532"
         clip-path="url(#clipPath534)"><path
           d="m 92.471875,230.64378 0,0"
           style="fill:none;stroke:#7570b3;stroke-opacity:1;stroke-width:2;stroke-linecap:butt;stroke-linejoin:round;stroke-miterlimit:10;stroke-dasharray:6,6;stroke-dashoffset:0"
           id="path538" /></g></g><g
       id="g540"><g
         id="g542"
         clip-path="url(#clipPath544)" /></g><g
       id="g548"><g
         id="g550"
         clip-path="url(#clipPath552)" /></g><g
       id="g556"><g
         id="g558"
         clip-path="url(#clipPath560)" /></g><g
       id="g564"><g
         id="g566"
         clip-path="url(#clipPath568)"><path
           d="m 85.604875,203.57754 13.734,0"
           style="fill:none;stroke:#000000;stroke-opacity:1;stroke-width:3;stroke-linecap:square;stroke-linejoin:round;stroke-miterlimit:10;stroke-dasharray:none"
           id="path572" /></g></g><g
       id="g574"><g
         id="g576"
         clip-path="url(#clipPath578)"><path
           d="m 115.36187,181.14666 0,0"
           style="fill:none;stroke:#e7298a;stroke-opacity:1;stroke-width:2;stroke-linecap:butt;stroke-linejoin:round;stroke-miterlimit:10;stroke-dasharray:6,6;stroke-dashoffset:0"
           id="path582" /></g></g><g
       id="g584"><g
         id="g586"
         clip-path="url(#clipPath588)"><path
           d="m 115.36187,245.53554 0,0"
           style="fill:none;stroke:#e7298a;stroke-opacity:1;stroke-width:2;stroke-linecap:butt;stroke-linejoin:round;stroke-miterlimit:10;stroke-dasharray:6,6;stroke-dashoffset:0"
           id="path592" /></g></g><g
       id="g594"><g
         id="g596"
         clip-path="url(#clipPath598)" /></g><g
       id="g602"><g
         id="g604"
         clip-path="url(#clipPath606)" /></g><g
       id="g610"><g
         id="g612"
         clip-path="url(#clipPath614)" /></g><g
       id="g618"><g
         id="g620"
         clip-path="url(#clipPath622)"><path
           d="m 108.49488,226.00842 13.73399,0"
           style="fill:none;stroke:#000000;stroke-opacity:1;stroke-width:3;stroke-linecap:square;stroke-linejoin:round;stroke-miterlimit:10;stroke-dasharray:none"
           id="path626" /></g></g><g
       id="g628"><g
         id="g630"
         clip-path="url(#clipPath632)"><path
           d="m 138.25187,70.004577 0,0"
           style="fill:none;stroke:#66a61e;stroke-opacity:1;stroke-width:2;stroke-linecap:butt;stroke-linejoin:round;stroke-miterlimit:10;stroke-dasharray:6,6;stroke-dashoffset:0"
           id="path636" /></g></g><g
       id="g638"><g
         id="g640"
         clip-path="url(#clipPath642)"><path
           d="m 138.25187,239.30178 0,0"
           style="fill:none;stroke:#66a61e;stroke-opacity:1;stroke-width:2;stroke-linecap:butt;stroke-linejoin:round;stroke-miterlimit:10;stroke-dasharray:6,6;stroke-dashoffset:0"
           id="path646" /></g></g><g
       id="g648"><g
         id="g650"
         clip-path="url(#clipPath652)" /></g><g
       id="g656"><g
         id="g658"
         clip-path="url(#clipPath660)" /></g><g
       id="g664"><g
         id="g666"
         clip-path="url(#clipPath668)" /></g><g
       id="g672"><g
         id="g674"
         clip-path="url(#clipPath676)"><path
           d="m 131.38487,196.86426 13.734,0"
           style="fill:none;stroke:#000000;stroke-opacity:1;stroke-width:3;stroke-linecap:square;stroke-linejoin:round;stroke-miterlimit:10;stroke-dasharray:none"
           id="path680" /></g></g><g
       id="g682"><g
         id="g684"
         clip-path="url(#clipPath686)"><path
           d="m 161.14187,162.55194 0,0"
           style="fill:none;stroke:#e6ab02;stroke-opacity:1;stroke-width:2;stroke-linecap:butt;stroke-linejoin:round;stroke-miterlimit:10;stroke-dasharray:6,6;stroke-dashoffset:0"
           id="path690" /></g></g><g
       id="g692"><g
         id="g694"
         clip-path="url(#clipPath696)"><path
           d="m 161.14187,237.46362 0,0"
           style="fill:none;stroke:#e6ab02;stroke-opacity:1;stroke-width:2;stroke-linecap:butt;stroke-linejoin:round;stroke-miterlimit:10;stroke-dasharray:6,6;stroke-dashoffset:0"
           id="path700" /></g></g><g
       id="g702"><g
         id="g704"
         clip-path="url(#clipPath706)" /></g><g
       id="g710"><g
         id="g712"
         clip-path="url(#clipPath714)" /></g><g
       id="g718"><g
         id="g720"
         clip-path="url(#clipPath722)" /></g><g
       id="g726"><g
         id="g728"
         clip-path="url(#clipPath730)"><path
           d="m 154.27487,210.82362 13.734,0"
           style="fill:none;stroke:#000000;stroke-opacity:1;stroke-width:3;stroke-linecap:square;stroke-linejoin:round;stroke-miterlimit:10;stroke-dasharray:none"
           id="path734" /></g></g><g
       id="g736"><path
         d="m 35.246875,12.035938 137.339995,0"
         style="fill:none;stroke:#000000;stroke-opacity:1;stroke-width:1;stroke-linecap:butt;stroke-linejoin:round;stroke-miterlimit:10;stroke-dasharray:none"
         id="path738" /><path
         d="m 138.25187,247.53394 0,2.5796 -22.89,0 0,-2.5796"
         style="fill:none;stroke:#aaaaaa;stroke-opacity:1;stroke-width:1;stroke-linecap:round;stroke-linejoin:round;stroke-miterlimit:10;stroke-dasharray:none"
         id="path740" /></g><text
       xml:space="preserve"
       style="font-size:9.60000038px;font-style:normal;font-variant:normal;font-weight:normal;font-stretch:normal;text-align:start;line-height:125%;letter-spacing:0px;word-spacing:0px;writing-mode:lr-tb;text-anchor:start;fill:#000000;fill-opacity:1;stroke:none;font-family:Sans;-inkscape-font-specification:Sans"
       x="122.93217"
       y="-249.3456"
       id="text3717"
       sodipodi:linespacing="125%"
       transform="scale(1,-1)"><tspan
         sodipodi:role="line"
         id="tspan3719"
         x="122.93217"
         y="-249.3456">**</tspan></text>
</g></svg>