<?xml version="1.0" encoding="UTF-8" standalone="no"?>
<!-- Created with Inkscape (http://www.inkscape.org/) -->

<svg
   xmlns:dc="http://purl.org/dc/elements/1.1/"
   xmlns:cc="http://creativecommons.org/ns#"
   xmlns:rdf="http://www.w3.org/1999/02/22-rdf-syntax-ns#"
   xmlns:svg="http://www.w3.org/2000/svg"
   xmlns="http://www.w3.org/2000/svg"
   xmlns:sodipodi="http://sodipodi.sourceforge.net/DTD/sodipodi-0.dtd"
   xmlns:inkscape="http://www.inkscape.org/namespaces/inkscape"
   id="svg2"
   version="1.1"
   inkscape:version="0.48.4 r9939"
   width="224.73359"
   height="363.08984"
   xml:space="preserve"
   sodipodi:docname="xp1-explo-obj.pdf"><metadata
     id="metadata8"><rdf:RDF><cc:Work
         rdf:about=""><dc:format>image/svg+xml</dc:format><dc:type
           rdf:resource="http://purl.org/dc/dcmitype/StillImage" /><dc:title></dc:title></cc:Work></rdf:RDF></metadata><defs
     id="defs6"><clipPath
       clipPathUnits="userSpaceOnUse"
       id="clipPath20"><path
         d="m 35.246875,12.035938 137.340005,0 0,266.400002 -137.340005,0 0,-266.400002 z"
         id="path22" /></clipPath><clipPath
       clipPathUnits="userSpaceOnUse"
       id="clipPath38"><path
         d="m 35.246875,12.035938 137.340005,0 0,266.400002 -137.340005,0 0,-266.400002 z"
         id="path40" /></clipPath><clipPath
       clipPathUnits="userSpaceOnUse"
       id="clipPath56"><path
         d="m 35.246875,12.035938 137.340005,0 0,266.400002 -137.340005,0 0,-266.400002 z"
         id="path58" /></clipPath><clipPath
       clipPathUnits="userSpaceOnUse"
       id="clipPath74"><path
         d="m 35.246875,12.035938 137.340005,0 0,266.400002 -137.340005,0 0,-266.400002 z"
         id="path76" /></clipPath><clipPath
       clipPathUnits="userSpaceOnUse"
       id="clipPath92"><path
         d="m 35.246875,12.035938 137.340005,0 0,266.400002 -137.340005,0 0,-266.400002 z"
         id="path94" /></clipPath><clipPath
       clipPathUnits="userSpaceOnUse"
       id="clipPath110"><path
         d="m 35.246875,12.035938 137.340005,0 0,266.400002 -137.340005,0 0,-266.400002 z"
         id="path112" /></clipPath><clipPath
       clipPathUnits="userSpaceOnUse"
       id="clipPath128"><path
         d="m 35.246875,12.035938 137.340005,0 0,266.400002 -137.340005,0 0,-266.400002 z"
         id="path130" /></clipPath><clipPath
       clipPathUnits="userSpaceOnUse"
       id="clipPath146"><path
         d="m 35.246875,12.035938 137.340005,0 0,266.400002 -137.340005,0 0,-266.400002 z"
         id="path148" /></clipPath><clipPath
       clipPathUnits="userSpaceOnUse"
       id="clipPath154"><path
         d="m 35.246875,12.035938 137.340005,0 0,266.400002 -137.340005,0 0,-266.400002 z"
         id="path156" /></clipPath><clipPath
       clipPathUnits="userSpaceOnUse"
       id="clipPath164"><path
         d="m 35.246875,12.035938 137.340005,0 0,266.400002 -137.340005,0 0,-266.400002 z"
         id="path166" /></clipPath><clipPath
       clipPathUnits="userSpaceOnUse"
       id="clipPath174"><path
         d="m 35.246875,12.035938 137.340005,0 0,266.400002 -137.340005,0 0,-266.400002 z"
         id="path176" /></clipPath><clipPath
       clipPathUnits="userSpaceOnUse"
       id="clipPath184"><path
         d="m 35.246875,12.035938 137.340005,0 0,266.400002 -137.340005,0 0,-266.400002 z"
         id="path186" /></clipPath><clipPath
       clipPathUnits="userSpaceOnUse"
       id="clipPath194"><path
         d="m 35.246875,12.035938 137.340005,0 0,266.400002 -137.340005,0 0,-266.400002 z"
         id="path196" /></clipPath><clipPath
       clipPathUnits="userSpaceOnUse"
       id="clipPath202"><path
         d="m 35.246875,12.035938 137.340005,0 0,266.400002 -137.340005,0 0,-266.400002 z"
         id="path204" /></clipPath><clipPath
       clipPathUnits="userSpaceOnUse"
       id="clipPath212"><path
         d="m 35.246875,12.035938 137.340005,0 0,266.400002 -137.340005,0 0,-266.400002 z"
         id="path214" /></clipPath><clipPath
       clipPathUnits="userSpaceOnUse"
       id="clipPath222"><path
         d="m 35.246875,12.035938 137.340005,0 0,266.400002 -137.340005,0 0,-266.400002 z"
         id="path224" /></clipPath><clipPath
       clipPathUnits="userSpaceOnUse"
       id="clipPath232"><path
         d="m 35.246875,12.035938 137.340005,0 0,266.400002 -137.340005,0 0,-266.400002 z"
         id="path234" /></clipPath><clipPath
       clipPathUnits="userSpaceOnUse"
       id="clipPath242"><path
         d="m 35.246875,12.035938 137.340005,0 0,266.400002 -137.340005,0 0,-266.400002 z"
         id="path244" /></clipPath><clipPath
       clipPathUnits="userSpaceOnUse"
       id="clipPath250"><path
         d="m 35.246875,12.035938 137.340005,0 0,266.400002 -137.340005,0 0,-266.400002 z"
         id="path252" /></clipPath><clipPath
       clipPathUnits="userSpaceOnUse"
       id="clipPath260"><path
         d="m 35.246875,12.035938 137.340005,0 0,266.400002 -137.340005,0 0,-266.400002 z"
         id="path262" /></clipPath><clipPath
       clipPathUnits="userSpaceOnUse"
       id="clipPath270"><path
         d="m 35.246875,12.035938 137.340005,0 0,266.400002 -137.340005,0 0,-266.400002 z"
         id="path272" /></clipPath><clipPath
       clipPathUnits="userSpaceOnUse"
       id="clipPath280"><path
         d="m 35.246875,12.035938 137.340005,0 0,266.400002 -137.340005,0 0,-266.400002 z"
         id="path282" /></clipPath><clipPath
       clipPathUnits="userSpaceOnUse"
       id="clipPath290"><path
         d="m 35.246875,12.035938 137.340005,0 0,266.400002 -137.340005,0 0,-266.400002 z"
         id="path292" /></clipPath><clipPath
       clipPathUnits="userSpaceOnUse"
       id="clipPath298"><path
         d="m 35.246875,12.035938 137.340005,0 0,266.400002 -137.340005,0 0,-266.400002 z"
         id="path300" /></clipPath><clipPath
       clipPathUnits="userSpaceOnUse"
       id="clipPath308"><path
         d="m 35.246875,12.035938 137.340005,0 0,266.400002 -137.340005,0 0,-266.400002 z"
         id="path310" /></clipPath><clipPath
       clipPathUnits="userSpaceOnUse"
       id="clipPath318"><path
         d="m 35.246875,12.035938 137.340005,0 0,266.400002 -137.340005,0 0,-266.400002 z"
         id="path320" /></clipPath><clipPath
       clipPathUnits="userSpaceOnUse"
       id="clipPath328"><path
         d="m 35.246875,12.035938 137.340005,0 0,266.400002 -137.340005,0 0,-266.400002 z"
         id="path330" /></clipPath><clipPath
       clipPathUnits="userSpaceOnUse"
       id="clipPath338"><path
         d="m 35.246875,12.035938 137.340005,0 0,266.400002 -137.340005,0 0,-266.400002 z"
         id="path340" /></clipPath><clipPath
       clipPathUnits="userSpaceOnUse"
       id="clipPath346"><path
         d="m 35.246875,12.035938 137.340005,0 0,266.400002 -137.340005,0 0,-266.400002 z"
         id="path348" /></clipPath><clipPath
       clipPathUnits="userSpaceOnUse"
       id="clipPath356"><path
         d="m 35.246875,12.035938 137.340005,0 0,266.400002 -137.340005,0 0,-266.400002 z"
         id="path358" /></clipPath><clipPath
       clipPathUnits="userSpaceOnUse"
       id="clipPath366"><path
         d="m 35.246875,12.035938 137.340005,0 0,266.400002 -137.340005,0 0,-266.400002 z"
         id="path368" /></clipPath><clipPath
       clipPathUnits="userSpaceOnUse"
       id="clipPath376"><path
         d="m 35.246875,12.035938 137.340005,0 0,266.400002 -137.340005,0 0,-266.400002 z"
         id="path378" /></clipPath><clipPath
       clipPathUnits="userSpaceOnUse"
       id="clipPath386"><path
         d="m 35.246875,12.035938 137.340005,0 0,266.400002 -137.340005,0 0,-266.400002 z"
         id="path388" /></clipPath><clipPath
       clipPathUnits="userSpaceOnUse"
       id="clipPath394"><path
         d="m 35.246875,12.035938 137.340005,0 0,266.400002 -137.340005,0 0,-266.400002 z"
         id="path396" /></clipPath><clipPath
       clipPathUnits="userSpaceOnUse"
       id="clipPath404"><path
         d="m 35.246875,12.035938 137.340005,0 0,266.400002 -137.340005,0 0,-266.400002 z"
         id="path406" /></clipPath><clipPath
       clipPathUnits="userSpaceOnUse"
       id="clipPath414"><path
         d="m 35.246875,12.035938 137.340005,0 0,266.400002 -137.340005,0 0,-266.400002 z"
         id="path416" /></clipPath><clipPath
       clipPathUnits="userSpaceOnUse"
       id="clipPath424"><path
         d="m 35.246875,12.035938 137.340005,0 0,266.400002 -137.340005,0 0,-266.400002 z"
         id="path426" /></clipPath><clipPath
       clipPathUnits="userSpaceOnUse"
       id="clipPath434"><path
         d="m 35.246875,12.035938 137.340005,0 0,266.400002 -137.340005,0 0,-266.400002 z"
         id="path436" /></clipPath><clipPath
       clipPathUnits="userSpaceOnUse"
       id="clipPath444"><path
         d="m 35.246875,12.035938 137.340005,0 0,266.400002 -137.340005,0 0,-266.400002 z"
         id="path446" /></clipPath><clipPath
       clipPathUnits="userSpaceOnUse"
       id="clipPath454"><path
         d="m 35.246875,12.035938 137.340005,0 0,266.400002 -137.340005,0 0,-266.400002 z"
         id="path456" /></clipPath><clipPath
       clipPathUnits="userSpaceOnUse"
       id="clipPath462"><path
         d="m 35.246875,12.035938 137.340005,0 0,266.400002 -137.340005,0 0,-266.400002 z"
         id="path464" /></clipPath><clipPath
       clipPathUnits="userSpaceOnUse"
       id="clipPath470"><path
         d="m 35.246875,12.035938 137.340005,0 0,266.400002 -137.340005,0 0,-266.400002 z"
         id="path472" /></clipPath><clipPath
       clipPathUnits="userSpaceOnUse"
       id="clipPath478"><path
         d="m 35.246875,12.035938 137.340005,0 0,266.400002 -137.340005,0 0,-266.400002 z"
         id="path480" /></clipPath><clipPath
       clipPathUnits="userSpaceOnUse"
       id="clipPath488"><path
         d="m 35.246875,12.035938 137.340005,0 0,266.400002 -137.340005,0 0,-266.400002 z"
         id="path490" /></clipPath><clipPath
       clipPathUnits="userSpaceOnUse"
       id="clipPath498"><path
         d="m 35.246875,12.035938 137.340005,0 0,266.400002 -137.340005,0 0,-266.400002 z"
         id="path500" /></clipPath><clipPath
       clipPathUnits="userSpaceOnUse"
       id="clipPath508"><path
         d="m 35.246875,12.035938 137.340005,0 0,266.400002 -137.340005,0 0,-266.400002 z"
         id="path510" /></clipPath><clipPath
       clipPathUnits="userSpaceOnUse"
       id="clipPath516"><path
         d="m 35.246875,12.035938 137.340005,0 0,266.400002 -137.340005,0 0,-266.400002 z"
         id="path518" /></clipPath><clipPath
       clipPathUnits="userSpaceOnUse"
       id="clipPath524"><path
         d="m 35.246875,12.035938 137.340005,0 0,266.400002 -137.340005,0 0,-266.400002 z"
         id="path526" /></clipPath><clipPath
       clipPathUnits="userSpaceOnUse"
       id="clipPath532"><path
         d="m 35.246875,12.035938 137.340005,0 0,266.400002 -137.340005,0 0,-266.400002 z"
         id="path534" /></clipPath><clipPath
       clipPathUnits="userSpaceOnUse"
       id="clipPath542"><path
         d="m 35.246875,12.035938 137.340005,0 0,266.400002 -137.340005,0 0,-266.400002 z"
         id="path544" /></clipPath><clipPath
       clipPathUnits="userSpaceOnUse"
       id="clipPath552"><path
         d="m 35.246875,12.035938 137.340005,0 0,266.400002 -137.340005,0 0,-266.400002 z"
         id="path554" /></clipPath><clipPath
       clipPathUnits="userSpaceOnUse"
       id="clipPath562"><path
         d="m 35.246875,12.035938 137.340005,0 0,266.400002 -137.340005,0 0,-266.400002 z"
         id="path564" /></clipPath><clipPath
       clipPathUnits="userSpaceOnUse"
       id="clipPath570"><path
         d="m 35.246875,12.035938 137.340005,0 0,266.400002 -137.340005,0 0,-266.400002 z"
         id="path572" /></clipPath><clipPath
       clipPathUnits="userSpaceOnUse"
       id="clipPath578"><path
         d="m 35.246875,12.035938 137.340005,0 0,266.400002 -137.340005,0 0,-266.400002 z"
         id="path580" /></clipPath><clipPath
       clipPathUnits="userSpaceOnUse"
       id="clipPath586"><path
         d="m 35.246875,12.035938 137.340005,0 0,266.400002 -137.340005,0 0,-266.400002 z"
         id="path588" /></clipPath><clipPath
       clipPathUnits="userSpaceOnUse"
       id="clipPath596"><path
         d="m 35.246875,12.035938 137.340005,0 0,266.400002 -137.340005,0 0,-266.400002 z"
         id="path598" /></clipPath><clipPath
       clipPathUnits="userSpaceOnUse"
       id="clipPath606"><path
         d="m 35.246875,12.035938 137.340005,0 0,266.400002 -137.340005,0 0,-266.400002 z"
         id="path608" /></clipPath><clipPath
       clipPathUnits="userSpaceOnUse"
       id="clipPath616"><path
         d="m 35.246875,12.035938 137.340005,0 0,266.400002 -137.340005,0 0,-266.400002 z"
         id="path618" /></clipPath><clipPath
       clipPathUnits="userSpaceOnUse"
       id="clipPath624"><path
         d="m 35.246875,12.035938 137.340005,0 0,266.400002 -137.340005,0 0,-266.400002 z"
         id="path626" /></clipPath><clipPath
       clipPathUnits="userSpaceOnUse"
       id="clipPath632"><path
         d="m 35.246875,12.035938 137.340005,0 0,266.400002 -137.340005,0 0,-266.400002 z"
         id="path634" /></clipPath><clipPath
       clipPathUnits="userSpaceOnUse"
       id="clipPath640"><path
         d="m 35.246875,12.035938 137.340005,0 0,266.400002 -137.340005,0 0,-266.400002 z"
         id="path642" /></clipPath><clipPath
       clipPathUnits="userSpaceOnUse"
       id="clipPath650"><path
         d="m 35.246875,12.035938 137.340005,0 0,266.400002 -137.340005,0 0,-266.400002 z"
         id="path652" /></clipPath><clipPath
       clipPathUnits="userSpaceOnUse"
       id="clipPath660"><path
         d="m 35.246875,12.035938 137.340005,0 0,266.400002 -137.340005,0 0,-266.400002 z"
         id="path662" /></clipPath><clipPath
       clipPathUnits="userSpaceOnUse"
       id="clipPath670"><path
         d="m 35.246875,12.035938 137.340005,0 0,266.400002 -137.340005,0 0,-266.400002 z"
         id="path672" /></clipPath><clipPath
       clipPathUnits="userSpaceOnUse"
       id="clipPath678"><path
         d="m 35.246875,12.035938 137.340005,0 0,266.400002 -137.340005,0 0,-266.400002 z"
         id="path680" /></clipPath><clipPath
       clipPathUnits="userSpaceOnUse"
       id="clipPath686"><path
         d="m 35.246875,12.035938 137.340005,0 0,266.400002 -137.340005,0 0,-266.400002 z"
         id="path688" /></clipPath><clipPath
       clipPathUnits="userSpaceOnUse"
       id="clipPath694"><path
         d="m 35.246875,12.035938 137.340005,0 0,266.400002 -137.340005,0 0,-266.400002 z"
         id="path696" /></clipPath><clipPath
       clipPathUnits="userSpaceOnUse"
       id="clipPath704"><path
         d="m 35.246875,12.035938 137.340005,0 0,266.400002 -137.340005,0 0,-266.400002 z"
         id="path706" /></clipPath><clipPath
       clipPathUnits="userSpaceOnUse"
       id="clipPath714"><path
         d="m 35.246875,12.035938 137.340005,0 0,266.400002 -137.340005,0 0,-266.400002 z"
         id="path716" /></clipPath><clipPath
       clipPathUnits="userSpaceOnUse"
       id="clipPath724"><path
         d="m 35.246875,12.035938 137.340005,0 0,266.400002 -137.340005,0 0,-266.400002 z"
         id="path726" /></clipPath><clipPath
       clipPathUnits="userSpaceOnUse"
       id="clipPath732"><path
         d="m 35.246875,12.035938 137.340005,0 0,266.400002 -137.340005,0 0,-266.400002 z"
         id="path734" /></clipPath><clipPath
       clipPathUnits="userSpaceOnUse"
       id="clipPath740"><path
         d="m 35.246875,12.035938 137.340005,0 0,266.400002 -137.340005,0 0,-266.400002 z"
         id="path742" /></clipPath><clipPath
       clipPathUnits="userSpaceOnUse"
       id="clipPath748"><path
         d="m 35.246875,12.035938 137.340005,0 0,266.400002 -137.340005,0 0,-266.400002 z"
         id="path750" /></clipPath></defs><sodipodi:namedview
     pagecolor="#ffffff"
     bordercolor="#666666"
     borderopacity="1"
     objecttolerance="10"
     gridtolerance="10"
     guidetolerance="10"
     inkscape:pageopacity="0"
     inkscape:pageshadow="2"
     inkscape:window-width="1920"
     inkscape:window-height="1003"
     id="namedview4"
     showgrid="false"
     inkscape:zoom="2.5999075"
     inkscape:cx="139.12459"
     inkscape:cy="339.19421"
     inkscape:window-x="0"
     inkscape:window-y="24"
     inkscape:window-maximized="1"
     inkscape:current-layer="g10" /><g
     id="g10"
     inkscape:groupmode="layer"
     inkscape:label="xp1-explo-obj"
     transform="matrix(1.25,0,0,-1.25,0,363.08984)"><path
       d="m 0,0 179.78687,0 0,290.47187 L 0,290.47187 0,0 z"
       style="fill:#ffffff;fill-opacity:1;fill-rule:nonzero;stroke:none"
       id="path12" /><path
       d="m 35.246875,12.035938 137.339995,0 0,266.400002 -137.339995,0 0,-266.400002 z"
       style="fill:#ffffff;fill-opacity:1;fill-rule:nonzero;stroke:none"
       id="path14" /><g
       id="g16"><g
         id="g18"
         clip-path="url(#clipPath20)"><path
           d="m 35.246875,12.035938 137.339995,0"
           style="fill:none;stroke:#e6e6e6;stroke-opacity:1;stroke-width:1;stroke-linecap:square;stroke-linejoin:round;stroke-miterlimit:10;stroke-dasharray:none"
           id="path24" /></g></g><g
       id="g26"><path
         d="m 35.246875,12.035938 0,0"
         style="fill:#000000;fill-opacity:1;fill-rule:nonzero;stroke:#000000;stroke-opacity:1;stroke-width:0.5;stroke-linecap:butt;stroke-linejoin:round;stroke-miterlimit:10;stroke-dasharray:none"
         id="path28" /><text
         transform="matrix(1,0,0,-1,26.2,9.278125)"
         id="text30"><tspan
           style="fill:#000000;fill-opacity:1;fill-rule:nonzero;stroke:none;font-family:DejaVu Sans;font-variant:normal;font-weight:normal;font-size:10;writing-mode:lr;-inkscape-font-specification:DejaVuSans"
           x="0"
           y="0"
           id="tspan32">0</tspan></text>
</g><g
       id="g34"><g
         id="g36"
         clip-path="url(#clipPath38)"><path
           d="m 35.246875,56.435938 137.339995,0"
           style="fill:none;stroke:#e6e6e6;stroke-opacity:1;stroke-width:1;stroke-linecap:square;stroke-linejoin:round;stroke-miterlimit:10;stroke-dasharray:none"
           id="path42" /></g></g><g
       id="g44"><path
         d="m 35.246875,56.435938 0,0"
         style="fill:#000000;fill-opacity:1;fill-rule:nonzero;stroke:#000000;stroke-opacity:1;stroke-width:0.5;stroke-linecap:butt;stroke-linejoin:round;stroke-miterlimit:10;stroke-dasharray:none"
         id="path46" /><text
         transform="matrix(1,0,0,-1,13.590625,53.678125)"
         id="text48"><tspan
           style="fill:#000000;fill-opacity:1;fill-rule:nonzero;stroke:none;font-family:DejaVu Sans;font-variant:normal;font-weight:normal;font-size:10;writing-mode:lr;-inkscape-font-specification:DejaVuSans"
           x="0 6.36 12.72"
           y="0"
           sodipodi:role="line"
           id="tspan50">500</tspan></text>
</g><g
       id="g52"><g
         id="g54"
         clip-path="url(#clipPath56)"><path
           d="m 35.246875,100.83594 137.339995,0"
           style="fill:none;stroke:#e6e6e6;stroke-opacity:1;stroke-width:1;stroke-linecap:square;stroke-linejoin:round;stroke-miterlimit:10;stroke-dasharray:none"
           id="path60" /></g></g><g
       id="g62"><path
         d="m 35.246875,100.83594 0,0"
         style="fill:#000000;fill-opacity:1;fill-rule:nonzero;stroke:#000000;stroke-opacity:1;stroke-width:0.5;stroke-linecap:butt;stroke-linejoin:round;stroke-miterlimit:10;stroke-dasharray:none"
         id="path64" /><text
         transform="matrix(1,0,0,-1,7.559375,98.078125)"
         id="text66"><tspan
           style="fill:#000000;fill-opacity:1;fill-rule:nonzero;stroke:none;font-family:DejaVu Sans;font-variant:normal;font-weight:normal;font-size:10;writing-mode:lr;-inkscape-font-specification:DejaVuSans"
           x="0 6.36 12.72 19.08"
           y="0"
           sodipodi:role="line"
           id="tspan68">1000</tspan></text>
</g><g
       id="g70"><g
         id="g72"
         clip-path="url(#clipPath74)"><path
           d="m 35.246875,145.23594 137.339995,0"
           style="fill:none;stroke:#e6e6e6;stroke-opacity:1;stroke-width:1;stroke-linecap:square;stroke-linejoin:round;stroke-miterlimit:10;stroke-dasharray:none"
           id="path78" /></g></g><g
       id="g80"><path
         d="m 35.246875,145.23594 0,0"
         style="fill:#000000;fill-opacity:1;fill-rule:nonzero;stroke:#000000;stroke-opacity:1;stroke-width:0.5;stroke-linecap:butt;stroke-linejoin:round;stroke-miterlimit:10;stroke-dasharray:none"
         id="path82" /><text
         transform="matrix(1,0,0,-1,7.559375,142.47812)"
         id="text84"><tspan
           style="fill:#000000;fill-opacity:1;fill-rule:nonzero;stroke:none;font-family:DejaVu Sans;font-variant:normal;font-weight:normal;font-size:10;writing-mode:lr;-inkscape-font-specification:DejaVuSans"
           x="0 6.36 12.72 19.08"
           y="0"
           sodipodi:role="line"
           id="tspan86">1500</tspan></text>
</g><g
       id="g88"><g
         id="g90"
         clip-path="url(#clipPath92)"><path
           d="m 35.246875,189.63594 137.339995,0"
           style="fill:none;stroke:#e6e6e6;stroke-opacity:1;stroke-width:1;stroke-linecap:square;stroke-linejoin:round;stroke-miterlimit:10;stroke-dasharray:none"
           id="path96" /></g></g><g
       id="g98"><path
         d="m 35.246875,189.63594 0,0"
         style="fill:#000000;fill-opacity:1;fill-rule:nonzero;stroke:#000000;stroke-opacity:1;stroke-width:0.5;stroke-linecap:butt;stroke-linejoin:round;stroke-miterlimit:10;stroke-dasharray:none"
         id="path100" /><text
         transform="matrix(1,0,0,-1,7.2,186.87812)"
         id="text102"><tspan
           style="fill:#000000;fill-opacity:1;fill-rule:nonzero;stroke:none;font-family:DejaVu Sans;font-variant:normal;font-weight:normal;font-size:10;writing-mode:lr;-inkscape-font-specification:DejaVuSans"
           x="0 6.36 12.72 19.08"
           y="0"
           sodipodi:role="line"
           id="tspan104">2000</tspan></text>
</g><g
       id="g106"><g
         id="g108"
         clip-path="url(#clipPath110)"><path
           d="m 35.246875,234.03594 137.339995,0"
           style="fill:none;stroke:#e6e6e6;stroke-opacity:1;stroke-width:1;stroke-linecap:square;stroke-linejoin:round;stroke-miterlimit:10;stroke-dasharray:none"
           id="path114" /></g></g><g
       id="g116"><path
         d="m 35.246875,234.03594 0,0"
         style="fill:#000000;fill-opacity:1;fill-rule:nonzero;stroke:#000000;stroke-opacity:1;stroke-width:0.5;stroke-linecap:butt;stroke-linejoin:round;stroke-miterlimit:10;stroke-dasharray:none"
         id="path118" /><text
         transform="matrix(1,0,0,-1,7.2,231.27812)"
         id="text120"><tspan
           style="fill:#000000;fill-opacity:1;fill-rule:nonzero;stroke:none;font-family:DejaVu Sans;font-variant:normal;font-weight:normal;font-size:10;writing-mode:lr;-inkscape-font-specification:DejaVuSans"
           x="0 6.36 12.72 19.08"
           y="0"
           sodipodi:role="line"
           id="tspan122">2500</tspan></text>
</g><g
       id="g124"><g
         id="g126"
         clip-path="url(#clipPath128)"><path
           d="m 35.246875,278.43594 137.339995,0"
           style="fill:none;stroke:#e6e6e6;stroke-opacity:1;stroke-width:1;stroke-linecap:square;stroke-linejoin:round;stroke-miterlimit:10;stroke-dasharray:none"
           id="path132" /></g></g><g
       id="g134"><path
         d="m 35.246875,278.43594 0,0"
         style="fill:#000000;fill-opacity:1;fill-rule:nonzero;stroke:#000000;stroke-opacity:1;stroke-width:0.5;stroke-linecap:butt;stroke-linejoin:round;stroke-miterlimit:10;stroke-dasharray:none"
         id="path136" /><text
         transform="matrix(1,0,0,-1,7.23125,275.67812)"
         id="text138"><tspan
           style="fill:#000000;fill-opacity:1;fill-rule:nonzero;stroke:none;font-family:DejaVu Sans;font-variant:normal;font-weight:normal;font-size:10;writing-mode:lr;-inkscape-font-specification:DejaVuSans"
           x="0 6.36 12.72 19.08"
           y="0"
           sodipodi:role="line"
           id="tspan140">3000</tspan></text>
</g><g
       id="g142"><g
         id="g144"
         clip-path="url(#clipPath146)" /></g><g
       id="g150"><g
         id="g152"
         clip-path="url(#clipPath154)"><path
           d="m 39.824875,15.499138 13.734,0 -13.734,0 z"
           style="fill:#1b9e77;fill-opacity:1;fill-rule:nonzero;stroke:none"
           id="path158" /></g></g><g
       id="g160"><g
         id="g162"
         clip-path="url(#clipPath164)"><path
           d="m 39.824875,15.499138 13.734,0 0,0.910199 -13.734,-0.910199 z"
           style="fill:#1b9e77;fill-opacity:1;fill-rule:nonzero;stroke:none"
           id="path168" /></g></g><g
       id="g170"><g
         id="g172"
         clip-path="url(#clipPath174)"><path
           d="m 39.824875,15.499138 13.734,0 0,0.910199 -13.734,0 0,-0.910199 z"
           style="fill:#1b9e77;fill-opacity:1;fill-rule:nonzero;stroke:none"
           id="path178" /></g></g><g
       id="g180"><g
         id="g182"
         clip-path="url(#clipPath184)"><path
           d="m 39.824875,15.499138 13.734,0 0,0.910199 -13.734,0 0,-0.910199 z"
           style="fill:#1b9e77;fill-opacity:1;fill-rule:nonzero;stroke:none"
           id="path188" /></g></g><g
       id="g190"><g
         id="g192"
         clip-path="url(#clipPath194)" /></g><g
       id="g198"><g
         id="g200"
         clip-path="url(#clipPath202)"><path
           d="m 62.714875,50.064537 13.734,0 -13.734,0 z"
           style="fill:#d95f02;fill-opacity:1;fill-rule:nonzero;stroke:none"
           id="path206" /></g></g><g
       id="g208"><g
         id="g210"
         clip-path="url(#clipPath212)"><path
           d="m 62.714875,50.064537 13.734,0 0,38.4282 -13.734,-38.4282 z"
           style="fill:#d95f02;fill-opacity:1;fill-rule:nonzero;stroke:none"
           id="path216" /></g></g><g
       id="g218"><g
         id="g220"
         clip-path="url(#clipPath222)"><path
           d="m 62.714875,50.064537 13.734,0 0,38.4282 -13.734,0 0,-38.4282 z"
           style="fill:#d95f02;fill-opacity:1;fill-rule:nonzero;stroke:none"
           id="path226" /></g></g><g
       id="g228"><g
         id="g230"
         clip-path="url(#clipPath232)"><path
           d="m 62.714875,50.064537 13.734,0 0,38.4282 -13.734,0 0,-38.4282 z"
           style="fill:#d95f02;fill-opacity:1;fill-rule:nonzero;stroke:none"
           id="path236" /></g></g><g
       id="g238"><g
         id="g240"
         clip-path="url(#clipPath242)" /></g><g
       id="g246"><g
         id="g248"
         clip-path="url(#clipPath250)"><path
           d="m 85.604875,180.44514 13.734,0 -13.734,0 z"
           style="fill:#7570b3;fill-opacity:1;fill-rule:nonzero;stroke:none"
           id="path254" /></g></g><g
       id="g256"><g
         id="g258"
         clip-path="url(#clipPath260)"><path
           d="m 85.604875,180.44514 13.734,0 0,68.9976 -13.734,-68.9976 z"
           style="fill:#7570b3;fill-opacity:1;fill-rule:nonzero;stroke:none"
           id="path264" /></g></g><g
       id="g266"><g
         id="g268"
         clip-path="url(#clipPath270)"><path
           d="m 85.604875,180.44514 13.734,0 0,68.9976 -13.734,0 0,-68.9976 z"
           style="fill:#7570b3;fill-opacity:1;fill-rule:nonzero;stroke:none"
           id="path274" /></g></g><g
       id="g276"><g
         id="g278"
         clip-path="url(#clipPath280)"><path
           d="m 85.604875,180.44514 13.734,0 0,68.9976 -13.734,0 0,-68.9976 z"
           style="fill:#7570b3;fill-opacity:1;fill-rule:nonzero;stroke:none"
           id="path284" /></g></g><g
       id="g286"><g
         id="g288"
         clip-path="url(#clipPath290)" /></g><g
       id="g294"><g
         id="g296"
         clip-path="url(#clipPath298)"><path
           d="m 108.49488,189.25854 13.73399,0 -13.73399,0 z"
           style="fill:#e7298a;fill-opacity:1;fill-rule:nonzero;stroke:none"
           id="path302" /></g></g><g
       id="g304"><g
         id="g306"
         clip-path="url(#clipPath308)"><path
           d="m 108.49488,189.25854 13.73399,0 0,84.6708 -13.73399,-84.6708 z"
           style="fill:#e7298a;fill-opacity:1;fill-rule:nonzero;stroke:none"
           id="path312" /></g></g><g
       id="g314"><g
         id="g316"
         clip-path="url(#clipPath318)"><path
           d="m 108.49488,189.25854 13.73399,0 0,84.6708 -13.73399,0 0,-84.6708 z"
           style="fill:#e7298a;fill-opacity:1;fill-rule:nonzero;stroke:none"
           id="path322" /></g></g><g
       id="g324"><g
         id="g326"
         clip-path="url(#clipPath328)"><path
           d="m 108.49488,189.25854 13.73399,0 0,84.6708 -13.73399,0 0,-84.6708 z"
           style="fill:#e7298a;fill-opacity:1;fill-rule:nonzero;stroke:none"
           id="path332" /></g></g><g
       id="g334"><g
         id="g336"
         clip-path="url(#clipPath338)" /></g><g
       id="g342"><g
         id="g344"
         clip-path="url(#clipPath346)"><path
           d="m 131.38487,96.595737 13.734,0 -13.734,0 z"
           style="fill:#66a61e;fill-opacity:1;fill-rule:nonzero;stroke:none"
           id="path350" /></g></g><g
       id="g352"><g
         id="g354"
         clip-path="url(#clipPath356)"><path
           d="m 131.38487,96.595737 13.734,0 0,82.783803 -13.734,-82.783803 z"
           style="fill:#66a61e;fill-opacity:1;fill-rule:nonzero;stroke:none"
           id="path360" /></g></g><g
       id="g362"><g
         id="g364"
         clip-path="url(#clipPath366)"><path
           d="m 131.38487,96.595737 13.734,0 0,82.783803 -13.734,0 0,-82.783803 z"
           style="fill:#66a61e;fill-opacity:1;fill-rule:nonzero;stroke:none"
           id="path370" /></g></g><g
       id="g372"><g
         id="g374"
         clip-path="url(#clipPath376)"><path
           d="m 131.38487,96.595737 13.734,0 0,82.783803 -13.734,0 0,-82.783803 z"
           style="fill:#66a61e;fill-opacity:1;fill-rule:nonzero;stroke:none"
           id="path380" /></g></g><g
       id="g382"><g
         id="g384"
         clip-path="url(#clipPath386)" /></g><g
       id="g390"><g
         id="g392"
         clip-path="url(#clipPath394)"><path
           d="m 154.27487,180.08994 13.734,0 -13.734,0 z"
           style="fill:#e6ab02;fill-opacity:1;fill-rule:nonzero;stroke:none"
           id="path398" /></g></g><g
       id="g400"><g
         id="g402"
         clip-path="url(#clipPath404)"><path
           d="m 154.27487,180.08994 13.734,0 0,74.6142 -13.734,-74.6142 z"
           style="fill:#e6ab02;fill-opacity:1;fill-rule:nonzero;stroke:none"
           id="path408" /></g></g><g
       id="g410"><g
         id="g412"
         clip-path="url(#clipPath414)"><path
           d="m 154.27487,180.08994 13.734,0 0,74.6142 -13.734,0 0,-74.6142 z"
           style="fill:#e6ab02;fill-opacity:1;fill-rule:nonzero;stroke:none"
           id="path418" /></g></g><g
       id="g420"><g
         id="g422"
         clip-path="url(#clipPath424)"><path
           d="m 154.27487,180.08994 13.734,0 0,74.6142 -13.734,0 0,-74.6142 z"
           style="fill:#e6ab02;fill-opacity:1;fill-rule:nonzero;stroke:none"
           id="path428" /></g></g><g
       id="g430"><g
         id="g432"
         clip-path="url(#clipPath434)"><path
           d="m 46.691875,15.499138 0,0"
           style="fill:none;stroke:#1b9e77;stroke-opacity:1;stroke-width:2;stroke-linecap:butt;stroke-linejoin:round;stroke-miterlimit:10;stroke-dasharray:6,6;stroke-dashoffset:0"
           id="path438" /></g></g><g
       id="g440"><g
         id="g442"
         clip-path="url(#clipPath444)"><path
           d="m 46.691875,16.409337 0,0"
           style="fill:none;stroke:#1b9e77;stroke-opacity:1;stroke-width:2;stroke-linecap:butt;stroke-linejoin:round;stroke-miterlimit:10;stroke-dasharray:6,6;stroke-dashoffset:0"
           id="path448" /></g></g><g
       id="g450"><g
         id="g452"
         clip-path="url(#clipPath454)" /></g><g
       id="g458"><g
         id="g460"
         clip-path="url(#clipPath462)" /></g><g
       id="g466"><g
         id="g468"
         clip-path="url(#clipPath470)" /></g><g
       id="g474"><g
         id="g476"
         clip-path="url(#clipPath478)"><path
           d="m 39.824875,15.943138 13.734,0"
           style="fill:none;stroke:#000000;stroke-opacity:1;stroke-width:3;stroke-linecap:square;stroke-linejoin:round;stroke-miterlimit:10;stroke-dasharray:none"
           id="path482" /></g></g><g
       id="g484"><g
         id="g486"
         clip-path="url(#clipPath488)"><path
           d="m 69.581875,50.064537 0,0"
           style="fill:none;stroke:#d95f02;stroke-opacity:1;stroke-width:2;stroke-linecap:butt;stroke-linejoin:round;stroke-miterlimit:10;stroke-dasharray:6,6;stroke-dashoffset:0"
           id="path492" /></g></g><g
       id="g494"><g
         id="g496"
         clip-path="url(#clipPath498)"><path
           d="m 69.581875,88.492737 0,0"
           style="fill:none;stroke:#d95f02;stroke-opacity:1;stroke-width:2;stroke-linecap:butt;stroke-linejoin:round;stroke-miterlimit:10;stroke-dasharray:6,6;stroke-dashoffset:0"
           id="path502" /></g></g><g
       id="g504"><g
         id="g506"
         clip-path="url(#clipPath508)" /></g><g
       id="g512"><g
         id="g514"
         clip-path="url(#clipPath516)" /></g><g
       id="g520"><g
         id="g522"
         clip-path="url(#clipPath524)" /></g><g
       id="g528"><g
         id="g530"
         clip-path="url(#clipPath532)"><path
           d="m 62.714875,69.445138 13.734,0"
           style="fill:none;stroke:#000000;stroke-opacity:1;stroke-width:3;stroke-linecap:square;stroke-linejoin:round;stroke-miterlimit:10;stroke-dasharray:none"
           id="path536" /></g></g><g
       id="g538"><g
         id="g540"
         clip-path="url(#clipPath542)"><path
           d="m 92.471875,180.44514 0,0"
           style="fill:none;stroke:#7570b3;stroke-opacity:1;stroke-width:2;stroke-linecap:butt;stroke-linejoin:round;stroke-miterlimit:10;stroke-dasharray:6,6;stroke-dashoffset:0"
           id="path546" /></g></g><g
       id="g548"><g
         id="g550"
         clip-path="url(#clipPath552)"><path
           d="m 92.471875,249.44274 0,0"
           style="fill:none;stroke:#7570b3;stroke-opacity:1;stroke-width:2;stroke-linecap:butt;stroke-linejoin:round;stroke-miterlimit:10;stroke-dasharray:6,6;stroke-dashoffset:0"
           id="path556" /></g></g><g
       id="g558"><g
         id="g560"
         clip-path="url(#clipPath562)" /></g><g
       id="g566"><g
         id="g568"
         clip-path="url(#clipPath570)" /></g><g
       id="g574"><g
         id="g576"
         clip-path="url(#clipPath578)" /></g><g
       id="g582"><g
         id="g584"
         clip-path="url(#clipPath586)"><path
           d="m 85.604875,210.50394 13.734,0"
           style="fill:none;stroke:#000000;stroke-opacity:1;stroke-width:3;stroke-linecap:square;stroke-linejoin:round;stroke-miterlimit:10;stroke-dasharray:none"
           id="path590" /></g></g><g
       id="g592"><g
         id="g594"
         clip-path="url(#clipPath596)"><path
           d="m 115.36187,189.25854 0,0"
           style="fill:none;stroke:#e7298a;stroke-opacity:1;stroke-width:2;stroke-linecap:butt;stroke-linejoin:round;stroke-miterlimit:10;stroke-dasharray:6,6;stroke-dashoffset:0"
           id="path600" /></g></g><g
       id="g602"><g
         id="g604"
         clip-path="url(#clipPath606)"><path
           d="m 115.36187,273.92934 0,0"
           style="fill:none;stroke:#e7298a;stroke-opacity:1;stroke-width:2;stroke-linecap:butt;stroke-linejoin:round;stroke-miterlimit:10;stroke-dasharray:6,6;stroke-dashoffset:0"
           id="path610" /></g></g><g
       id="g612"><g
         id="g614"
         clip-path="url(#clipPath616)" /></g><g
       id="g620"><g
         id="g622"
         clip-path="url(#clipPath624)" /></g><g
       id="g628"><g
         id="g630"
         clip-path="url(#clipPath632)" /></g><g
       id="g636"><g
         id="g638"
         clip-path="url(#clipPath640)"><path
           d="m 108.49488,228.70794 13.73399,0"
           style="fill:none;stroke:#000000;stroke-opacity:1;stroke-width:3;stroke-linecap:square;stroke-linejoin:round;stroke-miterlimit:10;stroke-dasharray:none"
           id="path644" /></g></g><g
       id="g646"><g
         id="g648"
         clip-path="url(#clipPath650)"><path
           d="m 138.25187,96.595737 0,0"
           style="fill:none;stroke:#66a61e;stroke-opacity:1;stroke-width:2;stroke-linecap:butt;stroke-linejoin:round;stroke-miterlimit:10;stroke-dasharray:6,6;stroke-dashoffset:0"
           id="path654" /></g></g><g
       id="g656"><g
         id="g658"
         clip-path="url(#clipPath660)"><path
           d="m 138.25187,179.37954 0,0"
           style="fill:none;stroke:#66a61e;stroke-opacity:1;stroke-width:2;stroke-linecap:butt;stroke-linejoin:round;stroke-miterlimit:10;stroke-dasharray:6,6;stroke-dashoffset:0"
           id="path664" /></g></g><g
       id="g666"><g
         id="g668"
         clip-path="url(#clipPath670)" /></g><g
       id="g674"><g
         id="g676"
         clip-path="url(#clipPath678)" /></g><g
       id="g682"><g
         id="g684"
         clip-path="url(#clipPath686)" /></g><g
       id="g690"><g
         id="g692"
         clip-path="url(#clipPath694)"><path
           d="m 131.38487,121.97034 13.734,0"
           style="fill:none;stroke:#000000;stroke-opacity:1;stroke-width:3;stroke-linecap:square;stroke-linejoin:round;stroke-miterlimit:10;stroke-dasharray:none"
           id="path698" /></g></g><g
       id="g700"><g
         id="g702"
         clip-path="url(#clipPath704)"><path
           d="m 161.14187,180.08994 0,0"
           style="fill:none;stroke:#e6ab02;stroke-opacity:1;stroke-width:2;stroke-linecap:butt;stroke-linejoin:round;stroke-miterlimit:10;stroke-dasharray:6,6;stroke-dashoffset:0"
           id="path708" /></g></g><g
       id="g710"><g
         id="g712"
         clip-path="url(#clipPath714)"><path
           d="m 161.14187,254.70414 0,0"
           style="fill:none;stroke:#e6ab02;stroke-opacity:1;stroke-width:2;stroke-linecap:butt;stroke-linejoin:round;stroke-miterlimit:10;stroke-dasharray:6,6;stroke-dashoffset:0"
           id="path718" /></g></g><g
       id="g720"><g
         id="g722"
         clip-path="url(#clipPath724)" /></g><g
       id="g728"><g
         id="g730"
         clip-path="url(#clipPath732)" /></g><g
       id="g736"><g
         id="g738"
         clip-path="url(#clipPath740)" /></g><g
       id="g744"><g
         id="g746"
         clip-path="url(#clipPath748)"><path
           d="m 154.27487,219.87234 13.734,0"
           style="fill:none;stroke:#000000;stroke-opacity:1;stroke-width:3;stroke-linecap:square;stroke-linejoin:round;stroke-miterlimit:10;stroke-dasharray:none"
           id="path752" /></g></g><g
       id="g754"><path
         d="m 35.246875,12.035938 137.339995,0"
         style="fill:none;stroke:#000000;stroke-opacity:1;stroke-width:1;stroke-linecap:butt;stroke-linejoin:round;stroke-miterlimit:10;stroke-dasharray:none"
         id="path756" /><path
         d="m 138.25187,275.92774 0,2.5796 -22.89,0 0,-2.5796"
         style="fill:none;stroke:#aaaaaa;stroke-opacity:1;stroke-width:1;stroke-linecap:round;stroke-linejoin:round;stroke-miterlimit:10;stroke-dasharray:none"
         id="path758" /></g><text
       xml:space="preserve"
       style="font-size:9.60000038px;font-style:normal;font-variant:normal;font-weight:normal;font-stretch:normal;text-align:start;line-height:125%;letter-spacing:0px;word-spacing:0px;writing-mode:lr-tb;text-anchor:start;fill:#000000;fill-opacity:1;stroke:none;font-family:Sans;-inkscape-font-specification:Sans"
       x="117.40745"
       y="-276.95001"
       id="text3735"
       sodipodi:linespacing="125%"
       transform="scale(1,-1)"><tspan
         sodipodi:role="line"
         id="tspan3737"
         x="117.40745"
         y="-276.95001">****</tspan></text>
</g></svg>