<?xml version="1.0" encoding="UTF-8" standalone="no"?>
<!-- Created with Inkscape (http://www.inkscape.org/) -->

<svg
   xmlns:dc="http://purl.org/dc/elements/1.1/"
   xmlns:cc="http://creativecommons.org/ns#"
   xmlns:rdf="http://www.w3.org/1999/02/22-rdf-syntax-ns#"
   xmlns:svg="http://www.w3.org/2000/svg"
   xmlns="http://www.w3.org/2000/svg"
   xmlns:sodipodi="http://sodipodi.sourceforge.net/DTD/sodipodi-0.dtd"
   xmlns:inkscape="http://www.inkscape.org/namespaces/inkscape"
   id="svg2"
   version="1.1"
   inkscape:version="0.48.4 r9939"
   width="224.28438"
   height="363.08984"
   xml:space="preserve"
   sodipodi:docname="xp1-explo-stick_2.pdf"><metadata
     id="metadata8"><rdf:RDF><cc:Work
         rdf:about=""><dc:format>image/svg+xml</dc:format><dc:type
           rdf:resource="http://purl.org/dc/dcmitype/StillImage" /><dc:title></dc:title></cc:Work></rdf:RDF></metadata><defs
     id="defs6"><clipPath
       clipPathUnits="userSpaceOnUse"
       id="clipPath20"><path
         d="m 34.8875,12.035938 137.34,0 0,266.400002 -137.34,0 0,-266.400002 z"
         id="path22" /></clipPath><clipPath
       clipPathUnits="userSpaceOnUse"
       id="clipPath38"><path
         d="m 34.8875,12.035938 137.34,0 0,266.400002 -137.34,0 0,-266.400002 z"
         id="path40" /></clipPath><clipPath
       clipPathUnits="userSpaceOnUse"
       id="clipPath56"><path
         d="m 34.8875,12.035938 137.34,0 0,266.400002 -137.34,0 0,-266.400002 z"
         id="path58" /></clipPath><clipPath
       clipPathUnits="userSpaceOnUse"
       id="clipPath74"><path
         d="m 34.8875,12.035938 137.34,0 0,266.400002 -137.34,0 0,-266.400002 z"
         id="path76" /></clipPath><clipPath
       clipPathUnits="userSpaceOnUse"
       id="clipPath92"><path
         d="m 34.8875,12.035938 137.34,0 0,266.400002 -137.34,0 0,-266.400002 z"
         id="path94" /></clipPath><clipPath
       clipPathUnits="userSpaceOnUse"
       id="clipPath110"><path
         d="m 34.8875,12.035938 137.34,0 0,266.400002 -137.34,0 0,-266.400002 z"
         id="path112" /></clipPath><clipPath
       clipPathUnits="userSpaceOnUse"
       id="clipPath128"><path
         d="m 34.8875,12.035938 137.34,0 0,266.400002 -137.34,0 0,-266.400002 z"
         id="path130" /></clipPath><clipPath
       clipPathUnits="userSpaceOnUse"
       id="clipPath146"><path
         d="m 34.8875,12.035938 137.34,0 0,266.400002 -137.34,0 0,-266.400002 z"
         id="path148" /></clipPath><clipPath
       clipPathUnits="userSpaceOnUse"
       id="clipPath164"><path
         d="m 34.8875,12.035938 137.34,0 0,266.400002 -137.34,0 0,-266.400002 z"
         id="path166" /></clipPath><clipPath
       clipPathUnits="userSpaceOnUse"
       id="clipPath182"><path
         d="m 34.8875,12.035938 137.34,0 0,266.400002 -137.34,0 0,-266.400002 z"
         id="path184" /></clipPath><clipPath
       clipPathUnits="userSpaceOnUse"
       id="clipPath190"><path
         d="m 34.8875,12.035938 137.34,0 0,266.400002 -137.34,0 0,-266.400002 z"
         id="path192" /></clipPath><clipPath
       clipPathUnits="userSpaceOnUse"
       id="clipPath200"><path
         d="m 34.8875,12.035938 137.34,0 0,266.400002 -137.34,0 0,-266.400002 z"
         id="path202" /></clipPath><clipPath
       clipPathUnits="userSpaceOnUse"
       id="clipPath210"><path
         d="m 34.8875,12.035938 137.34,0 0,266.400002 -137.34,0 0,-266.400002 z"
         id="path212" /></clipPath><clipPath
       clipPathUnits="userSpaceOnUse"
       id="clipPath220"><path
         d="m 34.8875,12.035938 137.34,0 0,266.400002 -137.34,0 0,-266.400002 z"
         id="path222" /></clipPath><clipPath
       clipPathUnits="userSpaceOnUse"
       id="clipPath230"><path
         d="m 34.8875,12.035938 137.34,0 0,266.400002 -137.34,0 0,-266.400002 z"
         id="path232" /></clipPath><clipPath
       clipPathUnits="userSpaceOnUse"
       id="clipPath238"><path
         d="m 34.8875,12.035938 137.34,0 0,266.400002 -137.34,0 0,-266.400002 z"
         id="path240" /></clipPath><clipPath
       clipPathUnits="userSpaceOnUse"
       id="clipPath248"><path
         d="m 34.8875,12.035938 137.34,0 0,266.400002 -137.34,0 0,-266.400002 z"
         id="path250" /></clipPath><clipPath
       clipPathUnits="userSpaceOnUse"
       id="clipPath258"><path
         d="m 34.8875,12.035938 137.34,0 0,266.400002 -137.34,0 0,-266.400002 z"
         id="path260" /></clipPath><clipPath
       clipPathUnits="userSpaceOnUse"
       id="clipPath268"><path
         d="m 34.8875,12.035938 137.34,0 0,266.400002 -137.34,0 0,-266.400002 z"
         id="path270" /></clipPath><clipPath
       clipPathUnits="userSpaceOnUse"
       id="clipPath278"><path
         d="m 34.8875,12.035938 137.34,0 0,266.400002 -137.34,0 0,-266.400002 z"
         id="path280" /></clipPath><clipPath
       clipPathUnits="userSpaceOnUse"
       id="clipPath286"><path
         d="m 34.8875,12.035938 137.34,0 0,266.400002 -137.34,0 0,-266.400002 z"
         id="path288" /></clipPath><clipPath
       clipPathUnits="userSpaceOnUse"
       id="clipPath296"><path
         d="m 34.8875,12.035938 137.34,0 0,266.400002 -137.34,0 0,-266.400002 z"
         id="path298" /></clipPath><clipPath
       clipPathUnits="userSpaceOnUse"
       id="clipPath306"><path
         d="m 34.8875,12.035938 137.34,0 0,266.400002 -137.34,0 0,-266.400002 z"
         id="path308" /></clipPath><clipPath
       clipPathUnits="userSpaceOnUse"
       id="clipPath316"><path
         d="m 34.8875,12.035938 137.34,0 0,266.400002 -137.34,0 0,-266.400002 z"
         id="path318" /></clipPath><clipPath
       clipPathUnits="userSpaceOnUse"
       id="clipPath326"><path
         d="m 34.8875,12.035938 137.34,0 0,266.400002 -137.34,0 0,-266.400002 z"
         id="path328" /></clipPath><clipPath
       clipPathUnits="userSpaceOnUse"
       id="clipPath334"><path
         d="m 34.8875,12.035938 137.34,0 0,266.400002 -137.34,0 0,-266.400002 z"
         id="path336" /></clipPath><clipPath
       clipPathUnits="userSpaceOnUse"
       id="clipPath344"><path
         d="m 34.8875,12.035938 137.34,0 0,266.400002 -137.34,0 0,-266.400002 z"
         id="path346" /></clipPath><clipPath
       clipPathUnits="userSpaceOnUse"
       id="clipPath354"><path
         d="m 34.8875,12.035938 137.34,0 0,266.400002 -137.34,0 0,-266.400002 z"
         id="path356" /></clipPath><clipPath
       clipPathUnits="userSpaceOnUse"
       id="clipPath364"><path
         d="m 34.8875,12.035938 137.34,0 0,266.400002 -137.34,0 0,-266.400002 z"
         id="path366" /></clipPath><clipPath
       clipPathUnits="userSpaceOnUse"
       id="clipPath374"><path
         d="m 34.8875,12.035938 137.34,0 0,266.400002 -137.34,0 0,-266.400002 z"
         id="path376" /></clipPath><clipPath
       clipPathUnits="userSpaceOnUse"
       id="clipPath382"><path
         d="m 34.8875,12.035938 137.34,0 0,266.400002 -137.34,0 0,-266.400002 z"
         id="path384" /></clipPath><clipPath
       clipPathUnits="userSpaceOnUse"
       id="clipPath392"><path
         d="m 34.8875,12.035938 137.34,0 0,266.400002 -137.34,0 0,-266.400002 z"
         id="path394" /></clipPath><clipPath
       clipPathUnits="userSpaceOnUse"
       id="clipPath402"><path
         d="m 34.8875,12.035938 137.34,0 0,266.400002 -137.34,0 0,-266.400002 z"
         id="path404" /></clipPath><clipPath
       clipPathUnits="userSpaceOnUse"
       id="clipPath412"><path
         d="m 34.8875,12.035938 137.34,0 0,266.400002 -137.34,0 0,-266.400002 z"
         id="path414" /></clipPath><clipPath
       clipPathUnits="userSpaceOnUse"
       id="clipPath422"><path
         d="m 34.8875,12.035938 137.34,0 0,266.400002 -137.34,0 0,-266.400002 z"
         id="path424" /></clipPath><clipPath
       clipPathUnits="userSpaceOnUse"
       id="clipPath430"><path
         d="m 34.8875,12.035938 137.34,0 0,266.400002 -137.34,0 0,-266.400002 z"
         id="path432" /></clipPath><clipPath
       clipPathUnits="userSpaceOnUse"
       id="clipPath440"><path
         d="m 34.8875,12.035938 137.34,0 0,266.400002 -137.34,0 0,-266.400002 z"
         id="path442" /></clipPath><clipPath
       clipPathUnits="userSpaceOnUse"
       id="clipPath450"><path
         d="m 34.8875,12.035938 137.34,0 0,266.400002 -137.34,0 0,-266.400002 z"
         id="path452" /></clipPath><clipPath
       clipPathUnits="userSpaceOnUse"
       id="clipPath460"><path
         d="m 34.8875,12.035938 137.34,0 0,266.400002 -137.34,0 0,-266.400002 z"
         id="path462" /></clipPath><clipPath
       clipPathUnits="userSpaceOnUse"
       id="clipPath470"><path
         d="m 34.8875,12.035938 137.34,0 0,266.400002 -137.34,0 0,-266.400002 z"
         id="path472" /></clipPath><clipPath
       clipPathUnits="userSpaceOnUse"
       id="clipPath480"><path
         d="m 34.8875,12.035938 137.34,0 0,266.400002 -137.34,0 0,-266.400002 z"
         id="path482" /></clipPath><clipPath
       clipPathUnits="userSpaceOnUse"
       id="clipPath490"><path
         d="m 34.8875,12.035938 137.34,0 0,266.400002 -137.34,0 0,-266.400002 z"
         id="path492" /></clipPath><clipPath
       clipPathUnits="userSpaceOnUse"
       id="clipPath498"><path
         d="m 34.8875,12.035938 137.34,0 0,266.400002 -137.34,0 0,-266.400002 z"
         id="path500" /></clipPath><clipPath
       clipPathUnits="userSpaceOnUse"
       id="clipPath506"><path
         d="m 34.8875,12.035938 137.34,0 0,266.400002 -137.34,0 0,-266.400002 z"
         id="path508" /></clipPath><clipPath
       clipPathUnits="userSpaceOnUse"
       id="clipPath514"><path
         d="m 34.8875,12.035938 137.34,0 0,266.400002 -137.34,0 0,-266.400002 z"
         id="path516" /></clipPath><clipPath
       clipPathUnits="userSpaceOnUse"
       id="clipPath524"><path
         d="m 34.8875,12.035938 137.34,0 0,266.400002 -137.34,0 0,-266.400002 z"
         id="path526" /></clipPath><clipPath
       clipPathUnits="userSpaceOnUse"
       id="clipPath534"><path
         d="m 34.8875,12.035938 137.34,0 0,266.400002 -137.34,0 0,-266.400002 z"
         id="path536" /></clipPath><clipPath
       clipPathUnits="userSpaceOnUse"
       id="clipPath544"><path
         d="m 34.8875,12.035938 137.34,0 0,266.400002 -137.34,0 0,-266.400002 z"
         id="path546" /></clipPath><clipPath
       clipPathUnits="userSpaceOnUse"
       id="clipPath552"><path
         d="m 34.8875,12.035938 137.34,0 0,266.400002 -137.34,0 0,-266.400002 z"
         id="path554" /></clipPath><clipPath
       clipPathUnits="userSpaceOnUse"
       id="clipPath560"><path
         d="m 34.8875,12.035938 137.34,0 0,266.400002 -137.34,0 0,-266.400002 z"
         id="path562" /></clipPath><clipPath
       clipPathUnits="userSpaceOnUse"
       id="clipPath568"><path
         d="m 34.8875,12.035938 137.34,0 0,266.400002 -137.34,0 0,-266.400002 z"
         id="path570" /></clipPath><clipPath
       clipPathUnits="userSpaceOnUse"
       id="clipPath578"><path
         d="m 34.8875,12.035938 137.34,0 0,266.400002 -137.34,0 0,-266.400002 z"
         id="path580" /></clipPath><clipPath
       clipPathUnits="userSpaceOnUse"
       id="clipPath588"><path
         d="m 34.8875,12.035938 137.34,0 0,266.400002 -137.34,0 0,-266.400002 z"
         id="path590" /></clipPath><clipPath
       clipPathUnits="userSpaceOnUse"
       id="clipPath598"><path
         d="m 34.8875,12.035938 137.34,0 0,266.400002 -137.34,0 0,-266.400002 z"
         id="path600" /></clipPath><clipPath
       clipPathUnits="userSpaceOnUse"
       id="clipPath606"><path
         d="m 34.8875,12.035938 137.34,0 0,266.400002 -137.34,0 0,-266.400002 z"
         id="path608" /></clipPath><clipPath
       clipPathUnits="userSpaceOnUse"
       id="clipPath614"><path
         d="m 34.8875,12.035938 137.34,0 0,266.400002 -137.34,0 0,-266.400002 z"
         id="path616" /></clipPath><clipPath
       clipPathUnits="userSpaceOnUse"
       id="clipPath622"><path
         d="m 34.8875,12.035938 137.34,0 0,266.400002 -137.34,0 0,-266.400002 z"
         id="path624" /></clipPath><clipPath
       clipPathUnits="userSpaceOnUse"
       id="clipPath632"><path
         d="m 34.8875,12.035938 137.34,0 0,266.400002 -137.34,0 0,-266.400002 z"
         id="path634" /></clipPath><clipPath
       clipPathUnits="userSpaceOnUse"
       id="clipPath642"><path
         d="m 34.8875,12.035938 137.34,0 0,266.400002 -137.34,0 0,-266.400002 z"
         id="path644" /></clipPath><clipPath
       clipPathUnits="userSpaceOnUse"
       id="clipPath652"><path
         d="m 34.8875,12.035938 137.34,0 0,266.400002 -137.34,0 0,-266.400002 z"
         id="path654" /></clipPath><clipPath
       clipPathUnits="userSpaceOnUse"
       id="clipPath660"><path
         d="m 34.8875,12.035938 137.34,0 0,266.400002 -137.34,0 0,-266.400002 z"
         id="path662" /></clipPath><clipPath
       clipPathUnits="userSpaceOnUse"
       id="clipPath668"><path
         d="m 34.8875,12.035938 137.34,0 0,266.400002 -137.34,0 0,-266.400002 z"
         id="path670" /></clipPath><clipPath
       clipPathUnits="userSpaceOnUse"
       id="clipPath676"><path
         d="m 34.8875,12.035938 137.34,0 0,266.400002 -137.34,0 0,-266.400002 z"
         id="path678" /></clipPath><clipPath
       clipPathUnits="userSpaceOnUse"
       id="clipPath686"><path
         d="m 34.8875,12.035938 137.34,0 0,266.400002 -137.34,0 0,-266.400002 z"
         id="path688" /></clipPath><clipPath
       clipPathUnits="userSpaceOnUse"
       id="clipPath696"><path
         d="m 34.8875,12.035938 137.34,0 0,266.400002 -137.34,0 0,-266.400002 z"
         id="path698" /></clipPath><clipPath
       clipPathUnits="userSpaceOnUse"
       id="clipPath706"><path
         d="m 34.8875,12.035938 137.34,0 0,266.400002 -137.34,0 0,-266.400002 z"
         id="path708" /></clipPath><clipPath
       clipPathUnits="userSpaceOnUse"
       id="clipPath714"><path
         d="m 34.8875,12.035938 137.34,0 0,266.400002 -137.34,0 0,-266.400002 z"
         id="path716" /></clipPath><clipPath
       clipPathUnits="userSpaceOnUse"
       id="clipPath722"><path
         d="m 34.8875,12.035938 137.34,0 0,266.400002 -137.34,0 0,-266.400002 z"
         id="path724" /></clipPath><clipPath
       clipPathUnits="userSpaceOnUse"
       id="clipPath730"><path
         d="m 34.8875,12.035938 137.34,0 0,266.400002 -137.34,0 0,-266.400002 z"
         id="path732" /></clipPath><clipPath
       clipPathUnits="userSpaceOnUse"
       id="clipPath740"><path
         d="m 34.8875,12.035938 137.34,0 0,266.400002 -137.34,0 0,-266.400002 z"
         id="path742" /></clipPath><clipPath
       clipPathUnits="userSpaceOnUse"
       id="clipPath750"><path
         d="m 34.8875,12.035938 137.34,0 0,266.400002 -137.34,0 0,-266.400002 z"
         id="path752" /></clipPath><clipPath
       clipPathUnits="userSpaceOnUse"
       id="clipPath760"><path
         d="m 34.8875,12.035938 137.34,0 0,266.400002 -137.34,0 0,-266.400002 z"
         id="path762" /></clipPath><clipPath
       clipPathUnits="userSpaceOnUse"
       id="clipPath768"><path
         d="m 34.8875,12.035938 137.34,0 0,266.400002 -137.34,0 0,-266.400002 z"
         id="path770" /></clipPath><clipPath
       clipPathUnits="userSpaceOnUse"
       id="clipPath776"><path
         d="m 34.8875,12.035938 137.34,0 0,266.400002 -137.34,0 0,-266.400002 z"
         id="path778" /></clipPath><clipPath
       clipPathUnits="userSpaceOnUse"
       id="clipPath784"><path
         d="m 34.8875,12.035938 137.34,0 0,266.400002 -137.34,0 0,-266.400002 z"
         id="path786" /></clipPath></defs><sodipodi:namedview
     pagecolor="#ffffff"
     bordercolor="#666666"
     borderopacity="1"
     objecttolerance="10"
     gridtolerance="10"
     guidetolerance="10"
     inkscape:pageopacity="0"
     inkscape:pageshadow="2"
     inkscape:window-width="1920"
     inkscape:window-height="1003"
     id="namedview4"
     showgrid="false"
     inkscape:zoom="3.6768244"
     inkscape:cx="48.224575"
     inkscape:cy="318.22293"
     inkscape:window-x="0"
     inkscape:window-y="24"
     inkscape:window-maximized="1"
     inkscape:current-layer="g10" /><g
     id="g10"
     inkscape:groupmode="layer"
     inkscape:label="xp1-explo-stick_2"
     transform="matrix(1.25,0,0,-1.25,0,363.08984)"><path
       d="m 0,0 179.4275,0 0,290.47187 L 0,290.47187 0,0 z"
       style="fill:#ffffff;fill-opacity:1;fill-rule:nonzero;stroke:none"
       id="path12" /><path
       d="m 34.8875,12.035938 137.34,0 0,266.400002 -137.34,0 0,-266.400002 z"
       style="fill:#ffffff;fill-opacity:1;fill-rule:nonzero;stroke:none"
       id="path14" /><g
       id="g16"><g
         id="g18"
         clip-path="url(#clipPath20)"><path
           d="m 34.8875,12.035938 137.34,0"
           style="fill:none;stroke:#e6e6e6;stroke-opacity:1;stroke-width:1;stroke-linecap:square;stroke-linejoin:round;stroke-miterlimit:10;stroke-dasharray:none"
           id="path24" /></g></g><g
       id="g26"><path
         d="m 34.8875,12.035938 0,0"
         style="fill:#000000;fill-opacity:1;fill-rule:nonzero;stroke:#000000;stroke-opacity:1;stroke-width:0.5;stroke-linecap:butt;stroke-linejoin:round;stroke-miterlimit:10;stroke-dasharray:none"
         id="path28" /><text
         transform="matrix(1,0,0,-1,25.840625,9.278125)"
         id="text30"><tspan
           style="fill:#000000;fill-opacity:1;fill-rule:nonzero;stroke:none;font-family:DejaVu Sans;font-variant:normal;font-weight:normal;font-size:10;writing-mode:lr;-inkscape-font-specification:DejaVuSans"
           x="0"
           y="0"
           id="tspan32">0</tspan></text>
</g><g
       id="g34"><g
         id="g36"
         clip-path="url(#clipPath38)"><path
           d="m 34.8875,45.335937 137.34,0"
           style="fill:none;stroke:#e6e6e6;stroke-opacity:1;stroke-width:1;stroke-linecap:square;stroke-linejoin:round;stroke-miterlimit:10;stroke-dasharray:none"
           id="path42" /></g></g><g
       id="g44"><path
         d="m 34.8875,45.335937 0,0"
         style="fill:#000000;fill-opacity:1;fill-rule:nonzero;stroke:#000000;stroke-opacity:1;stroke-width:0.5;stroke-linecap:butt;stroke-linejoin:round;stroke-miterlimit:10;stroke-dasharray:none"
         id="path46" /><text
         transform="matrix(1,0,0,-1,13.2,42.578125)"
         id="text48"><tspan
           style="fill:#000000;fill-opacity:1;fill-rule:nonzero;stroke:none;font-family:DejaVu Sans;font-variant:normal;font-weight:normal;font-size:10;writing-mode:lr;-inkscape-font-specification:DejaVuSans"
           x="0 6.36 12.72"
           y="0"
           sodipodi:role="line"
           id="tspan50">200</tspan></text>
</g><g
       id="g52"><g
         id="g54"
         clip-path="url(#clipPath56)"><path
           d="m 34.8875,78.635937 137.34,0"
           style="fill:none;stroke:#e6e6e6;stroke-opacity:1;stroke-width:1;stroke-linecap:square;stroke-linejoin:round;stroke-miterlimit:10;stroke-dasharray:none"
           id="path60" /></g></g><g
       id="g62"><path
         d="m 34.8875,78.635937 0,0"
         style="fill:#000000;fill-opacity:1;fill-rule:nonzero;stroke:#000000;stroke-opacity:1;stroke-width:0.5;stroke-linecap:butt;stroke-linejoin:round;stroke-miterlimit:10;stroke-dasharray:none"
         id="path64" /><text
         transform="matrix(1,0,0,-1,12.95,75.878125)"
         id="text66"><tspan
           style="fill:#000000;fill-opacity:1;fill-rule:nonzero;stroke:none;font-family:DejaVu Sans;font-variant:normal;font-weight:normal;font-size:10;writing-mode:lr;-inkscape-font-specification:DejaVuSans"
           x="0 6.36 12.72"
           y="0"
           sodipodi:role="line"
           id="tspan68">400</tspan></text>
</g><g
       id="g70"><g
         id="g72"
         clip-path="url(#clipPath74)"><path
           d="m 34.8875,111.93594 137.34,0"
           style="fill:none;stroke:#e6e6e6;stroke-opacity:1;stroke-width:1;stroke-linecap:square;stroke-linejoin:round;stroke-miterlimit:10;stroke-dasharray:none"
           id="path78" /></g></g><g
       id="g80"><path
         d="m 34.8875,111.93594 0,0"
         style="fill:#000000;fill-opacity:1;fill-rule:nonzero;stroke:#000000;stroke-opacity:1;stroke-width:0.5;stroke-linecap:butt;stroke-linejoin:round;stroke-miterlimit:10;stroke-dasharray:none"
         id="path82" /><text
         transform="matrix(1,0,0,-1,13.16875,109.17812)"
         id="text84"><tspan
           style="fill:#000000;fill-opacity:1;fill-rule:nonzero;stroke:none;font-family:DejaVu Sans;font-variant:normal;font-weight:normal;font-size:10;writing-mode:lr;-inkscape-font-specification:DejaVuSans"
           x="0 6.36 12.72"
           y="0"
           sodipodi:role="line"
           id="tspan86">600</tspan></text>
</g><g
       id="g88"><g
         id="g90"
         clip-path="url(#clipPath92)"><path
           d="m 34.8875,145.23594 137.34,0"
           style="fill:none;stroke:#e6e6e6;stroke-opacity:1;stroke-width:1;stroke-linecap:square;stroke-linejoin:round;stroke-miterlimit:10;stroke-dasharray:none"
           id="path96" /></g></g><g
       id="g98"><path
         d="m 34.8875,145.23594 0,0"
         style="fill:#000000;fill-opacity:1;fill-rule:nonzero;stroke:#000000;stroke-opacity:1;stroke-width:0.5;stroke-linecap:butt;stroke-linejoin:round;stroke-miterlimit:10;stroke-dasharray:none"
         id="path100" /><text
         transform="matrix(1,0,0,-1,13.153125,142.47812)"
         id="text102"><tspan
           style="fill:#000000;fill-opacity:1;fill-rule:nonzero;stroke:none;font-family:DejaVu Sans;font-variant:normal;font-weight:normal;font-size:10;writing-mode:lr;-inkscape-font-specification:DejaVuSans"
           x="0 6.36 12.72"
           y="0"
           sodipodi:role="line"
           id="tspan104">800</tspan></text>
</g><g
       id="g106"><g
         id="g108"
         clip-path="url(#clipPath110)"><path
           d="m 34.8875,178.53594 137.34,0"
           style="fill:none;stroke:#e6e6e6;stroke-opacity:1;stroke-width:1;stroke-linecap:square;stroke-linejoin:round;stroke-miterlimit:10;stroke-dasharray:none"
           id="path114" /></g></g><g
       id="g116"><path
         d="m 34.8875,178.53594 0,0"
         style="fill:#000000;fill-opacity:1;fill-rule:nonzero;stroke:#000000;stroke-opacity:1;stroke-width:0.5;stroke-linecap:butt;stroke-linejoin:round;stroke-miterlimit:10;stroke-dasharray:none"
         id="path118" /><text
         transform="matrix(1,0,0,-1,7.2,175.77812)"
         id="text120"><tspan
           style="fill:#000000;fill-opacity:1;fill-rule:nonzero;stroke:none;font-family:DejaVu Sans;font-variant:normal;font-weight:normal;font-size:10;writing-mode:lr;-inkscape-font-specification:DejaVuSans"
           x="0 6.36 12.72 19.08"
           y="0"
           sodipodi:role="line"
           id="tspan122">1000</tspan></text>
</g><g
       id="g124"><g
         id="g126"
         clip-path="url(#clipPath128)"><path
           d="m 34.8875,211.83594 137.34,0"
           style="fill:none;stroke:#e6e6e6;stroke-opacity:1;stroke-width:1;stroke-linecap:square;stroke-linejoin:round;stroke-miterlimit:10;stroke-dasharray:none"
           id="path132" /></g></g><g
       id="g134"><path
         d="m 34.8875,211.83594 0,0"
         style="fill:#000000;fill-opacity:1;fill-rule:nonzero;stroke:#000000;stroke-opacity:1;stroke-width:0.5;stroke-linecap:butt;stroke-linejoin:round;stroke-miterlimit:10;stroke-dasharray:none"
         id="path136" /><text
         transform="matrix(1,0,0,-1,7.2,209.07812)"
         id="text138"><tspan
           style="fill:#000000;fill-opacity:1;fill-rule:nonzero;stroke:none;font-family:DejaVu Sans;font-variant:normal;font-weight:normal;font-size:10;writing-mode:lr;-inkscape-font-specification:DejaVuSans"
           x="0 6.36 12.72 19.08"
           y="0"
           sodipodi:role="line"
           id="tspan140">1200</tspan></text>
</g><g
       id="g142"><g
         id="g144"
         clip-path="url(#clipPath146)"><path
           d="m 34.8875,245.13594 137.34,0"
           style="fill:none;stroke:#e6e6e6;stroke-opacity:1;stroke-width:1;stroke-linecap:square;stroke-linejoin:round;stroke-miterlimit:10;stroke-dasharray:none"
           id="path150" /></g></g><g
       id="g152"><path
         d="m 34.8875,245.13594 0,0"
         style="fill:#000000;fill-opacity:1;fill-rule:nonzero;stroke:#000000;stroke-opacity:1;stroke-width:0.5;stroke-linecap:butt;stroke-linejoin:round;stroke-miterlimit:10;stroke-dasharray:none"
         id="path154" /><text
         transform="matrix(1,0,0,-1,7.2,242.37812)"
         id="text156"><tspan
           style="fill:#000000;fill-opacity:1;fill-rule:nonzero;stroke:none;font-family:DejaVu Sans;font-variant:normal;font-weight:normal;font-size:10;writing-mode:lr;-inkscape-font-specification:DejaVuSans"
           x="0 6.36 12.72 19.08"
           y="0"
           sodipodi:role="line"
           id="tspan158">1400</tspan></text>
</g><g
       id="g160"><g
         id="g162"
         clip-path="url(#clipPath164)"><path
           d="m 34.8875,278.43594 137.34,0"
           style="fill:none;stroke:#e6e6e6;stroke-opacity:1;stroke-width:1;stroke-linecap:square;stroke-linejoin:round;stroke-miterlimit:10;stroke-dasharray:none"
           id="path168" /></g></g><g
       id="g170"><path
         d="m 34.8875,278.43594 0,0"
         style="fill:#000000;fill-opacity:1;fill-rule:nonzero;stroke:#000000;stroke-opacity:1;stroke-width:0.5;stroke-linecap:butt;stroke-linejoin:round;stroke-miterlimit:10;stroke-dasharray:none"
         id="path172" /><text
         transform="matrix(1,0,0,-1,7.2,275.67812)"
         id="text174"><tspan
           style="fill:#000000;fill-opacity:1;fill-rule:nonzero;stroke:none;font-family:DejaVu Sans;font-variant:normal;font-weight:normal;font-size:10;writing-mode:lr;-inkscape-font-specification:DejaVuSans"
           x="0 6.36 12.72 19.08"
           y="0"
           sodipodi:role="line"
           id="tspan176">1600</tspan></text>
</g><g
       id="g178"><g
         id="g180"
         clip-path="url(#clipPath182)" /></g><g
       id="g186"><g
         id="g188"
         clip-path="url(#clipPath190)"><path
           d="m 39.4655,62.485437 13.734,0 -13.734,0 z"
           style="fill:#1b9e77;fill-opacity:1;fill-rule:nonzero;stroke:none"
           id="path194" /></g></g><g
       id="g196"><g
         id="g198"
         clip-path="url(#clipPath200)"><path
           d="m 39.4655,62.485437 13.734,0 0,3.538125 -13.734,-3.538125 z"
           style="fill:#1b9e77;fill-opacity:1;fill-rule:nonzero;stroke:none"
           id="path204" /></g></g><g
       id="g206"><g
         id="g208"
         clip-path="url(#clipPath210)"><path
           d="m 39.4655,62.485437 13.734,0 0,3.538125 -13.734,0 0,-3.538125 z"
           style="fill:#1b9e77;fill-opacity:1;fill-rule:nonzero;stroke:none"
           id="path214" /></g></g><g
       id="g216"><g
         id="g218"
         clip-path="url(#clipPath220)"><path
           d="m 39.4655,62.485437 13.734,0 0,3.538125 -13.734,0 0,-3.538125 z"
           style="fill:#1b9e77;fill-opacity:1;fill-rule:nonzero;stroke:none"
           id="path224" /></g></g><g
       id="g226"><g
         id="g228"
         clip-path="url(#clipPath230)" /></g><g
       id="g234"><g
         id="g236"
         clip-path="url(#clipPath238)"><path
           d="m 62.3555,30.017938 13.734,0 -13.734,0 z"
           style="fill:#d95f02;fill-opacity:1;fill-rule:nonzero;stroke:none"
           id="path242" /></g></g><g
       id="g244"><g
         id="g246"
         clip-path="url(#clipPath248)"><path
           d="m 62.3555,30.017938 13.734,0 0,14.194125 -13.734,-14.194125 z"
           style="fill:#d95f02;fill-opacity:1;fill-rule:nonzero;stroke:none"
           id="path252" /></g></g><g
       id="g254"><g
         id="g256"
         clip-path="url(#clipPath258)"><path
           d="m 62.3555,30.017938 13.734,0 0,14.194125 -13.734,0 0,-14.194125 z"
           style="fill:#d95f02;fill-opacity:1;fill-rule:nonzero;stroke:none"
           id="path262" /></g></g><g
       id="g264"><g
         id="g266"
         clip-path="url(#clipPath268)"><path
           d="m 62.3555,30.017938 13.734,0 0,14.194125 -13.734,0 0,-14.194125 z"
           style="fill:#d95f02;fill-opacity:1;fill-rule:nonzero;stroke:none"
           id="path272" /></g></g><g
       id="g274"><g
         id="g276"
         clip-path="url(#clipPath278)" /></g><g
       id="g282"><g
         id="g284"
         clip-path="url(#clipPath286)"><path
           d="m 85.2455,207.38206 13.734,0 -13.734,0 z"
           style="fill:#7570b3;fill-opacity:1;fill-rule:nonzero;stroke:none"
           id="path290" /></g></g><g
       id="g292"><g
         id="g294"
         clip-path="url(#clipPath296)"><path
           d="m 85.2455,207.38206 13.734,0 0,51.615 -13.734,-51.615 z"
           style="fill:#7570b3;fill-opacity:1;fill-rule:nonzero;stroke:none"
           id="path300" /></g></g><g
       id="g302"><g
         id="g304"
         clip-path="url(#clipPath306)"><path
           d="m 85.2455,207.38206 13.734,0 0,51.615 -13.734,0 0,-51.615 z"
           style="fill:#7570b3;fill-opacity:1;fill-rule:nonzero;stroke:none"
           id="path310" /></g></g><g
       id="g312"><g
         id="g314"
         clip-path="url(#clipPath316)"><path
           d="m 85.2455,207.38206 13.734,0 0,51.615 -13.734,0 0,-51.615 z"
           style="fill:#7570b3;fill-opacity:1;fill-rule:nonzero;stroke:none"
           id="path320" /></g></g><g
       id="g322"><g
         id="g324"
         clip-path="url(#clipPath326)" /></g><g
       id="g330"><g
         id="g332"
         clip-path="url(#clipPath334)"><path
           d="m 108.1355,197.14231 13.734,0 -13.734,0 z"
           style="fill:#e7298a;fill-opacity:1;fill-rule:nonzero;stroke:none"
           id="path338" /></g></g><g
       id="g340"><g
         id="g342"
         clip-path="url(#clipPath344)"><path
           d="m 108.1355,197.14231 13.734,0 0,61.89638 -13.734,-61.89638 z"
           style="fill:#e7298a;fill-opacity:1;fill-rule:nonzero;stroke:none"
           id="path348" /></g></g><g
       id="g350"><g
         id="g352"
         clip-path="url(#clipPath354)"><path
           d="m 108.1355,197.14231 13.734,0 0,61.89638 -13.734,0 0,-61.89638 z"
           style="fill:#e7298a;fill-opacity:1;fill-rule:nonzero;stroke:none"
           id="path358" /></g></g><g
       id="g360"><g
         id="g362"
         clip-path="url(#clipPath364)"><path
           d="m 108.1355,197.14231 13.734,0 0,61.89638 -13.734,0 0,-61.89638 z"
           style="fill:#e7298a;fill-opacity:1;fill-rule:nonzero;stroke:none"
           id="path368" /></g></g><g
       id="g370"><g
         id="g372"
         clip-path="url(#clipPath374)" /></g><g
       id="g378"><g
         id="g380"
         clip-path="url(#clipPath382)"><path
           d="m 131.0255,49.082187 13.734,0 -13.734,0 z"
           style="fill:#66a61e;fill-opacity:1;fill-rule:nonzero;stroke:none"
           id="path386" /></g></g><g
       id="g388"><g
         id="g390"
         clip-path="url(#clipPath392)"><path
           d="m 131.0255,49.082187 13.734,0 0,151.764753 -13.734,-151.764753 z"
           style="fill:#66a61e;fill-opacity:1;fill-rule:nonzero;stroke:none"
           id="path396" /></g></g><g
       id="g398"><g
         id="g400"
         clip-path="url(#clipPath402)"><path
           d="m 131.0255,49.082187 13.734,0 0,151.764753 -13.734,0 0,-151.764753 z"
           style="fill:#66a61e;fill-opacity:1;fill-rule:nonzero;stroke:none"
           id="path406" /></g></g><g
       id="g408"><g
         id="g410"
         clip-path="url(#clipPath412)"><path
           d="m 131.0255,49.082187 13.734,0 0,151.764753 -13.734,0 0,-151.764753 z"
           style="fill:#66a61e;fill-opacity:1;fill-rule:nonzero;stroke:none"
           id="path416" /></g></g><g
       id="g418"><g
         id="g420"
         clip-path="url(#clipPath422)" /></g><g
       id="g426"><g
         id="g428"
         clip-path="url(#clipPath430)"><path
           d="m 153.9155,226.19656 13.734,0 -13.734,0 z"
           style="fill:#e6ab02;fill-opacity:1;fill-rule:nonzero;stroke:none"
           id="path434" /></g></g><g
       id="g436"><g
         id="g438"
         clip-path="url(#clipPath440)"><path
           d="m 153.9155,226.19656 13.734,0 0,39.00263 -13.734,-39.00263 z"
           style="fill:#e6ab02;fill-opacity:1;fill-rule:nonzero;stroke:none"
           id="path444" /></g></g><g
       id="g446"><g
         id="g448"
         clip-path="url(#clipPath450)"><path
           d="m 153.9155,226.19656 13.734,0 0,39.00263 -13.734,0 0,-39.00263 z"
           style="fill:#e6ab02;fill-opacity:1;fill-rule:nonzero;stroke:none"
           id="path454" /></g></g><g
       id="g456"><g
         id="g458"
         clip-path="url(#clipPath460)"><path
           d="m 153.9155,226.19656 13.734,0 0,39.00263 -13.734,0 0,-39.00263 z"
           style="fill:#e6ab02;fill-opacity:1;fill-rule:nonzero;stroke:none"
           id="path464" /></g></g><g
       id="g466"><g
         id="g468"
         clip-path="url(#clipPath470)"><path
           d="m 46.3325,62.485437 0,0"
           style="fill:none;stroke:#1b9e77;stroke-opacity:1;stroke-width:2;stroke-linecap:butt;stroke-linejoin:round;stroke-miterlimit:10;stroke-dasharray:6,6;stroke-dashoffset:0"
           id="path474" /></g></g><g
       id="g476"><g
         id="g478"
         clip-path="url(#clipPath480)"><path
           d="m 46.3325,66.023562 0,0"
           style="fill:none;stroke:#1b9e77;stroke-opacity:1;stroke-width:2;stroke-linecap:butt;stroke-linejoin:round;stroke-miterlimit:10;stroke-dasharray:6,6;stroke-dashoffset:0"
           id="path484" /></g></g><g
       id="g486"><g
         id="g488"
         clip-path="url(#clipPath490)" /></g><g
       id="g494"><g
         id="g496"
         clip-path="url(#clipPath498)" /></g><g
       id="g502"><g
         id="g504"
         clip-path="url(#clipPath506)" /></g><g
       id="g510"><g
         id="g512"
         clip-path="url(#clipPath514)"><path
           d="m 39.4655,63.983937 13.734,0"
           style="fill:none;stroke:#000000;stroke-opacity:1;stroke-width:3;stroke-linecap:square;stroke-linejoin:round;stroke-miterlimit:10;stroke-dasharray:none"
           id="path518" /></g></g><g
       id="g520"><g
         id="g522"
         clip-path="url(#clipPath524)"><path
           d="m 69.2225,30.017938 0,0"
           style="fill:none;stroke:#d95f02;stroke-opacity:1;stroke-width:2;stroke-linecap:butt;stroke-linejoin:round;stroke-miterlimit:10;stroke-dasharray:6,6;stroke-dashoffset:0"
           id="path528" /></g></g><g
       id="g530"><g
         id="g532"
         clip-path="url(#clipPath534)"><path
           d="m 69.2225,44.212063 0,0"
           style="fill:none;stroke:#d95f02;stroke-opacity:1;stroke-width:2;stroke-linecap:butt;stroke-linejoin:round;stroke-miterlimit:10;stroke-dasharray:6,6;stroke-dashoffset:0"
           id="path538" /></g></g><g
       id="g540"><g
         id="g542"
         clip-path="url(#clipPath544)" /></g><g
       id="g548"><g
         id="g550"
         clip-path="url(#clipPath552)" /></g><g
       id="g556"><g
         id="g558"
         clip-path="url(#clipPath560)" /></g><g
       id="g564"><g
         id="g566"
         clip-path="url(#clipPath568)"><path
           d="m 62.3555,36.927687 13.734,0"
           style="fill:none;stroke:#000000;stroke-opacity:1;stroke-width:3;stroke-linecap:square;stroke-linejoin:round;stroke-miterlimit:10;stroke-dasharray:none"
           id="path572" /></g></g><g
       id="g574"><g
         id="g576"
         clip-path="url(#clipPath578)"><path
           d="m 92.1125,207.38206 0,0"
           style="fill:none;stroke:#7570b3;stroke-opacity:1;stroke-width:2;stroke-linecap:butt;stroke-linejoin:round;stroke-miterlimit:10;stroke-dasharray:6,6;stroke-dashoffset:0"
           id="path582" /></g></g><g
       id="g584"><g
         id="g586"
         clip-path="url(#clipPath588)"><path
           d="m 92.1125,258.99706 0,0"
           style="fill:none;stroke:#7570b3;stroke-opacity:1;stroke-width:2;stroke-linecap:butt;stroke-linejoin:round;stroke-miterlimit:10;stroke-dasharray:6,6;stroke-dashoffset:0"
           id="path592" /></g></g><g
       id="g594"><g
         id="g596"
         clip-path="url(#clipPath598)" /></g><g
       id="g602"><g
         id="g604"
         clip-path="url(#clipPath606)" /></g><g
       id="g610"><g
         id="g612"
         clip-path="url(#clipPath614)" /></g><g
       id="g618"><g
         id="g620"
         clip-path="url(#clipPath622)"><path
           d="m 85.2455,237.72669 13.734,0"
           style="fill:none;stroke:#000000;stroke-opacity:1;stroke-width:3;stroke-linecap:square;stroke-linejoin:round;stroke-miterlimit:10;stroke-dasharray:none"
           id="path626" /></g></g><g
       id="g628"><g
         id="g630"
         clip-path="url(#clipPath632)"><path
           d="m 115.0025,197.14231 0,0"
           style="fill:none;stroke:#e7298a;stroke-opacity:1;stroke-width:2;stroke-linecap:butt;stroke-linejoin:round;stroke-miterlimit:10;stroke-dasharray:6,6;stroke-dashoffset:0"
           id="path636" /></g></g><g
       id="g638"><g
         id="g640"
         clip-path="url(#clipPath642)"><path
           d="m 115.0025,259.03869 0,0"
           style="fill:none;stroke:#e7298a;stroke-opacity:1;stroke-width:2;stroke-linecap:butt;stroke-linejoin:round;stroke-miterlimit:10;stroke-dasharray:6,6;stroke-dashoffset:0"
           id="path646" /></g></g><g
       id="g648"><g
         id="g650"
         clip-path="url(#clipPath652)" /></g><g
       id="g656"><g
         id="g658"
         clip-path="url(#clipPath660)" /></g><g
       id="g664"><g
         id="g666"
         clip-path="url(#clipPath668)" /></g><g
       id="g672"><g
         id="g674"
         clip-path="url(#clipPath676)"><path
           d="m 108.1355,241.80594 13.734,0"
           style="fill:none;stroke:#000000;stroke-opacity:1;stroke-width:3;stroke-linecap:square;stroke-linejoin:round;stroke-miterlimit:10;stroke-dasharray:none"
           id="path680" /></g></g><g
       id="g682"><g
         id="g684"
         clip-path="url(#clipPath686)"><path
           d="m 137.8925,49.082187 0,0"
           style="fill:none;stroke:#66a61e;stroke-opacity:1;stroke-width:2;stroke-linecap:butt;stroke-linejoin:round;stroke-miterlimit:10;stroke-dasharray:6,6;stroke-dashoffset:0"
           id="path690" /></g></g><g
       id="g692"><g
         id="g694"
         clip-path="url(#clipPath696)"><path
           d="m 137.8925,200.84694 0,0"
           style="fill:none;stroke:#66a61e;stroke-opacity:1;stroke-width:2;stroke-linecap:butt;stroke-linejoin:round;stroke-miterlimit:10;stroke-dasharray:6,6;stroke-dashoffset:0"
           id="path700" /></g></g><g
       id="g702"><g
         id="g704"
         clip-path="url(#clipPath706)" /></g><g
       id="g710"><g
         id="g712"
         clip-path="url(#clipPath714)" /></g><g
       id="g718"><g
         id="g720"
         clip-path="url(#clipPath722)" /></g><g
       id="g726"><g
         id="g728"
         clip-path="url(#clipPath730)"><path
           d="m 131.0255,82.382187 13.734,0"
           style="fill:none;stroke:#000000;stroke-opacity:1;stroke-width:3;stroke-linecap:square;stroke-linejoin:round;stroke-miterlimit:10;stroke-dasharray:none"
           id="path734" /></g></g><g
       id="g736"><g
         id="g738"
         clip-path="url(#clipPath740)"><path
           d="m 160.7825,226.19656 0,0"
           style="fill:none;stroke:#e6ab02;stroke-opacity:1;stroke-width:2;stroke-linecap:butt;stroke-linejoin:round;stroke-miterlimit:10;stroke-dasharray:6,6;stroke-dashoffset:0"
           id="path744" /></g></g><g
       id="g746"><g
         id="g748"
         clip-path="url(#clipPath750)"><path
           d="m 160.7825,265.19919 0,0"
           style="fill:none;stroke:#e6ab02;stroke-opacity:1;stroke-width:2;stroke-linecap:butt;stroke-linejoin:round;stroke-miterlimit:10;stroke-dasharray:6,6;stroke-dashoffset:0"
           id="path754" /></g></g><g
       id="g756"><g
         id="g758"
         clip-path="url(#clipPath760)" /></g><g
       id="g764"><g
         id="g766"
         clip-path="url(#clipPath768)" /></g><g
       id="g772"><g
         id="g774"
         clip-path="url(#clipPath776)" /></g><g
       id="g780"><g
         id="g782"
         clip-path="url(#clipPath784)"><path
           d="m 153.9155,252.12894 13.734,0"
           style="fill:none;stroke:#000000;stroke-opacity:1;stroke-width:3;stroke-linecap:square;stroke-linejoin:round;stroke-miterlimit:10;stroke-dasharray:none"
           id="path788" /></g></g><g
       id="g790"><path
         d="m 34.8875,12.035938 137.34,0"
         style="fill:none;stroke:#000000;stroke-opacity:1;stroke-width:1;stroke-linecap:butt;stroke-linejoin:round;stroke-miterlimit:10;stroke-dasharray:none"
         id="path792" /><path
         d="m 137.8925,261.03709 0,2.5796 -22.89,0 0,-2.5796"
         style="fill:none;stroke:#aaaaaa;stroke-opacity:1;stroke-width:1;stroke-linecap:round;stroke-linejoin:round;stroke-miterlimit:10;stroke-dasharray:none"
         id="path794" /><path
         d="m 160.7825,267.19759 0,7.1576 -45.78,0 0,-7.1576"
         style="fill:none;stroke:#aaaaaa;stroke-opacity:1;stroke-width:1;stroke-linecap:round;stroke-linejoin:round;stroke-miterlimit:10;stroke-dasharray:none"
         id="path796" /></g><text
       xml:space="preserve"
       style="font-size:9.60000038px;font-style:normal;font-variant:normal;font-weight:normal;font-stretch:normal;text-align:start;line-height:125%;letter-spacing:0px;word-spacing:0px;writing-mode:lr-tb;text-anchor:start;fill:#000000;fill-opacity:1;stroke:none;font-family:Sans;-inkscape-font-specification:Sans"
       x="117.46799"
       y="-261.97171"
       id="text3773"
       sodipodi:linespacing="125%"
       transform="scale(1,-1)"><tspan
         sodipodi:role="line"
         id="tspan3775"
         x="117.46799"
         y="-261.97171">****</tspan></text>
<text
       xml:space="preserve"
       style="font-size:9.60000038px;font-style:normal;font-variant:normal;font-weight:normal;font-stretch:normal;text-align:start;line-height:125%;letter-spacing:0px;word-spacing:0px;writing-mode:lr-tb;text-anchor:start;fill:#000000;fill-opacity:1;stroke:none;font-family:Sans;-inkscape-font-specification:Sans"
       x="136.50079"
       y="-273.07996"
       id="text3777"
       sodipodi:linespacing="125%"
       transform="scale(1,-1)"><tspan
         sodipodi:role="line"
         id="tspan3779"
         x="136.50079"
         y="-273.07996">*</tspan></text>
</g></svg>