<?xml version="1.0" encoding="UTF-8" standalone="no"?>
<!-- Created with Inkscape (http://www.inkscape.org/) -->

<svg
   xmlns:dc="http://purl.org/dc/elements/1.1/"
   xmlns:cc="http://creativecommons.org/ns#"
   xmlns:rdf="http://www.w3.org/1999/02/22-rdf-syntax-ns#"
   xmlns:svg="http://www.w3.org/2000/svg"
   xmlns="http://www.w3.org/2000/svg"
   xmlns:sodipodi="http://sodipodi.sourceforge.net/DTD/sodipodi-0.dtd"
   xmlns:inkscape="http://www.inkscape.org/namespaces/inkscape"
   id="svg2"
   version="1.1"
   inkscape:version="0.48.4 r9939"
   width="224.73359"
   height="363.08984"
   xml:space="preserve"
   sodipodi:docname="xp1-explo-hand.pdf"><metadata
     id="metadata8"><rdf:RDF><cc:Work
         rdf:about=""><dc:format>image/svg+xml</dc:format><dc:type
           rdf:resource="http://purl.org/dc/dcmitype/StillImage" /><dc:title></dc:title></cc:Work></rdf:RDF></metadata><defs
     id="defs6"><clipPath
       clipPathUnits="userSpaceOnUse"
       id="clipPath20"><path
         d="m 35.246875,12.035938 137.340005,0 0,266.400002 -137.340005,0 0,-266.400002 z"
         id="path22" /></clipPath><clipPath
       clipPathUnits="userSpaceOnUse"
       id="clipPath38"><path
         d="m 35.246875,12.035938 137.340005,0 0,266.400002 -137.340005,0 0,-266.400002 z"
         id="path40" /></clipPath><clipPath
       clipPathUnits="userSpaceOnUse"
       id="clipPath56"><path
         d="m 35.246875,12.035938 137.340005,0 0,266.400002 -137.340005,0 0,-266.400002 z"
         id="path58" /></clipPath><clipPath
       clipPathUnits="userSpaceOnUse"
       id="clipPath74"><path
         d="m 35.246875,12.035938 137.340005,0 0,266.400002 -137.340005,0 0,-266.400002 z"
         id="path76" /></clipPath><clipPath
       clipPathUnits="userSpaceOnUse"
       id="clipPath92"><path
         d="m 35.246875,12.035938 137.340005,0 0,266.400002 -137.340005,0 0,-266.400002 z"
         id="path94" /></clipPath><clipPath
       clipPathUnits="userSpaceOnUse"
       id="clipPath110"><path
         d="m 35.246875,12.035938 137.340005,0 0,266.400002 -137.340005,0 0,-266.400002 z"
         id="path112" /></clipPath><clipPath
       clipPathUnits="userSpaceOnUse"
       id="clipPath128"><path
         d="m 35.246875,12.035938 137.340005,0 0,266.400002 -137.340005,0 0,-266.400002 z"
         id="path130" /></clipPath><clipPath
       clipPathUnits="userSpaceOnUse"
       id="clipPath146"><path
         d="m 35.246875,12.035938 137.340005,0 0,266.400002 -137.340005,0 0,-266.400002 z"
         id="path148" /></clipPath><clipPath
       clipPathUnits="userSpaceOnUse"
       id="clipPath164"><path
         d="m 35.246875,12.035938 137.340005,0 0,266.400002 -137.340005,0 0,-266.400002 z"
         id="path166" /></clipPath><clipPath
       clipPathUnits="userSpaceOnUse"
       id="clipPath172"><path
         d="m 35.246875,12.035938 137.340005,0 0,266.400002 -137.340005,0 0,-266.400002 z"
         id="path174" /></clipPath><clipPath
       clipPathUnits="userSpaceOnUse"
       id="clipPath182"><path
         d="m 35.246875,12.035938 137.340005,0 0,266.400002 -137.340005,0 0,-266.400002 z"
         id="path184" /></clipPath><clipPath
       clipPathUnits="userSpaceOnUse"
       id="clipPath192"><path
         d="m 35.246875,12.035938 137.340005,0 0,266.400002 -137.340005,0 0,-266.400002 z"
         id="path194" /></clipPath><clipPath
       clipPathUnits="userSpaceOnUse"
       id="clipPath202"><path
         d="m 35.246875,12.035938 137.340005,0 0,266.400002 -137.340005,0 0,-266.400002 z"
         id="path204" /></clipPath><clipPath
       clipPathUnits="userSpaceOnUse"
       id="clipPath212"><path
         d="m 35.246875,12.035938 137.340005,0 0,266.400002 -137.340005,0 0,-266.400002 z"
         id="path214" /></clipPath><clipPath
       clipPathUnits="userSpaceOnUse"
       id="clipPath220"><path
         d="m 35.246875,12.035938 137.340005,0 0,266.400002 -137.340005,0 0,-266.400002 z"
         id="path222" /></clipPath><clipPath
       clipPathUnits="userSpaceOnUse"
       id="clipPath230"><path
         d="m 35.246875,12.035938 137.340005,0 0,266.400002 -137.340005,0 0,-266.400002 z"
         id="path232" /></clipPath><clipPath
       clipPathUnits="userSpaceOnUse"
       id="clipPath240"><path
         d="m 35.246875,12.035938 137.340005,0 0,266.400002 -137.340005,0 0,-266.400002 z"
         id="path242" /></clipPath><clipPath
       clipPathUnits="userSpaceOnUse"
       id="clipPath250"><path
         d="m 35.246875,12.035938 137.340005,0 0,266.400002 -137.340005,0 0,-266.400002 z"
         id="path252" /></clipPath><clipPath
       clipPathUnits="userSpaceOnUse"
       id="clipPath260"><path
         d="m 35.246875,12.035938 137.340005,0 0,266.400002 -137.340005,0 0,-266.400002 z"
         id="path262" /></clipPath><clipPath
       clipPathUnits="userSpaceOnUse"
       id="clipPath268"><path
         d="m 35.246875,12.035938 137.340005,0 0,266.400002 -137.340005,0 0,-266.400002 z"
         id="path270" /></clipPath><clipPath
       clipPathUnits="userSpaceOnUse"
       id="clipPath278"><path
         d="m 35.246875,12.035938 137.340005,0 0,266.400002 -137.340005,0 0,-266.400002 z"
         id="path280" /></clipPath><clipPath
       clipPathUnits="userSpaceOnUse"
       id="clipPath288"><path
         d="m 35.246875,12.035938 137.340005,0 0,266.400002 -137.340005,0 0,-266.400002 z"
         id="path290" /></clipPath><clipPath
       clipPathUnits="userSpaceOnUse"
       id="clipPath298"><path
         d="m 35.246875,12.035938 137.340005,0 0,266.400002 -137.340005,0 0,-266.400002 z"
         id="path300" /></clipPath><clipPath
       clipPathUnits="userSpaceOnUse"
       id="clipPath308"><path
         d="m 35.246875,12.035938 137.340005,0 0,266.400002 -137.340005,0 0,-266.400002 z"
         id="path310" /></clipPath><clipPath
       clipPathUnits="userSpaceOnUse"
       id="clipPath316"><path
         d="m 35.246875,12.035938 137.340005,0 0,266.400002 -137.340005,0 0,-266.400002 z"
         id="path318" /></clipPath><clipPath
       clipPathUnits="userSpaceOnUse"
       id="clipPath326"><path
         d="m 35.246875,12.035938 137.340005,0 0,266.400002 -137.340005,0 0,-266.400002 z"
         id="path328" /></clipPath><clipPath
       clipPathUnits="userSpaceOnUse"
       id="clipPath336"><path
         d="m 35.246875,12.035938 137.340005,0 0,266.400002 -137.340005,0 0,-266.400002 z"
         id="path338" /></clipPath><clipPath
       clipPathUnits="userSpaceOnUse"
       id="clipPath346"><path
         d="m 35.246875,12.035938 137.340005,0 0,266.400002 -137.340005,0 0,-266.400002 z"
         id="path348" /></clipPath><clipPath
       clipPathUnits="userSpaceOnUse"
       id="clipPath356"><path
         d="m 35.246875,12.035938 137.340005,0 0,266.400002 -137.340005,0 0,-266.400002 z"
         id="path358" /></clipPath><clipPath
       clipPathUnits="userSpaceOnUse"
       id="clipPath364"><path
         d="m 35.246875,12.035938 137.340005,0 0,266.400002 -137.340005,0 0,-266.400002 z"
         id="path366" /></clipPath><clipPath
       clipPathUnits="userSpaceOnUse"
       id="clipPath374"><path
         d="m 35.246875,12.035938 137.340005,0 0,266.400002 -137.340005,0 0,-266.400002 z"
         id="path376" /></clipPath><clipPath
       clipPathUnits="userSpaceOnUse"
       id="clipPath384"><path
         d="m 35.246875,12.035938 137.340005,0 0,266.400002 -137.340005,0 0,-266.400002 z"
         id="path386" /></clipPath><clipPath
       clipPathUnits="userSpaceOnUse"
       id="clipPath394"><path
         d="m 35.246875,12.035938 137.340005,0 0,266.400002 -137.340005,0 0,-266.400002 z"
         id="path396" /></clipPath><clipPath
       clipPathUnits="userSpaceOnUse"
       id="clipPath404"><path
         d="m 35.246875,12.035938 137.340005,0 0,266.400002 -137.340005,0 0,-266.400002 z"
         id="path406" /></clipPath><clipPath
       clipPathUnits="userSpaceOnUse"
       id="clipPath412"><path
         d="m 35.246875,12.035938 137.340005,0 0,266.400002 -137.340005,0 0,-266.400002 z"
         id="path414" /></clipPath><clipPath
       clipPathUnits="userSpaceOnUse"
       id="clipPath422"><path
         d="m 35.246875,12.035938 137.340005,0 0,266.400002 -137.340005,0 0,-266.400002 z"
         id="path424" /></clipPath><clipPath
       clipPathUnits="userSpaceOnUse"
       id="clipPath432"><path
         d="m 35.246875,12.035938 137.340005,0 0,266.400002 -137.340005,0 0,-266.400002 z"
         id="path434" /></clipPath><clipPath
       clipPathUnits="userSpaceOnUse"
       id="clipPath442"><path
         d="m 35.246875,12.035938 137.340005,0 0,266.400002 -137.340005,0 0,-266.400002 z"
         id="path444" /></clipPath><clipPath
       clipPathUnits="userSpaceOnUse"
       id="clipPath452"><path
         d="m 35.246875,12.035938 137.340005,0 0,266.400002 -137.340005,0 0,-266.400002 z"
         id="path454" /></clipPath><clipPath
       clipPathUnits="userSpaceOnUse"
       id="clipPath462"><path
         d="m 35.246875,12.035938 137.340005,0 0,266.400002 -137.340005,0 0,-266.400002 z"
         id="path464" /></clipPath><clipPath
       clipPathUnits="userSpaceOnUse"
       id="clipPath472"><path
         d="m 35.246875,12.035938 137.340005,0 0,266.400002 -137.340005,0 0,-266.400002 z"
         id="path474" /></clipPath><clipPath
       clipPathUnits="userSpaceOnUse"
       id="clipPath480"><path
         d="m 35.246875,12.035938 137.340005,0 0,266.400002 -137.340005,0 0,-266.400002 z"
         id="path482" /></clipPath><clipPath
       clipPathUnits="userSpaceOnUse"
       id="clipPath488"><path
         d="m 35.246875,12.035938 137.340005,0 0,266.400002 -137.340005,0 0,-266.400002 z"
         id="path490" /></clipPath><clipPath
       clipPathUnits="userSpaceOnUse"
       id="clipPath496"><path
         d="m 35.246875,12.035938 137.340005,0 0,266.400002 -137.340005,0 0,-266.400002 z"
         id="path498" /></clipPath><clipPath
       clipPathUnits="userSpaceOnUse"
       id="clipPath506"><path
         d="m 35.246875,12.035938 137.340005,0 0,266.400002 -137.340005,0 0,-266.400002 z"
         id="path508" /></clipPath><clipPath
       clipPathUnits="userSpaceOnUse"
       id="clipPath516"><path
         d="m 35.246875,12.035938 137.340005,0 0,266.400002 -137.340005,0 0,-266.400002 z"
         id="path518" /></clipPath><clipPath
       clipPathUnits="userSpaceOnUse"
       id="clipPath526"><path
         d="m 35.246875,12.035938 137.340005,0 0,266.400002 -137.340005,0 0,-266.400002 z"
         id="path528" /></clipPath><clipPath
       clipPathUnits="userSpaceOnUse"
       id="clipPath534"><path
         d="m 35.246875,12.035938 137.340005,0 0,266.400002 -137.340005,0 0,-266.400002 z"
         id="path536" /></clipPath><clipPath
       clipPathUnits="userSpaceOnUse"
       id="clipPath542"><path
         d="m 35.246875,12.035938 137.340005,0 0,266.400002 -137.340005,0 0,-266.400002 z"
         id="path544" /></clipPath><clipPath
       clipPathUnits="userSpaceOnUse"
       id="clipPath550"><path
         d="m 35.246875,12.035938 137.340005,0 0,266.400002 -137.340005,0 0,-266.400002 z"
         id="path552" /></clipPath><clipPath
       clipPathUnits="userSpaceOnUse"
       id="clipPath560"><path
         d="m 35.246875,12.035938 137.340005,0 0,266.400002 -137.340005,0 0,-266.400002 z"
         id="path562" /></clipPath><clipPath
       clipPathUnits="userSpaceOnUse"
       id="clipPath570"><path
         d="m 35.246875,12.035938 137.340005,0 0,266.400002 -137.340005,0 0,-266.400002 z"
         id="path572" /></clipPath><clipPath
       clipPathUnits="userSpaceOnUse"
       id="clipPath580"><path
         d="m 35.246875,12.035938 137.340005,0 0,266.400002 -137.340005,0 0,-266.400002 z"
         id="path582" /></clipPath><clipPath
       clipPathUnits="userSpaceOnUse"
       id="clipPath588"><path
         d="m 35.246875,12.035938 137.340005,0 0,266.400002 -137.340005,0 0,-266.400002 z"
         id="path590" /></clipPath><clipPath
       clipPathUnits="userSpaceOnUse"
       id="clipPath596"><path
         d="m 35.246875,12.035938 137.340005,0 0,266.400002 -137.340005,0 0,-266.400002 z"
         id="path598" /></clipPath><clipPath
       clipPathUnits="userSpaceOnUse"
       id="clipPath604"><path
         d="m 35.246875,12.035938 137.340005,0 0,266.400002 -137.340005,0 0,-266.400002 z"
         id="path606" /></clipPath><clipPath
       clipPathUnits="userSpaceOnUse"
       id="clipPath614"><path
         d="m 35.246875,12.035938 137.340005,0 0,266.400002 -137.340005,0 0,-266.400002 z"
         id="path616" /></clipPath><clipPath
       clipPathUnits="userSpaceOnUse"
       id="clipPath624"><path
         d="m 35.246875,12.035938 137.340005,0 0,266.400002 -137.340005,0 0,-266.400002 z"
         id="path626" /></clipPath><clipPath
       clipPathUnits="userSpaceOnUse"
       id="clipPath634"><path
         d="m 35.246875,12.035938 137.340005,0 0,266.400002 -137.340005,0 0,-266.400002 z"
         id="path636" /></clipPath><clipPath
       clipPathUnits="userSpaceOnUse"
       id="clipPath642"><path
         d="m 35.246875,12.035938 137.340005,0 0,266.400002 -137.340005,0 0,-266.400002 z"
         id="path644" /></clipPath><clipPath
       clipPathUnits="userSpaceOnUse"
       id="clipPath650"><path
         d="m 35.246875,12.035938 137.340005,0 0,266.400002 -137.340005,0 0,-266.400002 z"
         id="path652" /></clipPath><clipPath
       clipPathUnits="userSpaceOnUse"
       id="clipPath658"><path
         d="m 35.246875,12.035938 137.340005,0 0,266.400002 -137.340005,0 0,-266.400002 z"
         id="path660" /></clipPath><clipPath
       clipPathUnits="userSpaceOnUse"
       id="clipPath668"><path
         d="m 35.246875,12.035938 137.340005,0 0,266.400002 -137.340005,0 0,-266.400002 z"
         id="path670" /></clipPath><clipPath
       clipPathUnits="userSpaceOnUse"
       id="clipPath678"><path
         d="m 35.246875,12.035938 137.340005,0 0,266.400002 -137.340005,0 0,-266.400002 z"
         id="path680" /></clipPath><clipPath
       clipPathUnits="userSpaceOnUse"
       id="clipPath688"><path
         d="m 35.246875,12.035938 137.340005,0 0,266.400002 -137.340005,0 0,-266.400002 z"
         id="path690" /></clipPath><clipPath
       clipPathUnits="userSpaceOnUse"
       id="clipPath696"><path
         d="m 35.246875,12.035938 137.340005,0 0,266.400002 -137.340005,0 0,-266.400002 z"
         id="path698" /></clipPath><clipPath
       clipPathUnits="userSpaceOnUse"
       id="clipPath704"><path
         d="m 35.246875,12.035938 137.340005,0 0,266.400002 -137.340005,0 0,-266.400002 z"
         id="path706" /></clipPath><clipPath
       clipPathUnits="userSpaceOnUse"
       id="clipPath712"><path
         d="m 35.246875,12.035938 137.340005,0 0,266.400002 -137.340005,0 0,-266.400002 z"
         id="path714" /></clipPath><clipPath
       clipPathUnits="userSpaceOnUse"
       id="clipPath722"><path
         d="m 35.246875,12.035938 137.340005,0 0,266.400002 -137.340005,0 0,-266.400002 z"
         id="path724" /></clipPath><clipPath
       clipPathUnits="userSpaceOnUse"
       id="clipPath732"><path
         d="m 35.246875,12.035938 137.340005,0 0,266.400002 -137.340005,0 0,-266.400002 z"
         id="path734" /></clipPath><clipPath
       clipPathUnits="userSpaceOnUse"
       id="clipPath742"><path
         d="m 35.246875,12.035938 137.340005,0 0,266.400002 -137.340005,0 0,-266.400002 z"
         id="path744" /></clipPath><clipPath
       clipPathUnits="userSpaceOnUse"
       id="clipPath750"><path
         d="m 35.246875,12.035938 137.340005,0 0,266.400002 -137.340005,0 0,-266.400002 z"
         id="path752" /></clipPath><clipPath
       clipPathUnits="userSpaceOnUse"
       id="clipPath758"><path
         d="m 35.246875,12.035938 137.340005,0 0,266.400002 -137.340005,0 0,-266.400002 z"
         id="path760" /></clipPath><clipPath
       clipPathUnits="userSpaceOnUse"
       id="clipPath766"><path
         d="m 35.246875,12.035938 137.340005,0 0,266.400002 -137.340005,0 0,-266.400002 z"
         id="path768" /></clipPath></defs><sodipodi:namedview
     pagecolor="#ffffff"
     bordercolor="#666666"
     borderopacity="1"
     objecttolerance="10"
     gridtolerance="10"
     guidetolerance="10"
     inkscape:pageopacity="0"
     inkscape:pageshadow="2"
     inkscape:window-width="1920"
     inkscape:window-height="1003"
     id="namedview4"
     showgrid="false"
     inkscape:zoom="5.1998149"
     inkscape:cx="153.77724"
     inkscape:cy="265.47783"
     inkscape:window-x="0"
     inkscape:window-y="24"
     inkscape:window-maximized="1"
     inkscape:current-layer="g10" /><g
     id="g10"
     inkscape:groupmode="layer"
     inkscape:label="xp1-explo-hand"
     transform="matrix(1.25,0,0,-1.25,0,363.08984)"><path
       d="m 0,0 179.78687,0 0,290.47187 L 0,290.47187 0,0 z"
       style="fill:#ffffff;fill-opacity:1;fill-rule:nonzero;stroke:none"
       id="path12" /><path
       d="m 35.246875,12.035938 137.339995,0 0,266.400002 -137.339995,0 0,-266.400002 z"
       style="fill:#ffffff;fill-opacity:1;fill-rule:nonzero;stroke:none"
       id="path14" /><g
       id="g16"><g
         id="g18"
         clip-path="url(#clipPath20)"><path
           d="m 35.246875,12.035938 137.339995,0"
           style="fill:none;stroke:#e6e6e6;stroke-opacity:1;stroke-width:1;stroke-linecap:square;stroke-linejoin:round;stroke-miterlimit:10;stroke-dasharray:none"
           id="path24" /></g></g><g
       id="g26"><path
         d="m 35.246875,12.035938 0,0"
         style="fill:#000000;fill-opacity:1;fill-rule:nonzero;stroke:#000000;stroke-opacity:1;stroke-width:0.5;stroke-linecap:butt;stroke-linejoin:round;stroke-miterlimit:10;stroke-dasharray:none"
         id="path28" /><text
         transform="matrix(1,0,0,-1,7.559375,9.278125)"
         id="text30"><tspan
           style="fill:#000000;fill-opacity:1;fill-rule:nonzero;stroke:none;font-family:DejaVu Sans;font-variant:normal;font-weight:normal;font-size:10;writing-mode:lr;-inkscape-font-specification:DejaVuSans"
           x="0 6.36 12.72 19.08"
           y="0"
           sodipodi:role="line"
           id="tspan32">1400</tspan></text>
</g><g
       id="g34"><g
         id="g36"
         clip-path="url(#clipPath38)"><path
           d="m 35.246875,50.09308 137.339995,0"
           style="fill:none;stroke:#e6e6e6;stroke-opacity:1;stroke-width:1;stroke-linecap:square;stroke-linejoin:round;stroke-miterlimit:10;stroke-dasharray:none"
           id="path42" /></g></g><g
       id="g44"><path
         d="m 35.246875,50.09308 0,0"
         style="fill:#000000;fill-opacity:1;fill-rule:nonzero;stroke:#000000;stroke-opacity:1;stroke-width:0.5;stroke-linecap:butt;stroke-linejoin:round;stroke-miterlimit:10;stroke-dasharray:none"
         id="path46" /><text
         transform="matrix(1,0,0,-1,7.559375,47.335268)"
         id="text48"><tspan
           style="fill:#000000;fill-opacity:1;fill-rule:nonzero;stroke:none;font-family:DejaVu Sans;font-variant:normal;font-weight:normal;font-size:10;writing-mode:lr;-inkscape-font-specification:DejaVuSans"
           x="0 6.36 12.72 19.08"
           y="0"
           sodipodi:role="line"
           id="tspan50">1500</tspan></text>
</g><g
       id="g52"><g
         id="g54"
         clip-path="url(#clipPath56)"><path
           d="m 35.246875,88.150223 137.339995,0"
           style="fill:none;stroke:#e6e6e6;stroke-opacity:1;stroke-width:1;stroke-linecap:square;stroke-linejoin:round;stroke-miterlimit:10;stroke-dasharray:none"
           id="path60" /></g></g><g
       id="g62"><path
         d="m 35.246875,88.150223 0,0"
         style="fill:#000000;fill-opacity:1;fill-rule:nonzero;stroke:#000000;stroke-opacity:1;stroke-width:0.5;stroke-linecap:butt;stroke-linejoin:round;stroke-miterlimit:10;stroke-dasharray:none"
         id="path64" /><text
         transform="matrix(1,0,0,-1,7.559375,85.392411)"
         id="text66"><tspan
           style="fill:#000000;fill-opacity:1;fill-rule:nonzero;stroke:none;font-family:DejaVu Sans;font-variant:normal;font-weight:normal;font-size:10;writing-mode:lr;-inkscape-font-specification:DejaVuSans"
           x="0 6.36 12.72 19.08"
           y="0"
           sodipodi:role="line"
           id="tspan68">1600</tspan></text>
</g><g
       id="g70"><g
         id="g72"
         clip-path="url(#clipPath74)"><path
           d="m 35.246875,126.20737 137.339995,0"
           style="fill:none;stroke:#e6e6e6;stroke-opacity:1;stroke-width:1;stroke-linecap:square;stroke-linejoin:round;stroke-miterlimit:10;stroke-dasharray:none"
           id="path78" /></g></g><g
       id="g80"><path
         d="m 35.246875,126.20737 0,0"
         style="fill:#000000;fill-opacity:1;fill-rule:nonzero;stroke:#000000;stroke-opacity:1;stroke-width:0.5;stroke-linecap:butt;stroke-linejoin:round;stroke-miterlimit:10;stroke-dasharray:none"
         id="path82" /><text
         transform="matrix(1,0,0,-1,7.559375,123.44955)"
         id="text84"><tspan
           style="fill:#000000;fill-opacity:1;fill-rule:nonzero;stroke:none;font-family:DejaVu Sans;font-variant:normal;font-weight:normal;font-size:10;writing-mode:lr;-inkscape-font-specification:DejaVuSans"
           x="0 6.36 12.72 19.08"
           y="0"
           sodipodi:role="line"
           id="tspan86">1700</tspan></text>
</g><g
       id="g88"><g
         id="g90"
         clip-path="url(#clipPath92)"><path
           d="m 35.246875,164.26451 137.339995,0"
           style="fill:none;stroke:#e6e6e6;stroke-opacity:1;stroke-width:1;stroke-linecap:square;stroke-linejoin:round;stroke-miterlimit:10;stroke-dasharray:none"
           id="path96" /></g></g><g
       id="g98"><path
         d="m 35.246875,164.26451 0,0"
         style="fill:#000000;fill-opacity:1;fill-rule:nonzero;stroke:#000000;stroke-opacity:1;stroke-width:0.5;stroke-linecap:butt;stroke-linejoin:round;stroke-miterlimit:10;stroke-dasharray:none"
         id="path100" /><text
         transform="matrix(1,0,0,-1,7.559375,161.5067)"
         id="text102"><tspan
           style="fill:#000000;fill-opacity:1;fill-rule:nonzero;stroke:none;font-family:DejaVu Sans;font-variant:normal;font-weight:normal;font-size:10;writing-mode:lr;-inkscape-font-specification:DejaVuSans"
           x="0 6.36 12.72 19.08"
           y="0"
           sodipodi:role="line"
           id="tspan104">1800</tspan></text>
</g><g
       id="g106"><g
         id="g108"
         clip-path="url(#clipPath110)"><path
           d="m 35.246875,202.32165 137.339995,0"
           style="fill:none;stroke:#e6e6e6;stroke-opacity:1;stroke-width:1;stroke-linecap:square;stroke-linejoin:round;stroke-miterlimit:10;stroke-dasharray:none"
           id="path114" /></g></g><g
       id="g116"><path
         d="m 35.246875,202.32165 0,0"
         style="fill:#000000;fill-opacity:1;fill-rule:nonzero;stroke:#000000;stroke-opacity:1;stroke-width:0.5;stroke-linecap:butt;stroke-linejoin:round;stroke-miterlimit:10;stroke-dasharray:none"
         id="path118" /><text
         transform="matrix(1,0,0,-1,7.559375,199.56384)"
         id="text120"><tspan
           style="fill:#000000;fill-opacity:1;fill-rule:nonzero;stroke:none;font-family:DejaVu Sans;font-variant:normal;font-weight:normal;font-size:10;writing-mode:lr;-inkscape-font-specification:DejaVuSans"
           x="0 6.36 12.72 19.08"
           y="0"
           sodipodi:role="line"
           id="tspan122">1900</tspan></text>
</g><g
       id="g124"><g
         id="g126"
         clip-path="url(#clipPath128)"><path
           d="m 35.246875,240.37879 137.339995,0"
           style="fill:none;stroke:#e6e6e6;stroke-opacity:1;stroke-width:1;stroke-linecap:square;stroke-linejoin:round;stroke-miterlimit:10;stroke-dasharray:none"
           id="path132" /></g></g><g
       id="g134"><path
         d="m 35.246875,240.37879 0,0"
         style="fill:#000000;fill-opacity:1;fill-rule:nonzero;stroke:#000000;stroke-opacity:1;stroke-width:0.5;stroke-linecap:butt;stroke-linejoin:round;stroke-miterlimit:10;stroke-dasharray:none"
         id="path136" /><text
         transform="matrix(1,0,0,-1,7.2,237.62098)"
         id="text138"><tspan
           style="fill:#000000;fill-opacity:1;fill-rule:nonzero;stroke:none;font-family:DejaVu Sans;font-variant:normal;font-weight:normal;font-size:10;writing-mode:lr;-inkscape-font-specification:DejaVuSans"
           x="0 6.36 12.72 19.08"
           y="0"
           sodipodi:role="line"
           id="tspan140">2000</tspan></text>
</g><g
       id="g142"><g
         id="g144"
         clip-path="url(#clipPath146)"><path
           d="m 35.246875,278.43594 137.339995,0"
           style="fill:none;stroke:#e6e6e6;stroke-opacity:1;stroke-width:1;stroke-linecap:square;stroke-linejoin:round;stroke-miterlimit:10;stroke-dasharray:none"
           id="path150" /></g></g><g
       id="g152"><path
         d="m 35.246875,278.43594 0,0"
         style="fill:#000000;fill-opacity:1;fill-rule:nonzero;stroke:#000000;stroke-opacity:1;stroke-width:0.5;stroke-linecap:butt;stroke-linejoin:round;stroke-miterlimit:10;stroke-dasharray:none"
         id="path154" /><text
         transform="matrix(1,0,0,-1,7.2,275.67812)"
         id="text156"><tspan
           style="fill:#000000;fill-opacity:1;fill-rule:nonzero;stroke:none;font-family:DejaVu Sans;font-variant:normal;font-weight:normal;font-size:10;writing-mode:lr;-inkscape-font-specification:DejaVuSans"
           x="0 6.36 12.72 19.08"
           y="0"
           sodipodi:role="line"
           id="tspan158">2100</tspan></text>
</g><g
       id="g160"><g
         id="g162"
         clip-path="url(#clipPath164)" /></g><g
       id="g168"><g
         id="g170"
         clip-path="url(#clipPath172)"><path
           d="m 39.824875,251.41537 13.734,0 -13.734,0 z"
           style="fill:#1b9e77;fill-opacity:1;fill-rule:nonzero;stroke:none"
           id="path176" /></g></g><g
       id="g178"><g
         id="g180"
         clip-path="url(#clipPath182)"><path
           d="m 39.824875,251.41537 13.734,0 0,1.52228 -13.734,-1.52228 z"
           style="fill:#1b9e77;fill-opacity:1;fill-rule:nonzero;stroke:none"
           id="path186" /></g></g><g
       id="g188"><g
         id="g190"
         clip-path="url(#clipPath192)"><path
           d="m 39.824875,251.41537 13.734,0 0,1.52228 -13.734,0 0,-1.52228 z"
           style="fill:#1b9e77;fill-opacity:1;fill-rule:nonzero;stroke:none"
           id="path196" /></g></g><g
       id="g198"><g
         id="g200"
         clip-path="url(#clipPath202)"><path
           d="m 39.824875,251.41537 13.734,0 0,1.52228 -13.734,0 0,-1.52228 z"
           style="fill:#1b9e77;fill-opacity:1;fill-rule:nonzero;stroke:none"
           id="path206" /></g></g><g
       id="g208"><g
         id="g210"
         clip-path="url(#clipPath212)" /></g><g
       id="g216"><g
         id="g218"
         clip-path="url(#clipPath220)"><path
           d="m 62.714875,175.39622 13.734,0 -13.734,0 z"
           style="fill:#d95f02;fill-opacity:1;fill-rule:nonzero;stroke:none"
           id="path224" /></g></g><g
       id="g226"><g
         id="g228"
         clip-path="url(#clipPath230)"><path
           d="m 62.714875,175.39622 13.734,0 0,38.34257 -13.734,-38.34257 z"
           style="fill:#d95f02;fill-opacity:1;fill-rule:nonzero;stroke:none"
           id="path234" /></g></g><g
       id="g236"><g
         id="g238"
         clip-path="url(#clipPath240)"><path
           d="m 62.714875,175.39622 13.734,0 0,38.34257 -13.734,0 0,-38.34257 z"
           style="fill:#d95f02;fill-opacity:1;fill-rule:nonzero;stroke:none"
           id="path244" /></g></g><g
       id="g246"><g
         id="g248"
         clip-path="url(#clipPath250)"><path
           d="m 62.714875,175.39622 13.734,0 0,38.34257 -13.734,0 0,-38.34257 z"
           style="fill:#d95f02;fill-opacity:1;fill-rule:nonzero;stroke:none"
           id="path254" /></g></g><g
       id="g256"><g
         id="g258"
         clip-path="url(#clipPath260)" /></g><g
       id="g264"><g
         id="g266"
         clip-path="url(#clipPath268)"><path
           d="m 85.604875,197.75479 13.734,0 -13.734,0 z"
           style="fill:#7570b3;fill-opacity:1;fill-rule:nonzero;stroke:none"
           id="path272" /></g></g><g
       id="g274"><g
         id="g276"
         clip-path="url(#clipPath278)"><path
           d="m 85.604875,197.75479 13.734,0 0,28.06715 -13.734,-28.06715 z"
           style="fill:#7570b3;fill-opacity:1;fill-rule:nonzero;stroke:none"
           id="path282" /></g></g><g
       id="g284"><g
         id="g286"
         clip-path="url(#clipPath288)"><path
           d="m 85.604875,197.75479 13.734,0 0,28.06715 -13.734,0 0,-28.06715 z"
           style="fill:#7570b3;fill-opacity:1;fill-rule:nonzero;stroke:none"
           id="path292" /></g></g><g
       id="g294"><g
         id="g296"
         clip-path="url(#clipPath298)"><path
           d="m 85.604875,197.75479 13.734,0 0,28.06715 -13.734,0 0,-28.06715 z"
           style="fill:#7570b3;fill-opacity:1;fill-rule:nonzero;stroke:none"
           id="path302" /></g></g><g
       id="g304"><g
         id="g306"
         clip-path="url(#clipPath308)" /></g><g
       id="g312"><g
         id="g314"
         clip-path="url(#clipPath316)"><path
           d="m 108.49488,191.28508 13.73399,0 -13.73399,0 z"
           style="fill:#e7298a;fill-opacity:1;fill-rule:nonzero;stroke:none"
           id="path320" /></g></g><g
       id="g322"><g
         id="g324"
         clip-path="url(#clipPath326)"><path
           d="m 108.49488,191.28508 13.73399,0 0,26.83029 -13.73399,-26.83029 z"
           style="fill:#e7298a;fill-opacity:1;fill-rule:nonzero;stroke:none"
           id="path330" /></g></g><g
       id="g332"><g
         id="g334"
         clip-path="url(#clipPath336)"><path
           d="m 108.49488,191.28508 13.73399,0 0,26.83029 -13.73399,0 0,-26.83029 z"
           style="fill:#e7298a;fill-opacity:1;fill-rule:nonzero;stroke:none"
           id="path340" /></g></g><g
       id="g342"><g
         id="g344"
         clip-path="url(#clipPath346)"><path
           d="m 108.49488,191.28508 13.73399,0 0,26.83029 -13.73399,0 0,-26.83029 z"
           style="fill:#e7298a;fill-opacity:1;fill-rule:nonzero;stroke:none"
           id="path350" /></g></g><g
       id="g352"><g
         id="g354"
         clip-path="url(#clipPath356)" /></g><g
       id="g360"><g
         id="g362"
         clip-path="url(#clipPath364)"><path
           d="m 131.38487,37.914795 13.734,0 -13.734,0 z"
           style="fill:#66a61e;fill-opacity:1;fill-rule:nonzero;stroke:none"
           id="path368" /></g></g><g
       id="g370"><g
         id="g372"
         clip-path="url(#clipPath374)"><path
           d="m 131.38487,37.914795 13.734,0 0,88.292575 -13.734,-88.292575 z"
           style="fill:#66a61e;fill-opacity:1;fill-rule:nonzero;stroke:none"
           id="path378" /></g></g><g
       id="g380"><g
         id="g382"
         clip-path="url(#clipPath384)"><path
           d="m 131.38487,37.914795 13.734,0 0,88.292575 -13.734,0 0,-88.292575 z"
           style="fill:#66a61e;fill-opacity:1;fill-rule:nonzero;stroke:none"
           id="path388" /></g></g><g
       id="g390"><g
         id="g392"
         clip-path="url(#clipPath394)"><path
           d="m 131.38487,37.914795 13.734,0 0,88.292575 -13.734,0 0,-88.292575 z"
           style="fill:#66a61e;fill-opacity:1;fill-rule:nonzero;stroke:none"
           id="path398" /></g></g><g
       id="g400"><g
         id="g402"
         clip-path="url(#clipPath404)" /></g><g
       id="g408"><g
         id="g410"
         clip-path="url(#clipPath412)"><path
           d="m 154.27487,191.38022 13.734,0 -13.734,0 z"
           style="fill:#e6ab02;fill-opacity:1;fill-rule:nonzero;stroke:none"
           id="path416" /></g></g><g
       id="g418"><g
         id="g420"
         clip-path="url(#clipPath422)"><path
           d="m 154.27487,191.38022 13.734,0 0,29.39915 -13.734,-29.39915 z"
           style="fill:#e6ab02;fill-opacity:1;fill-rule:nonzero;stroke:none"
           id="path426" /></g></g><g
       id="g428"><g
         id="g430"
         clip-path="url(#clipPath432)"><path
           d="m 154.27487,191.38022 13.734,0 0,29.39915 -13.734,0 0,-29.39915 z"
           style="fill:#e6ab02;fill-opacity:1;fill-rule:nonzero;stroke:none"
           id="path436" /></g></g><g
       id="g438"><g
         id="g440"
         clip-path="url(#clipPath442)"><path
           d="m 154.27487,191.38022 13.734,0 0,29.39915 -13.734,0 0,-29.39915 z"
           style="fill:#e6ab02;fill-opacity:1;fill-rule:nonzero;stroke:none"
           id="path446" /></g></g><g
       id="g448"><g
         id="g450"
         clip-path="url(#clipPath452)"><path
           d="m 46.691875,251.41537 0,0"
           style="fill:none;stroke:#1b9e77;stroke-opacity:1;stroke-width:2;stroke-linecap:butt;stroke-linejoin:round;stroke-miterlimit:10;stroke-dasharray:6,6;stroke-dashoffset:0"
           id="path456" /></g></g><g
       id="g458"><g
         id="g460"
         clip-path="url(#clipPath462)"><path
           d="m 46.691875,252.93765 0,0"
           style="fill:none;stroke:#1b9e77;stroke-opacity:1;stroke-width:2;stroke-linecap:butt;stroke-linejoin:round;stroke-miterlimit:10;stroke-dasharray:6,6;stroke-dashoffset:0"
           id="path466" /></g></g><g
       id="g468"><g
         id="g470"
         clip-path="url(#clipPath472)" /></g><g
       id="g476"><g
         id="g478"
         clip-path="url(#clipPath480)" /></g><g
       id="g484"><g
         id="g486"
         clip-path="url(#clipPath488)" /></g><g
       id="g492"><g
         id="g494"
         clip-path="url(#clipPath496)"><path
           d="m 39.824875,252.17651 13.734,0"
           style="fill:none;stroke:#000000;stroke-opacity:1;stroke-width:3;stroke-linecap:square;stroke-linejoin:round;stroke-miterlimit:10;stroke-dasharray:none"
           id="path500" /></g></g><g
       id="g502"><g
         id="g504"
         clip-path="url(#clipPath506)"><path
           d="m 69.581875,175.39622 0,0"
           style="fill:none;stroke:#d95f02;stroke-opacity:1;stroke-width:2;stroke-linecap:butt;stroke-linejoin:round;stroke-miterlimit:10;stroke-dasharray:6,6;stroke-dashoffset:0"
           id="path510" /></g></g><g
       id="g512"><g
         id="g514"
         clip-path="url(#clipPath516)"><path
           d="m 69.581875,213.73879 0,0"
           style="fill:none;stroke:#d95f02;stroke-opacity:1;stroke-width:2;stroke-linecap:butt;stroke-linejoin:round;stroke-miterlimit:10;stroke-dasharray:6,6;stroke-dashoffset:0"
           id="path520" /></g></g><g
       id="g522"><g
         id="g524"
         clip-path="url(#clipPath526)" /></g><g
       id="g530"><g
         id="g532"
         clip-path="url(#clipPath534)" /></g><g
       id="g538"><g
         id="g540"
         clip-path="url(#clipPath542)" /></g><g
       id="g546"><g
         id="g548"
         clip-path="url(#clipPath550)"><path
           d="m 62.714875,196.42279 13.734,0"
           style="fill:none;stroke:#000000;stroke-opacity:1;stroke-width:3;stroke-linecap:square;stroke-linejoin:round;stroke-miterlimit:10;stroke-dasharray:none"
           id="path554" /></g></g><g
       id="g556"><g
         id="g558"
         clip-path="url(#clipPath560)"><path
           d="m 92.471875,197.75479 0,0"
           style="fill:none;stroke:#7570b3;stroke-opacity:1;stroke-width:2;stroke-linecap:butt;stroke-linejoin:round;stroke-miterlimit:10;stroke-dasharray:6,6;stroke-dashoffset:0"
           id="path564" /></g></g><g
       id="g566"><g
         id="g568"
         clip-path="url(#clipPath570)"><path
           d="m 92.471875,225.82194 0,0"
           style="fill:none;stroke:#7570b3;stroke-opacity:1;stroke-width:2;stroke-linecap:butt;stroke-linejoin:round;stroke-miterlimit:10;stroke-dasharray:6,6;stroke-dashoffset:0"
           id="path574" /></g></g><g
       id="g576"><g
         id="g578"
         clip-path="url(#clipPath580)" /></g><g
       id="g584"><g
         id="g586"
         clip-path="url(#clipPath588)" /></g><g
       id="g592"><g
         id="g594"
         clip-path="url(#clipPath596)" /></g><g
       id="g600"><g
         id="g602"
         clip-path="url(#clipPath604)"><path
           d="m 85.604875,214.30965 13.734,0"
           style="fill:none;stroke:#000000;stroke-opacity:1;stroke-width:3;stroke-linecap:square;stroke-linejoin:round;stroke-miterlimit:10;stroke-dasharray:none"
           id="path608" /></g></g><g
       id="g610"><g
         id="g612"
         clip-path="url(#clipPath614)"><path
           d="m 115.36187,191.28508 0,0"
           style="fill:none;stroke:#e7298a;stroke-opacity:1;stroke-width:2;stroke-linecap:butt;stroke-linejoin:round;stroke-miterlimit:10;stroke-dasharray:6,6;stroke-dashoffset:0"
           id="path618" /></g></g><g
       id="g620"><g
         id="g622"
         clip-path="url(#clipPath624)"><path
           d="m 115.36187,218.11537 0,0"
           style="fill:none;stroke:#e7298a;stroke-opacity:1;stroke-width:2;stroke-linecap:butt;stroke-linejoin:round;stroke-miterlimit:10;stroke-dasharray:6,6;stroke-dashoffset:0"
           id="path628" /></g></g><g
       id="g630"><g
         id="g632"
         clip-path="url(#clipPath634)" /></g><g
       id="g638"><g
         id="g640"
         clip-path="url(#clipPath642)" /></g><g
       id="g646"><g
         id="g648"
         clip-path="url(#clipPath650)" /></g><g
       id="g654"><g
         id="g656"
         clip-path="url(#clipPath658)"><path
           d="m 108.49488,205.74679 13.73399,0"
           style="fill:none;stroke:#000000;stroke-opacity:1;stroke-width:3;stroke-linecap:square;stroke-linejoin:round;stroke-miterlimit:10;stroke-dasharray:none"
           id="path662" /></g></g><g
       id="g664"><g
         id="g666"
         clip-path="url(#clipPath668)"><path
           d="m 138.25187,37.914795 0,0"
           style="fill:none;stroke:#66a61e;stroke-opacity:1;stroke-width:2;stroke-linecap:butt;stroke-linejoin:round;stroke-miterlimit:10;stroke-dasharray:6,6;stroke-dashoffset:0"
           id="path672" /></g></g><g
       id="g674"><g
         id="g676"
         clip-path="url(#clipPath678)"><path
           d="m 138.25187,126.20737 0,0"
           style="fill:none;stroke:#66a61e;stroke-opacity:1;stroke-width:2;stroke-linecap:butt;stroke-linejoin:round;stroke-miterlimit:10;stroke-dasharray:6,6;stroke-dashoffset:0"
           id="path682" /></g></g><g
       id="g684"><g
         id="g686"
         clip-path="url(#clipPath688)" /></g><g
       id="g692"><g
         id="g694"
         clip-path="url(#clipPath696)" /></g><g
       id="g700"><g
         id="g702"
         clip-path="url(#clipPath704)" /></g><g
       id="g708"><g
         id="g710"
         clip-path="url(#clipPath712)"><path
           d="m 131.38487,72.927366 13.734,0"
           style="fill:none;stroke:#000000;stroke-opacity:1;stroke-width:3;stroke-linecap:square;stroke-linejoin:round;stroke-miterlimit:10;stroke-dasharray:none"
           id="path716" /></g></g><g
       id="g718"><g
         id="g720"
         clip-path="url(#clipPath722)"><path
           d="m 161.14187,191.38022 0,0"
           style="fill:none;stroke:#e6ab02;stroke-opacity:1;stroke-width:2;stroke-linecap:butt;stroke-linejoin:round;stroke-miterlimit:10;stroke-dasharray:6,6;stroke-dashoffset:0"
           id="path726" /></g></g><g
       id="g728"><g
         id="g730"
         clip-path="url(#clipPath732)"><path
           d="m 161.14187,220.77937 0,0"
           style="fill:none;stroke:#e6ab02;stroke-opacity:1;stroke-width:2;stroke-linecap:butt;stroke-linejoin:round;stroke-miterlimit:10;stroke-dasharray:6,6;stroke-dashoffset:0"
           id="path736" /></g></g><g
       id="g738"><g
         id="g740"
         clip-path="url(#clipPath742)" /></g><g
       id="g746"><g
         id="g748"
         clip-path="url(#clipPath750)" /></g><g
       id="g754"><g
         id="g756"
         clip-path="url(#clipPath758)" /></g><g
       id="g762"><g
         id="g764"
         clip-path="url(#clipPath766)"><path
           d="m 154.27487,207.64965 13.734,0"
           style="fill:none;stroke:#000000;stroke-opacity:1;stroke-width:3;stroke-linecap:square;stroke-linejoin:round;stroke-miterlimit:10;stroke-dasharray:none"
           id="path770" /></g></g><g
       id="g772"><path
         d="m 35.246875,12.035938 137.339995,0"
         style="fill:none;stroke:#000000;stroke-opacity:1;stroke-width:1;stroke-linecap:butt;stroke-linejoin:round;stroke-miterlimit:10;stroke-dasharray:none"
         id="path774" /><path
         d="m 138.25187,220.11377 0,2.5796 -22.89,0 0,-2.5796"
         style="fill:none;stroke:#aaaaaa;stroke-opacity:1;stroke-width:1;stroke-linecap:round;stroke-linejoin:round;stroke-miterlimit:10;stroke-dasharray:none"
         id="path776" /></g><text
       xml:space="preserve"
       style="font-size:9.60000038px;font-style:normal;font-variant:normal;font-weight:normal;font-stretch:normal;text-align:start;line-height:125%;letter-spacing:0px;word-spacing:0px;writing-mode:lr-tb;text-anchor:start;fill:#000000;fill-opacity:1;stroke:none;font-family:Sans;-inkscape-font-specification:Sans"
       x="117.41803"
       y="-221.7632"
       id="text3753"
       sodipodi:linespacing="125%"
       transform="scale(1,-1)"><tspan
         sodipodi:role="line"
         id="tspan3755"
         x="117.41803"
         y="-221.7632">****</tspan></text>
</g></svg>