<?xml version="1.0" encoding="UTF-8" standalone="no"?>
<!-- Created with Inkscape (http://www.inkscape.org/) -->

<svg
   xmlns:dc="http://purl.org/dc/elements/1.1/"
   xmlns:cc="http://creativecommons.org/ns#"
   xmlns:rdf="http://www.w3.org/1999/02/22-rdf-syntax-ns#"
   xmlns:svg="http://www.w3.org/2000/svg"
   xmlns="http://www.w3.org/2000/svg"
   xmlns:sodipodi="http://sodipodi.sourceforge.net/DTD/sodipodi-0.dtd"
   xmlns:inkscape="http://www.inkscape.org/namespaces/inkscape"
   id="svg3020"
   version="1.1"
   inkscape:version="0.48.4 r9939"
   width="224.28438"
   height="363.08984"
   xml:space="preserve"
   sodipodi:docname="xp1-explo-stick_2.pdf"><metadata
     id="metadata3026"><rdf:RDF><cc:Work
         rdf:about=""><dc:format>image/svg+xml</dc:format><dc:type
           rdf:resource="http://purl.org/dc/dcmitype/StillImage" /><dc:title></dc:title></cc:Work></rdf:RDF></metadata><defs
     id="defs3024"><clipPath
       clipPathUnits="userSpaceOnUse"
       id="clipPath3038"><path
         d="m 34.8875,12.035938 137.34,0 0,266.400002 -137.34,0 0,-266.400002 z"
         id="path3040" /></clipPath><clipPath
       clipPathUnits="userSpaceOnUse"
       id="clipPath3056"><path
         d="m 34.8875,12.035938 137.34,0 0,266.400002 -137.34,0 0,-266.400002 z"
         id="path3058" /></clipPath><clipPath
       clipPathUnits="userSpaceOnUse"
       id="clipPath3074"><path
         d="m 34.8875,12.035938 137.34,0 0,266.400002 -137.34,0 0,-266.400002 z"
         id="path3076" /></clipPath><clipPath
       clipPathUnits="userSpaceOnUse"
       id="clipPath3092"><path
         d="m 34.8875,12.035938 137.34,0 0,266.400002 -137.34,0 0,-266.400002 z"
         id="path3094" /></clipPath><clipPath
       clipPathUnits="userSpaceOnUse"
       id="clipPath3110"><path
         d="m 34.8875,12.035938 137.34,0 0,266.400002 -137.34,0 0,-266.400002 z"
         id="path3112" /></clipPath><clipPath
       clipPathUnits="userSpaceOnUse"
       id="clipPath3128"><path
         d="m 34.8875,12.035938 137.34,0 0,266.400002 -137.34,0 0,-266.400002 z"
         id="path3130" /></clipPath><clipPath
       clipPathUnits="userSpaceOnUse"
       id="clipPath3146"><path
         d="m 34.8875,12.035938 137.34,0 0,266.400002 -137.34,0 0,-266.400002 z"
         id="path3148" /></clipPath><clipPath
       clipPathUnits="userSpaceOnUse"
       id="clipPath3164"><path
         d="m 34.8875,12.035938 137.34,0 0,266.400002 -137.34,0 0,-266.400002 z"
         id="path3166" /></clipPath><clipPath
       clipPathUnits="userSpaceOnUse"
       id="clipPath3182"><path
         d="m 34.8875,12.035938 137.34,0 0,266.400002 -137.34,0 0,-266.400002 z"
         id="path3184" /></clipPath><clipPath
       clipPathUnits="userSpaceOnUse"
       id="clipPath3200"><path
         d="m 34.8875,12.035938 137.34,0 0,266.400002 -137.34,0 0,-266.400002 z"
         id="path3202" /></clipPath><clipPath
       clipPathUnits="userSpaceOnUse"
       id="clipPath3208"><path
         d="m 34.8875,12.035938 137.34,0 0,266.400002 -137.34,0 0,-266.400002 z"
         id="path3210" /></clipPath><clipPath
       clipPathUnits="userSpaceOnUse"
       id="clipPath3218"><path
         d="m 34.8875,12.035938 137.34,0 0,266.400002 -137.34,0 0,-266.400002 z"
         id="path3220" /></clipPath><clipPath
       clipPathUnits="userSpaceOnUse"
       id="clipPath3228"><path
         d="m 34.8875,12.035938 137.34,0 0,266.400002 -137.34,0 0,-266.400002 z"
         id="path3230" /></clipPath><clipPath
       clipPathUnits="userSpaceOnUse"
       id="clipPath3238"><path
         d="m 34.8875,12.035938 137.34,0 0,266.400002 -137.34,0 0,-266.400002 z"
         id="path3240" /></clipPath><clipPath
       clipPathUnits="userSpaceOnUse"
       id="clipPath3248"><path
         d="m 34.8875,12.035938 137.34,0 0,266.400002 -137.34,0 0,-266.400002 z"
         id="path3250" /></clipPath><clipPath
       clipPathUnits="userSpaceOnUse"
       id="clipPath3256"><path
         d="m 34.8875,12.035938 137.34,0 0,266.400002 -137.34,0 0,-266.400002 z"
         id="path3258" /></clipPath><clipPath
       clipPathUnits="userSpaceOnUse"
       id="clipPath3266"><path
         d="m 34.8875,12.035938 137.34,0 0,266.400002 -137.34,0 0,-266.400002 z"
         id="path3268" /></clipPath><clipPath
       clipPathUnits="userSpaceOnUse"
       id="clipPath3276"><path
         d="m 34.8875,12.035938 137.34,0 0,266.400002 -137.34,0 0,-266.400002 z"
         id="path3278" /></clipPath><clipPath
       clipPathUnits="userSpaceOnUse"
       id="clipPath3286"><path
         d="m 34.8875,12.035938 137.34,0 0,266.400002 -137.34,0 0,-266.400002 z"
         id="path3288" /></clipPath><clipPath
       clipPathUnits="userSpaceOnUse"
       id="clipPath3296"><path
         d="m 34.8875,12.035938 137.34,0 0,266.400002 -137.34,0 0,-266.400002 z"
         id="path3298" /></clipPath><clipPath
       clipPathUnits="userSpaceOnUse"
       id="clipPath3304"><path
         d="m 34.8875,12.035938 137.34,0 0,266.400002 -137.34,0 0,-266.400002 z"
         id="path3306" /></clipPath><clipPath
       clipPathUnits="userSpaceOnUse"
       id="clipPath3314"><path
         d="m 34.8875,12.035938 137.34,0 0,266.400002 -137.34,0 0,-266.400002 z"
         id="path3316" /></clipPath><clipPath
       clipPathUnits="userSpaceOnUse"
       id="clipPath3324"><path
         d="m 34.8875,12.035938 137.34,0 0,266.400002 -137.34,0 0,-266.400002 z"
         id="path3326" /></clipPath><clipPath
       clipPathUnits="userSpaceOnUse"
       id="clipPath3334"><path
         d="m 34.8875,12.035938 137.34,0 0,266.400002 -137.34,0 0,-266.400002 z"
         id="path3336" /></clipPath><clipPath
       clipPathUnits="userSpaceOnUse"
       id="clipPath3344"><path
         d="m 34.8875,12.035938 137.34,0 0,266.400002 -137.34,0 0,-266.400002 z"
         id="path3346" /></clipPath><clipPath
       clipPathUnits="userSpaceOnUse"
       id="clipPath3352"><path
         d="m 34.8875,12.035938 137.34,0 0,266.400002 -137.34,0 0,-266.400002 z"
         id="path3354" /></clipPath><clipPath
       clipPathUnits="userSpaceOnUse"
       id="clipPath3362"><path
         d="m 34.8875,12.035938 137.34,0 0,266.400002 -137.34,0 0,-266.400002 z"
         id="path3364" /></clipPath><clipPath
       clipPathUnits="userSpaceOnUse"
       id="clipPath3372"><path
         d="m 34.8875,12.035938 137.34,0 0,266.400002 -137.34,0 0,-266.400002 z"
         id="path3374" /></clipPath><clipPath
       clipPathUnits="userSpaceOnUse"
       id="clipPath3382"><path
         d="m 34.8875,12.035938 137.34,0 0,266.400002 -137.34,0 0,-266.400002 z"
         id="path3384" /></clipPath><clipPath
       clipPathUnits="userSpaceOnUse"
       id="clipPath3392"><path
         d="m 34.8875,12.035938 137.34,0 0,266.400002 -137.34,0 0,-266.400002 z"
         id="path3394" /></clipPath><clipPath
       clipPathUnits="userSpaceOnUse"
       id="clipPath3400"><path
         d="m 34.8875,12.035938 137.34,0 0,266.400002 -137.34,0 0,-266.400002 z"
         id="path3402" /></clipPath><clipPath
       clipPathUnits="userSpaceOnUse"
       id="clipPath3410"><path
         d="m 34.8875,12.035938 137.34,0 0,266.400002 -137.34,0 0,-266.400002 z"
         id="path3412" /></clipPath><clipPath
       clipPathUnits="userSpaceOnUse"
       id="clipPath3420"><path
         d="m 34.8875,12.035938 137.34,0 0,266.400002 -137.34,0 0,-266.400002 z"
         id="path3422" /></clipPath><clipPath
       clipPathUnits="userSpaceOnUse"
       id="clipPath3430"><path
         d="m 34.8875,12.035938 137.34,0 0,266.400002 -137.34,0 0,-266.400002 z"
         id="path3432" /></clipPath><clipPath
       clipPathUnits="userSpaceOnUse"
       id="clipPath3440"><path
         d="m 34.8875,12.035938 137.34,0 0,266.400002 -137.34,0 0,-266.400002 z"
         id="path3442" /></clipPath><clipPath
       clipPathUnits="userSpaceOnUse"
       id="clipPath3448"><path
         d="m 34.8875,12.035938 137.34,0 0,266.400002 -137.34,0 0,-266.400002 z"
         id="path3450" /></clipPath><clipPath
       clipPathUnits="userSpaceOnUse"
       id="clipPath3458"><path
         d="m 34.8875,12.035938 137.34,0 0,266.400002 -137.34,0 0,-266.400002 z"
         id="path3460" /></clipPath><clipPath
       clipPathUnits="userSpaceOnUse"
       id="clipPath3468"><path
         d="m 34.8875,12.035938 137.34,0 0,266.400002 -137.34,0 0,-266.400002 z"
         id="path3470" /></clipPath><clipPath
       clipPathUnits="userSpaceOnUse"
       id="clipPath3478"><path
         d="m 34.8875,12.035938 137.34,0 0,266.400002 -137.34,0 0,-266.400002 z"
         id="path3480" /></clipPath><clipPath
       clipPathUnits="userSpaceOnUse"
       id="clipPath3488"><path
         d="m 34.8875,12.035938 137.34,0 0,266.400002 -137.34,0 0,-266.400002 z"
         id="path3490" /></clipPath><clipPath
       clipPathUnits="userSpaceOnUse"
       id="clipPath3498"><path
         d="m 34.8875,12.035938 137.34,0 0,266.400002 -137.34,0 0,-266.400002 z"
         id="path3500" /></clipPath><clipPath
       clipPathUnits="userSpaceOnUse"
       id="clipPath3508"><path
         d="m 34.8875,12.035938 137.34,0 0,266.400002 -137.34,0 0,-266.400002 z"
         id="path3510" /></clipPath><clipPath
       clipPathUnits="userSpaceOnUse"
       id="clipPath3516"><path
         d="m 34.8875,12.035938 137.34,0 0,266.400002 -137.34,0 0,-266.400002 z"
         id="path3518" /></clipPath><clipPath
       clipPathUnits="userSpaceOnUse"
       id="clipPath3524"><path
         d="m 34.8875,12.035938 137.34,0 0,266.400002 -137.34,0 0,-266.400002 z"
         id="path3526" /></clipPath><clipPath
       clipPathUnits="userSpaceOnUse"
       id="clipPath3532"><path
         d="m 34.8875,12.035938 137.34,0 0,266.400002 -137.34,0 0,-266.400002 z"
         id="path3534" /></clipPath><clipPath
       clipPathUnits="userSpaceOnUse"
       id="clipPath3542"><path
         d="m 34.8875,12.035938 137.34,0 0,266.400002 -137.34,0 0,-266.400002 z"
         id="path3544" /></clipPath><clipPath
       clipPathUnits="userSpaceOnUse"
       id="clipPath3552"><path
         d="m 34.8875,12.035938 137.34,0 0,266.400002 -137.34,0 0,-266.400002 z"
         id="path3554" /></clipPath><clipPath
       clipPathUnits="userSpaceOnUse"
       id="clipPath3562"><path
         d="m 34.8875,12.035938 137.34,0 0,266.400002 -137.34,0 0,-266.400002 z"
         id="path3564" /></clipPath><clipPath
       clipPathUnits="userSpaceOnUse"
       id="clipPath3570"><path
         d="m 34.8875,12.035938 137.34,0 0,266.400002 -137.34,0 0,-266.400002 z"
         id="path3572" /></clipPath><clipPath
       clipPathUnits="userSpaceOnUse"
       id="clipPath3578"><path
         d="m 34.8875,12.035938 137.34,0 0,266.400002 -137.34,0 0,-266.400002 z"
         id="path3580" /></clipPath><clipPath
       clipPathUnits="userSpaceOnUse"
       id="clipPath3586"><path
         d="m 34.8875,12.035938 137.34,0 0,266.400002 -137.34,0 0,-266.400002 z"
         id="path3588" /></clipPath><clipPath
       clipPathUnits="userSpaceOnUse"
       id="clipPath3596"><path
         d="m 34.8875,12.035938 137.34,0 0,266.400002 -137.34,0 0,-266.400002 z"
         id="path3598" /></clipPath><clipPath
       clipPathUnits="userSpaceOnUse"
       id="clipPath3606"><path
         d="m 34.8875,12.035938 137.34,0 0,266.400002 -137.34,0 0,-266.400002 z"
         id="path3608" /></clipPath><clipPath
       clipPathUnits="userSpaceOnUse"
       id="clipPath3616"><path
         d="m 34.8875,12.035938 137.34,0 0,266.400002 -137.34,0 0,-266.400002 z"
         id="path3618" /></clipPath><clipPath
       clipPathUnits="userSpaceOnUse"
       id="clipPath3624"><path
         d="m 34.8875,12.035938 137.34,0 0,266.400002 -137.34,0 0,-266.400002 z"
         id="path3626" /></clipPath><clipPath
       clipPathUnits="userSpaceOnUse"
       id="clipPath3632"><path
         d="m 34.8875,12.035938 137.34,0 0,266.400002 -137.34,0 0,-266.400002 z"
         id="path3634" /></clipPath><clipPath
       clipPathUnits="userSpaceOnUse"
       id="clipPath3640"><path
         d="m 34.8875,12.035938 137.34,0 0,266.400002 -137.34,0 0,-266.400002 z"
         id="path3642" /></clipPath><clipPath
       clipPathUnits="userSpaceOnUse"
       id="clipPath3650"><path
         d="m 34.8875,12.035938 137.34,0 0,266.400002 -137.34,0 0,-266.400002 z"
         id="path3652" /></clipPath><clipPath
       clipPathUnits="userSpaceOnUse"
       id="clipPath3660"><path
         d="m 34.8875,12.035938 137.34,0 0,266.400002 -137.34,0 0,-266.400002 z"
         id="path3662" /></clipPath><clipPath
       clipPathUnits="userSpaceOnUse"
       id="clipPath3670"><path
         d="m 34.8875,12.035938 137.34,0 0,266.400002 -137.34,0 0,-266.400002 z"
         id="path3672" /></clipPath><clipPath
       clipPathUnits="userSpaceOnUse"
       id="clipPath3678"><path
         d="m 34.8875,12.035938 137.34,0 0,266.400002 -137.34,0 0,-266.400002 z"
         id="path3680" /></clipPath><clipPath
       clipPathUnits="userSpaceOnUse"
       id="clipPath3686"><path
         d="m 34.8875,12.035938 137.34,0 0,266.400002 -137.34,0 0,-266.400002 z"
         id="path3688" /></clipPath><clipPath
       clipPathUnits="userSpaceOnUse"
       id="clipPath3694"><path
         d="m 34.8875,12.035938 137.34,0 0,266.400002 -137.34,0 0,-266.400002 z"
         id="path3696" /></clipPath><clipPath
       clipPathUnits="userSpaceOnUse"
       id="clipPath3704"><path
         d="m 34.8875,12.035938 137.34,0 0,266.400002 -137.34,0 0,-266.400002 z"
         id="path3706" /></clipPath><clipPath
       clipPathUnits="userSpaceOnUse"
       id="clipPath3714"><path
         d="m 34.8875,12.035938 137.34,0 0,266.400002 -137.34,0 0,-266.400002 z"
         id="path3716" /></clipPath><clipPath
       clipPathUnits="userSpaceOnUse"
       id="clipPath3724"><path
         d="m 34.8875,12.035938 137.34,0 0,266.400002 -137.34,0 0,-266.400002 z"
         id="path3726" /></clipPath><clipPath
       clipPathUnits="userSpaceOnUse"
       id="clipPath3732"><path
         d="m 34.8875,12.035938 137.34,0 0,266.400002 -137.34,0 0,-266.400002 z"
         id="path3734" /></clipPath><clipPath
       clipPathUnits="userSpaceOnUse"
       id="clipPath3740"><path
         d="m 34.8875,12.035938 137.34,0 0,266.400002 -137.34,0 0,-266.400002 z"
         id="path3742" /></clipPath><clipPath
       clipPathUnits="userSpaceOnUse"
       id="clipPath3748"><path
         d="m 34.8875,12.035938 137.34,0 0,266.400002 -137.34,0 0,-266.400002 z"
         id="path3750" /></clipPath><clipPath
       clipPathUnits="userSpaceOnUse"
       id="clipPath3758"><path
         d="m 34.8875,12.035938 137.34,0 0,266.400002 -137.34,0 0,-266.400002 z"
         id="path3760" /></clipPath><clipPath
       clipPathUnits="userSpaceOnUse"
       id="clipPath3768"><path
         d="m 34.8875,12.035938 137.34,0 0,266.400002 -137.34,0 0,-266.400002 z"
         id="path3770" /></clipPath><clipPath
       clipPathUnits="userSpaceOnUse"
       id="clipPath3778"><path
         d="m 34.8875,12.035938 137.34,0 0,266.400002 -137.34,0 0,-266.400002 z"
         id="path3780" /></clipPath><clipPath
       clipPathUnits="userSpaceOnUse"
       id="clipPath3786"><path
         d="m 34.8875,12.035938 137.34,0 0,266.400002 -137.34,0 0,-266.400002 z"
         id="path3788" /></clipPath><clipPath
       clipPathUnits="userSpaceOnUse"
       id="clipPath3794"><path
         d="m 34.8875,12.035938 137.34,0 0,266.400002 -137.34,0 0,-266.400002 z"
         id="path3796" /></clipPath><clipPath
       clipPathUnits="userSpaceOnUse"
       id="clipPath3802"><path
         d="m 34.8875,12.035938 137.34,0 0,266.400002 -137.34,0 0,-266.400002 z"
         id="path3804" /></clipPath></defs><sodipodi:namedview
     pagecolor="#ffffff"
     bordercolor="#666666"
     borderopacity="1"
     objecttolerance="10"
     gridtolerance="10"
     guidetolerance="10"
     inkscape:pageopacity="0"
     inkscape:pageshadow="2"
     inkscape:window-width="1920"
     inkscape:window-height="1003"
     id="namedview3022"
     showgrid="false"
     inkscape:zoom="2.294198"
     inkscape:cx="112.14219"
     inkscape:cy="216.4155"
     inkscape:window-x="0"
     inkscape:window-y="24"
     inkscape:window-maximized="1"
     inkscape:current-layer="g3028" /><g
     id="g3028"
     inkscape:groupmode="layer"
     inkscape:label="xp1-explo-stick_2"
     transform="matrix(1.25,0,0,-1.25,0,363.08984)"><path
       d="m 0,0 179.4275,0 0,290.47187 L 0,290.47187 0,0 z"
       style="fill:#ffffff;fill-opacity:1;fill-rule:nonzero;stroke:none"
       id="path3030" /><path
       d="m 34.8875,12.035938 137.34,0 0,266.400002 -137.34,0 0,-266.400002 z"
       style="fill:#ffffff;fill-opacity:1;fill-rule:nonzero;stroke:none"
       id="path3032" /><g
       id="g3034"><g
         id="g3036"
         clip-path="url(#clipPath3038)"><path
           d="m 34.8875,12.035938 137.34,0"
           style="fill:none;stroke:#e6e6e6;stroke-opacity:1;stroke-width:1;stroke-linecap:square;stroke-linejoin:round;stroke-miterlimit:10;stroke-dasharray:none"
           id="path3042" /></g></g><g
       id="g3044"><path
         d="m 34.8875,12.035938 0,0"
         style="fill:#000000;fill-opacity:1;fill-rule:nonzero;stroke:#000000;stroke-opacity:1;stroke-width:0.5;stroke-linecap:butt;stroke-linejoin:round;stroke-miterlimit:10;stroke-dasharray:none"
         id="path3046" /><text
         transform="matrix(1,0,0,-1,25.840625,9.278125)"
         id="text3048"><tspan
           style="fill:#000000;fill-opacity:1;fill-rule:nonzero;stroke:none;font-family:DejaVu Sans;font-variant:normal;font-weight:normal;font-size:10;writing-mode:lr;-inkscape-font-specification:DejaVuSans"
           x="0"
           y="0"
           id="tspan3050">0</tspan></text>
</g><g
       id="g3052"><g
         id="g3054"
         clip-path="url(#clipPath3056)"><path
           d="m 34.8875,45.335937 137.34,0"
           style="fill:none;stroke:#e6e6e6;stroke-opacity:1;stroke-width:1;stroke-linecap:square;stroke-linejoin:round;stroke-miterlimit:10;stroke-dasharray:none"
           id="path3060" /></g></g><g
       id="g3062"><path
         d="m 34.8875,45.335937 0,0"
         style="fill:#000000;fill-opacity:1;fill-rule:nonzero;stroke:#000000;stroke-opacity:1;stroke-width:0.5;stroke-linecap:butt;stroke-linejoin:round;stroke-miterlimit:10;stroke-dasharray:none"
         id="path3064" /><text
         transform="matrix(1,0,0,-1,13.2,42.578125)"
         id="text3066"><tspan
           style="fill:#000000;fill-opacity:1;fill-rule:nonzero;stroke:none;font-family:DejaVu Sans;font-variant:normal;font-weight:normal;font-size:10;writing-mode:lr;-inkscape-font-specification:DejaVuSans"
           x="0 6.36 12.72"
           y="0"
           sodipodi:role="line"
           id="tspan3068">200</tspan></text>
</g><g
       id="g3070"><g
         id="g3072"
         clip-path="url(#clipPath3074)"><path
           d="m 34.8875,78.635937 137.34,0"
           style="fill:none;stroke:#e6e6e6;stroke-opacity:1;stroke-width:1;stroke-linecap:square;stroke-linejoin:round;stroke-miterlimit:10;stroke-dasharray:none"
           id="path3078" /></g></g><g
       id="g3080"><path
         d="m 34.8875,78.635937 0,0"
         style="fill:#000000;fill-opacity:1;fill-rule:nonzero;stroke:#000000;stroke-opacity:1;stroke-width:0.5;stroke-linecap:butt;stroke-linejoin:round;stroke-miterlimit:10;stroke-dasharray:none"
         id="path3082" /><text
         transform="matrix(1,0,0,-1,12.95,75.878125)"
         id="text3084"><tspan
           style="fill:#000000;fill-opacity:1;fill-rule:nonzero;stroke:none;font-family:DejaVu Sans;font-variant:normal;font-weight:normal;font-size:10;writing-mode:lr;-inkscape-font-specification:DejaVuSans"
           x="0 6.36 12.72"
           y="0"
           sodipodi:role="line"
           id="tspan3086">400</tspan></text>
</g><g
       id="g3088"><g
         id="g3090"
         clip-path="url(#clipPath3092)"><path
           d="m 34.8875,111.93594 137.34,0"
           style="fill:none;stroke:#e6e6e6;stroke-opacity:1;stroke-width:1;stroke-linecap:square;stroke-linejoin:round;stroke-miterlimit:10;stroke-dasharray:none"
           id="path3096" /></g></g><g
       id="g3098"><path
         d="m 34.8875,111.93594 0,0"
         style="fill:#000000;fill-opacity:1;fill-rule:nonzero;stroke:#000000;stroke-opacity:1;stroke-width:0.5;stroke-linecap:butt;stroke-linejoin:round;stroke-miterlimit:10;stroke-dasharray:none"
         id="path3100" /><text
         transform="matrix(1,0,0,-1,13.16875,109.17812)"
         id="text3102"><tspan
           style="fill:#000000;fill-opacity:1;fill-rule:nonzero;stroke:none;font-family:DejaVu Sans;font-variant:normal;font-weight:normal;font-size:10;writing-mode:lr;-inkscape-font-specification:DejaVuSans"
           x="0 6.36 12.72"
           y="0"
           sodipodi:role="line"
           id="tspan3104">600</tspan></text>
</g><g
       id="g3106"><g
         id="g3108"
         clip-path="url(#clipPath3110)"><path
           d="m 34.8875,145.23594 137.34,0"
           style="fill:none;stroke:#e6e6e6;stroke-opacity:1;stroke-width:1;stroke-linecap:square;stroke-linejoin:round;stroke-miterlimit:10;stroke-dasharray:none"
           id="path3114" /></g></g><g
       id="g3116"><path
         d="m 34.8875,145.23594 0,0"
         style="fill:#000000;fill-opacity:1;fill-rule:nonzero;stroke:#000000;stroke-opacity:1;stroke-width:0.5;stroke-linecap:butt;stroke-linejoin:round;stroke-miterlimit:10;stroke-dasharray:none"
         id="path3118" /><text
         transform="matrix(1,0,0,-1,13.153125,142.47812)"
         id="text3120"><tspan
           style="fill:#000000;fill-opacity:1;fill-rule:nonzero;stroke:none;font-family:DejaVu Sans;font-variant:normal;font-weight:normal;font-size:10;writing-mode:lr;-inkscape-font-specification:DejaVuSans"
           x="0 6.36 12.72"
           y="0"
           sodipodi:role="line"
           id="tspan3122">800</tspan></text>
</g><g
       id="g3124"><g
         id="g3126"
         clip-path="url(#clipPath3128)"><path
           d="m 34.8875,178.53594 137.34,0"
           style="fill:none;stroke:#e6e6e6;stroke-opacity:1;stroke-width:1;stroke-linecap:square;stroke-linejoin:round;stroke-miterlimit:10;stroke-dasharray:none"
           id="path3132" /></g></g><g
       id="g3134"><path
         d="m 34.8875,178.53594 0,0"
         style="fill:#000000;fill-opacity:1;fill-rule:nonzero;stroke:#000000;stroke-opacity:1;stroke-width:0.5;stroke-linecap:butt;stroke-linejoin:round;stroke-miterlimit:10;stroke-dasharray:none"
         id="path3136" /><text
         transform="matrix(1,0,0,-1,7.2,175.77812)"
         id="text3138"><tspan
           style="fill:#000000;fill-opacity:1;fill-rule:nonzero;stroke:none;font-family:DejaVu Sans;font-variant:normal;font-weight:normal;font-size:10;writing-mode:lr;-inkscape-font-specification:DejaVuSans"
           x="0 6.36 12.72 19.08"
           y="0"
           sodipodi:role="line"
           id="tspan3140">1000</tspan></text>
</g><g
       id="g3142"><g
         id="g3144"
         clip-path="url(#clipPath3146)"><path
           d="m 34.8875,211.83594 137.34,0"
           style="fill:none;stroke:#e6e6e6;stroke-opacity:1;stroke-width:1;stroke-linecap:square;stroke-linejoin:round;stroke-miterlimit:10;stroke-dasharray:none"
           id="path3150" /></g></g><g
       id="g3152"><path
         d="m 34.8875,211.83594 0,0"
         style="fill:#000000;fill-opacity:1;fill-rule:nonzero;stroke:#000000;stroke-opacity:1;stroke-width:0.5;stroke-linecap:butt;stroke-linejoin:round;stroke-miterlimit:10;stroke-dasharray:none"
         id="path3154" /><text
         transform="matrix(1,0,0,-1,7.2,209.07812)"
         id="text3156"><tspan
           style="fill:#000000;fill-opacity:1;fill-rule:nonzero;stroke:none;font-family:DejaVu Sans;font-variant:normal;font-weight:normal;font-size:10;writing-mode:lr;-inkscape-font-specification:DejaVuSans"
           x="0 6.36 12.72 19.08"
           y="0"
           sodipodi:role="line"
           id="tspan3158">1200</tspan></text>
</g><g
       id="g3160"><g
         id="g3162"
         clip-path="url(#clipPath3164)"><path
           d="m 34.8875,245.13594 137.34,0"
           style="fill:none;stroke:#e6e6e6;stroke-opacity:1;stroke-width:1;stroke-linecap:square;stroke-linejoin:round;stroke-miterlimit:10;stroke-dasharray:none"
           id="path3168" /></g></g><g
       id="g3170"><path
         d="m 34.8875,245.13594 0,0"
         style="fill:#000000;fill-opacity:1;fill-rule:nonzero;stroke:#000000;stroke-opacity:1;stroke-width:0.5;stroke-linecap:butt;stroke-linejoin:round;stroke-miterlimit:10;stroke-dasharray:none"
         id="path3172" /><text
         transform="matrix(1,0,0,-1,7.2,242.37812)"
         id="text3174"><tspan
           style="fill:#000000;fill-opacity:1;fill-rule:nonzero;stroke:none;font-family:DejaVu Sans;font-variant:normal;font-weight:normal;font-size:10;writing-mode:lr;-inkscape-font-specification:DejaVuSans"
           x="0 6.36 12.72 19.08"
           y="0"
           sodipodi:role="line"
           id="tspan3176">1400</tspan></text>
</g><g
       id="g3178"><g
         id="g3180"
         clip-path="url(#clipPath3182)"><path
           d="m 34.8875,278.43594 137.34,0"
           style="fill:none;stroke:#e6e6e6;stroke-opacity:1;stroke-width:1;stroke-linecap:square;stroke-linejoin:round;stroke-miterlimit:10;stroke-dasharray:none"
           id="path3186" /></g></g><g
       id="g3188"><path
         d="m 34.8875,278.43594 0,0"
         style="fill:#000000;fill-opacity:1;fill-rule:nonzero;stroke:#000000;stroke-opacity:1;stroke-width:0.5;stroke-linecap:butt;stroke-linejoin:round;stroke-miterlimit:10;stroke-dasharray:none"
         id="path3190" /><text
         transform="matrix(1,0,0,-1,7.2,275.67812)"
         id="text3192"><tspan
           style="fill:#000000;fill-opacity:1;fill-rule:nonzero;stroke:none;font-family:DejaVu Sans;font-variant:normal;font-weight:normal;font-size:10;writing-mode:lr;-inkscape-font-specification:DejaVuSans"
           x="0 6.36 12.72 19.08"
           y="0"
           sodipodi:role="line"
           id="tspan3194">1600</tspan></text>
</g><g
       id="g3196"><g
         id="g3198"
         clip-path="url(#clipPath3200)" /></g><g
       id="g3204"><g
         id="g3206"
         clip-path="url(#clipPath3208)"><path
           d="m 39.4655,62.360562 13.734,0 -13.734,0 z"
           style="fill:#1b9e77;fill-opacity:1;fill-rule:nonzero;stroke:none"
           id="path3212" /></g></g><g
       id="g3214"><g
         id="g3216"
         clip-path="url(#clipPath3218)"><path
           d="m 39.4655,62.360562 13.734,0 0,2.705625 -13.734,-2.705625 z"
           style="fill:#1b9e77;fill-opacity:1;fill-rule:nonzero;stroke:none"
           id="path3222" /></g></g><g
       id="g3224"><g
         id="g3226"
         clip-path="url(#clipPath3228)"><path
           d="m 39.4655,62.360562 13.734,0 0,2.705625 -13.734,0 0,-2.705625 z"
           style="fill:#1b9e77;fill-opacity:1;fill-rule:nonzero;stroke:none"
           id="path3232" /></g></g><g
       id="g3234"><g
         id="g3236"
         clip-path="url(#clipPath3238)"><path
           d="m 39.4655,62.360562 13.734,0 0,2.705625 -13.734,0 0,-2.705625 z"
           style="fill:#1b9e77;fill-opacity:1;fill-rule:nonzero;stroke:none"
           id="path3242" /></g></g><g
       id="g3244"><g
         id="g3246"
         clip-path="url(#clipPath3248)" /></g><g
       id="g3252"><g
         id="g3254"
         clip-path="url(#clipPath3256)"><path
           d="m 62.3555,27.270687 13.734,0 -13.734,0 z"
           style="fill:#d95f02;fill-opacity:1;fill-rule:nonzero;stroke:none"
           id="path3260" /></g></g><g
       id="g3262"><g
         id="g3264"
         clip-path="url(#clipPath3266)"><path
           d="m 62.3555,27.270687 13.734,0 0,17.690626 -13.734,-17.690626 z"
           style="fill:#d95f02;fill-opacity:1;fill-rule:nonzero;stroke:none"
           id="path3270" /></g></g><g
       id="g3272"><g
         id="g3274"
         clip-path="url(#clipPath3276)"><path
           d="m 62.3555,27.270687 13.734,0 0,17.690626 -13.734,0 0,-17.690626 z"
           style="fill:#d95f02;fill-opacity:1;fill-rule:nonzero;stroke:none"
           id="path3280" /></g></g><g
       id="g3282"><g
         id="g3284"
         clip-path="url(#clipPath3286)"><path
           d="m 62.3555,27.270687 13.734,0 0,17.690626 -13.734,0 0,-17.690626 z"
           style="fill:#d95f02;fill-opacity:1;fill-rule:nonzero;stroke:none"
           id="path3290" /></g></g><g
       id="g3292"><g
         id="g3294"
         clip-path="url(#clipPath3296)" /></g><g
       id="g3300"><g
         id="g3302"
         clip-path="url(#clipPath3304)"><path
           d="m 85.2455,30.767187 13.734,0 -13.734,0 z"
           style="fill:#7570b3;fill-opacity:1;fill-rule:nonzero;stroke:none"
           id="path3308" /></g></g><g
       id="g3310"><g
         id="g3312"
         clip-path="url(#clipPath3314)"><path
           d="m 85.2455,30.767187 13.734,0 0,13.028626 -13.734,-13.028626 z"
           style="fill:#7570b3;fill-opacity:1;fill-rule:nonzero;stroke:none"
           id="path3318" /></g></g><g
       id="g3320"><g
         id="g3322"
         clip-path="url(#clipPath3324)"><path
           d="m 85.2455,30.767187 13.734,0 0,13.028626 -13.734,0 0,-13.028626 z"
           style="fill:#7570b3;fill-opacity:1;fill-rule:nonzero;stroke:none"
           id="path3328" /></g></g><g
       id="g3330"><g
         id="g3332"
         clip-path="url(#clipPath3334)"><path
           d="m 85.2455,30.767187 13.734,0 0,13.028626 -13.734,0 0,-13.028626 z"
           style="fill:#7570b3;fill-opacity:1;fill-rule:nonzero;stroke:none"
           id="path3338" /></g></g><g
       id="g3340"><g
         id="g3342"
         clip-path="url(#clipPath3344)" /></g><g
       id="g3348"><g
         id="g3350"
         clip-path="url(#clipPath3352)"><path
           d="m 108.1355,186.81931 13.734,0 -13.734,0 z"
           style="fill:#e7298a;fill-opacity:1;fill-rule:nonzero;stroke:none"
           id="path3356" /></g></g><g
       id="g3358"><g
         id="g3360"
         clip-path="url(#clipPath3362)"><path
           d="m 108.1355,186.81931 13.734,0 0,63.39488 -13.734,-63.39488 z"
           style="fill:#e7298a;fill-opacity:1;fill-rule:nonzero;stroke:none"
           id="path3366" /></g></g><g
       id="g3368"><g
         id="g3370"
         clip-path="url(#clipPath3372)"><path
           d="m 108.1355,186.81931 13.734,0 0,63.39488 -13.734,0 0,-63.39488 z"
           style="fill:#e7298a;fill-opacity:1;fill-rule:nonzero;stroke:none"
           id="path3376" /></g></g><g
       id="g3378"><g
         id="g3380"
         clip-path="url(#clipPath3382)"><path
           d="m 108.1355,186.81931 13.734,0 0,63.39488 -13.734,0 0,-63.39488 z"
           style="fill:#e7298a;fill-opacity:1;fill-rule:nonzero;stroke:none"
           id="path3386" /></g></g><g
       id="g3388"><g
         id="g3390"
         clip-path="url(#clipPath3392)" /></g><g
       id="g3396"><g
         id="g3398"
         clip-path="url(#clipPath3400)"><path
           d="m 131.0255,70.144437 13.734,0 -13.734,0 z"
           style="fill:#66a61e;fill-opacity:1;fill-rule:nonzero;stroke:none"
           id="path3404" /></g></g><g
       id="g3406"><g
         id="g3408"
         clip-path="url(#clipPath3410)"><path
           d="m 131.0255,70.144437 13.734,0 0,81.043873 -13.734,-81.043873 z"
           style="fill:#66a61e;fill-opacity:1;fill-rule:nonzero;stroke:none"
           id="path3414" /></g></g><g
       id="g3416"><g
         id="g3418"
         clip-path="url(#clipPath3420)"><path
           d="m 131.0255,70.144437 13.734,0 0,81.043873 -13.734,0 0,-81.043873 z"
           style="fill:#66a61e;fill-opacity:1;fill-rule:nonzero;stroke:none"
           id="path3424" /></g></g><g
       id="g3426"><g
         id="g3428"
         clip-path="url(#clipPath3430)"><path
           d="m 131.0255,70.144437 13.734,0 0,81.043873 -13.734,0 0,-81.043873 z"
           style="fill:#66a61e;fill-opacity:1;fill-rule:nonzero;stroke:none"
           id="path3434" /></g></g><g
       id="g3436"><g
         id="g3438"
         clip-path="url(#clipPath3440)" /></g><g
       id="g3444"><g
         id="g3446"
         clip-path="url(#clipPath3448)"><path
           d="m 153.9155,248.67406 13.734,0 -13.734,0 z"
           style="fill:#e6ab02;fill-opacity:1;fill-rule:nonzero;stroke:none"
           id="path3452" /></g></g><g
       id="g3454"><g
         id="g3456"
         clip-path="url(#clipPath3458)"><path
           d="m 153.9155,248.67406 13.734,0 0,24.22575 -13.734,-24.22575 z"
           style="fill:#e6ab02;fill-opacity:1;fill-rule:nonzero;stroke:none"
           id="path3462" /></g></g><g
       id="g3464"><g
         id="g3466"
         clip-path="url(#clipPath3468)"><path
           d="m 153.9155,248.67406 13.734,0 0,24.22575 -13.734,0 0,-24.22575 z"
           style="fill:#e6ab02;fill-opacity:1;fill-rule:nonzero;stroke:none"
           id="path3472" /></g></g><g
       id="g3474"><g
         id="g3476"
         clip-path="url(#clipPath3478)"><path
           d="m 153.9155,248.67406 13.734,0 0,24.22575 -13.734,0 0,-24.22575 z"
           style="fill:#e6ab02;fill-opacity:1;fill-rule:nonzero;stroke:none"
           id="path3482" /></g></g><g
       id="g3484"><g
         id="g3486"
         clip-path="url(#clipPath3488)"><path
           d="m 46.3325,62.360562 0,0"
           style="fill:none;stroke:#1b9e77;stroke-opacity:1;stroke-width:2;stroke-linecap:butt;stroke-linejoin:round;stroke-miterlimit:10;stroke-dasharray:6,6;stroke-dashoffset:0"
           id="path3492" /></g></g><g
       id="g3494"><g
         id="g3496"
         clip-path="url(#clipPath3498)"><path
           d="m 46.3325,65.066187 0,0"
           style="fill:none;stroke:#1b9e77;stroke-opacity:1;stroke-width:2;stroke-linecap:butt;stroke-linejoin:round;stroke-miterlimit:10;stroke-dasharray:6,6;stroke-dashoffset:0"
           id="path3502" /></g></g><g
       id="g3504"><g
         id="g3506"
         clip-path="url(#clipPath3508)" /></g><g
       id="g3512"><g
         id="g3514"
         clip-path="url(#clipPath3516)" /></g><g
       id="g3520"><g
         id="g3522"
         clip-path="url(#clipPath3524)" /></g><g
       id="g3528"><g
         id="g3530"
         clip-path="url(#clipPath3532)"><path
           d="m 39.4655,63.900687 13.734,0"
           style="fill:none;stroke:#000000;stroke-opacity:1;stroke-width:3;stroke-linecap:square;stroke-linejoin:round;stroke-miterlimit:10;stroke-dasharray:none"
           id="path3536" /></g></g><g
       id="g3538"><g
         id="g3540"
         clip-path="url(#clipPath3542)"><path
           d="m 69.2225,27.270687 0,0"
           style="fill:none;stroke:#d95f02;stroke-opacity:1;stroke-width:2;stroke-linecap:butt;stroke-linejoin:round;stroke-miterlimit:10;stroke-dasharray:6,6;stroke-dashoffset:0"
           id="path3546" /></g></g><g
       id="g3548"><g
         id="g3550"
         clip-path="url(#clipPath3552)"><path
           d="m 69.2225,44.961313 0,0"
           style="fill:none;stroke:#d95f02;stroke-opacity:1;stroke-width:2;stroke-linecap:butt;stroke-linejoin:round;stroke-miterlimit:10;stroke-dasharray:6,6;stroke-dashoffset:0"
           id="path3556" /></g></g><g
       id="g3558"><g
         id="g3560"
         clip-path="url(#clipPath3562)" /></g><g
       id="g3566"><g
         id="g3568"
         clip-path="url(#clipPath3570)" /></g><g
       id="g3574"><g
         id="g3576"
         clip-path="url(#clipPath3578)" /></g><g
       id="g3582"><g
         id="g3584"
         clip-path="url(#clipPath3586)"><path
           d="m 62.3555,35.928687 13.734,0"
           style="fill:none;stroke:#000000;stroke-opacity:1;stroke-width:3;stroke-linecap:square;stroke-linejoin:round;stroke-miterlimit:10;stroke-dasharray:none"
           id="path3590" /></g></g><g
       id="g3592"><g
         id="g3594"
         clip-path="url(#clipPath3596)"><path
           d="m 92.1125,30.767187 0,0"
           style="fill:none;stroke:#7570b3;stroke-opacity:1;stroke-width:2;stroke-linecap:butt;stroke-linejoin:round;stroke-miterlimit:10;stroke-dasharray:6,6;stroke-dashoffset:0"
           id="path3600" /></g></g><g
       id="g3602"><g
         id="g3604"
         clip-path="url(#clipPath3606)"><path
           d="m 92.1125,43.795813 0,0"
           style="fill:none;stroke:#7570b3;stroke-opacity:1;stroke-width:2;stroke-linecap:butt;stroke-linejoin:round;stroke-miterlimit:10;stroke-dasharray:6,6;stroke-dashoffset:0"
           id="path3610" /></g></g><g
       id="g3612"><g
         id="g3614"
         clip-path="url(#clipPath3616)" /></g><g
       id="g3620"><g
         id="g3622"
         clip-path="url(#clipPath3624)" /></g><g
       id="g3628"><g
         id="g3630"
         clip-path="url(#clipPath3632)" /></g><g
       id="g3636"><g
         id="g3638"
         clip-path="url(#clipPath3640)"><path
           d="m 85.2455,34.097187 13.734,0"
           style="fill:none;stroke:#000000;stroke-opacity:1;stroke-width:3;stroke-linecap:square;stroke-linejoin:round;stroke-miterlimit:10;stroke-dasharray:none"
           id="path3644" /></g></g><g
       id="g3646"><g
         id="g3648"
         clip-path="url(#clipPath3650)"><path
           d="m 115.0025,186.81931 0,0"
           style="fill:none;stroke:#e7298a;stroke-opacity:1;stroke-width:2;stroke-linecap:butt;stroke-linejoin:round;stroke-miterlimit:10;stroke-dasharray:6,6;stroke-dashoffset:0"
           id="path3654" /></g></g><g
       id="g3656"><g
         id="g3658"
         clip-path="url(#clipPath3660)"><path
           d="m 115.0025,250.21419 0,0"
           style="fill:none;stroke:#e7298a;stroke-opacity:1;stroke-width:2;stroke-linecap:butt;stroke-linejoin:round;stroke-miterlimit:10;stroke-dasharray:6,6;stroke-dashoffset:0"
           id="path3664" /></g></g><g
       id="g3666"><g
         id="g3668"
         clip-path="url(#clipPath3670)" /></g><g
       id="g3674"><g
         id="g3676"
         clip-path="url(#clipPath3678)" /></g><g
       id="g3682"><g
         id="g3684"
         clip-path="url(#clipPath3686)" /></g><g
       id="g3690"><g
         id="g3692"
         clip-path="url(#clipPath3694)"><path
           d="m 108.1355,238.22619 13.734,0"
           style="fill:none;stroke:#000000;stroke-opacity:1;stroke-width:3;stroke-linecap:square;stroke-linejoin:round;stroke-miterlimit:10;stroke-dasharray:none"
           id="path3698" /></g></g><g
       id="g3700"><g
         id="g3702"
         clip-path="url(#clipPath3704)"><path
           d="m 137.8925,70.144437 0,0"
           style="fill:none;stroke:#66a61e;stroke-opacity:1;stroke-width:2;stroke-linecap:butt;stroke-linejoin:round;stroke-miterlimit:10;stroke-dasharray:6,6;stroke-dashoffset:0"
           id="path3708" /></g></g><g
       id="g3710"><g
         id="g3712"
         clip-path="url(#clipPath3714)"><path
           d="m 137.8925,151.18831 0,0"
           style="fill:none;stroke:#66a61e;stroke-opacity:1;stroke-width:2;stroke-linecap:butt;stroke-linejoin:round;stroke-miterlimit:10;stroke-dasharray:6,6;stroke-dashoffset:0"
           id="path3718" /></g></g><g
       id="g3720"><g
         id="g3722"
         clip-path="url(#clipPath3724)" /></g><g
       id="g3728"><g
         id="g3730"
         clip-path="url(#clipPath3732)" /></g><g
       id="g3736"><g
         id="g3738"
         clip-path="url(#clipPath3740)" /></g><g
       id="g3744"><g
         id="g3746"
         clip-path="url(#clipPath3748)"><path
           d="m 131.0255,84.296937 13.734,0"
           style="fill:none;stroke:#000000;stroke-opacity:1;stroke-width:3;stroke-linecap:square;stroke-linejoin:round;stroke-miterlimit:10;stroke-dasharray:none"
           id="path3752" /></g></g><g
       id="g3754"><g
         id="g3756"
         clip-path="url(#clipPath3758)"><path
           d="m 160.7825,248.67406 0,0"
           style="fill:none;stroke:#e6ab02;stroke-opacity:1;stroke-width:2;stroke-linecap:butt;stroke-linejoin:round;stroke-miterlimit:10;stroke-dasharray:6,6;stroke-dashoffset:0"
           id="path3762" /></g></g><g
       id="g3764"><g
         id="g3766"
         clip-path="url(#clipPath3768)"><path
           d="m 160.7825,272.89981 0,0"
           style="fill:none;stroke:#e6ab02;stroke-opacity:1;stroke-width:2;stroke-linecap:butt;stroke-linejoin:round;stroke-miterlimit:10;stroke-dasharray:6,6;stroke-dashoffset:0"
           id="path3772" /></g></g><g
       id="g3774"><g
         id="g3776"
         clip-path="url(#clipPath3778)" /></g><g
       id="g3782"><g
         id="g3784"
         clip-path="url(#clipPath3786)" /></g><g
       id="g3790"><g
         id="g3792"
         clip-path="url(#clipPath3794)" /></g><g
       id="g3798"><g
         id="g3800"
         clip-path="url(#clipPath3802)"><path
           d="m 153.9155,263.70069 13.734,0"
           style="fill:none;stroke:#000000;stroke-opacity:1;stroke-width:3;stroke-linecap:square;stroke-linejoin:round;stroke-miterlimit:10;stroke-dasharray:none"
           id="path3806" /></g></g><g
       id="g3808"><path
         d="m 34.8875,12.035938 137.34,0"
         style="fill:none;stroke:#000000;stroke-opacity:1;stroke-width:1;stroke-linecap:butt;stroke-linejoin:round;stroke-miterlimit:10;stroke-dasharray:none"
         id="path3810" /><path
         d="m 137.8925,252.21259 0,2.5796 -22.89,0 0,-2.5796"
         style="fill:none;stroke:#aaaaaa;stroke-opacity:1;stroke-width:1;stroke-linecap:round;stroke-linejoin:round;stroke-miterlimit:10;stroke-dasharray:none"
         id="path3812" /><path
         d="m 160.7825,274.89822 0,7.15759 -45.78,0 0,-7.15759"
         style="fill:none;stroke:#aaaaaa;stroke-opacity:1;stroke-width:1;stroke-linecap:round;stroke-linejoin:round;stroke-miterlimit:10;stroke-dasharray:none"
         id="path3814" /></g><text
       xml:space="preserve"
       style="font-size:9.60000038px;font-style:normal;font-variant:normal;font-weight:normal;font-stretch:normal;text-align:start;line-height:125%;letter-spacing:0px;word-spacing:0px;writing-mode:lr-tb;text-anchor:start;fill:#000000;fill-opacity:1;stroke:none;font-family:Sans;-inkscape-font-specification:Sans"
       x="119.95477"
       y="-254.55518"
       id="text3816"
       sodipodi:linespacing="125%"
       transform="scale(1,-1)"><tspan
         sodipodi:role="line"
         id="tspan3818"
         x="119.95477"
         y="-254.55518">***</tspan></text>
<text
       xml:space="preserve"
       style="font-size:9.60000038px;font-style:normal;font-variant:normal;font-weight:normal;font-stretch:normal;text-align:start;line-height:125%;letter-spacing:0px;word-spacing:0px;writing-mode:lr-tb;text-anchor:start;fill:#000000;fill-opacity:1;stroke:none;font-family:Sans;-inkscape-font-specification:Sans"
       x="135.64655"
       y="-282.10294"
       id="text3820"
       sodipodi:linespacing="125%"
       transform="scale(1,-1)"><tspan
         sodipodi:role="line"
         id="tspan3822"
         x="135.64655"
         y="-282.10294">*</tspan></text>
</g></svg>