<?xml version="1.0" encoding="UTF-8" standalone="no"?>
<!-- Created with Inkscape (http://www.inkscape.org/) -->

<svg
   xmlns:dc="http://purl.org/dc/elements/1.1/"
   xmlns:cc="http://creativecommons.org/ns#"
   xmlns:rdf="http://www.w3.org/1999/02/22-rdf-syntax-ns#"
   xmlns:svg="http://www.w3.org/2000/svg"
   xmlns="http://www.w3.org/2000/svg"
   xmlns:sodipodi="http://sodipodi.sourceforge.net/DTD/sodipodi-0.dtd"
   xmlns:inkscape="http://www.inkscape.org/namespaces/inkscape"
   id="svg2"
   version="1.1"
   inkscape:version="0.48.4 r9939"
   width="1413"
   height="51.75"
   xml:space="preserve"
   sodipodi:docname="xp1-explo-legend.pdf"><metadata
     id="metadata8"><rdf:RDF><cc:Work
         rdf:about=""><dc:format>image/svg+xml</dc:format><dc:type
           rdf:resource="http://purl.org/dc/dcmitype/StillImage" /><dc:title></dc:title></cc:Work></rdf:RDF></metadata><defs
     id="defs6"><clipPath
       clipPathUnits="userSpaceOnUse"
       id="clipPath20"><path
         d="m 7.2,7.2 1116,0 0,27 -1116,0 0,-27 z"
         id="path22" /></clipPath><clipPath
       clipPathUnits="userSpaceOnUse"
       id="clipPath30"><path
         d="m 7.2,7.2 1116,0 0,27 -1116,0 0,-27 z"
         id="path32" /></clipPath><clipPath
       clipPathUnits="userSpaceOnUse"
       id="clipPath40"><path
         d="m 7.2,7.2 1116,0 0,27 -1116,0 0,-27 z"
         id="path42" /></clipPath><clipPath
       clipPathUnits="userSpaceOnUse"
       id="clipPath50"><path
         d="m 7.2,7.2 1116,0 0,27 -1116,0 0,-27 z"
         id="path52" /></clipPath><clipPath
       clipPathUnits="userSpaceOnUse"
       id="clipPath60"><path
         d="m 7.2,7.2 1116,0 0,27 -1116,0 0,-27 z"
         id="path62" /></clipPath><clipPath
       clipPathUnits="userSpaceOnUse"
       id="clipPath70"><path
         d="m 7.2,7.2 1116,0 0,27 -1116,0 0,-27 z"
         id="path72" /></clipPath></defs><sodipodi:namedview
     pagecolor="#ffffff"
     bordercolor="#666666"
     borderopacity="1"
     objecttolerance="10"
     gridtolerance="10"
     guidetolerance="10"
     inkscape:pageopacity="0"
     inkscape:pageshadow="2"
     inkscape:window-width="1920"
     inkscape:window-height="1003"
     id="namedview4"
     showgrid="false"
     inkscape:zoom="11.625976"
     inkscape:cx="1331.0729"
     inkscape:cy="22.055616"
     inkscape:window-x="0"
     inkscape:window-y="24"
     inkscape:window-maximized="1"
     inkscape:current-layer="g10" /><g
     id="g10"
     inkscape:groupmode="layer"
     inkscape:label="xp1-explo-legend"
     transform="matrix(1.25,0,0,-1.25,0,51.75)"><path
       d="m 0,0 1130.4,0 0,41.4 L 0,41.4 0,0 z"
       style="fill:#ffffff;fill-opacity:1;fill-rule:nonzero;stroke:none"
       id="path12" /><path
       d="m 7.2,7.2 1116,0 0,27 -1116,0 0,-27 z"
       style="fill:#ffffff;fill-opacity:1;fill-rule:nonzero;stroke:none"
       id="path14" /><g
       id="g16"><g
         id="g18"
         clip-path="url(#clipPath20)"><path
           d="m 7.2,7.2 54,0 0,27 -54,0 0,-27 z"
           style="fill:#1b9e77;fill-opacity:1;fill-rule:nonzero;stroke:#000000;stroke-opacity:1;stroke-width:1;stroke-linecap:butt;stroke-linejoin:round;stroke-miterlimit:10;stroke-dasharray:none"
           id="path24" /></g></g><g
       id="g26"><g
         id="g28"
         clip-path="url(#clipPath30)"><path
           d="m 187.2,7.2 54,0 0,27 -54,0 0,-27 z"
           style="fill:#d95f02;fill-opacity:1;fill-rule:nonzero;stroke:#000000;stroke-opacity:1;stroke-width:1;stroke-linecap:butt;stroke-linejoin:round;stroke-miterlimit:10;stroke-dasharray:none"
           id="path34" /></g></g><g
       id="g36"><g
         id="g38"
         clip-path="url(#clipPath40)"><path
           d="m 367.2,7.2 54,0 0,27 -54,0 0,-27 z"
           style="fill:#7570b3;fill-opacity:1;fill-rule:nonzero;stroke:#000000;stroke-opacity:1;stroke-width:1;stroke-linecap:butt;stroke-linejoin:round;stroke-miterlimit:10;stroke-dasharray:none"
           id="path44" /></g></g><g
       id="g46"><g
         id="g48"
         clip-path="url(#clipPath50)"><path
           d="m 547.2,7.2 54,0 0,27 -54,0 0,-27 z"
           style="fill:#e7298a;fill-opacity:1;fill-rule:nonzero;stroke:#000000;stroke-opacity:1;stroke-width:1;stroke-linecap:butt;stroke-linejoin:round;stroke-miterlimit:10;stroke-dasharray:none"
           id="path54" /></g></g><g
       id="g56"><g
         id="g58"
         clip-path="url(#clipPath60)"><path
           d="m 727.2,7.2 54,0 0,27 -54,0 0,-27 z"
           style="fill:#66a61e;fill-opacity:1;fill-rule:nonzero;stroke:#000000;stroke-opacity:1;stroke-width:1;stroke-linecap:butt;stroke-linejoin:round;stroke-miterlimit:10;stroke-dasharray:none"
           id="path64" /></g></g><g
       id="g66"><g
         id="g68"
         clip-path="url(#clipPath70)"><path
           d="m 907.2,7.2 54,0 0,27 -54,0 0,-27 z"
           style="fill:#e6ab02;fill-opacity:1;fill-rule:nonzero;stroke:#000000;stroke-opacity:1;stroke-width:1;stroke-linecap:butt;stroke-linejoin:round;stroke-miterlimit:10;stroke-dasharray:none"
           id="path74" /></g></g><g
       id="g76"><path
         d="m 7.2,7.2 0,4"
         style="fill:#000000;fill-opacity:1;fill-rule:nonzero;stroke:#000000;stroke-opacity:1;stroke-width:0.5;stroke-linecap:butt;stroke-linejoin:round;stroke-miterlimit:10;stroke-dasharray:none"
         id="path78" /><path
         d="m 7.2,34.2 0,-4"
         style="fill:#000000;fill-opacity:1;fill-rule:nonzero;stroke:#000000;stroke-opacity:1;stroke-width:0.5;stroke-linecap:butt;stroke-linejoin:round;stroke-miterlimit:10;stroke-dasharray:none"
         id="path80" /><path
         d="m 187.2,7.2 0,4"
         style="fill:#000000;fill-opacity:1;fill-rule:nonzero;stroke:#000000;stroke-opacity:1;stroke-width:0.5;stroke-linecap:butt;stroke-linejoin:round;stroke-miterlimit:10;stroke-dasharray:none"
         id="path82" /><path
         d="m 187.2,34.2 0,-4"
         style="fill:#000000;fill-opacity:1;fill-rule:nonzero;stroke:#000000;stroke-opacity:1;stroke-width:0.5;stroke-linecap:butt;stroke-linejoin:round;stroke-miterlimit:10;stroke-dasharray:none"
         id="path84" /><path
         d="m 367.2,7.2 0,4"
         style="fill:#000000;fill-opacity:1;fill-rule:nonzero;stroke:#000000;stroke-opacity:1;stroke-width:0.5;stroke-linecap:butt;stroke-linejoin:round;stroke-miterlimit:10;stroke-dasharray:none"
         id="path86" /><path
         d="m 367.2,34.2 0,-4"
         style="fill:#000000;fill-opacity:1;fill-rule:nonzero;stroke:#000000;stroke-opacity:1;stroke-width:0.5;stroke-linecap:butt;stroke-linejoin:round;stroke-miterlimit:10;stroke-dasharray:none"
         id="path88" /><path
         d="m 547.2,7.2 0,4"
         style="fill:#000000;fill-opacity:1;fill-rule:nonzero;stroke:#000000;stroke-opacity:1;stroke-width:0.5;stroke-linecap:butt;stroke-linejoin:round;stroke-miterlimit:10;stroke-dasharray:none"
         id="path90" /><path
         d="m 547.2,34.2 0,-4"
         style="fill:#000000;fill-opacity:1;fill-rule:nonzero;stroke:#000000;stroke-opacity:1;stroke-width:0.5;stroke-linecap:butt;stroke-linejoin:round;stroke-miterlimit:10;stroke-dasharray:none"
         id="path92" /><path
         d="m 727.2,7.2 0,4"
         style="fill:#000000;fill-opacity:1;fill-rule:nonzero;stroke:#000000;stroke-opacity:1;stroke-width:0.5;stroke-linecap:butt;stroke-linejoin:round;stroke-miterlimit:10;stroke-dasharray:none"
         id="path94" /><path
         d="m 727.2,34.2 0,-4"
         style="fill:#000000;fill-opacity:1;fill-rule:nonzero;stroke:#000000;stroke-opacity:1;stroke-width:0.5;stroke-linecap:butt;stroke-linejoin:round;stroke-miterlimit:10;stroke-dasharray:none"
         id="path96" /><path
         d="m 907.2,7.2 0,4"
         style="fill:#000000;fill-opacity:1;fill-rule:nonzero;stroke:#000000;stroke-opacity:1;stroke-width:0.5;stroke-linecap:butt;stroke-linejoin:round;stroke-miterlimit:10;stroke-dasharray:none"
         id="path98" /><path
         d="m 907.2,34.2 0,-4"
         style="fill:#000000;fill-opacity:1;fill-rule:nonzero;stroke:#000000;stroke-opacity:1;stroke-width:0.5;stroke-linecap:butt;stroke-linejoin:round;stroke-miterlimit:10;stroke-dasharray:none"
         id="path100" /><path
         d="m 1087.2,7.2 0,4"
         style="fill:#000000;fill-opacity:1;fill-rule:nonzero;stroke:#000000;stroke-opacity:1;stroke-width:0.5;stroke-linecap:butt;stroke-linejoin:round;stroke-miterlimit:10;stroke-dasharray:none"
         id="path102" /><path
         d="m 1087.2,34.2 0,-4"
         style="fill:#000000;fill-opacity:1;fill-rule:nonzero;stroke:#000000;stroke-opacity:1;stroke-width:0.5;stroke-linecap:butt;stroke-linejoin:round;stroke-miterlimit:10;stroke-dasharray:none"
         id="path104" /><path
         d="m 7.2,34.2 1116,0"
         style="fill:none;stroke:#000000;stroke-opacity:1;stroke-width:1;stroke-linecap:butt;stroke-linejoin:round;stroke-miterlimit:10;stroke-dasharray:none"
         id="path106" /><path
         d="m 1123.2,7.2 0,27"
         style="fill:none;stroke:#000000;stroke-opacity:1;stroke-width:1;stroke-linecap:butt;stroke-linejoin:round;stroke-miterlimit:10;stroke-dasharray:none"
         id="path108" /><path
         d="m 7.2,7.2 1116,0"
         style="fill:none;stroke:#000000;stroke-opacity:1;stroke-width:1;stroke-linecap:butt;stroke-linejoin:round;stroke-miterlimit:10;stroke-dasharray:none"
         id="path110" /><path
         d="m 7.2,7.2 0,27"
         style="fill:none;stroke:#000000;stroke-opacity:1;stroke-width:1;stroke-linecap:butt;stroke-linejoin:round;stroke-miterlimit:10;stroke-dasharray:none"
         id="path112" /><text
         transform="matrix(1,0,0,-1,70.2,16.2)"
         id="text114"><tspan
           style="fill:#000000;fill-opacity:1;fill-rule:nonzero;stroke:none;font-family:DejaVu Sans;font-variant:normal;font-weight:normal;font-size:14;writing-mode:lr;-inkscape-font-specification:DejaVuSans"
           x="0 8.05 13.104 22.834 36.47"
           y="0"
           sodipodi:role="line"
           id="tspan116">F-RmB</tspan></text>
<text
         transform="matrix(1,0,0,-1,250.2,16.2)"
         id="text118"><tspan
           style="fill:#000000;fill-opacity:1;fill-rule:nonzero;stroke:none;font-family:DejaVu Sans;font-variant:normal;font-weight:normal;font-size:14;writing-mode:lr;-inkscape-font-specification:DejaVuSans"
           x="0 8.05 13.104 22.834 33.684"
           y="0"
           sodipodi:role="line"
           id="tspan120">F-RGB</tspan></text>
<text
         transform="matrix(1,0,0,-1,430.2,16.2)"
         id="text122"><tspan
           style="fill:#000000;fill-opacity:1;fill-rule:nonzero;stroke:none;font-family:DejaVu Sans;font-variant:normal;font-weight:normal;font-size:14;writing-mode:lr;-inkscape-font-specification:DejaVuSans"
           x="0 8.05 13.104 22.68 33.53"
           y="0"
           sodipodi:role="line"
           id="tspan124">F-AGB</tspan></text>
<text
         transform="matrix(1,0,0,-1,610.2,16.2)"
         id="text126"><tspan
           style="fill:#000000;fill-opacity:1;fill-rule:nonzero;stroke:none;font-family:DejaVu Sans;font-variant:normal;font-weight:normal;font-size:14;writing-mode:lr;-inkscape-font-specification:DejaVuSans"
           x="0 10.528 15.582 25.312 36.162 45.766 50.82 59.262 64.316 73.892 85.974"
           y="0"
           sodipodi:role="line"
           id="tspan128">H-RGB-P-AMB</tspan></text>
<text
         transform="matrix(1,0,0,-1,790.2,16.2)"
         id="text130"><tspan
           style="fill:#000000;fill-opacity:1;fill-rule:nonzero;stroke:none;font-family:DejaVu Sans;font-variant:normal;font-weight:normal;font-size:14;writing-mode:lr;-inkscape-font-specification:DejaVuSans"
           x="0 10.528 15.582 25.312 36.162 45.766 50.82 61.67 71.4 76.454 86.03 98.112"
           y="0"
           sodipodi:role="line"
           id="tspan132">H-RGB-GR-AMB</tspan></text>
<text
         transform="matrix(1,0,0,-1,970.2,16.2)"
         id="text134"><tspan
           style="fill:#000000;fill-opacity:1;fill-rule:nonzero;stroke:none;font-family:DejaVu Sans;font-variant:normal;font-weight:normal;font-size:14;writing-mode:lr;-inkscape-font-specification:DejaVuSans"
           x="0 10.528 15.582 25.312 36.162 45.766 50.82 59.262 64.316 73.892 85.974 95.578 100.632 109.074 119.924 124.054 132.608"
           y="0"
           sodipodi:role="line"
           id="tspan136">H-RGB-P-AMB-PGITC</tspan></text>
</g><rect
       style="fill:#ffffff;stroke-width:1.70000005;stroke-miterlimit:4;stroke-dasharray:none"
       id="rect3113"
       width="3.7846284"
       height="5.5909281"
       x="1356.6172"
       y="9.6030025"
       transform="matrix(0.8,0,0,-0.8,0,41.4)" /><rect
       style="fill:#ffffff;stroke-width:1.70000005;stroke-miterlimit:4;stroke-dasharray:none"
       id="rect3115"
       width="3.0104997"
       height="5.5049138"
       x="1357.0474"
       y="36.611488"
       transform="matrix(0.8,0,0,-0.8,0,41.4)" /></g></svg>