<?xml version="1.0" encoding="UTF-8" standalone="no"?>
<!-- Created with Inkscape (http://www.inkscape.org/) -->

<svg
   xmlns:dc="http://purl.org/dc/elements/1.1/"
   xmlns:cc="http://creativecommons.org/ns#"
   xmlns:rdf="http://www.w3.org/1999/02/22-rdf-syntax-ns#"
   xmlns:svg="http://www.w3.org/2000/svg"
   xmlns="http://www.w3.org/2000/svg"
   xmlns:sodipodi="http://sodipodi.sourceforge.net/DTD/sodipodi-0.dtd"
   xmlns:inkscape="http://www.inkscape.org/namespaces/inkscape"
   id="svg3020"
   version="1.1"
   inkscape:version="0.48.4 r9939"
   width="224.73359"
   height="363.08984"
   xml:space="preserve"
   sodipodi:docname="xp1-explo-hand.pdf"><metadata
     id="metadata3026"><rdf:RDF><cc:Work
         rdf:about=""><dc:format>image/svg+xml</dc:format><dc:type
           rdf:resource="http://purl.org/dc/dcmitype/StillImage" /><dc:title></dc:title></cc:Work></rdf:RDF></metadata><defs
     id="defs3024"><clipPath
       clipPathUnits="userSpaceOnUse"
       id="clipPath3038"><path
         d="m 35.246875,12.035938 137.340005,0 0,266.400002 -137.340005,0 0,-266.400002 z"
         id="path3040" /></clipPath><clipPath
       clipPathUnits="userSpaceOnUse"
       id="clipPath3056"><path
         d="m 35.246875,12.035938 137.340005,0 0,266.400002 -137.340005,0 0,-266.400002 z"
         id="path3058" /></clipPath><clipPath
       clipPathUnits="userSpaceOnUse"
       id="clipPath3074"><path
         d="m 35.246875,12.035938 137.340005,0 0,266.400002 -137.340005,0 0,-266.400002 z"
         id="path3076" /></clipPath><clipPath
       clipPathUnits="userSpaceOnUse"
       id="clipPath3092"><path
         d="m 35.246875,12.035938 137.340005,0 0,266.400002 -137.340005,0 0,-266.400002 z"
         id="path3094" /></clipPath><clipPath
       clipPathUnits="userSpaceOnUse"
       id="clipPath3110"><path
         d="m 35.246875,12.035938 137.340005,0 0,266.400002 -137.340005,0 0,-266.400002 z"
         id="path3112" /></clipPath><clipPath
       clipPathUnits="userSpaceOnUse"
       id="clipPath3128"><path
         d="m 35.246875,12.035938 137.340005,0 0,266.400002 -137.340005,0 0,-266.400002 z"
         id="path3130" /></clipPath><clipPath
       clipPathUnits="userSpaceOnUse"
       id="clipPath3146"><path
         d="m 35.246875,12.035938 137.340005,0 0,266.400002 -137.340005,0 0,-266.400002 z"
         id="path3148" /></clipPath><clipPath
       clipPathUnits="userSpaceOnUse"
       id="clipPath3164"><path
         d="m 35.246875,12.035938 137.340005,0 0,266.400002 -137.340005,0 0,-266.400002 z"
         id="path3166" /></clipPath><clipPath
       clipPathUnits="userSpaceOnUse"
       id="clipPath3182"><path
         d="m 35.246875,12.035938 137.340005,0 0,266.400002 -137.340005,0 0,-266.400002 z"
         id="path3184" /></clipPath><clipPath
       clipPathUnits="userSpaceOnUse"
       id="clipPath3200"><path
         d="m 35.246875,12.035938 137.340005,0 0,266.400002 -137.340005,0 0,-266.400002 z"
         id="path3202" /></clipPath><clipPath
       clipPathUnits="userSpaceOnUse"
       id="clipPath3218"><path
         d="m 35.246875,12.035938 137.340005,0 0,266.400002 -137.340005,0 0,-266.400002 z"
         id="path3220" /></clipPath><clipPath
       clipPathUnits="userSpaceOnUse"
       id="clipPath3226"><path
         d="m 35.246875,12.035938 137.340005,0 0,266.400002 -137.340005,0 0,-266.400002 z"
         id="path3228" /></clipPath><clipPath
       clipPathUnits="userSpaceOnUse"
       id="clipPath3236"><path
         d="m 35.246875,12.035938 137.340005,0 0,266.400002 -137.340005,0 0,-266.400002 z"
         id="path3238" /></clipPath><clipPath
       clipPathUnits="userSpaceOnUse"
       id="clipPath3246"><path
         d="m 35.246875,12.035938 137.340005,0 0,266.400002 -137.340005,0 0,-266.400002 z"
         id="path3248" /></clipPath><clipPath
       clipPathUnits="userSpaceOnUse"
       id="clipPath3256"><path
         d="m 35.246875,12.035938 137.340005,0 0,266.400002 -137.340005,0 0,-266.400002 z"
         id="path3258" /></clipPath><clipPath
       clipPathUnits="userSpaceOnUse"
       id="clipPath3266"><path
         d="m 35.246875,12.035938 137.340005,0 0,266.400002 -137.340005,0 0,-266.400002 z"
         id="path3268" /></clipPath><clipPath
       clipPathUnits="userSpaceOnUse"
       id="clipPath3274"><path
         d="m 35.246875,12.035938 137.340005,0 0,266.400002 -137.340005,0 0,-266.400002 z"
         id="path3276" /></clipPath><clipPath
       clipPathUnits="userSpaceOnUse"
       id="clipPath3284"><path
         d="m 35.246875,12.035938 137.340005,0 0,266.400002 -137.340005,0 0,-266.400002 z"
         id="path3286" /></clipPath><clipPath
       clipPathUnits="userSpaceOnUse"
       id="clipPath3294"><path
         d="m 35.246875,12.035938 137.340005,0 0,266.400002 -137.340005,0 0,-266.400002 z"
         id="path3296" /></clipPath><clipPath
       clipPathUnits="userSpaceOnUse"
       id="clipPath3304"><path
         d="m 35.246875,12.035938 137.340005,0 0,266.400002 -137.340005,0 0,-266.400002 z"
         id="path3306" /></clipPath><clipPath
       clipPathUnits="userSpaceOnUse"
       id="clipPath3314"><path
         d="m 35.246875,12.035938 137.340005,0 0,266.400002 -137.340005,0 0,-266.400002 z"
         id="path3316" /></clipPath><clipPath
       clipPathUnits="userSpaceOnUse"
       id="clipPath3322"><path
         d="m 35.246875,12.035938 137.340005,0 0,266.400002 -137.340005,0 0,-266.400002 z"
         id="path3324" /></clipPath><clipPath
       clipPathUnits="userSpaceOnUse"
       id="clipPath3332"><path
         d="m 35.246875,12.035938 137.340005,0 0,266.400002 -137.340005,0 0,-266.400002 z"
         id="path3334" /></clipPath><clipPath
       clipPathUnits="userSpaceOnUse"
       id="clipPath3342"><path
         d="m 35.246875,12.035938 137.340005,0 0,266.400002 -137.340005,0 0,-266.400002 z"
         id="path3344" /></clipPath><clipPath
       clipPathUnits="userSpaceOnUse"
       id="clipPath3352"><path
         d="m 35.246875,12.035938 137.340005,0 0,266.400002 -137.340005,0 0,-266.400002 z"
         id="path3354" /></clipPath><clipPath
       clipPathUnits="userSpaceOnUse"
       id="clipPath3362"><path
         d="m 35.246875,12.035938 137.340005,0 0,266.400002 -137.340005,0 0,-266.400002 z"
         id="path3364" /></clipPath><clipPath
       clipPathUnits="userSpaceOnUse"
       id="clipPath3370"><path
         d="m 35.246875,12.035938 137.340005,0 0,266.400002 -137.340005,0 0,-266.400002 z"
         id="path3372" /></clipPath><clipPath
       clipPathUnits="userSpaceOnUse"
       id="clipPath3380"><path
         d="m 35.246875,12.035938 137.340005,0 0,266.400002 -137.340005,0 0,-266.400002 z"
         id="path3382" /></clipPath><clipPath
       clipPathUnits="userSpaceOnUse"
       id="clipPath3390"><path
         d="m 35.246875,12.035938 137.340005,0 0,266.400002 -137.340005,0 0,-266.400002 z"
         id="path3392" /></clipPath><clipPath
       clipPathUnits="userSpaceOnUse"
       id="clipPath3400"><path
         d="m 35.246875,12.035938 137.340005,0 0,266.400002 -137.340005,0 0,-266.400002 z"
         id="path3402" /></clipPath><clipPath
       clipPathUnits="userSpaceOnUse"
       id="clipPath3410"><path
         d="m 35.246875,12.035938 137.340005,0 0,266.400002 -137.340005,0 0,-266.400002 z"
         id="path3412" /></clipPath><clipPath
       clipPathUnits="userSpaceOnUse"
       id="clipPath3418"><path
         d="m 35.246875,12.035938 137.340005,0 0,266.400002 -137.340005,0 0,-266.400002 z"
         id="path3420" /></clipPath><clipPath
       clipPathUnits="userSpaceOnUse"
       id="clipPath3428"><path
         d="m 35.246875,12.035938 137.340005,0 0,266.400002 -137.340005,0 0,-266.400002 z"
         id="path3430" /></clipPath><clipPath
       clipPathUnits="userSpaceOnUse"
       id="clipPath3438"><path
         d="m 35.246875,12.035938 137.340005,0 0,266.400002 -137.340005,0 0,-266.400002 z"
         id="path3440" /></clipPath><clipPath
       clipPathUnits="userSpaceOnUse"
       id="clipPath3448"><path
         d="m 35.246875,12.035938 137.340005,0 0,266.400002 -137.340005,0 0,-266.400002 z"
         id="path3450" /></clipPath><clipPath
       clipPathUnits="userSpaceOnUse"
       id="clipPath3458"><path
         d="m 35.246875,12.035938 137.340005,0 0,266.400002 -137.340005,0 0,-266.400002 z"
         id="path3460" /></clipPath><clipPath
       clipPathUnits="userSpaceOnUse"
       id="clipPath3466"><path
         d="m 35.246875,12.035938 137.340005,0 0,266.400002 -137.340005,0 0,-266.400002 z"
         id="path3468" /></clipPath><clipPath
       clipPathUnits="userSpaceOnUse"
       id="clipPath3476"><path
         d="m 35.246875,12.035938 137.340005,0 0,266.400002 -137.340005,0 0,-266.400002 z"
         id="path3478" /></clipPath><clipPath
       clipPathUnits="userSpaceOnUse"
       id="clipPath3486"><path
         d="m 35.246875,12.035938 137.340005,0 0,266.400002 -137.340005,0 0,-266.400002 z"
         id="path3488" /></clipPath><clipPath
       clipPathUnits="userSpaceOnUse"
       id="clipPath3496"><path
         d="m 35.246875,12.035938 137.340005,0 0,266.400002 -137.340005,0 0,-266.400002 z"
         id="path3498" /></clipPath><clipPath
       clipPathUnits="userSpaceOnUse"
       id="clipPath3506"><path
         d="m 35.246875,12.035938 137.340005,0 0,266.400002 -137.340005,0 0,-266.400002 z"
         id="path3508" /></clipPath><clipPath
       clipPathUnits="userSpaceOnUse"
       id="clipPath3516"><path
         d="m 35.246875,12.035938 137.340005,0 0,266.400002 -137.340005,0 0,-266.400002 z"
         id="path3518" /></clipPath><clipPath
       clipPathUnits="userSpaceOnUse"
       id="clipPath3526"><path
         d="m 35.246875,12.035938 137.340005,0 0,266.400002 -137.340005,0 0,-266.400002 z"
         id="path3528" /></clipPath><clipPath
       clipPathUnits="userSpaceOnUse"
       id="clipPath3534"><path
         d="m 35.246875,12.035938 137.340005,0 0,266.400002 -137.340005,0 0,-266.400002 z"
         id="path3536" /></clipPath><clipPath
       clipPathUnits="userSpaceOnUse"
       id="clipPath3542"><path
         d="m 35.246875,12.035938 137.340005,0 0,266.400002 -137.340005,0 0,-266.400002 z"
         id="path3544" /></clipPath><clipPath
       clipPathUnits="userSpaceOnUse"
       id="clipPath3550"><path
         d="m 35.246875,12.035938 137.340005,0 0,266.400002 -137.340005,0 0,-266.400002 z"
         id="path3552" /></clipPath><clipPath
       clipPathUnits="userSpaceOnUse"
       id="clipPath3560"><path
         d="m 35.246875,12.035938 137.340005,0 0,266.400002 -137.340005,0 0,-266.400002 z"
         id="path3562" /></clipPath><clipPath
       clipPathUnits="userSpaceOnUse"
       id="clipPath3570"><path
         d="m 35.246875,12.035938 137.340005,0 0,266.400002 -137.340005,0 0,-266.400002 z"
         id="path3572" /></clipPath><clipPath
       clipPathUnits="userSpaceOnUse"
       id="clipPath3580"><path
         d="m 35.246875,12.035938 137.340005,0 0,266.400002 -137.340005,0 0,-266.400002 z"
         id="path3582" /></clipPath><clipPath
       clipPathUnits="userSpaceOnUse"
       id="clipPath3588"><path
         d="m 35.246875,12.035938 137.340005,0 0,266.400002 -137.340005,0 0,-266.400002 z"
         id="path3590" /></clipPath><clipPath
       clipPathUnits="userSpaceOnUse"
       id="clipPath3596"><path
         d="m 35.246875,12.035938 137.340005,0 0,266.400002 -137.340005,0 0,-266.400002 z"
         id="path3598" /></clipPath><clipPath
       clipPathUnits="userSpaceOnUse"
       id="clipPath3604"><path
         d="m 35.246875,12.035938 137.340005,0 0,266.400002 -137.340005,0 0,-266.400002 z"
         id="path3606" /></clipPath><clipPath
       clipPathUnits="userSpaceOnUse"
       id="clipPath3614"><path
         d="m 35.246875,12.035938 137.340005,0 0,266.400002 -137.340005,0 0,-266.400002 z"
         id="path3616" /></clipPath><clipPath
       clipPathUnits="userSpaceOnUse"
       id="clipPath3624"><path
         d="m 35.246875,12.035938 137.340005,0 0,266.400002 -137.340005,0 0,-266.400002 z"
         id="path3626" /></clipPath><clipPath
       clipPathUnits="userSpaceOnUse"
       id="clipPath3634"><path
         d="m 35.246875,12.035938 137.340005,0 0,266.400002 -137.340005,0 0,-266.400002 z"
         id="path3636" /></clipPath><clipPath
       clipPathUnits="userSpaceOnUse"
       id="clipPath3642"><path
         d="m 35.246875,12.035938 137.340005,0 0,266.400002 -137.340005,0 0,-266.400002 z"
         id="path3644" /></clipPath><clipPath
       clipPathUnits="userSpaceOnUse"
       id="clipPath3650"><path
         d="m 35.246875,12.035938 137.340005,0 0,266.400002 -137.340005,0 0,-266.400002 z"
         id="path3652" /></clipPath><clipPath
       clipPathUnits="userSpaceOnUse"
       id="clipPath3658"><path
         d="m 35.246875,12.035938 137.340005,0 0,266.400002 -137.340005,0 0,-266.400002 z"
         id="path3660" /></clipPath><clipPath
       clipPathUnits="userSpaceOnUse"
       id="clipPath3668"><path
         d="m 35.246875,12.035938 137.340005,0 0,266.400002 -137.340005,0 0,-266.400002 z"
         id="path3670" /></clipPath><clipPath
       clipPathUnits="userSpaceOnUse"
       id="clipPath3678"><path
         d="m 35.246875,12.035938 137.340005,0 0,266.400002 -137.340005,0 0,-266.400002 z"
         id="path3680" /></clipPath><clipPath
       clipPathUnits="userSpaceOnUse"
       id="clipPath3688"><path
         d="m 35.246875,12.035938 137.340005,0 0,266.400002 -137.340005,0 0,-266.400002 z"
         id="path3690" /></clipPath><clipPath
       clipPathUnits="userSpaceOnUse"
       id="clipPath3696"><path
         d="m 35.246875,12.035938 137.340005,0 0,266.400002 -137.340005,0 0,-266.400002 z"
         id="path3698" /></clipPath><clipPath
       clipPathUnits="userSpaceOnUse"
       id="clipPath3704"><path
         d="m 35.246875,12.035938 137.340005,0 0,266.400002 -137.340005,0 0,-266.400002 z"
         id="path3706" /></clipPath><clipPath
       clipPathUnits="userSpaceOnUse"
       id="clipPath3712"><path
         d="m 35.246875,12.035938 137.340005,0 0,266.400002 -137.340005,0 0,-266.400002 z"
         id="path3714" /></clipPath><clipPath
       clipPathUnits="userSpaceOnUse"
       id="clipPath3722"><path
         d="m 35.246875,12.035938 137.340005,0 0,266.400002 -137.340005,0 0,-266.400002 z"
         id="path3724" /></clipPath><clipPath
       clipPathUnits="userSpaceOnUse"
       id="clipPath3732"><path
         d="m 35.246875,12.035938 137.340005,0 0,266.400002 -137.340005,0 0,-266.400002 z"
         id="path3734" /></clipPath><clipPath
       clipPathUnits="userSpaceOnUse"
       id="clipPath3742"><path
         d="m 35.246875,12.035938 137.340005,0 0,266.400002 -137.340005,0 0,-266.400002 z"
         id="path3744" /></clipPath><clipPath
       clipPathUnits="userSpaceOnUse"
       id="clipPath3750"><path
         d="m 35.246875,12.035938 137.340005,0 0,266.400002 -137.340005,0 0,-266.400002 z"
         id="path3752" /></clipPath><clipPath
       clipPathUnits="userSpaceOnUse"
       id="clipPath3758"><path
         d="m 35.246875,12.035938 137.340005,0 0,266.400002 -137.340005,0 0,-266.400002 z"
         id="path3760" /></clipPath><clipPath
       clipPathUnits="userSpaceOnUse"
       id="clipPath3766"><path
         d="m 35.246875,12.035938 137.340005,0 0,266.400002 -137.340005,0 0,-266.400002 z"
         id="path3768" /></clipPath><clipPath
       clipPathUnits="userSpaceOnUse"
       id="clipPath3776"><path
         d="m 35.246875,12.035938 137.340005,0 0,266.400002 -137.340005,0 0,-266.400002 z"
         id="path3778" /></clipPath><clipPath
       clipPathUnits="userSpaceOnUse"
       id="clipPath3786"><path
         d="m 35.246875,12.035938 137.340005,0 0,266.400002 -137.340005,0 0,-266.400002 z"
         id="path3788" /></clipPath><clipPath
       clipPathUnits="userSpaceOnUse"
       id="clipPath3796"><path
         d="m 35.246875,12.035938 137.340005,0 0,266.400002 -137.340005,0 0,-266.400002 z"
         id="path3798" /></clipPath><clipPath
       clipPathUnits="userSpaceOnUse"
       id="clipPath3804"><path
         d="m 35.246875,12.035938 137.340005,0 0,266.400002 -137.340005,0 0,-266.400002 z"
         id="path3806" /></clipPath><clipPath
       clipPathUnits="userSpaceOnUse"
       id="clipPath3812"><path
         d="m 35.246875,12.035938 137.340005,0 0,266.400002 -137.340005,0 0,-266.400002 z"
         id="path3814" /></clipPath><clipPath
       clipPathUnits="userSpaceOnUse"
       id="clipPath3820"><path
         d="m 35.246875,12.035938 137.340005,0 0,266.400002 -137.340005,0 0,-266.400002 z"
         id="path3822" /></clipPath></defs><sodipodi:namedview
     pagecolor="#ffffff"
     bordercolor="#666666"
     borderopacity="1"
     objecttolerance="10"
     gridtolerance="10"
     guidetolerance="10"
     inkscape:pageopacity="0"
     inkscape:pageshadow="2"
     inkscape:window-width="1920"
     inkscape:window-height="1003"
     id="namedview3022"
     showgrid="false"
     inkscape:zoom="2.294198"
     inkscape:cx="112.3668"
     inkscape:cy="181.54492"
     inkscape:window-x="0"
     inkscape:window-y="24"
     inkscape:window-maximized="1"
     inkscape:current-layer="g3028" /><g
     id="g3028"
     inkscape:groupmode="layer"
     inkscape:label="xp1-explo-hand"
     transform="matrix(1.25,0,0,-1.25,0,363.08984)"><path
       d="m 0,0 179.78687,0 0,290.47187 L 0,290.47187 0,0 z"
       style="fill:#ffffff;fill-opacity:1;fill-rule:nonzero;stroke:none"
       id="path3030" /><path
       d="m 35.246875,12.035938 137.339995,0 0,266.400002 -137.339995,0 0,-266.400002 z"
       style="fill:#ffffff;fill-opacity:1;fill-rule:nonzero;stroke:none"
       id="path3032" /><g
       id="g3034"><g
         id="g3036"
         clip-path="url(#clipPath3038)"><path
           d="m 35.246875,12.035938 137.339995,0"
           style="fill:none;stroke:#e6e6e6;stroke-opacity:1;stroke-width:1;stroke-linecap:square;stroke-linejoin:round;stroke-miterlimit:10;stroke-dasharray:none"
           id="path3042" /></g></g><g
       id="g3044"><path
         d="m 35.246875,12.035938 0,0"
         style="fill:#000000;fill-opacity:1;fill-rule:nonzero;stroke:#000000;stroke-opacity:1;stroke-width:0.5;stroke-linecap:butt;stroke-linejoin:round;stroke-miterlimit:10;stroke-dasharray:none"
         id="path3046" /><text
         transform="matrix(1,0,0,-1,7.559375,9.278125)"
         id="text3048"><tspan
           style="fill:#000000;fill-opacity:1;fill-rule:nonzero;stroke:none;font-family:DejaVu Sans;font-variant:normal;font-weight:normal;font-size:10;writing-mode:lr;-inkscape-font-specification:DejaVuSans"
           x="0 6.36 12.72 19.08"
           y="0"
           sodipodi:role="line"
           id="tspan3050">1600</tspan></text>
</g><g
       id="g3052"><g
         id="g3054"
         clip-path="url(#clipPath3056)"><path
           d="m 35.246875,41.635938 137.339995,0"
           style="fill:none;stroke:#e6e6e6;stroke-opacity:1;stroke-width:1;stroke-linecap:square;stroke-linejoin:round;stroke-miterlimit:10;stroke-dasharray:none"
           id="path3060" /></g></g><g
       id="g3062"><path
         d="m 35.246875,41.635938 0,0"
         style="fill:#000000;fill-opacity:1;fill-rule:nonzero;stroke:#000000;stroke-opacity:1;stroke-width:0.5;stroke-linecap:butt;stroke-linejoin:round;stroke-miterlimit:10;stroke-dasharray:none"
         id="path3064" /><text
         transform="matrix(1,0,0,-1,7.559375,38.878125)"
         id="text3066"><tspan
           style="fill:#000000;fill-opacity:1;fill-rule:nonzero;stroke:none;font-family:DejaVu Sans;font-variant:normal;font-weight:normal;font-size:10;writing-mode:lr;-inkscape-font-specification:DejaVuSans"
           x="0 6.36 12.72 19.08"
           y="0"
           sodipodi:role="line"
           id="tspan3068">1650</tspan></text>
</g><g
       id="g3070"><g
         id="g3072"
         clip-path="url(#clipPath3074)"><path
           d="m 35.246875,71.235937 137.339995,0"
           style="fill:none;stroke:#e6e6e6;stroke-opacity:1;stroke-width:1;stroke-linecap:square;stroke-linejoin:round;stroke-miterlimit:10;stroke-dasharray:none"
           id="path3078" /></g></g><g
       id="g3080"><path
         d="m 35.246875,71.235937 0,0"
         style="fill:#000000;fill-opacity:1;fill-rule:nonzero;stroke:#000000;stroke-opacity:1;stroke-width:0.5;stroke-linecap:butt;stroke-linejoin:round;stroke-miterlimit:10;stroke-dasharray:none"
         id="path3082" /><text
         transform="matrix(1,0,0,-1,7.559375,68.478125)"
         id="text3084"><tspan
           style="fill:#000000;fill-opacity:1;fill-rule:nonzero;stroke:none;font-family:DejaVu Sans;font-variant:normal;font-weight:normal;font-size:10;writing-mode:lr;-inkscape-font-specification:DejaVuSans"
           x="0 6.36 12.72 19.08"
           y="0"
           sodipodi:role="line"
           id="tspan3086">1700</tspan></text>
</g><g
       id="g3088"><g
         id="g3090"
         clip-path="url(#clipPath3092)"><path
           d="m 35.246875,100.83594 137.339995,0"
           style="fill:none;stroke:#e6e6e6;stroke-opacity:1;stroke-width:1;stroke-linecap:square;stroke-linejoin:round;stroke-miterlimit:10;stroke-dasharray:none"
           id="path3096" /></g></g><g
       id="g3098"><path
         d="m 35.246875,100.83594 0,0"
         style="fill:#000000;fill-opacity:1;fill-rule:nonzero;stroke:#000000;stroke-opacity:1;stroke-width:0.5;stroke-linecap:butt;stroke-linejoin:round;stroke-miterlimit:10;stroke-dasharray:none"
         id="path3100" /><text
         transform="matrix(1,0,0,-1,7.559375,98.078125)"
         id="text3102"><tspan
           style="fill:#000000;fill-opacity:1;fill-rule:nonzero;stroke:none;font-family:DejaVu Sans;font-variant:normal;font-weight:normal;font-size:10;writing-mode:lr;-inkscape-font-specification:DejaVuSans"
           x="0 6.36 12.72 19.08"
           y="0"
           sodipodi:role="line"
           id="tspan3104">1750</tspan></text>
</g><g
       id="g3106"><g
         id="g3108"
         clip-path="url(#clipPath3110)"><path
           d="m 35.246875,130.43594 137.339995,0"
           style="fill:none;stroke:#e6e6e6;stroke-opacity:1;stroke-width:1;stroke-linecap:square;stroke-linejoin:round;stroke-miterlimit:10;stroke-dasharray:none"
           id="path3114" /></g></g><g
       id="g3116"><path
         d="m 35.246875,130.43594 0,0"
         style="fill:#000000;fill-opacity:1;fill-rule:nonzero;stroke:#000000;stroke-opacity:1;stroke-width:0.5;stroke-linecap:butt;stroke-linejoin:round;stroke-miterlimit:10;stroke-dasharray:none"
         id="path3118" /><text
         transform="matrix(1,0,0,-1,7.559375,127.67812)"
         id="text3120"><tspan
           style="fill:#000000;fill-opacity:1;fill-rule:nonzero;stroke:none;font-family:DejaVu Sans;font-variant:normal;font-weight:normal;font-size:10;writing-mode:lr;-inkscape-font-specification:DejaVuSans"
           x="0 6.36 12.72 19.08"
           y="0"
           sodipodi:role="line"
           id="tspan3122">1800</tspan></text>
</g><g
       id="g3124"><g
         id="g3126"
         clip-path="url(#clipPath3128)"><path
           d="m 35.246875,160.03594 137.339995,0"
           style="fill:none;stroke:#e6e6e6;stroke-opacity:1;stroke-width:1;stroke-linecap:square;stroke-linejoin:round;stroke-miterlimit:10;stroke-dasharray:none"
           id="path3132" /></g></g><g
       id="g3134"><path
         d="m 35.246875,160.03594 0,0"
         style="fill:#000000;fill-opacity:1;fill-rule:nonzero;stroke:#000000;stroke-opacity:1;stroke-width:0.5;stroke-linecap:butt;stroke-linejoin:round;stroke-miterlimit:10;stroke-dasharray:none"
         id="path3136" /><text
         transform="matrix(1,0,0,-1,7.559375,157.27812)"
         id="text3138"><tspan
           style="fill:#000000;fill-opacity:1;fill-rule:nonzero;stroke:none;font-family:DejaVu Sans;font-variant:normal;font-weight:normal;font-size:10;writing-mode:lr;-inkscape-font-specification:DejaVuSans"
           x="0 6.36 12.72 19.08"
           y="0"
           sodipodi:role="line"
           id="tspan3140">1850</tspan></text>
</g><g
       id="g3142"><g
         id="g3144"
         clip-path="url(#clipPath3146)"><path
           d="m 35.246875,189.63594 137.339995,0"
           style="fill:none;stroke:#e6e6e6;stroke-opacity:1;stroke-width:1;stroke-linecap:square;stroke-linejoin:round;stroke-miterlimit:10;stroke-dasharray:none"
           id="path3150" /></g></g><g
       id="g3152"><path
         d="m 35.246875,189.63594 0,0"
         style="fill:#000000;fill-opacity:1;fill-rule:nonzero;stroke:#000000;stroke-opacity:1;stroke-width:0.5;stroke-linecap:butt;stroke-linejoin:round;stroke-miterlimit:10;stroke-dasharray:none"
         id="path3154" /><text
         transform="matrix(1,0,0,-1,7.559375,186.87812)"
         id="text3156"><tspan
           style="fill:#000000;fill-opacity:1;fill-rule:nonzero;stroke:none;font-family:DejaVu Sans;font-variant:normal;font-weight:normal;font-size:10;writing-mode:lr;-inkscape-font-specification:DejaVuSans"
           x="0 6.36 12.72 19.08"
           y="0"
           sodipodi:role="line"
           id="tspan3158">1900</tspan></text>
</g><g
       id="g3160"><g
         id="g3162"
         clip-path="url(#clipPath3164)"><path
           d="m 35.246875,219.23594 137.339995,0"
           style="fill:none;stroke:#e6e6e6;stroke-opacity:1;stroke-width:1;stroke-linecap:square;stroke-linejoin:round;stroke-miterlimit:10;stroke-dasharray:none"
           id="path3168" /></g></g><g
       id="g3170"><path
         d="m 35.246875,219.23594 0,0"
         style="fill:#000000;fill-opacity:1;fill-rule:nonzero;stroke:#000000;stroke-opacity:1;stroke-width:0.5;stroke-linecap:butt;stroke-linejoin:round;stroke-miterlimit:10;stroke-dasharray:none"
         id="path3172" /><text
         transform="matrix(1,0,0,-1,7.559375,216.47812)"
         id="text3174"><tspan
           style="fill:#000000;fill-opacity:1;fill-rule:nonzero;stroke:none;font-family:DejaVu Sans;font-variant:normal;font-weight:normal;font-size:10;writing-mode:lr;-inkscape-font-specification:DejaVuSans"
           x="0 6.36 12.72 19.08"
           y="0"
           sodipodi:role="line"
           id="tspan3176">1950</tspan></text>
</g><g
       id="g3178"><g
         id="g3180"
         clip-path="url(#clipPath3182)"><path
           d="m 35.246875,248.83594 137.339995,0"
           style="fill:none;stroke:#e6e6e6;stroke-opacity:1;stroke-width:1;stroke-linecap:square;stroke-linejoin:round;stroke-miterlimit:10;stroke-dasharray:none"
           id="path3186" /></g></g><g
       id="g3188"><path
         d="m 35.246875,248.83594 0,0"
         style="fill:#000000;fill-opacity:1;fill-rule:nonzero;stroke:#000000;stroke-opacity:1;stroke-width:0.5;stroke-linecap:butt;stroke-linejoin:round;stroke-miterlimit:10;stroke-dasharray:none"
         id="path3190" /><text
         transform="matrix(1,0,0,-1,7.2,246.07812)"
         id="text3192"><tspan
           style="fill:#000000;fill-opacity:1;fill-rule:nonzero;stroke:none;font-family:DejaVu Sans;font-variant:normal;font-weight:normal;font-size:10;writing-mode:lr;-inkscape-font-specification:DejaVuSans"
           x="0 6.36 12.72 19.08"
           y="0"
           sodipodi:role="line"
           id="tspan3194">2000</tspan></text>
</g><g
       id="g3196"><g
         id="g3198"
         clip-path="url(#clipPath3200)"><path
           d="m 35.246875,278.43594 137.339995,0"
           style="fill:none;stroke:#e6e6e6;stroke-opacity:1;stroke-width:1;stroke-linecap:square;stroke-linejoin:round;stroke-miterlimit:10;stroke-dasharray:none"
           id="path3204" /></g></g><g
       id="g3206"><path
         d="m 35.246875,278.43594 0,0"
         style="fill:#000000;fill-opacity:1;fill-rule:nonzero;stroke:#000000;stroke-opacity:1;stroke-width:0.5;stroke-linecap:butt;stroke-linejoin:round;stroke-miterlimit:10;stroke-dasharray:none"
         id="path3208" /><text
         transform="matrix(1,0,0,-1,7.2,275.67812)"
         id="text3210"><tspan
           style="fill:#000000;fill-opacity:1;fill-rule:nonzero;stroke:none;font-family:DejaVu Sans;font-variant:normal;font-weight:normal;font-size:10;writing-mode:lr;-inkscape-font-specification:DejaVuSans"
           x="0 6.36 12.72 19.08"
           y="0"
           sodipodi:role="line"
           id="tspan3212">2050</tspan></text>
</g><g
       id="g3214"><g
         id="g3216"
         clip-path="url(#clipPath3218)" /></g><g
       id="g3222"><g
         id="g3224"
         clip-path="url(#clipPath3226)"><path
           d="m 39.824875,266.00394 13.734,0 -13.734,0 z"
           style="fill:#1b9e77;fill-opacity:1;fill-rule:nonzero;stroke:none"
           id="path3230" /></g></g><g
       id="g3232"><g
         id="g3234"
         clip-path="url(#clipPath3236)"><path
           d="m 39.824875,266.00394 13.734,0 0,2.368 -13.734,-2.368 z"
           style="fill:#1b9e77;fill-opacity:1;fill-rule:nonzero;stroke:none"
           id="path3240" /></g></g><g
       id="g3242"><g
         id="g3244"
         clip-path="url(#clipPath3246)"><path
           d="m 39.824875,266.00394 13.734,0 0,2.368 -13.734,0 0,-2.368 z"
           style="fill:#1b9e77;fill-opacity:1;fill-rule:nonzero;stroke:none"
           id="path3250" /></g></g><g
       id="g3252"><g
         id="g3254"
         clip-path="url(#clipPath3256)"><path
           d="m 39.824875,266.00394 13.734,0 0,2.368 -13.734,0 0,-2.368 z"
           style="fill:#1b9e77;fill-opacity:1;fill-rule:nonzero;stroke:none"
           id="path3260" /></g></g><g
       id="g3262"><g
         id="g3264"
         clip-path="url(#clipPath3266)" /></g><g
       id="g3270"><g
         id="g3272"
         clip-path="url(#clipPath3274)"><path
           d="m 62.714875,157.51994 13.734,0 -13.734,0 z"
           style="fill:#d95f02;fill-opacity:1;fill-rule:nonzero;stroke:none"
           id="path3278" /></g></g><g
       id="g3280"><g
         id="g3282"
         clip-path="url(#clipPath3284)"><path
           d="m 62.714875,157.51994 13.734,0 0,42.18 -13.734,-42.18 z"
           style="fill:#d95f02;fill-opacity:1;fill-rule:nonzero;stroke:none"
           id="path3288" /></g></g><g
       id="g3290"><g
         id="g3292"
         clip-path="url(#clipPath3294)"><path
           d="m 62.714875,157.51994 13.734,0 0,42.18 -13.734,0 0,-42.18 z"
           style="fill:#d95f02;fill-opacity:1;fill-rule:nonzero;stroke:none"
           id="path3298" /></g></g><g
       id="g3300"><g
         id="g3302"
         clip-path="url(#clipPath3304)"><path
           d="m 62.714875,157.51994 13.734,0 0,42.18 -13.734,0 0,-42.18 z"
           style="fill:#d95f02;fill-opacity:1;fill-rule:nonzero;stroke:none"
           id="path3308" /></g></g><g
       id="g3310"><g
         id="g3312"
         clip-path="url(#clipPath3314)" /></g><g
       id="g3318"><g
         id="g3320"
         clip-path="url(#clipPath3322)"><path
           d="m 85.604875,140.35194 13.734,0 -13.734,0 z"
           style="fill:#7570b3;fill-opacity:1;fill-rule:nonzero;stroke:none"
           id="path3326" /></g></g><g
       id="g3328"><g
         id="g3330"
         clip-path="url(#clipPath3332)"><path
           d="m 85.604875,140.35194 13.734,0 0,48.544 -13.734,-48.544 z"
           style="fill:#7570b3;fill-opacity:1;fill-rule:nonzero;stroke:none"
           id="path3336" /></g></g><g
       id="g3338"><g
         id="g3340"
         clip-path="url(#clipPath3342)"><path
           d="m 85.604875,140.35194 13.734,0 0,48.544 -13.734,0 0,-48.544 z"
           style="fill:#7570b3;fill-opacity:1;fill-rule:nonzero;stroke:none"
           id="path3346" /></g></g><g
       id="g3348"><g
         id="g3350"
         clip-path="url(#clipPath3352)"><path
           d="m 85.604875,140.35194 13.734,0 0,48.544 -13.734,0 0,-48.544 z"
           style="fill:#7570b3;fill-opacity:1;fill-rule:nonzero;stroke:none"
           id="path3356" /></g></g><g
       id="g3358"><g
         id="g3360"
         clip-path="url(#clipPath3362)" /></g><g
       id="g3366"><g
         id="g3368"
         clip-path="url(#clipPath3370)"><path
           d="m 108.49488,142.57194 13.73399,0 -13.73399,0 z"
           style="fill:#e7298a;fill-opacity:1;fill-rule:nonzero;stroke:none"
           id="path3374" /></g></g><g
       id="g3376"><g
         id="g3378"
         clip-path="url(#clipPath3380)"><path
           d="m 108.49488,142.57194 13.73399,0 0,38.628 -13.73399,-38.628 z"
           style="fill:#e7298a;fill-opacity:1;fill-rule:nonzero;stroke:none"
           id="path3384" /></g></g><g
       id="g3386"><g
         id="g3388"
         clip-path="url(#clipPath3390)"><path
           d="m 108.49488,142.57194 13.73399,0 0,38.628 -13.73399,0 0,-38.628 z"
           style="fill:#e7298a;fill-opacity:1;fill-rule:nonzero;stroke:none"
           id="path3394" /></g></g><g
       id="g3396"><g
         id="g3398"
         clip-path="url(#clipPath3400)"><path
           d="m 108.49488,142.57194 13.73399,0 0,38.628 -13.73399,0 0,-38.628 z"
           style="fill:#e7298a;fill-opacity:1;fill-rule:nonzero;stroke:none"
           id="path3404" /></g></g><g
       id="g3406"><g
         id="g3408"
         clip-path="url(#clipPath3410)" /></g><g
       id="g3414"><g
         id="g3416"
         clip-path="url(#clipPath3418)"><path
           d="m 131.38487,14.551938 13.734,0 -13.734,0 z"
           style="fill:#66a61e;fill-opacity:1;fill-rule:nonzero;stroke:none"
           id="path3422" /></g></g><g
       id="g3424"><g
         id="g3426"
         clip-path="url(#clipPath3428)"><path
           d="m 131.38487,14.551938 13.734,0 0,109.520002 -13.734,-109.520002 z"
           style="fill:#66a61e;fill-opacity:1;fill-rule:nonzero;stroke:none"
           id="path3432" /></g></g><g
       id="g3434"><g
         id="g3436"
         clip-path="url(#clipPath3438)"><path
           d="m 131.38487,14.551938 13.734,0 0,109.520002 -13.734,0 0,-109.520002 z"
           style="fill:#66a61e;fill-opacity:1;fill-rule:nonzero;stroke:none"
           id="path3442" /></g></g><g
       id="g3444"><g
         id="g3446"
         clip-path="url(#clipPath3448)"><path
           d="m 131.38487,14.551938 13.734,0 0,109.520002 -13.734,0 0,-109.520002 z"
           style="fill:#66a61e;fill-opacity:1;fill-rule:nonzero;stroke:none"
           id="path3452" /></g></g><g
       id="g3454"><g
         id="g3456"
         clip-path="url(#clipPath3458)" /></g><g
       id="g3462"><g
         id="g3464"
         clip-path="url(#clipPath3466)"><path
           d="m 154.27487,181.93994 13.734,0 -13.734,0 z"
           style="fill:#e6ab02;fill-opacity:1;fill-rule:nonzero;stroke:none"
           id="path3470" /></g></g><g
       id="g3472"><g
         id="g3474"
         clip-path="url(#clipPath3476)"><path
           d="m 154.27487,181.93994 13.734,0 0,29.156 -13.734,-29.156 z"
           style="fill:#e6ab02;fill-opacity:1;fill-rule:nonzero;stroke:none"
           id="path3480" /></g></g><g
       id="g3482"><g
         id="g3484"
         clip-path="url(#clipPath3486)"><path
           d="m 154.27487,181.93994 13.734,0 0,29.156 -13.734,0 0,-29.156 z"
           style="fill:#e6ab02;fill-opacity:1;fill-rule:nonzero;stroke:none"
           id="path3490" /></g></g><g
       id="g3492"><g
         id="g3494"
         clip-path="url(#clipPath3496)"><path
           d="m 154.27487,181.93994 13.734,0 0,29.156 -13.734,0 0,-29.156 z"
           style="fill:#e6ab02;fill-opacity:1;fill-rule:nonzero;stroke:none"
           id="path3500" /></g></g><g
       id="g3502"><g
         id="g3504"
         clip-path="url(#clipPath3506)"><path
           d="m 46.691875,266.00394 0,0"
           style="fill:none;stroke:#1b9e77;stroke-opacity:1;stroke-width:2;stroke-linecap:butt;stroke-linejoin:round;stroke-miterlimit:10;stroke-dasharray:6,6;stroke-dashoffset:0"
           id="path3510" /></g></g><g
       id="g3512"><g
         id="g3514"
         clip-path="url(#clipPath3516)"><path
           d="m 46.691875,268.37194 0,0"
           style="fill:none;stroke:#1b9e77;stroke-opacity:1;stroke-width:2;stroke-linecap:butt;stroke-linejoin:round;stroke-miterlimit:10;stroke-dasharray:6,6;stroke-dashoffset:0"
           id="path3520" /></g></g><g
       id="g3522"><g
         id="g3524"
         clip-path="url(#clipPath3526)" /></g><g
       id="g3530"><g
         id="g3532"
         clip-path="url(#clipPath3534)" /></g><g
       id="g3538"><g
         id="g3540"
         clip-path="url(#clipPath3542)" /></g><g
       id="g3546"><g
         id="g3548"
         clip-path="url(#clipPath3550)"><path
           d="m 39.824875,267.18794 13.734,0"
           style="fill:none;stroke:#000000;stroke-opacity:1;stroke-width:3;stroke-linecap:square;stroke-linejoin:round;stroke-miterlimit:10;stroke-dasharray:none"
           id="path3554" /></g></g><g
       id="g3556"><g
         id="g3558"
         clip-path="url(#clipPath3560)"><path
           d="m 69.581875,157.51994 0,0"
           style="fill:none;stroke:#d95f02;stroke-opacity:1;stroke-width:2;stroke-linecap:butt;stroke-linejoin:round;stroke-miterlimit:10;stroke-dasharray:6,6;stroke-dashoffset:0"
           id="path3564" /></g></g><g
       id="g3566"><g
         id="g3568"
         clip-path="url(#clipPath3570)"><path
           d="m 69.581875,199.69994 0,0"
           style="fill:none;stroke:#d95f02;stroke-opacity:1;stroke-width:2;stroke-linecap:butt;stroke-linejoin:round;stroke-miterlimit:10;stroke-dasharray:6,6;stroke-dashoffset:0"
           id="path3574" /></g></g><g
       id="g3576"><g
         id="g3578"
         clip-path="url(#clipPath3580)" /></g><g
       id="g3584"><g
         id="g3586"
         clip-path="url(#clipPath3588)" /></g><g
       id="g3592"><g
         id="g3594"
         clip-path="url(#clipPath3596)" /></g><g
       id="g3600"><g
         id="g3602"
         clip-path="url(#clipPath3604)"><path
           d="m 62.714875,176.61194 13.734,0"
           style="fill:none;stroke:#000000;stroke-opacity:1;stroke-width:3;stroke-linecap:square;stroke-linejoin:round;stroke-miterlimit:10;stroke-dasharray:none"
           id="path3608" /></g></g><g
       id="g3610"><g
         id="g3612"
         clip-path="url(#clipPath3614)"><path
           d="m 92.471875,140.35194 0,0"
           style="fill:none;stroke:#7570b3;stroke-opacity:1;stroke-width:2;stroke-linecap:butt;stroke-linejoin:round;stroke-miterlimit:10;stroke-dasharray:6,6;stroke-dashoffset:0"
           id="path3618" /></g></g><g
       id="g3620"><g
         id="g3622"
         clip-path="url(#clipPath3624)"><path
           d="m 92.471875,188.89594 0,0"
           style="fill:none;stroke:#7570b3;stroke-opacity:1;stroke-width:2;stroke-linecap:butt;stroke-linejoin:round;stroke-miterlimit:10;stroke-dasharray:6,6;stroke-dashoffset:0"
           id="path3628" /></g></g><g
       id="g3630"><g
         id="g3632"
         clip-path="url(#clipPath3634)" /></g><g
       id="g3638"><g
         id="g3640"
         clip-path="url(#clipPath3642)" /></g><g
       id="g3646"><g
         id="g3648"
         clip-path="url(#clipPath3650)" /></g><g
       id="g3654"><g
         id="g3656"
         clip-path="url(#clipPath3658)"><path
           d="m 85.604875,164.47594 13.734,0"
           style="fill:none;stroke:#000000;stroke-opacity:1;stroke-width:3;stroke-linecap:square;stroke-linejoin:round;stroke-miterlimit:10;stroke-dasharray:none"
           id="path3662" /></g></g><g
       id="g3664"><g
         id="g3666"
         clip-path="url(#clipPath3668)"><path
           d="m 115.36187,142.57194 0,0"
           style="fill:none;stroke:#e7298a;stroke-opacity:1;stroke-width:2;stroke-linecap:butt;stroke-linejoin:round;stroke-miterlimit:10;stroke-dasharray:6,6;stroke-dashoffset:0"
           id="path3672" /></g></g><g
       id="g3674"><g
         id="g3676"
         clip-path="url(#clipPath3678)"><path
           d="m 115.36187,181.19994 0,0"
           style="fill:none;stroke:#e7298a;stroke-opacity:1;stroke-width:2;stroke-linecap:butt;stroke-linejoin:round;stroke-miterlimit:10;stroke-dasharray:6,6;stroke-dashoffset:0"
           id="path3682" /></g></g><g
       id="g3684"><g
         id="g3686"
         clip-path="url(#clipPath3688)" /></g><g
       id="g3692"><g
         id="g3694"
         clip-path="url(#clipPath3696)" /></g><g
       id="g3700"><g
         id="g3702"
         clip-path="url(#clipPath3704)" /></g><g
       id="g3708"><g
         id="g3710"
         clip-path="url(#clipPath3712)"><path
           d="m 108.49488,159.44394 13.73399,0"
           style="fill:none;stroke:#000000;stroke-opacity:1;stroke-width:3;stroke-linecap:square;stroke-linejoin:round;stroke-miterlimit:10;stroke-dasharray:none"
           id="path3716" /></g></g><g
       id="g3718"><g
         id="g3720"
         clip-path="url(#clipPath3722)"><path
           d="m 138.25187,14.551938 0,0"
           style="fill:none;stroke:#66a61e;stroke-opacity:1;stroke-width:2;stroke-linecap:butt;stroke-linejoin:round;stroke-miterlimit:10;stroke-dasharray:6,6;stroke-dashoffset:0"
           id="path3726" /></g></g><g
       id="g3728"><g
         id="g3730"
         clip-path="url(#clipPath3732)"><path
           d="m 138.25187,124.07194 0,0"
           style="fill:none;stroke:#66a61e;stroke-opacity:1;stroke-width:2;stroke-linecap:butt;stroke-linejoin:round;stroke-miterlimit:10;stroke-dasharray:6,6;stroke-dashoffset:0"
           id="path3736" /></g></g><g
       id="g3738"><g
         id="g3740"
         clip-path="url(#clipPath3742)" /></g><g
       id="g3746"><g
         id="g3748"
         clip-path="url(#clipPath3750)" /></g><g
       id="g3754"><g
         id="g3756"
         clip-path="url(#clipPath3758)" /></g><g
       id="g3762"><g
         id="g3764"
         clip-path="url(#clipPath3766)"><path
           d="m 131.38487,37.787937 13.734,0"
           style="fill:none;stroke:#000000;stroke-opacity:1;stroke-width:3;stroke-linecap:square;stroke-linejoin:round;stroke-miterlimit:10;stroke-dasharray:none"
           id="path3770" /></g></g><g
       id="g3772"><g
         id="g3774"
         clip-path="url(#clipPath3776)"><path
           d="m 161.14187,181.93994 0,0"
           style="fill:none;stroke:#e6ab02;stroke-opacity:1;stroke-width:2;stroke-linecap:butt;stroke-linejoin:round;stroke-miterlimit:10;stroke-dasharray:6,6;stroke-dashoffset:0"
           id="path3780" /></g></g><g
       id="g3782"><g
         id="g3784"
         clip-path="url(#clipPath3786)"><path
           d="m 161.14187,211.09594 0,0"
           style="fill:none;stroke:#e6ab02;stroke-opacity:1;stroke-width:2;stroke-linecap:butt;stroke-linejoin:round;stroke-miterlimit:10;stroke-dasharray:6,6;stroke-dashoffset:0"
           id="path3790" /></g></g><g
       id="g3792"><g
         id="g3794"
         clip-path="url(#clipPath3796)" /></g><g
       id="g3800"><g
         id="g3802"
         clip-path="url(#clipPath3804)" /></g><g
       id="g3808"><g
         id="g3810"
         clip-path="url(#clipPath3812)" /></g><g
       id="g3816"><g
         id="g3818"
         clip-path="url(#clipPath3820)"><path
           d="m 154.27487,195.85194 13.734,0"
           style="fill:none;stroke:#000000;stroke-opacity:1;stroke-width:3;stroke-linecap:square;stroke-linejoin:round;stroke-miterlimit:10;stroke-dasharray:none"
           id="path3824" /></g></g><g
       id="g3826"><path
         d="m 35.246875,12.035938 137.339995,0"
         style="fill:none;stroke:#000000;stroke-opacity:1;stroke-width:1;stroke-linecap:butt;stroke-linejoin:round;stroke-miterlimit:10;stroke-dasharray:none"
         id="path3828" /><path
         d="m 138.25187,183.19834 0,2.5796 -22.89,0 0,-2.5796"
         style="fill:none;stroke:#aaaaaa;stroke-opacity:1;stroke-width:1;stroke-linecap:round;stroke-linejoin:round;stroke-miterlimit:10;stroke-dasharray:none"
         id="path3830" /><path
         d="m 161.14187,213.09434 0,7.1576 -45.78,0 0,-7.1576"
         style="fill:none;stroke:#aaaaaa;stroke-opacity:1;stroke-width:1;stroke-linecap:round;stroke-linejoin:round;stroke-miterlimit:10;stroke-dasharray:none"
         id="path3832" /></g><text
       xml:space="preserve"
       style="font-size:17.60000038px;font-style:normal;font-variant:normal;font-weight:normal;font-stretch:normal;text-align:start;line-height:125%;letter-spacing:0px;word-spacing:0px;writing-mode:lr-tb;text-anchor:start;fill:#000000;fill-opacity:1;stroke:none;font-family:Sans;-inkscape-font-specification:Sans"
       x="117.16512"
       y="-184.81404"
       id="text3834"
       sodipodi:linespacing="125%"
       transform="scale(1,-1)"><tspan
         sodipodi:role="line"
         id="tspan3836"
         x="117.16512"
         y="-184.81404"
         style="font-size:9.60000038px;font-style:normal;font-variant:normal;font-weight:normal;font-stretch:normal;text-align:start;line-height:125%;writing-mode:lr-tb;text-anchor:start;font-family:Sans;-inkscape-font-specification:Sans">****</tspan></text>
<text
       xml:space="preserve"
       style="font-size:17.60000038px;font-style:normal;font-variant:normal;font-weight:normal;font-stretch:normal;text-align:start;line-height:125%;letter-spacing:0px;word-spacing:0px;writing-mode:lr-tb;text-anchor:start;fill:#000000;fill-opacity:1;stroke:none;font-family:Sans;-inkscape-font-specification:Sans"
       x="134.25171"
       y="-219.6846"
       id="text3838"
       sodipodi:linespacing="125%"
       transform="scale(1,-1)"><tspan
         sodipodi:role="line"
         id="tspan3840"
         x="134.25171"
         y="-219.6846"
         style="font-size:9.60000038px;font-style:normal;font-variant:normal;font-weight:normal;font-stretch:normal;text-align:start;line-height:125%;writing-mode:lr-tb;text-anchor:start;font-family:Sans;-inkscape-font-specification:Sans">**</tspan></text>
</g></svg>